<?xml version="1.0" encoding="utf-8" standalone="no"?>
<!DOCTYPE svg PUBLIC "-//W3C//DTD SVG 1.1//EN"
  "http://www.w3.org/Graphics/SVG/1.1/DTD/svg11.dtd">
<!-- Created with matplotlib (https://matplotlib.org/) -->
<svg height="432pt" version="1.1" viewBox="0 0 576 432" width="576pt" xmlns="http://www.w3.org/2000/svg" xmlns:xlink="http://www.w3.org/1999/xlink">
 <metadata>
  <rdf:RDF xmlns:cc="http://creativecommons.org/ns#" xmlns:dc="http://purl.org/dc/elements/1.1/" xmlns:rdf="http://www.w3.org/1999/02/22-rdf-syntax-ns#">
   <cc:Work>
    <dc:type rdf:resource="http://purl.org/dc/dcmitype/StillImage"/>
    <dc:date>2021-11-12T17:35:21.360458</dc:date>
    <dc:format>image/svg+xml</dc:format>
    <dc:creator>
     <cc:Agent>
      <dc:title>Matplotlib v3.3.2, https://matplotlib.org/</dc:title>
     </cc:Agent>
    </dc:creator>
   </cc:Work>
  </rdf:RDF>
 </metadata>
 <defs>
  <style type="text/css">*{stroke-linecap:butt;stroke-linejoin:round;}</style>
 </defs>
 <g id="figure_1">
  <g id="patch_1">
   <path d="M 0 432 
L 576 432 
L 576 0 
L 0 0 
z
" style="fill:none;"/>
  </g>
  <g id="axes_1">
   <g id="patch_2">
    <path d="M 72 378 
L 518.4 378 
L 518.4 51.84 
L 72 51.84 
z
" style="fill:#ffffff;"/>
   </g>
   <g id="PathCollection_1">
    <defs>
     <path d="M -3 3 
L 3 -3 
M -3 -3 
L 3 3 
" id="m18c0bc880b" style="stroke:#000000;stroke-width:1.5;"/>
    </defs>
    <g clip-path="url(#p00c525d458)">
     <use style="stroke:#000000;stroke-width:1.5;" x="141.160563" xlink:href="#m18c0bc880b" y="218.316483"/>
     <use style="stroke:#000000;stroke-width:1.5;" x="153.735211" xlink:href="#m18c0bc880b" y="237.01434"/>
     <use style="stroke:#000000;stroke-width:1.5;" x="166.309859" xlink:href="#m18c0bc880b" y="249.463842"/>
     <use style="stroke:#000000;stroke-width:1.5;" x="178.884507" xlink:href="#m18c0bc880b" y="256.352163"/>
     <use style="stroke:#000000;stroke-width:1.5;" x="191.459155" xlink:href="#m18c0bc880b" y="261.477088"/>
     <use style="stroke:#000000;stroke-width:1.5;" x="204.033803" xlink:href="#m18c0bc880b" y="264.877725"/>
     <use style="stroke:#000000;stroke-width:1.5;" x="216.608451" xlink:href="#m18c0bc880b" y="267.517275"/>
     <use style="stroke:#000000;stroke-width:1.5;" x="229.183099" xlink:href="#m18c0bc880b" y="270.008786"/>
     <use style="stroke:#000000;stroke-width:1.5;" x="241.757746" xlink:href="#m18c0bc880b" y="271.272815"/>
     <use style="stroke:#000000;stroke-width:1.5;" x="254.332394" xlink:href="#m18c0bc880b" y="272.872039"/>
     <use style="stroke:#000000;stroke-width:1.5;" x="266.907042" xlink:href="#m18c0bc880b" y="274.227515"/>
     <use style="stroke:#000000;stroke-width:1.5;" x="279.48169" xlink:href="#m18c0bc880b" y="275.269833"/>
     <use style="stroke:#000000;stroke-width:1.5;" x="292.056338" xlink:href="#m18c0bc880b" y="275.545832"/>
     <use style="stroke:#000000;stroke-width:1.5;" x="304.630986" xlink:href="#m18c0bc880b" y="275.831252"/>
     <use style="stroke:#000000;stroke-width:1.5;" x="317.205634" xlink:href="#m18c0bc880b" y="276.888095"/>
     <use style="stroke:#000000;stroke-width:1.5;" x="329.780282" xlink:href="#m18c0bc880b" y="277.277083"/>
     <use style="stroke:#000000;stroke-width:1.5;" x="342.35493" xlink:href="#m18c0bc880b" y="277.646409"/>
     <use style="stroke:#000000;stroke-width:1.5;" x="354.929577" xlink:href="#m18c0bc880b" y="277.88799"/>
     <use style="stroke:#000000;stroke-width:1.5;" x="367.504225" xlink:href="#m18c0bc880b" y="278.188061"/>
     <use style="stroke:#000000;stroke-width:1.5;" x="380.078873" xlink:href="#m18c0bc880b" y="278.752265"/>
     <use style="stroke:#000000;stroke-width:1.5;" x="392.653521" xlink:href="#m18c0bc880b" y="279.150287"/>
     <use style="stroke:#000000;stroke-width:1.5;" x="405.228169" xlink:href="#m18c0bc880b" y="279.469751"/>
     <use style="stroke:#000000;stroke-width:1.5;" x="417.802817" xlink:href="#m18c0bc880b" y="280.842285"/>
     <use style="stroke:#000000;stroke-width:1.5;" x="430.377465" xlink:href="#m18c0bc880b" y="279.896477"/>
     <use style="stroke:#000000;stroke-width:1.5;" x="442.952113" xlink:href="#m18c0bc880b" y="279.567302"/>
    </g>
   </g>
   <g id="matplotlib.axis_1">
    <g id="xtick_1">
     <g id="line2d_1">
      <defs>
       <path d="M 0 0 
L 0 3.5 
" id="mf41131358c" style="stroke:#000000;stroke-width:0.8;"/>
      </defs>
      <g>
       <use style="stroke:#000000;stroke-width:0.8;" x="78.287324" xlink:href="#mf41131358c" y="378"/>
      </g>
     </g>
     <g id="text_1">
      <!-- 0 -->
      <g transform="translate(75.106074 392.598437)scale(0.1 -0.1)">
       <defs>
        <path d="M 31.78125 66.40625 
Q 24.171875 66.40625 20.328125 58.90625 
Q 16.5 51.421875 16.5 36.375 
Q 16.5 21.390625 20.328125 13.890625 
Q 24.171875 6.390625 31.78125 6.390625 
Q 39.453125 6.390625 43.28125 13.890625 
Q 47.125 21.390625 47.125 36.375 
Q 47.125 51.421875 43.28125 58.90625 
Q 39.453125 66.40625 31.78125 66.40625 
z
M 31.78125 74.21875 
Q 44.046875 74.21875 50.515625 64.515625 
Q 56.984375 54.828125 56.984375 36.375 
Q 56.984375 17.96875 50.515625 8.265625 
Q 44.046875 -1.421875 31.78125 -1.421875 
Q 19.53125 -1.421875 13.0625 8.265625 
Q 6.59375 17.96875 6.59375 36.375 
Q 6.59375 54.828125 13.0625 64.515625 
Q 19.53125 74.21875 31.78125 74.21875 
z
" id="DejaVuSans-48"/>
       </defs>
       <use xlink:href="#DejaVuSans-48"/>
      </g>
     </g>
    </g>
    <g id="xtick_2">
     <g id="line2d_2">
      <g>
       <use style="stroke:#000000;stroke-width:0.8;" x="141.160563" xlink:href="#mf41131358c" y="378"/>
      </g>
     </g>
     <g id="text_2">
      <!-- 5 -->
      <g transform="translate(137.979313 392.598437)scale(0.1 -0.1)">
       <defs>
        <path d="M 10.796875 72.90625 
L 49.515625 72.90625 
L 49.515625 64.59375 
L 19.828125 64.59375 
L 19.828125 46.734375 
Q 21.96875 47.46875 24.109375 47.828125 
Q 26.265625 48.1875 28.421875 48.1875 
Q 40.625 48.1875 47.75 41.5 
Q 54.890625 34.8125 54.890625 23.390625 
Q 54.890625 11.625 47.5625 5.09375 
Q 40.234375 -1.421875 26.90625 -1.421875 
Q 22.3125 -1.421875 17.546875 -0.640625 
Q 12.796875 0.140625 7.71875 1.703125 
L 7.71875 11.625 
Q 12.109375 9.234375 16.796875 8.0625 
Q 21.484375 6.890625 26.703125 6.890625 
Q 35.15625 6.890625 40.078125 11.328125 
Q 45.015625 15.765625 45.015625 23.390625 
Q 45.015625 31 40.078125 35.4375 
Q 35.15625 39.890625 26.703125 39.890625 
Q 22.75 39.890625 18.8125 39.015625 
Q 14.890625 38.140625 10.796875 36.28125 
z
" id="DejaVuSans-53"/>
       </defs>
       <use xlink:href="#DejaVuSans-53"/>
      </g>
     </g>
    </g>
    <g id="xtick_3">
     <g id="line2d_3">
      <g>
       <use style="stroke:#000000;stroke-width:0.8;" x="204.033803" xlink:href="#mf41131358c" y="378"/>
      </g>
     </g>
     <g id="text_3">
      <!-- 10 -->
      <g transform="translate(197.671303 392.598437)scale(0.1 -0.1)">
       <defs>
        <path d="M 12.40625 8.296875 
L 28.515625 8.296875 
L 28.515625 63.921875 
L 10.984375 60.40625 
L 10.984375 69.390625 
L 28.421875 72.90625 
L 38.28125 72.90625 
L 38.28125 8.296875 
L 54.390625 8.296875 
L 54.390625 0 
L 12.40625 0 
z
" id="DejaVuSans-49"/>
       </defs>
       <use xlink:href="#DejaVuSans-49"/>
       <use x="63.623047" xlink:href="#DejaVuSans-48"/>
      </g>
     </g>
    </g>
    <g id="xtick_4">
     <g id="line2d_4">
      <g>
       <use style="stroke:#000000;stroke-width:0.8;" x="266.907042" xlink:href="#mf41131358c" y="378"/>
      </g>
     </g>
     <g id="text_4">
      <!-- 15 -->
      <g transform="translate(260.544542 392.598437)scale(0.1 -0.1)">
       <use xlink:href="#DejaVuSans-49"/>
       <use x="63.623047" xlink:href="#DejaVuSans-53"/>
      </g>
     </g>
    </g>
    <g id="xtick_5">
     <g id="line2d_5">
      <g>
       <use style="stroke:#000000;stroke-width:0.8;" x="329.780282" xlink:href="#mf41131358c" y="378"/>
      </g>
     </g>
     <g id="text_5">
      <!-- 20 -->
      <g transform="translate(323.417782 392.598437)scale(0.1 -0.1)">
       <defs>
        <path d="M 19.1875 8.296875 
L 53.609375 8.296875 
L 53.609375 0 
L 7.328125 0 
L 7.328125 8.296875 
Q 12.9375 14.109375 22.625 23.890625 
Q 32.328125 33.6875 34.8125 36.53125 
Q 39.546875 41.84375 41.421875 45.53125 
Q 43.3125 49.21875 43.3125 52.78125 
Q 43.3125 58.59375 39.234375 62.25 
Q 35.15625 65.921875 28.609375 65.921875 
Q 23.96875 65.921875 18.8125 64.3125 
Q 13.671875 62.703125 7.8125 59.421875 
L 7.8125 69.390625 
Q 13.765625 71.78125 18.9375 73 
Q 24.125 74.21875 28.421875 74.21875 
Q 39.75 74.21875 46.484375 68.546875 
Q 53.21875 62.890625 53.21875 53.421875 
Q 53.21875 48.921875 51.53125 44.890625 
Q 49.859375 40.875 45.40625 35.40625 
Q 44.1875 33.984375 37.640625 27.21875 
Q 31.109375 20.453125 19.1875 8.296875 
z
" id="DejaVuSans-50"/>
       </defs>
       <use xlink:href="#DejaVuSans-50"/>
       <use x="63.623047" xlink:href="#DejaVuSans-48"/>
      </g>
     </g>
    </g>
    <g id="xtick_6">
     <g id="line2d_6">
      <g>
       <use style="stroke:#000000;stroke-width:0.8;" x="392.653521" xlink:href="#mf41131358c" y="378"/>
      </g>
     </g>
     <g id="text_6">
      <!-- 25 -->
      <g transform="translate(386.291021 392.598437)scale(0.1 -0.1)">
       <use xlink:href="#DejaVuSans-50"/>
       <use x="63.623047" xlink:href="#DejaVuSans-53"/>
      </g>
     </g>
    </g>
    <g id="xtick_7">
     <g id="line2d_7">
      <g>
       <use style="stroke:#000000;stroke-width:0.8;" x="455.526761" xlink:href="#mf41131358c" y="378"/>
      </g>
     </g>
     <g id="text_7">
      <!-- 30 -->
      <g transform="translate(449.164261 392.598437)scale(0.1 -0.1)">
       <defs>
        <path d="M 40.578125 39.3125 
Q 47.65625 37.796875 51.625 33 
Q 55.609375 28.21875 55.609375 21.1875 
Q 55.609375 10.40625 48.1875 4.484375 
Q 40.765625 -1.421875 27.09375 -1.421875 
Q 22.515625 -1.421875 17.65625 -0.515625 
Q 12.796875 0.390625 7.625 2.203125 
L 7.625 11.71875 
Q 11.71875 9.328125 16.59375 8.109375 
Q 21.484375 6.890625 26.8125 6.890625 
Q 36.078125 6.890625 40.9375 10.546875 
Q 45.796875 14.203125 45.796875 21.1875 
Q 45.796875 27.640625 41.28125 31.265625 
Q 36.765625 34.90625 28.71875 34.90625 
L 20.21875 34.90625 
L 20.21875 43.015625 
L 29.109375 43.015625 
Q 36.375 43.015625 40.234375 45.921875 
Q 44.09375 48.828125 44.09375 54.296875 
Q 44.09375 59.90625 40.109375 62.90625 
Q 36.140625 65.921875 28.71875 65.921875 
Q 24.65625 65.921875 20.015625 65.03125 
Q 15.375 64.15625 9.8125 62.3125 
L 9.8125 71.09375 
Q 15.4375 72.65625 20.34375 73.4375 
Q 25.25 74.21875 29.59375 74.21875 
Q 40.828125 74.21875 47.359375 69.109375 
Q 53.90625 64.015625 53.90625 55.328125 
Q 53.90625 49.265625 50.4375 45.09375 
Q 46.96875 40.921875 40.578125 39.3125 
z
" id="DejaVuSans-51"/>
       </defs>
       <use xlink:href="#DejaVuSans-51"/>
       <use x="63.623047" xlink:href="#DejaVuSans-48"/>
      </g>
     </g>
    </g>
    <g id="xtick_8">
     <g id="line2d_8">
      <g>
       <use style="stroke:#000000;stroke-width:0.8;" x="518.4" xlink:href="#mf41131358c" y="378"/>
      </g>
     </g>
     <g id="text_8">
      <!-- 35 -->
      <g transform="translate(512.0375 392.598437)scale(0.1 -0.1)">
       <use xlink:href="#DejaVuSans-51"/>
       <use x="63.623047" xlink:href="#DejaVuSans-53"/>
      </g>
     </g>
    </g>
    <g id="text_9">
     <!-- Number of Data Points -->
     <g transform="translate(181.946875 413.875)scale(0.2 -0.2)">
      <defs>
       <path d="M 9.8125 72.90625 
L 23.09375 72.90625 
L 55.421875 11.921875 
L 55.421875 72.90625 
L 64.984375 72.90625 
L 64.984375 0 
L 51.703125 0 
L 19.390625 60.984375 
L 19.390625 0 
L 9.8125 0 
z
" id="DejaVuSans-78"/>
       <path d="M 8.5 21.578125 
L 8.5 54.6875 
L 17.484375 54.6875 
L 17.484375 21.921875 
Q 17.484375 14.15625 20.5 10.265625 
Q 23.53125 6.390625 29.59375 6.390625 
Q 36.859375 6.390625 41.078125 11.03125 
Q 45.3125 15.671875 45.3125 23.6875 
L 45.3125 54.6875 
L 54.296875 54.6875 
L 54.296875 0 
L 45.3125 0 
L 45.3125 8.40625 
Q 42.046875 3.421875 37.71875 1 
Q 33.40625 -1.421875 27.6875 -1.421875 
Q 18.265625 -1.421875 13.375 4.4375 
Q 8.5 10.296875 8.5 21.578125 
z
M 31.109375 56 
z
" id="DejaVuSans-117"/>
       <path d="M 52 44.1875 
Q 55.375 50.25 60.0625 53.125 
Q 64.75 56 71.09375 56 
Q 79.640625 56 84.28125 50.015625 
Q 88.921875 44.046875 88.921875 33.015625 
L 88.921875 0 
L 79.890625 0 
L 79.890625 32.71875 
Q 79.890625 40.578125 77.09375 44.375 
Q 74.3125 48.1875 68.609375 48.1875 
Q 61.625 48.1875 57.5625 43.546875 
Q 53.515625 38.921875 53.515625 30.90625 
L 53.515625 0 
L 44.484375 0 
L 44.484375 32.71875 
Q 44.484375 40.625 41.703125 44.40625 
Q 38.921875 48.1875 33.109375 48.1875 
Q 26.21875 48.1875 22.15625 43.53125 
Q 18.109375 38.875 18.109375 30.90625 
L 18.109375 0 
L 9.078125 0 
L 9.078125 54.6875 
L 18.109375 54.6875 
L 18.109375 46.1875 
Q 21.1875 51.21875 25.484375 53.609375 
Q 29.78125 56 35.6875 56 
Q 41.65625 56 45.828125 52.96875 
Q 50 49.953125 52 44.1875 
z
" id="DejaVuSans-109"/>
       <path d="M 48.6875 27.296875 
Q 48.6875 37.203125 44.609375 42.84375 
Q 40.53125 48.484375 33.40625 48.484375 
Q 26.265625 48.484375 22.1875 42.84375 
Q 18.109375 37.203125 18.109375 27.296875 
Q 18.109375 17.390625 22.1875 11.75 
Q 26.265625 6.109375 33.40625 6.109375 
Q 40.53125 6.109375 44.609375 11.75 
Q 48.6875 17.390625 48.6875 27.296875 
z
M 18.109375 46.390625 
Q 20.953125 51.265625 25.265625 53.625 
Q 29.59375 56 35.59375 56 
Q 45.5625 56 51.78125 48.09375 
Q 58.015625 40.1875 58.015625 27.296875 
Q 58.015625 14.40625 51.78125 6.484375 
Q 45.5625 -1.421875 35.59375 -1.421875 
Q 29.59375 -1.421875 25.265625 0.953125 
Q 20.953125 3.328125 18.109375 8.203125 
L 18.109375 0 
L 9.078125 0 
L 9.078125 75.984375 
L 18.109375 75.984375 
z
" id="DejaVuSans-98"/>
       <path d="M 56.203125 29.59375 
L 56.203125 25.203125 
L 14.890625 25.203125 
Q 15.484375 15.921875 20.484375 11.0625 
Q 25.484375 6.203125 34.421875 6.203125 
Q 39.59375 6.203125 44.453125 7.46875 
Q 49.3125 8.734375 54.109375 11.28125 
L 54.109375 2.78125 
Q 49.265625 0.734375 44.1875 -0.34375 
Q 39.109375 -1.421875 33.890625 -1.421875 
Q 20.796875 -1.421875 13.15625 6.1875 
Q 5.515625 13.8125 5.515625 26.8125 
Q 5.515625 40.234375 12.765625 48.109375 
Q 20.015625 56 32.328125 56 
Q 43.359375 56 49.78125 48.890625 
Q 56.203125 41.796875 56.203125 29.59375 
z
M 47.21875 32.234375 
Q 47.125 39.59375 43.09375 43.984375 
Q 39.0625 48.390625 32.421875 48.390625 
Q 24.90625 48.390625 20.390625 44.140625 
Q 15.875 39.890625 15.1875 32.171875 
z
" id="DejaVuSans-101"/>
       <path d="M 41.109375 46.296875 
Q 39.59375 47.171875 37.8125 47.578125 
Q 36.03125 48 33.890625 48 
Q 26.265625 48 22.1875 43.046875 
Q 18.109375 38.09375 18.109375 28.8125 
L 18.109375 0 
L 9.078125 0 
L 9.078125 54.6875 
L 18.109375 54.6875 
L 18.109375 46.1875 
Q 20.953125 51.171875 25.484375 53.578125 
Q 30.03125 56 36.53125 56 
Q 37.453125 56 38.578125 55.875 
Q 39.703125 55.765625 41.0625 55.515625 
z
" id="DejaVuSans-114"/>
       <path id="DejaVuSans-32"/>
       <path d="M 30.609375 48.390625 
Q 23.390625 48.390625 19.1875 42.75 
Q 14.984375 37.109375 14.984375 27.296875 
Q 14.984375 17.484375 19.15625 11.84375 
Q 23.34375 6.203125 30.609375 6.203125 
Q 37.796875 6.203125 41.984375 11.859375 
Q 46.1875 17.53125 46.1875 27.296875 
Q 46.1875 37.015625 41.984375 42.703125 
Q 37.796875 48.390625 30.609375 48.390625 
z
M 30.609375 56 
Q 42.328125 56 49.015625 48.375 
Q 55.71875 40.765625 55.71875 27.296875 
Q 55.71875 13.875 49.015625 6.21875 
Q 42.328125 -1.421875 30.609375 -1.421875 
Q 18.84375 -1.421875 12.171875 6.21875 
Q 5.515625 13.875 5.515625 27.296875 
Q 5.515625 40.765625 12.171875 48.375 
Q 18.84375 56 30.609375 56 
z
" id="DejaVuSans-111"/>
       <path d="M 37.109375 75.984375 
L 37.109375 68.5 
L 28.515625 68.5 
Q 23.6875 68.5 21.796875 66.546875 
Q 19.921875 64.59375 19.921875 59.515625 
L 19.921875 54.6875 
L 34.71875 54.6875 
L 34.71875 47.703125 
L 19.921875 47.703125 
L 19.921875 0 
L 10.890625 0 
L 10.890625 47.703125 
L 2.296875 47.703125 
L 2.296875 54.6875 
L 10.890625 54.6875 
L 10.890625 58.5 
Q 10.890625 67.625 15.140625 71.796875 
Q 19.390625 75.984375 28.609375 75.984375 
z
" id="DejaVuSans-102"/>
       <path d="M 19.671875 64.796875 
L 19.671875 8.109375 
L 31.59375 8.109375 
Q 46.6875 8.109375 53.6875 14.9375 
Q 60.6875 21.78125 60.6875 36.53125 
Q 60.6875 51.171875 53.6875 57.984375 
Q 46.6875 64.796875 31.59375 64.796875 
z
M 9.8125 72.90625 
L 30.078125 72.90625 
Q 51.265625 72.90625 61.171875 64.09375 
Q 71.09375 55.28125 71.09375 36.53125 
Q 71.09375 17.671875 61.125 8.828125 
Q 51.171875 0 30.078125 0 
L 9.8125 0 
z
" id="DejaVuSans-68"/>
       <path d="M 34.28125 27.484375 
Q 23.390625 27.484375 19.1875 25 
Q 14.984375 22.515625 14.984375 16.5 
Q 14.984375 11.71875 18.140625 8.90625 
Q 21.296875 6.109375 26.703125 6.109375 
Q 34.1875 6.109375 38.703125 11.40625 
Q 43.21875 16.703125 43.21875 25.484375 
L 43.21875 27.484375 
z
M 52.203125 31.203125 
L 52.203125 0 
L 43.21875 0 
L 43.21875 8.296875 
Q 40.140625 3.328125 35.546875 0.953125 
Q 30.953125 -1.421875 24.3125 -1.421875 
Q 15.921875 -1.421875 10.953125 3.296875 
Q 6 8.015625 6 15.921875 
Q 6 25.140625 12.171875 29.828125 
Q 18.359375 34.515625 30.609375 34.515625 
L 43.21875 34.515625 
L 43.21875 35.40625 
Q 43.21875 41.609375 39.140625 45 
Q 35.0625 48.390625 27.6875 48.390625 
Q 23 48.390625 18.546875 47.265625 
Q 14.109375 46.140625 10.015625 43.890625 
L 10.015625 52.203125 
Q 14.9375 54.109375 19.578125 55.046875 
Q 24.21875 56 28.609375 56 
Q 40.484375 56 46.34375 49.84375 
Q 52.203125 43.703125 52.203125 31.203125 
z
" id="DejaVuSans-97"/>
       <path d="M 18.3125 70.21875 
L 18.3125 54.6875 
L 36.8125 54.6875 
L 36.8125 47.703125 
L 18.3125 47.703125 
L 18.3125 18.015625 
Q 18.3125 11.328125 20.140625 9.421875 
Q 21.96875 7.515625 27.59375 7.515625 
L 36.8125 7.515625 
L 36.8125 0 
L 27.59375 0 
Q 17.1875 0 13.234375 3.875 
Q 9.28125 7.765625 9.28125 18.015625 
L 9.28125 47.703125 
L 2.6875 47.703125 
L 2.6875 54.6875 
L 9.28125 54.6875 
L 9.28125 70.21875 
z
" id="DejaVuSans-116"/>
       <path d="M 19.671875 64.796875 
L 19.671875 37.40625 
L 32.078125 37.40625 
Q 38.96875 37.40625 42.71875 40.96875 
Q 46.484375 44.53125 46.484375 51.125 
Q 46.484375 57.671875 42.71875 61.234375 
Q 38.96875 64.796875 32.078125 64.796875 
z
M 9.8125 72.90625 
L 32.078125 72.90625 
Q 44.34375 72.90625 50.609375 67.359375 
Q 56.890625 61.8125 56.890625 51.125 
Q 56.890625 40.328125 50.609375 34.8125 
Q 44.34375 29.296875 32.078125 29.296875 
L 19.671875 29.296875 
L 19.671875 0 
L 9.8125 0 
z
" id="DejaVuSans-80"/>
       <path d="M 9.421875 54.6875 
L 18.40625 54.6875 
L 18.40625 0 
L 9.421875 0 
z
M 9.421875 75.984375 
L 18.40625 75.984375 
L 18.40625 64.59375 
L 9.421875 64.59375 
z
" id="DejaVuSans-105"/>
       <path d="M 54.890625 33.015625 
L 54.890625 0 
L 45.90625 0 
L 45.90625 32.71875 
Q 45.90625 40.484375 42.875 44.328125 
Q 39.84375 48.1875 33.796875 48.1875 
Q 26.515625 48.1875 22.3125 43.546875 
Q 18.109375 38.921875 18.109375 30.90625 
L 18.109375 0 
L 9.078125 0 
L 9.078125 54.6875 
L 18.109375 54.6875 
L 18.109375 46.1875 
Q 21.34375 51.125 25.703125 53.5625 
Q 30.078125 56 35.796875 56 
Q 45.21875 56 50.046875 50.171875 
Q 54.890625 44.34375 54.890625 33.015625 
z
" id="DejaVuSans-110"/>
       <path d="M 44.28125 53.078125 
L 44.28125 44.578125 
Q 40.484375 46.53125 36.375 47.5 
Q 32.28125 48.484375 27.875 48.484375 
Q 21.1875 48.484375 17.84375 46.4375 
Q 14.5 44.390625 14.5 40.28125 
Q 14.5 37.15625 16.890625 35.375 
Q 19.28125 33.59375 26.515625 31.984375 
L 29.59375 31.296875 
Q 39.15625 29.25 43.1875 25.515625 
Q 47.21875 21.78125 47.21875 15.09375 
Q 47.21875 7.46875 41.1875 3.015625 
Q 35.15625 -1.421875 24.609375 -1.421875 
Q 20.21875 -1.421875 15.453125 -0.5625 
Q 10.6875 0.296875 5.421875 2 
L 5.421875 11.28125 
Q 10.40625 8.6875 15.234375 7.390625 
Q 20.0625 6.109375 24.8125 6.109375 
Q 31.15625 6.109375 34.5625 8.28125 
Q 37.984375 10.453125 37.984375 14.40625 
Q 37.984375 18.0625 35.515625 20.015625 
Q 33.0625 21.96875 24.703125 23.78125 
L 21.578125 24.515625 
Q 13.234375 26.265625 9.515625 29.90625 
Q 5.8125 33.546875 5.8125 39.890625 
Q 5.8125 47.609375 11.28125 51.796875 
Q 16.75 56 26.8125 56 
Q 31.78125 56 36.171875 55.265625 
Q 40.578125 54.546875 44.28125 53.078125 
z
" id="DejaVuSans-115"/>
      </defs>
      <use xlink:href="#DejaVuSans-78"/>
      <use x="74.804688" xlink:href="#DejaVuSans-117"/>
      <use x="138.183594" xlink:href="#DejaVuSans-109"/>
      <use x="235.595703" xlink:href="#DejaVuSans-98"/>
      <use x="299.072266" xlink:href="#DejaVuSans-101"/>
      <use x="360.595703" xlink:href="#DejaVuSans-114"/>
      <use x="401.708984" xlink:href="#DejaVuSans-32"/>
      <use x="433.496094" xlink:href="#DejaVuSans-111"/>
      <use x="494.677734" xlink:href="#DejaVuSans-102"/>
      <use x="529.882812" xlink:href="#DejaVuSans-32"/>
      <use x="561.669922" xlink:href="#DejaVuSans-68"/>
      <use x="638.671875" xlink:href="#DejaVuSans-97"/>
      <use x="699.951172" xlink:href="#DejaVuSans-116"/>
      <use x="739.160156" xlink:href="#DejaVuSans-97"/>
      <use x="800.439453" xlink:href="#DejaVuSans-32"/>
      <use x="832.226562" xlink:href="#DejaVuSans-80"/>
      <use x="888.904297" xlink:href="#DejaVuSans-111"/>
      <use x="950.085938" xlink:href="#DejaVuSans-105"/>
      <use x="977.869141" xlink:href="#DejaVuSans-110"/>
      <use x="1041.248047" xlink:href="#DejaVuSans-116"/>
      <use x="1080.457031" xlink:href="#DejaVuSans-115"/>
     </g>
    </g>
   </g>
   <g id="matplotlib.axis_2">
    <g id="ytick_1">
     <g id="line2d_9">
      <defs>
       <path d="M 0 0 
L -3.5 0 
" id="mc72de79133" style="stroke:#000000;stroke-width:0.8;"/>
      </defs>
      <g>
       <use style="stroke:#000000;stroke-width:0.8;" x="72" xlink:href="#mc72de79133" y="352.910769"/>
      </g>
     </g>
     <g id="text_10">
      <!-- 0.06 -->
      <g transform="translate(42.734375 356.709988)scale(0.1 -0.1)">
       <defs>
        <path d="M 10.6875 12.40625 
L 21 12.40625 
L 21 0 
L 10.6875 0 
z
" id="DejaVuSans-46"/>
        <path d="M 33.015625 40.375 
Q 26.375 40.375 22.484375 35.828125 
Q 18.609375 31.296875 18.609375 23.390625 
Q 18.609375 15.53125 22.484375 10.953125 
Q 26.375 6.390625 33.015625 6.390625 
Q 39.65625 6.390625 43.53125 10.953125 
Q 47.40625 15.53125 47.40625 23.390625 
Q 47.40625 31.296875 43.53125 35.828125 
Q 39.65625 40.375 33.015625 40.375 
z
M 52.59375 71.296875 
L 52.59375 62.3125 
Q 48.875 64.0625 45.09375 64.984375 
Q 41.3125 65.921875 37.59375 65.921875 
Q 27.828125 65.921875 22.671875 59.328125 
Q 17.53125 52.734375 16.796875 39.40625 
Q 19.671875 43.65625 24.015625 45.921875 
Q 28.375 48.1875 33.59375 48.1875 
Q 44.578125 48.1875 50.953125 41.515625 
Q 57.328125 34.859375 57.328125 23.390625 
Q 57.328125 12.15625 50.6875 5.359375 
Q 44.046875 -1.421875 33.015625 -1.421875 
Q 20.359375 -1.421875 13.671875 8.265625 
Q 6.984375 17.96875 6.984375 36.375 
Q 6.984375 53.65625 15.1875 63.9375 
Q 23.390625 74.21875 37.203125 74.21875 
Q 40.921875 74.21875 44.703125 73.484375 
Q 48.484375 72.75 52.59375 71.296875 
z
" id="DejaVuSans-54"/>
       </defs>
       <use xlink:href="#DejaVuSans-48"/>
       <use x="63.623047" xlink:href="#DejaVuSans-46"/>
       <use x="95.410156" xlink:href="#DejaVuSans-48"/>
       <use x="159.033203" xlink:href="#DejaVuSans-54"/>
      </g>
     </g>
    </g>
    <g id="ytick_2">
     <g id="line2d_10">
      <g>
       <use style="stroke:#000000;stroke-width:0.8;" x="72" xlink:href="#mc72de79133" y="302.732308"/>
      </g>
     </g>
     <g id="text_11">
      <!-- 0.08 -->
      <g transform="translate(42.734375 306.531526)scale(0.1 -0.1)">
       <defs>
        <path d="M 31.78125 34.625 
Q 24.75 34.625 20.71875 30.859375 
Q 16.703125 27.09375 16.703125 20.515625 
Q 16.703125 13.921875 20.71875 10.15625 
Q 24.75 6.390625 31.78125 6.390625 
Q 38.8125 6.390625 42.859375 10.171875 
Q 46.921875 13.96875 46.921875 20.515625 
Q 46.921875 27.09375 42.890625 30.859375 
Q 38.875 34.625 31.78125 34.625 
z
M 21.921875 38.8125 
Q 15.578125 40.375 12.03125 44.71875 
Q 8.5 49.078125 8.5 55.328125 
Q 8.5 64.0625 14.71875 69.140625 
Q 20.953125 74.21875 31.78125 74.21875 
Q 42.671875 74.21875 48.875 69.140625 
Q 55.078125 64.0625 55.078125 55.328125 
Q 55.078125 49.078125 51.53125 44.71875 
Q 48 40.375 41.703125 38.8125 
Q 48.828125 37.15625 52.796875 32.3125 
Q 56.78125 27.484375 56.78125 20.515625 
Q 56.78125 9.90625 50.3125 4.234375 
Q 43.84375 -1.421875 31.78125 -1.421875 
Q 19.734375 -1.421875 13.25 4.234375 
Q 6.78125 9.90625 6.78125 20.515625 
Q 6.78125 27.484375 10.78125 32.3125 
Q 14.796875 37.15625 21.921875 38.8125 
z
M 18.3125 54.390625 
Q 18.3125 48.734375 21.84375 45.5625 
Q 25.390625 42.390625 31.78125 42.390625 
Q 38.140625 42.390625 41.71875 45.5625 
Q 45.3125 48.734375 45.3125 54.390625 
Q 45.3125 60.0625 41.71875 63.234375 
Q 38.140625 66.40625 31.78125 66.40625 
Q 25.390625 66.40625 21.84375 63.234375 
Q 18.3125 60.0625 18.3125 54.390625 
z
" id="DejaVuSans-56"/>
       </defs>
       <use xlink:href="#DejaVuSans-48"/>
       <use x="63.623047" xlink:href="#DejaVuSans-46"/>
       <use x="95.410156" xlink:href="#DejaVuSans-48"/>
       <use x="159.033203" xlink:href="#DejaVuSans-56"/>
      </g>
     </g>
    </g>
    <g id="ytick_3">
     <g id="line2d_11">
      <g>
       <use style="stroke:#000000;stroke-width:0.8;" x="72" xlink:href="#mc72de79133" y="252.553846"/>
      </g>
     </g>
     <g id="text_12">
      <!-- 0.10 -->
      <g transform="translate(42.734375 256.353065)scale(0.1 -0.1)">
       <use xlink:href="#DejaVuSans-48"/>
       <use x="63.623047" xlink:href="#DejaVuSans-46"/>
       <use x="95.410156" xlink:href="#DejaVuSans-49"/>
       <use x="159.033203" xlink:href="#DejaVuSans-48"/>
      </g>
     </g>
    </g>
    <g id="ytick_4">
     <g id="line2d_12">
      <g>
       <use style="stroke:#000000;stroke-width:0.8;" x="72" xlink:href="#mc72de79133" y="202.375385"/>
      </g>
     </g>
     <g id="text_13">
      <!-- 0.12 -->
      <g transform="translate(42.734375 206.174603)scale(0.1 -0.1)">
       <use xlink:href="#DejaVuSans-48"/>
       <use x="63.623047" xlink:href="#DejaVuSans-46"/>
       <use x="95.410156" xlink:href="#DejaVuSans-49"/>
       <use x="159.033203" xlink:href="#DejaVuSans-50"/>
      </g>
     </g>
    </g>
    <g id="ytick_5">
     <g id="line2d_13">
      <g>
       <use style="stroke:#000000;stroke-width:0.8;" x="72" xlink:href="#mc72de79133" y="152.196923"/>
      </g>
     </g>
     <g id="text_14">
      <!-- 0.14 -->
      <g transform="translate(42.734375 155.996142)scale(0.1 -0.1)">
       <defs>
        <path d="M 37.796875 64.3125 
L 12.890625 25.390625 
L 37.796875 25.390625 
z
M 35.203125 72.90625 
L 47.609375 72.90625 
L 47.609375 25.390625 
L 58.015625 25.390625 
L 58.015625 17.1875 
L 47.609375 17.1875 
L 47.609375 0 
L 37.796875 0 
L 37.796875 17.1875 
L 4.890625 17.1875 
L 4.890625 26.703125 
z
" id="DejaVuSans-52"/>
       </defs>
       <use xlink:href="#DejaVuSans-48"/>
       <use x="63.623047" xlink:href="#DejaVuSans-46"/>
       <use x="95.410156" xlink:href="#DejaVuSans-49"/>
       <use x="159.033203" xlink:href="#DejaVuSans-52"/>
      </g>
     </g>
    </g>
    <g id="ytick_6">
     <g id="line2d_14">
      <g>
       <use style="stroke:#000000;stroke-width:0.8;" x="72" xlink:href="#mc72de79133" y="102.018462"/>
      </g>
     </g>
     <g id="text_15">
      <!-- 0.16 -->
      <g transform="translate(42.734375 105.81768)scale(0.1 -0.1)">
       <use xlink:href="#DejaVuSans-48"/>
       <use x="63.623047" xlink:href="#DejaVuSans-46"/>
       <use x="95.410156" xlink:href="#DejaVuSans-49"/>
       <use x="159.033203" xlink:href="#DejaVuSans-54"/>
      </g>
     </g>
    </g>
    <g id="ytick_7">
     <g id="line2d_15">
      <g>
       <use style="stroke:#000000;stroke-width:0.8;" x="72" xlink:href="#mc72de79133" y="51.84"/>
      </g>
     </g>
     <g id="text_16">
      <!-- 0.18 -->
      <g transform="translate(42.734375 55.639219)scale(0.1 -0.1)">
       <use xlink:href="#DejaVuSans-48"/>
       <use x="63.623047" xlink:href="#DejaVuSans-46"/>
       <use x="95.410156" xlink:href="#DejaVuSans-49"/>
       <use x="159.033203" xlink:href="#DejaVuSans-56"/>
      </g>
     </g>
    </g>
    <g id="text_17">
     <!-- Mean Relative Error (%) -->
     <g transform="translate(34.575 333.704375)rotate(-90)scale(0.2 -0.2)">
      <defs>
       <path d="M 9.8125 72.90625 
L 24.515625 72.90625 
L 43.109375 23.296875 
L 61.8125 72.90625 
L 76.515625 72.90625 
L 76.515625 0 
L 66.890625 0 
L 66.890625 64.015625 
L 48.09375 14.015625 
L 38.1875 14.015625 
L 19.390625 64.015625 
L 19.390625 0 
L 9.8125 0 
z
" id="DejaVuSans-77"/>
       <path d="M 44.390625 34.1875 
Q 47.5625 33.109375 50.5625 29.59375 
Q 53.5625 26.078125 56.59375 19.921875 
L 66.609375 0 
L 56 0 
L 46.6875 18.703125 
Q 43.0625 26.03125 39.671875 28.421875 
Q 36.28125 30.8125 30.421875 30.8125 
L 19.671875 30.8125 
L 19.671875 0 
L 9.8125 0 
L 9.8125 72.90625 
L 32.078125 72.90625 
Q 44.578125 72.90625 50.734375 67.671875 
Q 56.890625 62.453125 56.890625 51.90625 
Q 56.890625 45.015625 53.6875 40.46875 
Q 50.484375 35.9375 44.390625 34.1875 
z
M 19.671875 64.796875 
L 19.671875 38.921875 
L 32.078125 38.921875 
Q 39.203125 38.921875 42.84375 42.21875 
Q 46.484375 45.515625 46.484375 51.90625 
Q 46.484375 58.296875 42.84375 61.546875 
Q 39.203125 64.796875 32.078125 64.796875 
z
" id="DejaVuSans-82"/>
       <path d="M 9.421875 75.984375 
L 18.40625 75.984375 
L 18.40625 0 
L 9.421875 0 
z
" id="DejaVuSans-108"/>
       <path d="M 2.984375 54.6875 
L 12.5 54.6875 
L 29.59375 8.796875 
L 46.6875 54.6875 
L 56.203125 54.6875 
L 35.6875 0 
L 23.484375 0 
z
" id="DejaVuSans-118"/>
       <path d="M 9.8125 72.90625 
L 55.90625 72.90625 
L 55.90625 64.59375 
L 19.671875 64.59375 
L 19.671875 43.015625 
L 54.390625 43.015625 
L 54.390625 34.71875 
L 19.671875 34.71875 
L 19.671875 8.296875 
L 56.78125 8.296875 
L 56.78125 0 
L 9.8125 0 
z
" id="DejaVuSans-69"/>
       <path d="M 31 75.875 
Q 24.46875 64.65625 21.28125 53.65625 
Q 18.109375 42.671875 18.109375 31.390625 
Q 18.109375 20.125 21.3125 9.0625 
Q 24.515625 -2 31 -13.1875 
L 23.1875 -13.1875 
Q 15.875 -1.703125 12.234375 9.375 
Q 8.59375 20.453125 8.59375 31.390625 
Q 8.59375 42.28125 12.203125 53.3125 
Q 15.828125 64.359375 23.1875 75.875 
z
" id="DejaVuSans-40"/>
       <path d="M 72.703125 32.078125 
Q 68.453125 32.078125 66.03125 28.46875 
Q 63.625 24.859375 63.625 18.40625 
Q 63.625 12.0625 66.03125 8.421875 
Q 68.453125 4.78125 72.703125 4.78125 
Q 76.859375 4.78125 79.265625 8.421875 
Q 81.6875 12.0625 81.6875 18.40625 
Q 81.6875 24.8125 79.265625 28.4375 
Q 76.859375 32.078125 72.703125 32.078125 
z
M 72.703125 38.28125 
Q 80.421875 38.28125 84.953125 32.90625 
Q 89.5 27.546875 89.5 18.40625 
Q 89.5 9.28125 84.9375 3.921875 
Q 80.375 -1.421875 72.703125 -1.421875 
Q 64.890625 -1.421875 60.34375 3.921875 
Q 55.8125 9.28125 55.8125 18.40625 
Q 55.8125 27.59375 60.375 32.9375 
Q 64.9375 38.28125 72.703125 38.28125 
z
M 22.3125 68.015625 
Q 18.109375 68.015625 15.6875 64.375 
Q 13.28125 60.75 13.28125 54.390625 
Q 13.28125 47.953125 15.671875 44.328125 
Q 18.0625 40.71875 22.3125 40.71875 
Q 26.5625 40.71875 28.96875 44.328125 
Q 31.390625 47.953125 31.390625 54.390625 
Q 31.390625 60.6875 28.953125 64.34375 
Q 26.515625 68.015625 22.3125 68.015625 
z
M 66.40625 74.21875 
L 74.21875 74.21875 
L 28.609375 -1.421875 
L 20.796875 -1.421875 
z
M 22.3125 74.21875 
Q 30.03125 74.21875 34.609375 68.875 
Q 39.203125 63.53125 39.203125 54.390625 
Q 39.203125 45.171875 34.640625 39.84375 
Q 30.078125 34.515625 22.3125 34.515625 
Q 14.546875 34.515625 10.03125 39.859375 
Q 5.515625 45.21875 5.515625 54.390625 
Q 5.515625 63.484375 10.046875 68.84375 
Q 14.59375 74.21875 22.3125 74.21875 
z
" id="DejaVuSans-37"/>
       <path d="M 8.015625 75.875 
L 15.828125 75.875 
Q 23.140625 64.359375 26.78125 53.3125 
Q 30.421875 42.28125 30.421875 31.390625 
Q 30.421875 20.453125 26.78125 9.375 
Q 23.140625 -1.703125 15.828125 -13.1875 
L 8.015625 -13.1875 
Q 14.5 -2 17.703125 9.0625 
Q 20.90625 20.125 20.90625 31.390625 
Q 20.90625 42.671875 17.703125 53.65625 
Q 14.5 64.65625 8.015625 75.875 
z
" id="DejaVuSans-41"/>
      </defs>
      <use xlink:href="#DejaVuSans-77"/>
      <use x="86.279297" xlink:href="#DejaVuSans-101"/>
      <use x="147.802734" xlink:href="#DejaVuSans-97"/>
      <use x="209.082031" xlink:href="#DejaVuSans-110"/>
      <use x="272.460938" xlink:href="#DejaVuSans-32"/>
      <use x="304.248047" xlink:href="#DejaVuSans-82"/>
      <use x="369.230469" xlink:href="#DejaVuSans-101"/>
      <use x="430.753906" xlink:href="#DejaVuSans-108"/>
      <use x="458.537109" xlink:href="#DejaVuSans-97"/>
      <use x="519.816406" xlink:href="#DejaVuSans-116"/>
      <use x="559.025391" xlink:href="#DejaVuSans-105"/>
      <use x="586.808594" xlink:href="#DejaVuSans-118"/>
      <use x="645.988281" xlink:href="#DejaVuSans-101"/>
      <use x="707.511719" xlink:href="#DejaVuSans-32"/>
      <use x="739.298828" xlink:href="#DejaVuSans-69"/>
      <use x="802.482422" xlink:href="#DejaVuSans-114"/>
      <use x="841.845703" xlink:href="#DejaVuSans-114"/>
      <use x="880.708984" xlink:href="#DejaVuSans-111"/>
      <use x="941.890625" xlink:href="#DejaVuSans-114"/>
      <use x="983.003906" xlink:href="#DejaVuSans-32"/>
      <use x="1014.791016" xlink:href="#DejaVuSans-40"/>
      <use x="1053.804688" xlink:href="#DejaVuSans-37"/>
      <use x="1148.824219" xlink:href="#DejaVuSans-41"/>
     </g>
    </g>
   </g>
   <g id="LineCollection_1">
    <path clip-path="url(#p00c525d458)" d="M 141.160563 333.342942 
L 141.160563 103.290024 
" style="fill:none;stroke:#1f77b4;stroke-width:1.5;"/>
    <path clip-path="url(#p00c525d458)" d="M 153.735211 324.812943 
L 153.735211 149.215736 
" style="fill:none;stroke:#1f77b4;stroke-width:1.5;"/>
    <path clip-path="url(#p00c525d458)" d="M 166.309859 319.960823 
L 166.309859 178.96686 
" style="fill:none;stroke:#1f77b4;stroke-width:1.5;"/>
    <path clip-path="url(#p00c525d458)" d="M 178.884507 310.916763 
L 178.884507 201.787563 
" style="fill:none;stroke:#1f77b4;stroke-width:1.5;"/>
    <path clip-path="url(#p00c525d458)" d="M 191.459155 306.475039 
L 191.459155 216.479137 
" style="fill:none;stroke:#1f77b4;stroke-width:1.5;"/>
    <path clip-path="url(#p00c525d458)" d="M 204.033803 305.48798 
L 204.033803 224.267469 
" style="fill:none;stroke:#1f77b4;stroke-width:1.5;"/>
    <path clip-path="url(#p00c525d458)" d="M 216.608451 301.032928 
L 216.608451 234.001622 
" style="fill:none;stroke:#1f77b4;stroke-width:1.5;"/>
    <path clip-path="url(#p00c525d458)" d="M 229.183099 298.853493 
L 229.183099 241.164079 
" style="fill:none;stroke:#1f77b4;stroke-width:1.5;"/>
    <path clip-path="url(#p00c525d458)" d="M 241.757746 300.360476 
L 241.757746 242.185153 
" style="fill:none;stroke:#1f77b4;stroke-width:1.5;"/>
    <path clip-path="url(#p00c525d458)" d="M 254.332394 301.920811 
L 254.332394 243.823266 
" style="fill:none;stroke:#1f77b4;stroke-width:1.5;"/>
    <path clip-path="url(#p00c525d458)" d="M 266.907042 302.985173 
L 266.907042 245.469858 
" style="fill:none;stroke:#1f77b4;stroke-width:1.5;"/>
    <path clip-path="url(#p00c525d458)" d="M 279.48169 303.7168 
L 279.48169 246.822866 
" style="fill:none;stroke:#1f77b4;stroke-width:1.5;"/>
    <path clip-path="url(#p00c525d458)" d="M 292.056338 305.135068 
L 292.056338 245.956596 
" style="fill:none;stroke:#1f77b4;stroke-width:1.5;"/>
    <path clip-path="url(#p00c525d458)" d="M 304.630986 306.493537 
L 304.630986 245.168966 
" style="fill:none;stroke:#1f77b4;stroke-width:1.5;"/>
    <path clip-path="url(#p00c525d458)" d="M 317.205634 308.345532 
L 317.205634 245.430658 
" style="fill:none;stroke:#1f77b4;stroke-width:1.5;"/>
    <path clip-path="url(#p00c525d458)" d="M 329.780282 309.701512 
L 329.780282 244.852655 
" style="fill:none;stroke:#1f77b4;stroke-width:1.5;"/>
    <path clip-path="url(#p00c525d458)" d="M 342.35493 311.380404 
L 342.35493 243.912414 
" style="fill:none;stroke:#1f77b4;stroke-width:1.5;"/>
    <path clip-path="url(#p00c525d458)" d="M 354.929577 313.307442 
L 354.929577 242.468538 
" style="fill:none;stroke:#1f77b4;stroke-width:1.5;"/>
    <path clip-path="url(#p00c525d458)" d="M 367.504225 315.071174 
L 367.504225 241.304947 
" style="fill:none;stroke:#1f77b4;stroke-width:1.5;"/>
    <path clip-path="url(#p00c525d458)" d="M 380.078873 317.259285 
L 380.078873 240.245246 
" style="fill:none;stroke:#1f77b4;stroke-width:1.5;"/>
    <path clip-path="url(#p00c525d458)" d="M 392.653521 319.958648 
L 392.653521 238.341927 
" style="fill:none;stroke:#1f77b4;stroke-width:1.5;"/>
    <path clip-path="url(#p00c525d458)" d="M 405.228169 322.83627 
L 405.228169 236.103233 
" style="fill:none;stroke:#1f77b4;stroke-width:1.5;"/>
    <path clip-path="url(#p00c525d458)" d="M 417.802817 326.61435 
L 417.802817 235.070221 
" style="fill:none;stroke:#1f77b4;stroke-width:1.5;"/>
    <path clip-path="url(#p00c525d458)" d="M 430.377465 328.463411 
L 430.377465 231.329542 
" style="fill:none;stroke:#1f77b4;stroke-width:1.5;"/>
    <path clip-path="url(#p00c525d458)" d="M 442.952113 332.210741 
L 442.952113 226.923862 
" style="fill:none;stroke:#1f77b4;stroke-width:1.5;"/>
   </g>
   <g id="line2d_16">
    <defs>
     <path d="M 5 0 
L -5 -0 
" id="m5c783cfb6e" style="stroke:#1f77b4;"/>
    </defs>
    <g clip-path="url(#p00c525d458)">
     <use style="fill:#1f77b4;stroke:#1f77b4;" x="141.160563" xlink:href="#m5c783cfb6e" y="333.342942"/>
     <use style="fill:#1f77b4;stroke:#1f77b4;" x="153.735211" xlink:href="#m5c783cfb6e" y="324.812943"/>
     <use style="fill:#1f77b4;stroke:#1f77b4;" x="166.309859" xlink:href="#m5c783cfb6e" y="319.960823"/>
     <use style="fill:#1f77b4;stroke:#1f77b4;" x="178.884507" xlink:href="#m5c783cfb6e" y="310.916763"/>
     <use style="fill:#1f77b4;stroke:#1f77b4;" x="191.459155" xlink:href="#m5c783cfb6e" y="306.475039"/>
     <use style="fill:#1f77b4;stroke:#1f77b4;" x="204.033803" xlink:href="#m5c783cfb6e" y="305.48798"/>
     <use style="fill:#1f77b4;stroke:#1f77b4;" x="216.608451" xlink:href="#m5c783cfb6e" y="301.032928"/>
     <use style="fill:#1f77b4;stroke:#1f77b4;" x="229.183099" xlink:href="#m5c783cfb6e" y="298.853493"/>
     <use style="fill:#1f77b4;stroke:#1f77b4;" x="241.757746" xlink:href="#m5c783cfb6e" y="300.360476"/>
     <use style="fill:#1f77b4;stroke:#1f77b4;" x="254.332394" xlink:href="#m5c783cfb6e" y="301.920811"/>
     <use style="fill:#1f77b4;stroke:#1f77b4;" x="266.907042" xlink:href="#m5c783cfb6e" y="302.985173"/>
     <use style="fill:#1f77b4;stroke:#1f77b4;" x="279.48169" xlink:href="#m5c783cfb6e" y="303.7168"/>
     <use style="fill:#1f77b4;stroke:#1f77b4;" x="292.056338" xlink:href="#m5c783cfb6e" y="305.135068"/>
     <use style="fill:#1f77b4;stroke:#1f77b4;" x="304.630986" xlink:href="#m5c783cfb6e" y="306.493537"/>
     <use style="fill:#1f77b4;stroke:#1f77b4;" x="317.205634" xlink:href="#m5c783cfb6e" y="308.345532"/>
     <use style="fill:#1f77b4;stroke:#1f77b4;" x="329.780282" xlink:href="#m5c783cfb6e" y="309.701512"/>
     <use style="fill:#1f77b4;stroke:#1f77b4;" x="342.35493" xlink:href="#m5c783cfb6e" y="311.380404"/>
     <use style="fill:#1f77b4;stroke:#1f77b4;" x="354.929577" xlink:href="#m5c783cfb6e" y="313.307442"/>
     <use style="fill:#1f77b4;stroke:#1f77b4;" x="367.504225" xlink:href="#m5c783cfb6e" y="315.071174"/>
     <use style="fill:#1f77b4;stroke:#1f77b4;" x="380.078873" xlink:href="#m5c783cfb6e" y="317.259285"/>
     <use style="fill:#1f77b4;stroke:#1f77b4;" x="392.653521" xlink:href="#m5c783cfb6e" y="319.958648"/>
     <use style="fill:#1f77b4;stroke:#1f77b4;" x="405.228169" xlink:href="#m5c783cfb6e" y="322.83627"/>
     <use style="fill:#1f77b4;stroke:#1f77b4;" x="417.802817" xlink:href="#m5c783cfb6e" y="326.61435"/>
     <use style="fill:#1f77b4;stroke:#1f77b4;" x="430.377465" xlink:href="#m5c783cfb6e" y="328.463411"/>
     <use style="fill:#1f77b4;stroke:#1f77b4;" x="442.952113" xlink:href="#m5c783cfb6e" y="332.210741"/>
    </g>
   </g>
   <g id="line2d_17">
    <g clip-path="url(#p00c525d458)">
     <use style="fill:#1f77b4;stroke:#1f77b4;" x="141.160563" xlink:href="#m5c783cfb6e" y="103.290024"/>
     <use style="fill:#1f77b4;stroke:#1f77b4;" x="153.735211" xlink:href="#m5c783cfb6e" y="149.215736"/>
     <use style="fill:#1f77b4;stroke:#1f77b4;" x="166.309859" xlink:href="#m5c783cfb6e" y="178.96686"/>
     <use style="fill:#1f77b4;stroke:#1f77b4;" x="178.884507" xlink:href="#m5c783cfb6e" y="201.787563"/>
     <use style="fill:#1f77b4;stroke:#1f77b4;" x="191.459155" xlink:href="#m5c783cfb6e" y="216.479137"/>
     <use style="fill:#1f77b4;stroke:#1f77b4;" x="204.033803" xlink:href="#m5c783cfb6e" y="224.267469"/>
     <use style="fill:#1f77b4;stroke:#1f77b4;" x="216.608451" xlink:href="#m5c783cfb6e" y="234.001622"/>
     <use style="fill:#1f77b4;stroke:#1f77b4;" x="229.183099" xlink:href="#m5c783cfb6e" y="241.164079"/>
     <use style="fill:#1f77b4;stroke:#1f77b4;" x="241.757746" xlink:href="#m5c783cfb6e" y="242.185153"/>
     <use style="fill:#1f77b4;stroke:#1f77b4;" x="254.332394" xlink:href="#m5c783cfb6e" y="243.823266"/>
     <use style="fill:#1f77b4;stroke:#1f77b4;" x="266.907042" xlink:href="#m5c783cfb6e" y="245.469858"/>
     <use style="fill:#1f77b4;stroke:#1f77b4;" x="279.48169" xlink:href="#m5c783cfb6e" y="246.822866"/>
     <use style="fill:#1f77b4;stroke:#1f77b4;" x="292.056338" xlink:href="#m5c783cfb6e" y="245.956596"/>
     <use style="fill:#1f77b4;stroke:#1f77b4;" x="304.630986" xlink:href="#m5c783cfb6e" y="245.168966"/>
     <use style="fill:#1f77b4;stroke:#1f77b4;" x="317.205634" xlink:href="#m5c783cfb6e" y="245.430658"/>
     <use style="fill:#1f77b4;stroke:#1f77b4;" x="329.780282" xlink:href="#m5c783cfb6e" y="244.852655"/>
     <use style="fill:#1f77b4;stroke:#1f77b4;" x="342.35493" xlink:href="#m5c783cfb6e" y="243.912414"/>
     <use style="fill:#1f77b4;stroke:#1f77b4;" x="354.929577" xlink:href="#m5c783cfb6e" y="242.468538"/>
     <use style="fill:#1f77b4;stroke:#1f77b4;" x="367.504225" xlink:href="#m5c783cfb6e" y="241.304947"/>
     <use style="fill:#1f77b4;stroke:#1f77b4;" x="380.078873" xlink:href="#m5c783cfb6e" y="240.245246"/>
     <use style="fill:#1f77b4;stroke:#1f77b4;" x="392.653521" xlink:href="#m5c783cfb6e" y="238.341927"/>
     <use style="fill:#1f77b4;stroke:#1f77b4;" x="405.228169" xlink:href="#m5c783cfb6e" y="236.103233"/>
     <use style="fill:#1f77b4;stroke:#1f77b4;" x="417.802817" xlink:href="#m5c783cfb6e" y="235.070221"/>
     <use style="fill:#1f77b4;stroke:#1f77b4;" x="430.377465" xlink:href="#m5c783cfb6e" y="231.329542"/>
     <use style="fill:#1f77b4;stroke:#1f77b4;" x="442.952113" xlink:href="#m5c783cfb6e" y="226.923862"/>
    </g>
   </g>
   <g id="line2d_18">
    <path clip-path="url(#p00c525d458)" d="M 78.287324 23.279662 
L 83.36799 52.199303 
L 88.448656 77.840117 
L 93.529321 100.573849 
L 98.609987 120.730094 
L 103.690653 138.601082 
L 108.771319 154.445908 
L 113.851985 168.494293 
L 118.93265 180.949912 
L 124.013316 191.993348 
L 129.093982 201.784711 
L 134.174648 210.465957 
L 139.255314 218.162948 
L 144.33598 224.987276 
L 149.416645 231.037881 
L 154.497311 236.402485 
L 159.577977 241.158866 
L 164.658643 245.375982 
L 169.739309 249.114974 
L 174.819974 252.430049 
L 179.90064 255.36927 
L 184.981306 257.975251 
L 190.061972 260.285773 
L 195.142638 262.334335 
L 200.223303 264.150637 
L 205.303969 265.761011 
L 210.384635 267.188806 
L 215.465301 268.454721 
L 220.545967 269.577111 
L 225.626633 270.572247 
L 230.707298 271.454558 
L 235.787964 272.236834 
L 240.86863 272.930419 
L 245.949296 273.545366 
L 251.029962 274.090593 
L 256.110627 274.574004 
L 261.191293 275.002606 
L 266.271959 275.382615 
L 271.352625 275.71954 
L 276.433291 276.018265 
L 281.513956 276.283122 
L 286.594622 276.517949 
L 291.675288 276.726153 
L 296.755954 276.910751 
L 301.83662 277.07442 
L 306.917286 277.219533 
L 311.997951 277.348193 
L 317.078617 277.462266 
L 322.159283 277.563406 
L 327.239949 277.653079 
L 332.320615 277.732585 
L 337.40128 277.803076 
L 342.481946 277.865576 
L 347.562612 277.92099 
L 352.643278 277.970121 
L 357.723944 278.013681 
L 362.804609 278.052303 
L 367.885275 278.086546 
L 372.965941 278.116907 
L 378.046607 278.143825 
L 383.127273 278.167692 
L 388.207939 278.188852 
L 393.288604 278.207614 
L 398.36927 278.224248 
L 403.449936 278.238997 
L 408.530602 278.252073 
L 413.611268 278.263667 
L 418.691933 278.273946 
L 423.772599 278.28306 
L 428.853265 278.29114 
L 433.933931 278.298305 
L 439.014597 278.304657 
L 444.095262 278.310289 
L 449.175928 278.315282 
L 454.256594 278.319709 
L 459.33726 278.323635 
L 464.417926 278.327115 
L 469.498592 278.3302 
L 474.579257 278.332936 
L 479.659923 278.335362 
L 484.740589 278.337513 
L 489.821255 278.339419 
L 494.901921 278.34111 
L 499.982586 278.342609 
L 505.063252 278.343938 
L 510.143918 278.345116 
L 515.224584 278.346161 
L 520.30525 278.347087 
L 525.385915 278.347909 
L 530.466581 278.348637 
L 535.547247 278.349282 
L 540.627913 278.349855 
L 545.708579 278.350362 
L 550.789245 278.350812 
L 555.86991 278.351211 
L 560.950576 278.351565 
L 566.031242 278.351878 
L 571.111908 278.352156 
L 576.192574 278.352403 
L 577 278.352438 
" style="fill:none;stroke:#808080;stroke-linecap:square;stroke-width:1.5;"/>
   </g>
   <g id="line2d_19">
    <defs>
     <path d="M 0 3 
C 0.795609 3 1.55874 2.683901 2.12132 2.12132 
C 2.683901 1.55874 3 0.795609 3 0 
C 3 -0.795609 2.683901 -1.55874 2.12132 -2.12132 
C 1.55874 -2.683901 0.795609 -3 0 -3 
C -0.795609 -3 -1.55874 -2.683901 -2.12132 -2.12132 
C -2.683901 -1.55874 -3 -0.795609 -3 0 
C -3 0.795609 -2.683901 1.55874 -2.12132 2.12132 
C -1.55874 2.683901 -0.795609 3 0 3 
z
" id="m0e31206a4a" style="stroke:#1f77b4;"/>
    </defs>
    <g clip-path="url(#p00c525d458)">
     <use style="fill:#1f77b4;stroke:#1f77b4;" x="141.160563" xlink:href="#m0e31206a4a" y="218.316483"/>
     <use style="fill:#1f77b4;stroke:#1f77b4;" x="153.735211" xlink:href="#m0e31206a4a" y="237.01434"/>
     <use style="fill:#1f77b4;stroke:#1f77b4;" x="166.309859" xlink:href="#m0e31206a4a" y="249.463842"/>
     <use style="fill:#1f77b4;stroke:#1f77b4;" x="178.884507" xlink:href="#m0e31206a4a" y="256.352163"/>
     <use style="fill:#1f77b4;stroke:#1f77b4;" x="191.459155" xlink:href="#m0e31206a4a" y="261.477088"/>
     <use style="fill:#1f77b4;stroke:#1f77b4;" x="204.033803" xlink:href="#m0e31206a4a" y="264.877725"/>
     <use style="fill:#1f77b4;stroke:#1f77b4;" x="216.608451" xlink:href="#m0e31206a4a" y="267.517275"/>
     <use style="fill:#1f77b4;stroke:#1f77b4;" x="229.183099" xlink:href="#m0e31206a4a" y="270.008786"/>
     <use style="fill:#1f77b4;stroke:#1f77b4;" x="241.757746" xlink:href="#m0e31206a4a" y="271.272815"/>
     <use style="fill:#1f77b4;stroke:#1f77b4;" x="254.332394" xlink:href="#m0e31206a4a" y="272.872039"/>
     <use style="fill:#1f77b4;stroke:#1f77b4;" x="266.907042" xlink:href="#m0e31206a4a" y="274.227515"/>
     <use style="fill:#1f77b4;stroke:#1f77b4;" x="279.48169" xlink:href="#m0e31206a4a" y="275.269833"/>
     <use style="fill:#1f77b4;stroke:#1f77b4;" x="292.056338" xlink:href="#m0e31206a4a" y="275.545832"/>
     <use style="fill:#1f77b4;stroke:#1f77b4;" x="304.630986" xlink:href="#m0e31206a4a" y="275.831252"/>
     <use style="fill:#1f77b4;stroke:#1f77b4;" x="317.205634" xlink:href="#m0e31206a4a" y="276.888095"/>
     <use style="fill:#1f77b4;stroke:#1f77b4;" x="329.780282" xlink:href="#m0e31206a4a" y="277.277083"/>
     <use style="fill:#1f77b4;stroke:#1f77b4;" x="342.35493" xlink:href="#m0e31206a4a" y="277.646409"/>
     <use style="fill:#1f77b4;stroke:#1f77b4;" x="354.929577" xlink:href="#m0e31206a4a" y="277.88799"/>
     <use style="fill:#1f77b4;stroke:#1f77b4;" x="367.504225" xlink:href="#m0e31206a4a" y="278.188061"/>
     <use style="fill:#1f77b4;stroke:#1f77b4;" x="380.078873" xlink:href="#m0e31206a4a" y="278.752265"/>
     <use style="fill:#1f77b4;stroke:#1f77b4;" x="392.653521" xlink:href="#m0e31206a4a" y="279.150287"/>
     <use style="fill:#1f77b4;stroke:#1f77b4;" x="405.228169" xlink:href="#m0e31206a4a" y="279.469751"/>
     <use style="fill:#1f77b4;stroke:#1f77b4;" x="417.802817" xlink:href="#m0e31206a4a" y="280.842285"/>
     <use style="fill:#1f77b4;stroke:#1f77b4;" x="430.377465" xlink:href="#m0e31206a4a" y="279.896477"/>
     <use style="fill:#1f77b4;stroke:#1f77b4;" x="442.952113" xlink:href="#m0e31206a4a" y="279.567302"/>
    </g>
   </g>
   <g id="patch_3">
    <path d="M 72 378 
L 72 51.84 
" style="fill:none;stroke:#000000;stroke-linecap:square;stroke-linejoin:miter;stroke-width:0.8;"/>
   </g>
   <g id="patch_4">
    <path d="M 518.4 378 
L 518.4 51.84 
" style="fill:none;stroke:#000000;stroke-linecap:square;stroke-linejoin:miter;stroke-width:0.8;"/>
   </g>
   <g id="patch_5">
    <path d="M 72 378 
L 518.4 378 
" style="fill:none;stroke:#000000;stroke-linecap:square;stroke-linejoin:miter;stroke-width:0.8;"/>
   </g>
   <g id="patch_6">
    <path d="M 72 51.84 
L 518.4 51.84 
" style="fill:none;stroke:#000000;stroke-linecap:square;stroke-linejoin:miter;stroke-width:0.8;"/>
   </g>
   <g id="text_18">
    <!-- y = Ae    + Cx + D -->
    <g transform="translate(279.48169 80.325714)scale(0.2 -0.2)">
     <defs>
      <path d="M 32.171875 -5.078125 
Q 28.375 -14.84375 24.75 -17.8125 
Q 21.140625 -20.796875 15.09375 -20.796875 
L 7.90625 -20.796875 
L 7.90625 -13.28125 
L 13.1875 -13.28125 
Q 16.890625 -13.28125 18.9375 -11.515625 
Q 21 -9.765625 23.484375 -3.21875 
L 25.09375 0.875 
L 2.984375 54.6875 
L 12.5 54.6875 
L 29.59375 11.921875 
L 46.6875 54.6875 
L 56.203125 54.6875 
z
" id="DejaVuSans-121"/>
      <path d="M 10.59375 45.40625 
L 73.1875 45.40625 
L 73.1875 37.203125 
L 10.59375 37.203125 
z
M 10.59375 25.484375 
L 73.1875 25.484375 
L 73.1875 17.1875 
L 10.59375 17.1875 
z
" id="DejaVuSans-61"/>
      <path d="M 34.1875 63.1875 
L 20.796875 26.90625 
L 47.609375 26.90625 
z
M 28.609375 72.90625 
L 39.796875 72.90625 
L 67.578125 0 
L 57.328125 0 
L 50.6875 18.703125 
L 17.828125 18.703125 
L 11.1875 0 
L 0.78125 0 
z
" id="DejaVuSans-65"/>
      <path d="M 46 62.703125 
L 46 35.5 
L 73.1875 35.5 
L 73.1875 27.203125 
L 46 27.203125 
L 46 0 
L 37.796875 0 
L 37.796875 27.203125 
L 10.59375 27.203125 
L 10.59375 35.5 
L 37.796875 35.5 
L 37.796875 62.703125 
z
" id="DejaVuSans-43"/>
      <path d="M 64.40625 67.28125 
L 64.40625 56.890625 
Q 59.421875 61.53125 53.78125 63.8125 
Q 48.140625 66.109375 41.796875 66.109375 
Q 29.296875 66.109375 22.65625 58.46875 
Q 16.015625 50.828125 16.015625 36.375 
Q 16.015625 21.96875 22.65625 14.328125 
Q 29.296875 6.6875 41.796875 6.6875 
Q 48.140625 6.6875 53.78125 8.984375 
Q 59.421875 11.28125 64.40625 15.921875 
L 64.40625 5.609375 
Q 59.234375 2.09375 53.4375 0.328125 
Q 47.65625 -1.421875 41.21875 -1.421875 
Q 24.65625 -1.421875 15.125 8.703125 
Q 5.609375 18.84375 5.609375 36.375 
Q 5.609375 53.953125 15.125 64.078125 
Q 24.65625 74.21875 41.21875 74.21875 
Q 47.75 74.21875 53.53125 72.484375 
Q 59.328125 70.75 64.40625 67.28125 
z
" id="DejaVuSans-67"/>
      <path d="M 54.890625 54.6875 
L 35.109375 28.078125 
L 55.90625 0 
L 45.3125 0 
L 29.390625 21.484375 
L 13.484375 0 
L 2.875 0 
L 24.125 28.609375 
L 4.6875 54.6875 
L 15.28125 54.6875 
L 29.78125 35.203125 
L 44.28125 54.6875 
z
" id="DejaVuSans-120"/>
     </defs>
     <use xlink:href="#DejaVuSans-121"/>
     <use x="59.179688" xlink:href="#DejaVuSans-32"/>
     <use x="90.966797" xlink:href="#DejaVuSans-61"/>
     <use x="174.755859" xlink:href="#DejaVuSans-32"/>
     <use x="206.542969" xlink:href="#DejaVuSans-65"/>
     <use x="273.201172" xlink:href="#DejaVuSans-101"/>
     <use x="334.724609" xlink:href="#DejaVuSans-32"/>
     <use x="366.511719" xlink:href="#DejaVuSans-32"/>
     <use x="398.298828" xlink:href="#DejaVuSans-32"/>
     <use x="430.085938" xlink:href="#DejaVuSans-32"/>
     <use x="461.873047" xlink:href="#DejaVuSans-43"/>
     <use x="545.662109" xlink:href="#DejaVuSans-32"/>
     <use x="577.449219" xlink:href="#DejaVuSans-67"/>
     <use x="647.273438" xlink:href="#DejaVuSans-120"/>
     <use x="706.453125" xlink:href="#DejaVuSans-32"/>
     <use x="738.240234" xlink:href="#DejaVuSans-43"/>
     <use x="822.029297" xlink:href="#DejaVuSans-32"/>
     <use x="853.816406" xlink:href="#DejaVuSans-68"/>
    </g>
   </g>
   <g id="text_19">
    <!-- Bx -->
    <g transform="translate(348.642254 73.335583)scale(0.16 -0.16)">
     <defs>
      <path d="M 19.671875 34.8125 
L 19.671875 8.109375 
L 35.5 8.109375 
Q 43.453125 8.109375 47.28125 11.40625 
Q 51.125 14.703125 51.125 21.484375 
Q 51.125 28.328125 47.28125 31.5625 
Q 43.453125 34.8125 35.5 34.8125 
z
M 19.671875 64.796875 
L 19.671875 42.828125 
L 34.28125 42.828125 
Q 41.5 42.828125 45.03125 45.53125 
Q 48.578125 48.25 48.578125 53.8125 
Q 48.578125 59.328125 45.03125 62.0625 
Q 41.5 64.796875 34.28125 64.796875 
z
M 9.8125 72.90625 
L 35.015625 72.90625 
Q 46.296875 72.90625 52.390625 68.21875 
Q 58.5 63.53125 58.5 54.890625 
Q 58.5 48.1875 55.375 44.234375 
Q 52.25 40.28125 46.1875 39.3125 
Q 53.46875 37.75 57.5 32.78125 
Q 61.53125 27.828125 61.53125 20.40625 
Q 61.53125 10.640625 54.890625 5.3125 
Q 48.25 0 35.984375 0 
L 9.8125 0 
z
" id="DejaVuSans-66"/>
     </defs>
     <use xlink:href="#DejaVuSans-66"/>
     <use x="68.603516" xlink:href="#DejaVuSans-120"/>
    </g>
   </g>
   <g id="text_20">
    <!-- A = (102 -->
    <g transform="translate(292.056338 107.005602)scale(0.2 -0.2)">
     <use xlink:href="#DejaVuSans-65"/>
     <use x="68.408203" xlink:href="#DejaVuSans-32"/>
     <use x="100.195312" xlink:href="#DejaVuSans-61"/>
     <use x="183.984375" xlink:href="#DejaVuSans-32"/>
     <use x="215.771484" xlink:href="#DejaVuSans-40"/>
     <use x="254.785156" xlink:href="#DejaVuSans-49"/>
     <use x="318.408203" xlink:href="#DejaVuSans-48"/>
     <use x="382.03125" xlink:href="#DejaVuSans-50"/>
    </g>
   </g>
   <g id="text_21">
    <!-- $\pm$ -->
    <g transform="translate(380.078873 107.005602)scale(0.2 -0.2)">
     <defs>
      <path d="M 46 62.703125 
L 46 43.796875 
L 73.1875 43.796875 
L 73.1875 35.5 
L 46 35.5 
L 46 16.609375 
L 37.796875 16.609375 
L 37.796875 35.5 
L 10.59375 35.5 
L 10.59375 43.796875 
L 37.796875 43.796875 
L 37.796875 62.703125 
z
M 10.59375 8.296875 
L 73.1875 8.296875 
L 73.1875 0 
L 10.59375 0 
z
" id="DejaVuSans-177"/>
     </defs>
     <use transform="translate(0 0.296875)" xlink:href="#DejaVuSans-177"/>
    </g>
   </g>
   <g id="text_22">
    <!-- 3)x10 -->
    <g transform="translate(405.228169 107.005602)scale(0.2 -0.2)">
     <use xlink:href="#DejaVuSans-51"/>
     <use x="63.623047" xlink:href="#DejaVuSans-41"/>
     <use x="102.636719" xlink:href="#DejaVuSans-120"/>
     <use x="161.816406" xlink:href="#DejaVuSans-49"/>
     <use x="225.439453" xlink:href="#DejaVuSans-48"/>
    </g>
   </g>
   <g id="text_23">
    <!-- -1 -->
    <g transform="translate(461.814085 100.015471)scale(0.16 -0.16)">
     <defs>
      <path d="M 4.890625 31.390625 
L 31.203125 31.390625 
L 31.203125 23.390625 
L 4.890625 23.390625 
z
" id="DejaVuSans-45"/>
     </defs>
     <use xlink:href="#DejaVuSans-45"/>
     <use x="36.083984" xlink:href="#DejaVuSans-49"/>
    </g>
   </g>
   <g id="text_24">
    <!-- B = (-298 -->
    <g transform="translate(292.056338 133.68549)scale(0.2 -0.2)">
     <defs>
      <path d="M 10.984375 1.515625 
L 10.984375 10.5 
Q 14.703125 8.734375 18.5 7.8125 
Q 22.3125 6.890625 25.984375 6.890625 
Q 35.75 6.890625 40.890625 13.453125 
Q 46.046875 20.015625 46.78125 33.40625 
Q 43.953125 29.203125 39.59375 26.953125 
Q 35.25 24.703125 29.984375 24.703125 
Q 19.046875 24.703125 12.671875 31.3125 
Q 6.296875 37.9375 6.296875 49.421875 
Q 6.296875 60.640625 12.9375 67.421875 
Q 19.578125 74.21875 30.609375 74.21875 
Q 43.265625 74.21875 49.921875 64.515625 
Q 56.59375 54.828125 56.59375 36.375 
Q 56.59375 19.140625 48.40625 8.859375 
Q 40.234375 -1.421875 26.421875 -1.421875 
Q 22.703125 -1.421875 18.890625 -0.6875 
Q 15.09375 0.046875 10.984375 1.515625 
z
M 30.609375 32.421875 
Q 37.25 32.421875 41.125 36.953125 
Q 45.015625 41.5 45.015625 49.421875 
Q 45.015625 57.28125 41.125 61.84375 
Q 37.25 66.40625 30.609375 66.40625 
Q 23.96875 66.40625 20.09375 61.84375 
Q 16.21875 57.28125 16.21875 49.421875 
Q 16.21875 41.5 20.09375 36.953125 
Q 23.96875 32.421875 30.609375 32.421875 
z
" id="DejaVuSans-57"/>
     </defs>
     <use xlink:href="#DejaVuSans-66"/>
     <use x="68.603516" xlink:href="#DejaVuSans-32"/>
     <use x="100.390625" xlink:href="#DejaVuSans-61"/>
     <use x="184.179688" xlink:href="#DejaVuSans-32"/>
     <use x="215.966797" xlink:href="#DejaVuSans-40"/>
     <use x="254.980469" xlink:href="#DejaVuSans-45"/>
     <use x="291.064453" xlink:href="#DejaVuSans-50"/>
     <use x="354.6875" xlink:href="#DejaVuSans-57"/>
     <use x="418.310547" xlink:href="#DejaVuSans-56"/>
    </g>
   </g>
   <g id="text_25">
    <!-- $\pm$ -->
    <g transform="translate(392.653521 133.68549)scale(0.2 -0.2)">
     <use transform="translate(0 0.296875)" xlink:href="#DejaVuSans-177"/>
    </g>
   </g>
   <g id="text_26">
    <!-- 4)x10 -->
    <g transform="translate(411.515493 133.68549)scale(0.2 -0.2)">
     <use xlink:href="#DejaVuSans-52"/>
     <use x="63.623047" xlink:href="#DejaVuSans-41"/>
     <use x="102.636719" xlink:href="#DejaVuSans-120"/>
     <use x="161.816406" xlink:href="#DejaVuSans-49"/>
     <use x="225.439453" xlink:href="#DejaVuSans-48"/>
    </g>
   </g>
   <g id="text_27">
    <!-- -1 -->
    <g transform="translate(468.101408 126.695359)scale(0.16 -0.16)">
     <use xlink:href="#DejaVuSans-45"/>
     <use x="36.083984" xlink:href="#DejaVuSans-49"/>
    </g>
   </g>
   <g id="text_28">
    <!-- C = (8972 -->
    <g transform="translate(292.056338 160.365378)scale(0.2 -0.2)">
     <defs>
      <path d="M 8.203125 72.90625 
L 55.078125 72.90625 
L 55.078125 68.703125 
L 28.609375 0 
L 18.3125 0 
L 43.21875 64.59375 
L 8.203125 64.59375 
z
" id="DejaVuSans-55"/>
     </defs>
     <use xlink:href="#DejaVuSans-67"/>
     <use x="69.824219" xlink:href="#DejaVuSans-32"/>
     <use x="101.611328" xlink:href="#DejaVuSans-61"/>
     <use x="185.400391" xlink:href="#DejaVuSans-32"/>
     <use x="217.1875" xlink:href="#DejaVuSans-40"/>
     <use x="256.201172" xlink:href="#DejaVuSans-56"/>
     <use x="319.824219" xlink:href="#DejaVuSans-57"/>
     <use x="383.447266" xlink:href="#DejaVuSans-55"/>
     <use x="447.070312" xlink:href="#DejaVuSans-50"/>
    </g>
   </g>
   <g id="text_29">
    <!-- $\pm$ -->
    <g transform="translate(405.228169 160.365378)scale(0.2 -0.2)">
     <use transform="translate(0 0.296875)" xlink:href="#DejaVuSans-177"/>
    </g>
   </g>
   <g id="text_30">
    <!-- 3)x10 -->
    <g transform="translate(424.090141 160.365378)scale(0.2 -0.2)">
     <use xlink:href="#DejaVuSans-51"/>
     <use x="63.623047" xlink:href="#DejaVuSans-41"/>
     <use x="102.636719" xlink:href="#DejaVuSans-120"/>
     <use x="161.816406" xlink:href="#DejaVuSans-49"/>
     <use x="225.439453" xlink:href="#DejaVuSans-48"/>
    </g>
   </g>
   <g id="text_31">
    <!-- -3 -->
    <g transform="translate(480.676056 153.375247)scale(0.16 -0.16)">
     <use xlink:href="#DejaVuSans-45"/>
     <use x="36.083984" xlink:href="#DejaVuSans-51"/>
    </g>
   </g>
   <g id="text_32">
    <!-- $R^2$ -->
    <g transform="translate(279.48169 189.713255)scale(0.2 -0.2)">
     <defs>
      <path d="M 25.203125 64.796875 
L 20.21875 38.921875 
L 32.90625 38.921875 
Q 40.375 38.921875 44.984375 43.046875 
Q 49.609375 47.171875 49.609375 53.8125 
Q 49.609375 59.125 46.5 61.953125 
Q 43.40625 64.796875 37.59375 64.796875 
z
M 43.3125 35.015625 
Q 46.4375 34.28125 48.515625 31.390625 
Q 50.59375 28.515625 53.328125 19.921875 
L 59.515625 0 
L 49.125 0 
L 43.40625 18.703125 
Q 41.21875 25.921875 38.328125 28.359375 
Q 35.453125 30.8125 29.5 30.8125 
L 18.609375 30.8125 
L 12.59375 0 
L 2.6875 0 
L 16.890625 72.90625 
L 39.109375 72.90625 
Q 49.21875 72.90625 54.609375 68.328125 
Q 60.015625 63.765625 60.015625 55.171875 
Q 60.015625 47.5625 55.421875 41.984375 
Q 50.828125 36.421875 43.3125 35.015625 
z
" id="DejaVuSans-Oblique-82"/>
     </defs>
     <use transform="translate(0 0.765625)" xlink:href="#DejaVuSans-Oblique-82"/>
     <use transform="translate(76.499193 39.046875)scale(0.7)" xlink:href="#DejaVuSans-50"/>
    </g>
   </g>
   <g id="text_33">
    <!-- = 0.991 -->
    <g transform="translate(310.91831 189.713255)scale(0.2 -0.2)">
     <use xlink:href="#DejaVuSans-61"/>
     <use x="83.789062" xlink:href="#DejaVuSans-32"/>
     <use x="115.576172" xlink:href="#DejaVuSans-48"/>
     <use x="179.199219" xlink:href="#DejaVuSans-46"/>
     <use x="210.986328" xlink:href="#DejaVuSans-57"/>
     <use x="274.609375" xlink:href="#DejaVuSans-57"/>
     <use x="338.232422" xlink:href="#DejaVuSans-49"/>
    </g>
   </g>
   <g id="text_34">
    <!-- Model accuracy as sample size increases -->
    <g transform="translate(48.631875 26.84)scale(0.24 -0.24)">
     <defs>
      <path d="M 45.40625 46.390625 
L 45.40625 75.984375 
L 54.390625 75.984375 
L 54.390625 0 
L 45.40625 0 
L 45.40625 8.203125 
Q 42.578125 3.328125 38.25 0.953125 
Q 33.9375 -1.421875 27.875 -1.421875 
Q 17.96875 -1.421875 11.734375 6.484375 
Q 5.515625 14.40625 5.515625 27.296875 
Q 5.515625 40.1875 11.734375 48.09375 
Q 17.96875 56 27.875 56 
Q 33.9375 56 38.25 53.625 
Q 42.578125 51.265625 45.40625 46.390625 
z
M 14.796875 27.296875 
Q 14.796875 17.390625 18.875 11.75 
Q 22.953125 6.109375 30.078125 6.109375 
Q 37.203125 6.109375 41.296875 11.75 
Q 45.40625 17.390625 45.40625 27.296875 
Q 45.40625 37.203125 41.296875 42.84375 
Q 37.203125 48.484375 30.078125 48.484375 
Q 22.953125 48.484375 18.875 42.84375 
Q 14.796875 37.203125 14.796875 27.296875 
z
" id="DejaVuSans-100"/>
      <path d="M 48.78125 52.59375 
L 48.78125 44.1875 
Q 44.96875 46.296875 41.140625 47.34375 
Q 37.3125 48.390625 33.40625 48.390625 
Q 24.65625 48.390625 19.8125 42.84375 
Q 14.984375 37.3125 14.984375 27.296875 
Q 14.984375 17.28125 19.8125 11.734375 
Q 24.65625 6.203125 33.40625 6.203125 
Q 37.3125 6.203125 41.140625 7.25 
Q 44.96875 8.296875 48.78125 10.40625 
L 48.78125 2.09375 
Q 45.015625 0.34375 40.984375 -0.53125 
Q 36.96875 -1.421875 32.421875 -1.421875 
Q 20.0625 -1.421875 12.78125 6.34375 
Q 5.515625 14.109375 5.515625 27.296875 
Q 5.515625 40.671875 12.859375 48.328125 
Q 20.21875 56 33.015625 56 
Q 37.15625 56 41.109375 55.140625 
Q 45.0625 54.296875 48.78125 52.59375 
z
" id="DejaVuSans-99"/>
      <path d="M 18.109375 8.203125 
L 18.109375 -20.796875 
L 9.078125 -20.796875 
L 9.078125 54.6875 
L 18.109375 54.6875 
L 18.109375 46.390625 
Q 20.953125 51.265625 25.265625 53.625 
Q 29.59375 56 35.59375 56 
Q 45.5625 56 51.78125 48.09375 
Q 58.015625 40.1875 58.015625 27.296875 
Q 58.015625 14.40625 51.78125 6.484375 
Q 45.5625 -1.421875 35.59375 -1.421875 
Q 29.59375 -1.421875 25.265625 0.953125 
Q 20.953125 3.328125 18.109375 8.203125 
z
M 48.6875 27.296875 
Q 48.6875 37.203125 44.609375 42.84375 
Q 40.53125 48.484375 33.40625 48.484375 
Q 26.265625 48.484375 22.1875 42.84375 
Q 18.109375 37.203125 18.109375 27.296875 
Q 18.109375 17.390625 22.1875 11.75 
Q 26.265625 6.109375 33.40625 6.109375 
Q 40.53125 6.109375 44.609375 11.75 
Q 48.6875 17.390625 48.6875 27.296875 
z
" id="DejaVuSans-112"/>
      <path d="M 5.515625 54.6875 
L 48.1875 54.6875 
L 48.1875 46.484375 
L 14.40625 7.171875 
L 48.1875 7.171875 
L 48.1875 0 
L 4.296875 0 
L 4.296875 8.203125 
L 38.09375 47.515625 
L 5.515625 47.515625 
z
" id="DejaVuSans-122"/>
     </defs>
     <use xlink:href="#DejaVuSans-77"/>
     <use x="86.279297" xlink:href="#DejaVuSans-111"/>
     <use x="147.460938" xlink:href="#DejaVuSans-100"/>
     <use x="210.9375" xlink:href="#DejaVuSans-101"/>
     <use x="272.460938" xlink:href="#DejaVuSans-108"/>
     <use x="300.244141" xlink:href="#DejaVuSans-32"/>
     <use x="332.03125" xlink:href="#DejaVuSans-97"/>
     <use x="393.310547" xlink:href="#DejaVuSans-99"/>
     <use x="448.291016" xlink:href="#DejaVuSans-99"/>
     <use x="503.271484" xlink:href="#DejaVuSans-117"/>
     <use x="566.650391" xlink:href="#DejaVuSans-114"/>
     <use x="607.763672" xlink:href="#DejaVuSans-97"/>
     <use x="669.042969" xlink:href="#DejaVuSans-99"/>
     <use x="724.023438" xlink:href="#DejaVuSans-121"/>
     <use x="783.203125" xlink:href="#DejaVuSans-32"/>
     <use x="814.990234" xlink:href="#DejaVuSans-97"/>
     <use x="876.269531" xlink:href="#DejaVuSans-115"/>
     <use x="928.369141" xlink:href="#DejaVuSans-32"/>
     <use x="960.15625" xlink:href="#DejaVuSans-115"/>
     <use x="1012.255859" xlink:href="#DejaVuSans-97"/>
     <use x="1073.535156" xlink:href="#DejaVuSans-109"/>
     <use x="1170.947266" xlink:href="#DejaVuSans-112"/>
     <use x="1234.423828" xlink:href="#DejaVuSans-108"/>
     <use x="1262.207031" xlink:href="#DejaVuSans-101"/>
     <use x="1323.730469" xlink:href="#DejaVuSans-32"/>
     <use x="1355.517578" xlink:href="#DejaVuSans-115"/>
     <use x="1407.617188" xlink:href="#DejaVuSans-105"/>
     <use x="1435.400391" xlink:href="#DejaVuSans-122"/>
     <use x="1487.890625" xlink:href="#DejaVuSans-101"/>
     <use x="1549.414062" xlink:href="#DejaVuSans-32"/>
     <use x="1581.201172" xlink:href="#DejaVuSans-105"/>
     <use x="1608.984375" xlink:href="#DejaVuSans-110"/>
     <use x="1672.363281" xlink:href="#DejaVuSans-99"/>
     <use x="1727.34375" xlink:href="#DejaVuSans-114"/>
     <use x="1766.207031" xlink:href="#DejaVuSans-101"/>
     <use x="1827.730469" xlink:href="#DejaVuSans-97"/>
     <use x="1889.009766" xlink:href="#DejaVuSans-115"/>
     <use x="1941.109375" xlink:href="#DejaVuSans-101"/>
     <use x="2002.632812" xlink:href="#DejaVuSans-115"/>
    </g>
   </g>
  </g>
 </g>
 <defs>
  <clipPath id="p00c525d458">
   <rect height="326.16" width="446.4" x="72" y="51.84"/>
  </clipPath>
 </defs>
</svg>
