<?xml version="1.0" encoding="utf-8" standalone="no"?>
<!DOCTYPE svg PUBLIC "-//W3C//DTD SVG 1.1//EN"
  "http://www.w3.org/Graphics/SVG/1.1/DTD/svg11.dtd">
<!-- Created with matplotlib (https://matplotlib.org/) -->
<svg height="576pt" version="1.1" viewBox="0 0 720 576" width="720pt" xmlns="http://www.w3.org/2000/svg" xmlns:xlink="http://www.w3.org/1999/xlink">
 <metadata>
  <rdf:RDF xmlns:cc="http://creativecommons.org/ns#" xmlns:dc="http://purl.org/dc/elements/1.1/" xmlns:rdf="http://www.w3.org/1999/02/22-rdf-syntax-ns#">
   <cc:Work>
    <dc:type rdf:resource="http://purl.org/dc/dcmitype/StillImage"/>
    <dc:date>2021-11-12T17:24:31.466672</dc:date>
    <dc:format>image/svg+xml</dc:format>
    <dc:creator>
     <cc:Agent>
      <dc:title>Matplotlib v3.3.2, https://matplotlib.org/</dc:title>
     </cc:Agent>
    </dc:creator>
   </cc:Work>
  </rdf:RDF>
 </metadata>
 <defs>
  <style type="text/css">*{stroke-linecap:butt;stroke-linejoin:round;}</style>
 </defs>
 <g id="figure_1">
  <g id="patch_1">
   <path d="M 0 576 
L 720 576 
L 720 0 
L 0 0 
z
" style="fill:none;"/>
  </g>
  <g id="axes_1">
   <g id="patch_2">
    <path d="M 90 504 
L 648 504 
L 648 69.12 
L 90 69.12 
z
" style="fill:#ffffff;"/>
   </g>
   <g id="PolyCollection_1">
    <defs>
     <path d="M 106.818312 -72 
L 106.818312 -99.879264 
L 210.492238 -167.88422 
L 217.215099 -172.329796 
L 235.292058 -184.316838 
L 240.957849 -188.085117 
L 243.4718 -189.759016 
L 243.714255 -189.920517 
L 244.526343 -190.461534 
L 245.589584 -191.170065 
L 247.710304 -192.583946 
L 248.432768 -193.065816 
L 255.977974 -198.104756 
L 258.011591 -199.464954 
L 259.308551 -200.332915 
L 262.305739 -202.340171 
L 263.256028 -202.977024 
L 266.279712 -205.004821 
L 267.561951 -205.865403 
L 275.148167 -210.965335 
L 278.050173 -212.920193 
L 278.401231 -213.156826 
L 354.153853 -265.154387 
L 359.963106 -269.228151 
L 362.22822 -270.819998 
L 357.645712 -267.601547 
L 377.280113 -281.445717 
L 420.420971 -312.315262 
L 433.844344 -322.025535 
L 494.507432 -366.334726 
L 504.173286 -373.442293 
L 513.065792 -379.989665 
L 527.515116 -390.643757 
L 535.214214 -396.327562 
L 551.840127 -408.615868 
L 586.388978 -434.20261 
L 623.16348 -461.495239 
L 642.703148 -476.015029 
L 642.703148 -442.857395 
L 642.703148 -442.857395 
L 623.16348 -430.139993 
L 586.388978 -406.171046 
L 551.840127 -383.598644 
L 535.214214 -372.711367 
L 527.515116 -367.663064 
L 513.065792 -358.175616 
L 504.173286 -352.327337 
L 494.507432 -345.96125 
L 433.844344 -305.709526 
L 420.420971 -296.708377 
L 377.280113 -267.442005 
L 357.645712 -253.916929 
L 362.22822 -257.086236 
L 359.963106 -255.520642 
L 354.153853 -251.496636 
L 278.401231 -197.899324 
L 278.050173 -197.646604 
L 275.148167 -195.556228 
L 267.561951 -190.081405 
L 266.279712 -189.154618 
L 263.256028 -186.967571 
L 262.305739 -186.279776 
L 259.308551 -184.109121 
L 258.011591 -183.169192 
L 255.977974 -181.694644 
L 248.432768 -176.215993 
L 247.710304 -175.690789 
L 245.589584 -174.148507 
L 244.526343 -173.374938 
L 243.714255 -172.783951 
L 243.4718 -172.607483 
L 240.957849 -170.777077 
L 235.292058 -166.647564 
L 217.215099 -153.436348 
L 210.492238 -148.510635 
L 106.818312 -72 
z
" id="m647b2a36f7" style="stroke:#d8dcd6;"/>
    </defs>
    <g clip-path="url(#pe1a664610b)">
     <use style="fill:#d8dcd6;stroke:#d8dcd6;" x="0" xlink:href="#m647b2a36f7" y="576"/>
    </g>
   </g>
   <g id="PathCollection_1">
    <defs>
     <path d="M -3 3 
L 3 -3 
M -3 -3 
L 3 3 
" id="me5bc547d4a" style="stroke:#000000;stroke-width:1.5;"/>
    </defs>
    <g clip-path="url(#pe1a664610b)">
     <use style="stroke:#000000;stroke-width:1.5;" x="106.818312" xlink:href="#me5bc547d4a" y="474.908546"/>
     <use style="stroke:#000000;stroke-width:1.5;" x="210.492238" xlink:href="#me5bc547d4a" y="388.545921"/>
     <use style="stroke:#000000;stroke-width:1.5;" x="217.215099" xlink:href="#me5bc547d4a" y="388.545921"/>
     <use style="stroke:#000000;stroke-width:1.5;" x="235.292058" xlink:href="#me5bc547d4a" y="388.545921"/>
     <use style="stroke:#000000;stroke-width:1.5;" x="240.957849" xlink:href="#me5bc547d4a" y="388.545921"/>
     <use style="stroke:#000000;stroke-width:1.5;" x="243.4718" xlink:href="#me5bc547d4a" y="388.545921"/>
     <use style="stroke:#000000;stroke-width:1.5;" x="243.714255" xlink:href="#me5bc547d4a" y="388.545921"/>
     <use style="stroke:#000000;stroke-width:1.5;" x="244.526343" xlink:href="#me5bc547d4a" y="388.545921"/>
     <use style="stroke:#000000;stroke-width:1.5;" x="245.589584" xlink:href="#me5bc547d4a" y="388.545921"/>
     <use style="stroke:#000000;stroke-width:1.5;" x="247.710304" xlink:href="#me5bc547d4a" y="388.545921"/>
     <use style="stroke:#000000;stroke-width:1.5;" x="248.432768" xlink:href="#me5bc547d4a" y="388.545921"/>
     <use style="stroke:#000000;stroke-width:1.5;" x="255.977974" xlink:href="#me5bc547d4a" y="388.545921"/>
     <use style="stroke:#000000;stroke-width:1.5;" x="258.011591" xlink:href="#me5bc547d4a" y="388.545921"/>
     <use style="stroke:#000000;stroke-width:1.5;" x="259.308551" xlink:href="#me5bc547d4a" y="388.545921"/>
     <use style="stroke:#000000;stroke-width:1.5;" x="262.305739" xlink:href="#me5bc547d4a" y="388.545921"/>
     <use style="stroke:#000000;stroke-width:1.5;" x="263.256028" xlink:href="#me5bc547d4a" y="388.545921"/>
     <use style="stroke:#000000;stroke-width:1.5;" x="266.279712" xlink:href="#me5bc547d4a" y="388.545921"/>
     <use style="stroke:#000000;stroke-width:1.5;" x="267.561951" xlink:href="#me5bc547d4a" y="388.545921"/>
     <use style="stroke:#000000;stroke-width:1.5;" x="275.148167" xlink:href="#me5bc547d4a" y="388.545921"/>
     <use style="stroke:#000000;stroke-width:1.5;" x="278.050173" xlink:href="#me5bc547d4a" y="388.545921"/>
     <use style="stroke:#000000;stroke-width:1.5;" x="278.401231" xlink:href="#me5bc547d4a" y="388.545921"/>
     <use style="stroke:#000000;stroke-width:1.5;" x="354.153853" xlink:href="#me5bc547d4a" y="305.365365"/>
     <use style="stroke:#000000;stroke-width:1.5;" x="359.963106" xlink:href="#me5bc547d4a" y="344.204554"/>
     <use style="stroke:#000000;stroke-width:1.5;" x="362.22822" xlink:href="#me5bc547d4a" y="344.204554"/>
     <use style="stroke:#000000;stroke-width:1.5;" x="357.645712" xlink:href="#me5bc547d4a" y="305.365365"/>
     <use style="stroke:#000000;stroke-width:1.5;" x="377.280113" xlink:href="#me5bc547d4a" y="293.012786"/>
     <use style="stroke:#000000;stroke-width:1.5;" x="420.420971" xlink:href="#me5bc547d4a" y="293.012786"/>
     <use style="stroke:#000000;stroke-width:1.5;" x="433.844344" xlink:href="#me5bc547d4a" y="260.968872"/>
     <use style="stroke:#000000;stroke-width:1.5;" x="494.507432" xlink:href="#me5bc547d4a" y="234.448106"/>
     <use style="stroke:#000000;stroke-width:1.5;" x="504.173286" xlink:href="#me5bc547d4a" y="234.448106"/>
     <use style="stroke:#000000;stroke-width:1.5;" x="513.065792" xlink:href="#me5bc547d4a" y="192.09568"/>
     <use style="stroke:#000000;stroke-width:1.5;" x="527.515116" xlink:href="#me5bc547d4a" y="180.218678"/>
     <use style="stroke:#000000;stroke-width:1.5;" x="535.214214" xlink:href="#me5bc547d4a" y="180.218678"/>
     <use style="stroke:#000000;stroke-width:1.5;" x="551.840127" xlink:href="#me5bc547d4a" y="180.218678"/>
     <use style="stroke:#000000;stroke-width:1.5;" x="586.388978" xlink:href="#me5bc547d4a" y="174.606247"/>
     <use style="stroke:#000000;stroke-width:1.5;" x="623.16348" xlink:href="#me5bc547d4a" y="123.469605"/>
     <use style="stroke:#000000;stroke-width:1.5;" x="642.703148" xlink:href="#me5bc547d4a" y="79.073112"/>
    </g>
   </g>
   <g id="matplotlib.axis_1">
    <g id="xtick_1">
     <g id="line2d_1">
      <defs>
       <path d="M 0 0 
L 0 3.5 
" id="m58a02b0cc7" style="stroke:#000000;stroke-width:0.8;"/>
      </defs>
      <g>
       <use style="stroke:#000000;stroke-width:0.8;" x="135.396295" xlink:href="#m58a02b0cc7" y="504"/>
      </g>
     </g>
     <g id="text_1">
      <!-- 20 -->
      <g transform="translate(122.671295 526.196875)scale(0.2 -0.2)">
       <defs>
        <path d="M 19.1875 8.296875 
L 53.609375 8.296875 
L 53.609375 0 
L 7.328125 0 
L 7.328125 8.296875 
Q 12.9375 14.109375 22.625 23.890625 
Q 32.328125 33.6875 34.8125 36.53125 
Q 39.546875 41.84375 41.421875 45.53125 
Q 43.3125 49.21875 43.3125 52.78125 
Q 43.3125 58.59375 39.234375 62.25 
Q 35.15625 65.921875 28.609375 65.921875 
Q 23.96875 65.921875 18.8125 64.3125 
Q 13.671875 62.703125 7.8125 59.421875 
L 7.8125 69.390625 
Q 13.765625 71.78125 18.9375 73 
Q 24.125 74.21875 28.421875 74.21875 
Q 39.75 74.21875 46.484375 68.546875 
Q 53.21875 62.890625 53.21875 53.421875 
Q 53.21875 48.921875 51.53125 44.890625 
Q 49.859375 40.875 45.40625 35.40625 
Q 44.1875 33.984375 37.640625 27.21875 
Q 31.109375 20.453125 19.1875 8.296875 
z
" id="DejaVuSans-50"/>
        <path d="M 31.78125 66.40625 
Q 24.171875 66.40625 20.328125 58.90625 
Q 16.5 51.421875 16.5 36.375 
Q 16.5 21.390625 20.328125 13.890625 
Q 24.171875 6.390625 31.78125 6.390625 
Q 39.453125 6.390625 43.28125 13.890625 
Q 47.125 21.390625 47.125 36.375 
Q 47.125 51.421875 43.28125 58.90625 
Q 39.453125 66.40625 31.78125 66.40625 
z
M 31.78125 74.21875 
Q 44.046875 74.21875 50.515625 64.515625 
Q 56.984375 54.828125 56.984375 36.375 
Q 56.984375 17.96875 50.515625 8.265625 
Q 44.046875 -1.421875 31.78125 -1.421875 
Q 19.53125 -1.421875 13.0625 8.265625 
Q 6.59375 17.96875 6.59375 36.375 
Q 6.59375 54.828125 13.0625 64.515625 
Q 19.53125 74.21875 31.78125 74.21875 
z
" id="DejaVuSans-48"/>
       </defs>
       <use xlink:href="#DejaVuSans-50"/>
       <use x="63.623047" xlink:href="#DejaVuSans-48"/>
      </g>
     </g>
    </g>
    <g id="xtick_2">
     <g id="line2d_2">
      <g>
       <use style="stroke:#000000;stroke-width:0.8;" x="279.987176" xlink:href="#m58a02b0cc7" y="504"/>
      </g>
     </g>
     <g id="text_2">
      <!-- 50 -->
      <g transform="translate(267.262176 526.196875)scale(0.2 -0.2)">
       <defs>
        <path d="M 10.796875 72.90625 
L 49.515625 72.90625 
L 49.515625 64.59375 
L 19.828125 64.59375 
L 19.828125 46.734375 
Q 21.96875 47.46875 24.109375 47.828125 
Q 26.265625 48.1875 28.421875 48.1875 
Q 40.625 48.1875 47.75 41.5 
Q 54.890625 34.8125 54.890625 23.390625 
Q 54.890625 11.625 47.5625 5.09375 
Q 40.234375 -1.421875 26.90625 -1.421875 
Q 22.3125 -1.421875 17.546875 -0.640625 
Q 12.796875 0.140625 7.71875 1.703125 
L 7.71875 11.625 
Q 12.109375 9.234375 16.796875 8.0625 
Q 21.484375 6.890625 26.703125 6.890625 
Q 35.15625 6.890625 40.078125 11.328125 
Q 45.015625 15.765625 45.015625 23.390625 
Q 45.015625 31 40.078125 35.4375 
Q 35.15625 39.890625 26.703125 39.890625 
Q 22.75 39.890625 18.8125 39.015625 
Q 14.890625 38.140625 10.796875 36.28125 
z
" id="DejaVuSans-53"/>
       </defs>
       <use xlink:href="#DejaVuSans-53"/>
       <use x="63.623047" xlink:href="#DejaVuSans-48"/>
      </g>
     </g>
    </g>
    <g id="xtick_3">
     <g id="line2d_3">
      <g>
       <use style="stroke:#000000;stroke-width:0.8;" x="389.365955" xlink:href="#m58a02b0cc7" y="504"/>
      </g>
     </g>
     <g id="text_3">
      <!-- 100 -->
      <g transform="translate(370.278455 526.196875)scale(0.2 -0.2)">
       <defs>
        <path d="M 12.40625 8.296875 
L 28.515625 8.296875 
L 28.515625 63.921875 
L 10.984375 60.40625 
L 10.984375 69.390625 
L 28.421875 72.90625 
L 38.28125 72.90625 
L 38.28125 8.296875 
L 54.390625 8.296875 
L 54.390625 0 
L 12.40625 0 
z
" id="DejaVuSans-49"/>
       </defs>
       <use xlink:href="#DejaVuSans-49"/>
       <use x="63.623047" xlink:href="#DejaVuSans-48"/>
       <use x="127.246094" xlink:href="#DejaVuSans-48"/>
      </g>
     </g>
    </g>
    <g id="xtick_4">
     <g id="line2d_4">
      <g>
       <use style="stroke:#000000;stroke-width:0.8;" x="533.956836" xlink:href="#m58a02b0cc7" y="504"/>
      </g>
     </g>
     <g id="text_4">
      <!-- 250 -->
      <g transform="translate(514.869336 526.196875)scale(0.2 -0.2)">
       <use xlink:href="#DejaVuSans-50"/>
       <use x="63.623047" xlink:href="#DejaVuSans-53"/>
       <use x="127.246094" xlink:href="#DejaVuSans-48"/>
      </g>
     </g>
    </g>
    <g id="xtick_5">
     <g id="line2d_5">
      <g>
       <use style="stroke:#000000;stroke-width:0.8;" x="643.335614" xlink:href="#m58a02b0cc7" y="504"/>
      </g>
     </g>
     <g id="text_5">
      <!-- 500 -->
      <g transform="translate(624.248114 526.196875)scale(0.2 -0.2)">
       <use xlink:href="#DejaVuSans-53"/>
       <use x="63.623047" xlink:href="#DejaVuSans-48"/>
       <use x="127.246094" xlink:href="#DejaVuSans-48"/>
      </g>
     </g>
    </g>
    <g id="xtick_6">
     <g id="line2d_6">
      <defs>
       <path d="M 0 0 
L 0 2 
" id="m47076a6023" style="stroke:#000000;stroke-width:0.6;"/>
      </defs>
      <g>
       <use style="stroke:#000000;stroke-width:0.6;" x="199.378779" xlink:href="#m47076a6023" y="504"/>
      </g>
     </g>
    </g>
    <g id="xtick_7">
     <g id="line2d_7">
      <g>
       <use style="stroke:#000000;stroke-width:0.6;" x="244.775074" xlink:href="#m47076a6023" y="504"/>
      </g>
     </g>
    </g>
    <g id="xtick_8">
     <g id="line2d_8">
      <g>
       <use style="stroke:#000000;stroke-width:0.6;" x="308.757558" xlink:href="#m47076a6023" y="504"/>
      </g>
     </g>
    </g>
    <g id="xtick_9">
     <g id="line2d_9">
      <g>
       <use style="stroke:#000000;stroke-width:0.6;" x="333.082569" xlink:href="#m47076a6023" y="504"/>
      </g>
     </g>
    </g>
    <g id="xtick_10">
     <g id="line2d_10">
      <g>
       <use style="stroke:#000000;stroke-width:0.6;" x="354.153853" xlink:href="#m47076a6023" y="504"/>
      </g>
     </g>
    </g>
    <g id="xtick_11">
     <g id="line2d_11">
      <g>
       <use style="stroke:#000000;stroke-width:0.6;" x="372.740042" xlink:href="#m47076a6023" y="504"/>
      </g>
     </g>
    </g>
    <g id="xtick_12">
     <g id="line2d_12">
      <g>
       <use style="stroke:#000000;stroke-width:0.6;" x="498.744734" xlink:href="#m47076a6023" y="504"/>
      </g>
     </g>
    </g>
    <g id="xtick_13">
     <g id="line2d_13">
      <g>
       <use style="stroke:#000000;stroke-width:0.6;" x="562.727218" xlink:href="#m47076a6023" y="504"/>
      </g>
     </g>
    </g>
    <g id="xtick_14">
     <g id="line2d_14">
      <g>
       <use style="stroke:#000000;stroke-width:0.6;" x="608.123513" xlink:href="#m47076a6023" y="504"/>
      </g>
     </g>
    </g>
    <g id="text_6">
     <!-- Genome size (kbp) -->
     <g transform="translate(274.7125 549.553125)scale(0.2 -0.2)">
      <defs>
       <path d="M 59.515625 10.40625 
L 59.515625 29.984375 
L 43.40625 29.984375 
L 43.40625 38.09375 
L 69.28125 38.09375 
L 69.28125 6.78125 
Q 63.578125 2.734375 56.6875 0.65625 
Q 49.8125 -1.421875 42 -1.421875 
Q 24.90625 -1.421875 15.25 8.5625 
Q 5.609375 18.5625 5.609375 36.375 
Q 5.609375 54.25 15.25 64.234375 
Q 24.90625 74.21875 42 74.21875 
Q 49.125 74.21875 55.546875 72.453125 
Q 61.96875 70.703125 67.390625 67.28125 
L 67.390625 56.78125 
Q 61.921875 61.421875 55.765625 63.765625 
Q 49.609375 66.109375 42.828125 66.109375 
Q 29.4375 66.109375 22.71875 58.640625 
Q 16.015625 51.171875 16.015625 36.375 
Q 16.015625 21.625 22.71875 14.15625 
Q 29.4375 6.6875 42.828125 6.6875 
Q 48.046875 6.6875 52.140625 7.59375 
Q 56.25 8.5 59.515625 10.40625 
z
" id="DejaVuSans-71"/>
       <path d="M 56.203125 29.59375 
L 56.203125 25.203125 
L 14.890625 25.203125 
Q 15.484375 15.921875 20.484375 11.0625 
Q 25.484375 6.203125 34.421875 6.203125 
Q 39.59375 6.203125 44.453125 7.46875 
Q 49.3125 8.734375 54.109375 11.28125 
L 54.109375 2.78125 
Q 49.265625 0.734375 44.1875 -0.34375 
Q 39.109375 -1.421875 33.890625 -1.421875 
Q 20.796875 -1.421875 13.15625 6.1875 
Q 5.515625 13.8125 5.515625 26.8125 
Q 5.515625 40.234375 12.765625 48.109375 
Q 20.015625 56 32.328125 56 
Q 43.359375 56 49.78125 48.890625 
Q 56.203125 41.796875 56.203125 29.59375 
z
M 47.21875 32.234375 
Q 47.125 39.59375 43.09375 43.984375 
Q 39.0625 48.390625 32.421875 48.390625 
Q 24.90625 48.390625 20.390625 44.140625 
Q 15.875 39.890625 15.1875 32.171875 
z
" id="DejaVuSans-101"/>
       <path d="M 54.890625 33.015625 
L 54.890625 0 
L 45.90625 0 
L 45.90625 32.71875 
Q 45.90625 40.484375 42.875 44.328125 
Q 39.84375 48.1875 33.796875 48.1875 
Q 26.515625 48.1875 22.3125 43.546875 
Q 18.109375 38.921875 18.109375 30.90625 
L 18.109375 0 
L 9.078125 0 
L 9.078125 54.6875 
L 18.109375 54.6875 
L 18.109375 46.1875 
Q 21.34375 51.125 25.703125 53.5625 
Q 30.078125 56 35.796875 56 
Q 45.21875 56 50.046875 50.171875 
Q 54.890625 44.34375 54.890625 33.015625 
z
" id="DejaVuSans-110"/>
       <path d="M 30.609375 48.390625 
Q 23.390625 48.390625 19.1875 42.75 
Q 14.984375 37.109375 14.984375 27.296875 
Q 14.984375 17.484375 19.15625 11.84375 
Q 23.34375 6.203125 30.609375 6.203125 
Q 37.796875 6.203125 41.984375 11.859375 
Q 46.1875 17.53125 46.1875 27.296875 
Q 46.1875 37.015625 41.984375 42.703125 
Q 37.796875 48.390625 30.609375 48.390625 
z
M 30.609375 56 
Q 42.328125 56 49.015625 48.375 
Q 55.71875 40.765625 55.71875 27.296875 
Q 55.71875 13.875 49.015625 6.21875 
Q 42.328125 -1.421875 30.609375 -1.421875 
Q 18.84375 -1.421875 12.171875 6.21875 
Q 5.515625 13.875 5.515625 27.296875 
Q 5.515625 40.765625 12.171875 48.375 
Q 18.84375 56 30.609375 56 
z
" id="DejaVuSans-111"/>
       <path d="M 52 44.1875 
Q 55.375 50.25 60.0625 53.125 
Q 64.75 56 71.09375 56 
Q 79.640625 56 84.28125 50.015625 
Q 88.921875 44.046875 88.921875 33.015625 
L 88.921875 0 
L 79.890625 0 
L 79.890625 32.71875 
Q 79.890625 40.578125 77.09375 44.375 
Q 74.3125 48.1875 68.609375 48.1875 
Q 61.625 48.1875 57.5625 43.546875 
Q 53.515625 38.921875 53.515625 30.90625 
L 53.515625 0 
L 44.484375 0 
L 44.484375 32.71875 
Q 44.484375 40.625 41.703125 44.40625 
Q 38.921875 48.1875 33.109375 48.1875 
Q 26.21875 48.1875 22.15625 43.53125 
Q 18.109375 38.875 18.109375 30.90625 
L 18.109375 0 
L 9.078125 0 
L 9.078125 54.6875 
L 18.109375 54.6875 
L 18.109375 46.1875 
Q 21.1875 51.21875 25.484375 53.609375 
Q 29.78125 56 35.6875 56 
Q 41.65625 56 45.828125 52.96875 
Q 50 49.953125 52 44.1875 
z
" id="DejaVuSans-109"/>
       <path id="DejaVuSans-32"/>
       <path d="M 44.28125 53.078125 
L 44.28125 44.578125 
Q 40.484375 46.53125 36.375 47.5 
Q 32.28125 48.484375 27.875 48.484375 
Q 21.1875 48.484375 17.84375 46.4375 
Q 14.5 44.390625 14.5 40.28125 
Q 14.5 37.15625 16.890625 35.375 
Q 19.28125 33.59375 26.515625 31.984375 
L 29.59375 31.296875 
Q 39.15625 29.25 43.1875 25.515625 
Q 47.21875 21.78125 47.21875 15.09375 
Q 47.21875 7.46875 41.1875 3.015625 
Q 35.15625 -1.421875 24.609375 -1.421875 
Q 20.21875 -1.421875 15.453125 -0.5625 
Q 10.6875 0.296875 5.421875 2 
L 5.421875 11.28125 
Q 10.40625 8.6875 15.234375 7.390625 
Q 20.0625 6.109375 24.8125 6.109375 
Q 31.15625 6.109375 34.5625 8.28125 
Q 37.984375 10.453125 37.984375 14.40625 
Q 37.984375 18.0625 35.515625 20.015625 
Q 33.0625 21.96875 24.703125 23.78125 
L 21.578125 24.515625 
Q 13.234375 26.265625 9.515625 29.90625 
Q 5.8125 33.546875 5.8125 39.890625 
Q 5.8125 47.609375 11.28125 51.796875 
Q 16.75 56 26.8125 56 
Q 31.78125 56 36.171875 55.265625 
Q 40.578125 54.546875 44.28125 53.078125 
z
" id="DejaVuSans-115"/>
       <path d="M 9.421875 54.6875 
L 18.40625 54.6875 
L 18.40625 0 
L 9.421875 0 
z
M 9.421875 75.984375 
L 18.40625 75.984375 
L 18.40625 64.59375 
L 9.421875 64.59375 
z
" id="DejaVuSans-105"/>
       <path d="M 5.515625 54.6875 
L 48.1875 54.6875 
L 48.1875 46.484375 
L 14.40625 7.171875 
L 48.1875 7.171875 
L 48.1875 0 
L 4.296875 0 
L 4.296875 8.203125 
L 38.09375 47.515625 
L 5.515625 47.515625 
z
" id="DejaVuSans-122"/>
       <path d="M 31 75.875 
Q 24.46875 64.65625 21.28125 53.65625 
Q 18.109375 42.671875 18.109375 31.390625 
Q 18.109375 20.125 21.3125 9.0625 
Q 24.515625 -2 31 -13.1875 
L 23.1875 -13.1875 
Q 15.875 -1.703125 12.234375 9.375 
Q 8.59375 20.453125 8.59375 31.390625 
Q 8.59375 42.28125 12.203125 53.3125 
Q 15.828125 64.359375 23.1875 75.875 
z
" id="DejaVuSans-40"/>
       <path d="M 9.078125 75.984375 
L 18.109375 75.984375 
L 18.109375 31.109375 
L 44.921875 54.6875 
L 56.390625 54.6875 
L 27.390625 29.109375 
L 57.625 0 
L 45.90625 0 
L 18.109375 26.703125 
L 18.109375 0 
L 9.078125 0 
z
" id="DejaVuSans-107"/>
       <path d="M 48.6875 27.296875 
Q 48.6875 37.203125 44.609375 42.84375 
Q 40.53125 48.484375 33.40625 48.484375 
Q 26.265625 48.484375 22.1875 42.84375 
Q 18.109375 37.203125 18.109375 27.296875 
Q 18.109375 17.390625 22.1875 11.75 
Q 26.265625 6.109375 33.40625 6.109375 
Q 40.53125 6.109375 44.609375 11.75 
Q 48.6875 17.390625 48.6875 27.296875 
z
M 18.109375 46.390625 
Q 20.953125 51.265625 25.265625 53.625 
Q 29.59375 56 35.59375 56 
Q 45.5625 56 51.78125 48.09375 
Q 58.015625 40.1875 58.015625 27.296875 
Q 58.015625 14.40625 51.78125 6.484375 
Q 45.5625 -1.421875 35.59375 -1.421875 
Q 29.59375 -1.421875 25.265625 0.953125 
Q 20.953125 3.328125 18.109375 8.203125 
L 18.109375 0 
L 9.078125 0 
L 9.078125 75.984375 
L 18.109375 75.984375 
z
" id="DejaVuSans-98"/>
       <path d="M 18.109375 8.203125 
L 18.109375 -20.796875 
L 9.078125 -20.796875 
L 9.078125 54.6875 
L 18.109375 54.6875 
L 18.109375 46.390625 
Q 20.953125 51.265625 25.265625 53.625 
Q 29.59375 56 35.59375 56 
Q 45.5625 56 51.78125 48.09375 
Q 58.015625 40.1875 58.015625 27.296875 
Q 58.015625 14.40625 51.78125 6.484375 
Q 45.5625 -1.421875 35.59375 -1.421875 
Q 29.59375 -1.421875 25.265625 0.953125 
Q 20.953125 3.328125 18.109375 8.203125 
z
M 48.6875 27.296875 
Q 48.6875 37.203125 44.609375 42.84375 
Q 40.53125 48.484375 33.40625 48.484375 
Q 26.265625 48.484375 22.1875 42.84375 
Q 18.109375 37.203125 18.109375 27.296875 
Q 18.109375 17.390625 22.1875 11.75 
Q 26.265625 6.109375 33.40625 6.109375 
Q 40.53125 6.109375 44.609375 11.75 
Q 48.6875 17.390625 48.6875 27.296875 
z
" id="DejaVuSans-112"/>
       <path d="M 8.015625 75.875 
L 15.828125 75.875 
Q 23.140625 64.359375 26.78125 53.3125 
Q 30.421875 42.28125 30.421875 31.390625 
Q 30.421875 20.453125 26.78125 9.375 
Q 23.140625 -1.703125 15.828125 -13.1875 
L 8.015625 -13.1875 
Q 14.5 -2 17.703125 9.0625 
Q 20.90625 20.125 20.90625 31.390625 
Q 20.90625 42.671875 17.703125 53.65625 
Q 14.5 64.65625 8.015625 75.875 
z
" id="DejaVuSans-41"/>
      </defs>
      <use xlink:href="#DejaVuSans-71"/>
      <use x="77.490234" xlink:href="#DejaVuSans-101"/>
      <use x="139.013672" xlink:href="#DejaVuSans-110"/>
      <use x="202.392578" xlink:href="#DejaVuSans-111"/>
      <use x="263.574219" xlink:href="#DejaVuSans-109"/>
      <use x="360.986328" xlink:href="#DejaVuSans-101"/>
      <use x="422.509766" xlink:href="#DejaVuSans-32"/>
      <use x="454.296875" xlink:href="#DejaVuSans-115"/>
      <use x="506.396484" xlink:href="#DejaVuSans-105"/>
      <use x="534.179688" xlink:href="#DejaVuSans-122"/>
      <use x="586.669922" xlink:href="#DejaVuSans-101"/>
      <use x="648.193359" xlink:href="#DejaVuSans-32"/>
      <use x="679.980469" xlink:href="#DejaVuSans-40"/>
      <use x="718.994141" xlink:href="#DejaVuSans-107"/>
      <use x="776.904297" xlink:href="#DejaVuSans-98"/>
      <use x="840.380859" xlink:href="#DejaVuSans-112"/>
      <use x="903.857422" xlink:href="#DejaVuSans-41"/>
     </g>
    </g>
   </g>
   <g id="matplotlib.axis_2">
    <g id="ytick_1">
     <g id="line2d_15">
      <defs>
       <path d="M 0 0 
L -3.5 0 
" id="m47a7cb5b1f" style="stroke:#000000;stroke-width:0.8;"/>
      </defs>
      <g>
       <use style="stroke:#000000;stroke-width:0.8;" x="90" xlink:href="#m47a7cb5b1f" y="474.908546"/>
      </g>
     </g>
     <g id="text_7">
      <!-- 4.0 -->
      <g transform="translate(51.19375 482.506984)scale(0.2 -0.2)">
       <defs>
        <path d="M 37.796875 64.3125 
L 12.890625 25.390625 
L 37.796875 25.390625 
z
M 35.203125 72.90625 
L 47.609375 72.90625 
L 47.609375 25.390625 
L 58.015625 25.390625 
L 58.015625 17.1875 
L 47.609375 17.1875 
L 47.609375 0 
L 37.796875 0 
L 37.796875 17.1875 
L 4.890625 17.1875 
L 4.890625 26.703125 
z
" id="DejaVuSans-52"/>
        <path d="M 10.6875 12.40625 
L 21 12.40625 
L 21 0 
L 10.6875 0 
z
" id="DejaVuSans-46"/>
       </defs>
       <use xlink:href="#DejaVuSans-52"/>
       <use x="63.623047" xlink:href="#DejaVuSans-46"/>
       <use x="95.410156" xlink:href="#DejaVuSans-48"/>
      </g>
     </g>
    </g>
    <g id="ytick_2">
     <g id="line2d_16">
      <g>
       <use style="stroke:#000000;stroke-width:0.8;" x="90" xlink:href="#m47a7cb5b1f" y="430.608535"/>
      </g>
     </g>
     <g id="text_8">
      <!-- 5.33 -->
      <g transform="translate(38.46875 438.206973)scale(0.2 -0.2)">
       <defs>
        <path d="M 40.578125 39.3125 
Q 47.65625 37.796875 51.625 33 
Q 55.609375 28.21875 55.609375 21.1875 
Q 55.609375 10.40625 48.1875 4.484375 
Q 40.765625 -1.421875 27.09375 -1.421875 
Q 22.515625 -1.421875 17.65625 -0.515625 
Q 12.796875 0.390625 7.625 2.203125 
L 7.625 11.71875 
Q 11.71875 9.328125 16.59375 8.109375 
Q 21.484375 6.890625 26.8125 6.890625 
Q 36.078125 6.890625 40.9375 10.546875 
Q 45.796875 14.203125 45.796875 21.1875 
Q 45.796875 27.640625 41.28125 31.265625 
Q 36.765625 34.90625 28.71875 34.90625 
L 20.21875 34.90625 
L 20.21875 43.015625 
L 29.109375 43.015625 
Q 36.375 43.015625 40.234375 45.921875 
Q 44.09375 48.828125 44.09375 54.296875 
Q 44.09375 59.90625 40.109375 62.90625 
Q 36.140625 65.921875 28.71875 65.921875 
Q 24.65625 65.921875 20.015625 65.03125 
Q 15.375 64.15625 9.8125 62.3125 
L 9.8125 71.09375 
Q 15.4375 72.65625 20.34375 73.4375 
Q 25.25 74.21875 29.59375 74.21875 
Q 40.828125 74.21875 47.359375 69.109375 
Q 53.90625 64.015625 53.90625 55.328125 
Q 53.90625 49.265625 50.4375 45.09375 
Q 46.96875 40.921875 40.578125 39.3125 
z
" id="DejaVuSans-51"/>
       </defs>
       <use xlink:href="#DejaVuSans-53"/>
       <use x="63.623047" xlink:href="#DejaVuSans-46"/>
       <use x="95.410156" xlink:href="#DejaVuSans-51"/>
       <use x="159.033203" xlink:href="#DejaVuSans-51"/>
      </g>
     </g>
    </g>
    <g id="ytick_3">
     <g id="line2d_17">
      <g>
       <use style="stroke:#000000;stroke-width:0.8;" x="90" xlink:href="#m47a7cb5b1f" y="388.545921"/>
      </g>
     </g>
     <g id="text_9">
      <!-- 7.0 -->
      <g transform="translate(51.19375 396.144359)scale(0.2 -0.2)">
       <defs>
        <path d="M 8.203125 72.90625 
L 55.078125 72.90625 
L 55.078125 68.703125 
L 28.609375 0 
L 18.3125 0 
L 43.21875 64.59375 
L 8.203125 64.59375 
z
" id="DejaVuSans-55"/>
       </defs>
       <use xlink:href="#DejaVuSans-55"/>
       <use x="63.623047" xlink:href="#DejaVuSans-46"/>
       <use x="95.410156" xlink:href="#DejaVuSans-48"/>
      </g>
     </g>
    </g>
    <g id="ytick_4">
     <g id="line2d_18">
      <g>
       <use style="stroke:#000000;stroke-width:0.8;" x="90" xlink:href="#m47a7cb5b1f" y="349.761859"/>
      </g>
     </g>
     <g id="text_10">
      <!-- 9.0 -->
      <g transform="translate(51.19375 357.360297)scale(0.2 -0.2)">
       <defs>
        <path d="M 10.984375 1.515625 
L 10.984375 10.5 
Q 14.703125 8.734375 18.5 7.8125 
Q 22.3125 6.890625 25.984375 6.890625 
Q 35.75 6.890625 40.890625 13.453125 
Q 46.046875 20.015625 46.78125 33.40625 
Q 43.953125 29.203125 39.59375 26.953125 
Q 35.25 24.703125 29.984375 24.703125 
Q 19.046875 24.703125 12.671875 31.3125 
Q 6.296875 37.9375 6.296875 49.421875 
Q 6.296875 60.640625 12.9375 67.421875 
Q 19.578125 74.21875 30.609375 74.21875 
Q 43.265625 74.21875 49.921875 64.515625 
Q 56.59375 54.828125 56.59375 36.375 
Q 56.59375 19.140625 48.40625 8.859375 
Q 40.234375 -1.421875 26.421875 -1.421875 
Q 22.703125 -1.421875 18.890625 -0.6875 
Q 15.09375 0.046875 10.984375 1.515625 
z
M 30.609375 32.421875 
Q 37.25 32.421875 41.125 36.953125 
Q 45.015625 41.5 45.015625 49.421875 
Q 45.015625 57.28125 41.125 61.84375 
Q 37.25 66.40625 30.609375 66.40625 
Q 23.96875 66.40625 20.09375 61.84375 
Q 16.21875 57.28125 16.21875 49.421875 
Q 16.21875 41.5 20.09375 36.953125 
Q 23.96875 32.421875 30.609375 32.421875 
z
" id="DejaVuSans-57"/>
       </defs>
       <use xlink:href="#DejaVuSans-57"/>
       <use x="63.623047" xlink:href="#DejaVuSans-46"/>
       <use x="95.410156" xlink:href="#DejaVuSans-48"/>
      </g>
     </g>
    </g>
    <g id="ytick_5">
     <g id="line2d_19">
      <g>
       <use style="stroke:#000000;stroke-width:0.8;" x="90" xlink:href="#m47a7cb5b1f" y="344.204554"/>
      </g>
     </g>
     <g id="text_11">
      <!-- 9.33 -->
      <g transform="translate(38.46875 351.802991)scale(0.2 -0.2)">
       <use xlink:href="#DejaVuSans-57"/>
       <use x="63.623047" xlink:href="#DejaVuSans-46"/>
       <use x="95.410156" xlink:href="#DejaVuSans-51"/>
       <use x="159.033203" xlink:href="#DejaVuSans-51"/>
      </g>
     </g>
    </g>
    <g id="ytick_6">
     <g id="line2d_20">
      <g>
       <use style="stroke:#000000;stroke-width:0.8;" x="90" xlink:href="#m47a7cb5b1f" y="305.365365"/>
      </g>
     </g>
     <g id="text_12">
      <!-- 12.0 -->
      <g transform="translate(38.46875 312.963803)scale(0.2 -0.2)">
       <use xlink:href="#DejaVuSans-49"/>
       <use x="63.623047" xlink:href="#DejaVuSans-50"/>
       <use x="127.246094" xlink:href="#DejaVuSans-46"/>
       <use x="159.033203" xlink:href="#DejaVuSans-48"/>
      </g>
     </g>
    </g>
    <g id="ytick_7">
     <g id="line2d_21">
      <g>
       <use style="stroke:#000000;stroke-width:0.8;" x="90" xlink:href="#m47a7cb5b1f" y="293.012786"/>
      </g>
     </g>
     <g id="text_13">
      <!-- 13.0 -->
      <g transform="translate(38.46875 300.611224)scale(0.2 -0.2)">
       <use xlink:href="#DejaVuSans-49"/>
       <use x="63.623047" xlink:href="#DejaVuSans-51"/>
       <use x="127.246094" xlink:href="#DejaVuSans-46"/>
       <use x="159.033203" xlink:href="#DejaVuSans-48"/>
      </g>
     </g>
    </g>
    <g id="ytick_8">
     <g id="line2d_22">
      <g>
       <use style="stroke:#000000;stroke-width:0.8;" x="90" xlink:href="#m47a7cb5b1f" y="260.968872"/>
      </g>
     </g>
     <g id="text_14">
      <!-- 16.0 -->
      <g transform="translate(38.46875 268.567309)scale(0.2 -0.2)">
       <defs>
        <path d="M 33.015625 40.375 
Q 26.375 40.375 22.484375 35.828125 
Q 18.609375 31.296875 18.609375 23.390625 
Q 18.609375 15.53125 22.484375 10.953125 
Q 26.375 6.390625 33.015625 6.390625 
Q 39.65625 6.390625 43.53125 10.953125 
Q 47.40625 15.53125 47.40625 23.390625 
Q 47.40625 31.296875 43.53125 35.828125 
Q 39.65625 40.375 33.015625 40.375 
z
M 52.59375 71.296875 
L 52.59375 62.3125 
Q 48.875 64.0625 45.09375 64.984375 
Q 41.3125 65.921875 37.59375 65.921875 
Q 27.828125 65.921875 22.671875 59.328125 
Q 17.53125 52.734375 16.796875 39.40625 
Q 19.671875 43.65625 24.015625 45.921875 
Q 28.375 48.1875 33.59375 48.1875 
Q 44.578125 48.1875 50.953125 41.515625 
Q 57.328125 34.859375 57.328125 23.390625 
Q 57.328125 12.15625 50.6875 5.359375 
Q 44.046875 -1.421875 33.015625 -1.421875 
Q 20.359375 -1.421875 13.671875 8.265625 
Q 6.984375 17.96875 6.984375 36.375 
Q 6.984375 53.65625 15.1875 63.9375 
Q 23.390625 74.21875 37.203125 74.21875 
Q 40.921875 74.21875 44.703125 73.484375 
Q 48.484375 72.75 52.59375 71.296875 
z
" id="DejaVuSans-54"/>
       </defs>
       <use xlink:href="#DejaVuSans-49"/>
       <use x="63.623047" xlink:href="#DejaVuSans-54"/>
       <use x="127.246094" xlink:href="#DejaVuSans-46"/>
       <use x="159.033203" xlink:href="#DejaVuSans-48"/>
      </g>
     </g>
    </g>
    <g id="ytick_9">
     <g id="line2d_23">
      <g>
       <use style="stroke:#000000;stroke-width:0.8;" x="90" xlink:href="#m47a7cb5b1f" y="248.645973"/>
      </g>
     </g>
     <g id="text_15">
      <!-- 17.33 -->
      <g transform="translate(25.74375 256.244411)scale(0.2 -0.2)">
       <use xlink:href="#DejaVuSans-49"/>
       <use x="63.623047" xlink:href="#DejaVuSans-55"/>
       <use x="127.246094" xlink:href="#DejaVuSans-46"/>
       <use x="159.033203" xlink:href="#DejaVuSans-51"/>
       <use x="222.65625" xlink:href="#DejaVuSans-51"/>
      </g>
     </g>
    </g>
    <g id="ytick_10">
     <g id="line2d_24">
      <g>
       <use style="stroke:#000000;stroke-width:0.8;" x="90" xlink:href="#m47a7cb5b1f" y="234.448106"/>
      </g>
     </g>
     <g id="text_16">
      <!-- 19.0 -->
      <g transform="translate(38.46875 242.046543)scale(0.2 -0.2)">
       <use xlink:href="#DejaVuSans-49"/>
       <use x="63.623047" xlink:href="#DejaVuSans-57"/>
       <use x="127.246094" xlink:href="#DejaVuSans-46"/>
       <use x="159.033203" xlink:href="#DejaVuSans-48"/>
      </g>
     </g>
    </g>
    <g id="ytick_11">
     <g id="line2d_25">
      <g>
       <use style="stroke:#000000;stroke-width:0.8;" x="90" xlink:href="#m47a7cb5b1f" y="219.002741"/>
      </g>
     </g>
     <g id="text_17">
      <!-- 21.0 -->
      <g transform="translate(38.46875 226.601178)scale(0.2 -0.2)">
       <use xlink:href="#DejaVuSans-50"/>
       <use x="63.623047" xlink:href="#DejaVuSans-49"/>
       <use x="127.246094" xlink:href="#DejaVuSans-46"/>
       <use x="159.033203" xlink:href="#DejaVuSans-48"/>
      </g>
     </g>
    </g>
    <g id="ytick_12">
     <g id="line2d_26">
      <g>
       <use style="stroke:#000000;stroke-width:0.8;" x="90" xlink:href="#m47a7cb5b1f" y="216.596493"/>
      </g>
     </g>
     <g id="text_18">
      <!-- 21.33 -->
      <g transform="translate(25.74375 224.19493)scale(0.2 -0.2)">
       <use xlink:href="#DejaVuSans-50"/>
       <use x="63.623047" xlink:href="#DejaVuSans-49"/>
       <use x="127.246094" xlink:href="#DejaVuSans-46"/>
       <use x="159.033203" xlink:href="#DejaVuSans-51"/>
       <use x="222.65625" xlink:href="#DejaVuSans-51"/>
      </g>
     </g>
    </g>
    <g id="ytick_13">
     <g id="line2d_27">
      <g>
       <use style="stroke:#000000;stroke-width:0.8;" x="90" xlink:href="#m47a7cb5b1f" y="192.09568"/>
      </g>
     </g>
     <g id="text_19">
      <!-- 25.0 -->
      <g transform="translate(38.46875 199.694117)scale(0.2 -0.2)">
       <use xlink:href="#DejaVuSans-50"/>
       <use x="63.623047" xlink:href="#DejaVuSans-53"/>
       <use x="127.246094" xlink:href="#DejaVuSans-46"/>
       <use x="159.033203" xlink:href="#DejaVuSans-48"/>
      </g>
     </g>
    </g>
    <g id="ytick_14">
     <g id="line2d_28">
      <g>
       <use style="stroke:#000000;stroke-width:0.8;" x="90" xlink:href="#m47a7cb5b1f" y="190.071919"/>
      </g>
     </g>
     <g id="text_20">
      <!-- 25.33 -->
      <g transform="translate(25.74375 197.670357)scale(0.2 -0.2)">
       <use xlink:href="#DejaVuSans-50"/>
       <use x="63.623047" xlink:href="#DejaVuSans-53"/>
       <use x="127.246094" xlink:href="#DejaVuSans-46"/>
       <use x="159.033203" xlink:href="#DejaVuSans-51"/>
       <use x="222.65625" xlink:href="#DejaVuSans-51"/>
      </g>
     </g>
    </g>
    <g id="ytick_15">
     <g id="line2d_29">
      <g>
       <use style="stroke:#000000;stroke-width:0.8;" x="90" xlink:href="#m47a7cb5b1f" y="180.218678"/>
      </g>
     </g>
     <g id="text_21">
      <!-- 27.0 -->
      <g transform="translate(38.46875 187.817116)scale(0.2 -0.2)">
       <use xlink:href="#DejaVuSans-50"/>
       <use x="63.623047" xlink:href="#DejaVuSans-55"/>
       <use x="127.246094" xlink:href="#DejaVuSans-46"/>
       <use x="159.033203" xlink:href="#DejaVuSans-48"/>
      </g>
     </g>
    </g>
    <g id="ytick_16">
     <g id="line2d_30">
      <g>
       <use style="stroke:#000000;stroke-width:0.8;" x="90" xlink:href="#m47a7cb5b1f" y="174.606247"/>
      </g>
     </g>
     <g id="text_22">
      <!-- 28.0 -->
      <g transform="translate(38.46875 182.204684)scale(0.2 -0.2)">
       <defs>
        <path d="M 31.78125 34.625 
Q 24.75 34.625 20.71875 30.859375 
Q 16.703125 27.09375 16.703125 20.515625 
Q 16.703125 13.921875 20.71875 10.15625 
Q 24.75 6.390625 31.78125 6.390625 
Q 38.8125 6.390625 42.859375 10.171875 
Q 46.921875 13.96875 46.921875 20.515625 
Q 46.921875 27.09375 42.890625 30.859375 
Q 38.875 34.625 31.78125 34.625 
z
M 21.921875 38.8125 
Q 15.578125 40.375 12.03125 44.71875 
Q 8.5 49.078125 8.5 55.328125 
Q 8.5 64.0625 14.71875 69.140625 
Q 20.953125 74.21875 31.78125 74.21875 
Q 42.671875 74.21875 48.875 69.140625 
Q 55.078125 64.0625 55.078125 55.328125 
Q 55.078125 49.078125 51.53125 44.71875 
Q 48 40.375 41.703125 38.8125 
Q 48.828125 37.15625 52.796875 32.3125 
Q 56.78125 27.484375 56.78125 20.515625 
Q 56.78125 9.90625 50.3125 4.234375 
Q 43.84375 -1.421875 31.78125 -1.421875 
Q 19.734375 -1.421875 13.25 4.234375 
Q 6.78125 9.90625 6.78125 20.515625 
Q 6.78125 27.484375 10.78125 32.3125 
Q 14.796875 37.15625 21.921875 38.8125 
z
M 18.3125 54.390625 
Q 18.3125 48.734375 21.84375 45.5625 
Q 25.390625 42.390625 31.78125 42.390625 
Q 38.140625 42.390625 41.71875 45.5625 
Q 45.3125 48.734375 45.3125 54.390625 
Q 45.3125 60.0625 41.71875 63.234375 
Q 38.140625 66.40625 31.78125 66.40625 
Q 25.390625 66.40625 21.84375 63.234375 
Q 18.3125 60.0625 18.3125 54.390625 
z
" id="DejaVuSans-56"/>
       </defs>
       <use xlink:href="#DejaVuSans-50"/>
       <use x="63.623047" xlink:href="#DejaVuSans-56"/>
       <use x="127.246094" xlink:href="#DejaVuSans-46"/>
       <use x="159.033203" xlink:href="#DejaVuSans-48"/>
      </g>
     </g>
    </g>
    <g id="ytick_17">
     <g id="line2d_31">
      <g>
       <use style="stroke:#000000;stroke-width:0.8;" x="90" xlink:href="#m47a7cb5b1f" y="158.898648"/>
      </g>
     </g>
     <g id="text_23">
      <!-- 31.0 -->
      <g transform="translate(38.46875 166.497085)scale(0.2 -0.2)">
       <use xlink:href="#DejaVuSans-51"/>
       <use x="63.623047" xlink:href="#DejaVuSans-49"/>
       <use x="127.246094" xlink:href="#DejaVuSans-46"/>
       <use x="159.033203" xlink:href="#DejaVuSans-48"/>
      </g>
     </g>
    </g>
    <g id="ytick_18">
     <g id="line2d_32">
      <g>
       <use style="stroke:#000000;stroke-width:0.8;" x="90" xlink:href="#m47a7cb5b1f" y="147.714619"/>
      </g>
     </g>
     <g id="text_24">
      <!-- 33.33 -->
      <g transform="translate(25.74375 155.313057)scale(0.2 -0.2)">
       <use xlink:href="#DejaVuSans-51"/>
       <use x="63.623047" xlink:href="#DejaVuSans-51"/>
       <use x="127.246094" xlink:href="#DejaVuSans-46"/>
       <use x="159.033203" xlink:href="#DejaVuSans-51"/>
       <use x="222.65625" xlink:href="#DejaVuSans-51"/>
      </g>
     </g>
    </g>
    <g id="ytick_19">
     <g id="line2d_33">
      <g>
       <use style="stroke:#000000;stroke-width:0.8;" x="90" xlink:href="#m47a7cb5b1f" y="135.822185"/>
      </g>
     </g>
     <g id="text_25">
      <!-- 36.0 -->
      <g transform="translate(38.46875 143.420622)scale(0.2 -0.2)">
       <use xlink:href="#DejaVuSans-51"/>
       <use x="63.623047" xlink:href="#DejaVuSans-54"/>
       <use x="127.246094" xlink:href="#DejaVuSans-46"/>
       <use x="159.033203" xlink:href="#DejaVuSans-48"/>
      </g>
     </g>
    </g>
    <g id="ytick_20">
     <g id="line2d_34">
      <g>
       <use style="stroke:#000000;stroke-width:0.8;" x="90" xlink:href="#m47a7cb5b1f" y="131.593842"/>
      </g>
     </g>
     <g id="text_26">
      <!-- 37.0 -->
      <g transform="translate(38.46875 139.192279)scale(0.2 -0.2)">
       <use xlink:href="#DejaVuSans-51"/>
       <use x="63.623047" xlink:href="#DejaVuSans-55"/>
       <use x="127.246094" xlink:href="#DejaVuSans-46"/>
       <use x="159.033203" xlink:href="#DejaVuSans-48"/>
      </g>
     </g>
    </g>
    <g id="ytick_21">
     <g id="line2d_35">
      <g>
       <use style="stroke:#000000;stroke-width:0.8;" x="90" xlink:href="#m47a7cb5b1f" y="130.223533"/>
      </g>
     </g>
     <g id="text_27">
      <!-- 37.33 -->
      <g transform="translate(25.74375 137.82197)scale(0.2 -0.2)">
       <use xlink:href="#DejaVuSans-51"/>
       <use x="63.623047" xlink:href="#DejaVuSans-55"/>
       <use x="127.246094" xlink:href="#DejaVuSans-46"/>
       <use x="159.033203" xlink:href="#DejaVuSans-51"/>
       <use x="222.65625" xlink:href="#DejaVuSans-51"/>
      </g>
     </g>
    </g>
    <g id="ytick_22">
     <g id="line2d_36">
      <g>
       <use style="stroke:#000000;stroke-width:0.8;" x="90" xlink:href="#m47a7cb5b1f" y="123.469605"/>
      </g>
     </g>
     <g id="text_28">
      <!-- 39.0 -->
      <g transform="translate(38.46875 131.068043)scale(0.2 -0.2)">
       <use xlink:href="#DejaVuSans-51"/>
       <use x="63.623047" xlink:href="#DejaVuSans-57"/>
       <use x="127.246094" xlink:href="#DejaVuSans-46"/>
       <use x="159.033203" xlink:href="#DejaVuSans-48"/>
      </g>
     </g>
    </g>
    <g id="ytick_23">
     <g id="line2d_37">
      <g>
       <use style="stroke:#000000;stroke-width:0.8;" x="90" xlink:href="#m47a7cb5b1f" y="114.5146"/>
      </g>
     </g>
     <g id="text_29">
      <!-- 41.33 -->
      <g transform="translate(25.74375 122.113037)scale(0.2 -0.2)">
       <use xlink:href="#DejaVuSans-52"/>
       <use x="63.623047" xlink:href="#DejaVuSans-49"/>
       <use x="127.246094" xlink:href="#DejaVuSans-46"/>
       <use x="159.033203" xlink:href="#DejaVuSans-51"/>
       <use x="222.65625" xlink:href="#DejaVuSans-51"/>
      </g>
     </g>
    </g>
    <g id="ytick_24">
     <g id="line2d_38">
      <g>
       <use style="stroke:#000000;stroke-width:0.8;" x="90" xlink:href="#m47a7cb5b1f" y="108.401563"/>
      </g>
     </g>
     <g id="text_30">
      <!-- 43.0 -->
      <g transform="translate(38.46875 116)scale(0.2 -0.2)">
       <use xlink:href="#DejaVuSans-52"/>
       <use x="63.623047" xlink:href="#DejaVuSans-51"/>
       <use x="127.246094" xlink:href="#DejaVuSans-46"/>
       <use x="159.033203" xlink:href="#DejaVuSans-48"/>
      </g>
     </g>
    </g>
    <g id="ytick_25">
     <g id="line2d_39">
      <g>
       <use style="stroke:#000000;stroke-width:0.8;" x="90" xlink:href="#m47a7cb5b1f" y="91.425691"/>
      </g>
     </g>
     <g id="text_31">
      <!-- 48.0 -->
      <g transform="translate(38.46875 99.024128)scale(0.2 -0.2)">
       <use xlink:href="#DejaVuSans-52"/>
       <use x="63.623047" xlink:href="#DejaVuSans-56"/>
       <use x="127.246094" xlink:href="#DejaVuSans-46"/>
       <use x="159.033203" xlink:href="#DejaVuSans-48"/>
      </g>
     </g>
    </g>
    <g id="ytick_26">
     <g id="line2d_40">
      <g>
       <use style="stroke:#000000;stroke-width:0.8;" x="90" xlink:href="#m47a7cb5b1f" y="88.243622"/>
      </g>
     </g>
     <g id="text_32">
      <!-- 49.0 -->
      <g transform="translate(38.46875 95.84206)scale(0.2 -0.2)">
       <use xlink:href="#DejaVuSans-52"/>
       <use x="63.623047" xlink:href="#DejaVuSans-57"/>
       <use x="127.246094" xlink:href="#DejaVuSans-46"/>
       <use x="159.033203" xlink:href="#DejaVuSans-48"/>
      </g>
     </g>
    </g>
    <g id="ytick_27">
     <g id="line2d_41">
      <g>
       <use style="stroke:#000000;stroke-width:0.8;" x="90" xlink:href="#m47a7cb5b1f" y="87.207776"/>
      </g>
     </g>
     <g id="text_33">
      <!-- 49.33 -->
      <g transform="translate(25.74375 94.806213)scale(0.2 -0.2)">
       <use xlink:href="#DejaVuSans-52"/>
       <use x="63.623047" xlink:href="#DejaVuSans-57"/>
       <use x="127.246094" xlink:href="#DejaVuSans-46"/>
       <use x="159.033203" xlink:href="#DejaVuSans-51"/>
       <use x="222.65625" xlink:href="#DejaVuSans-51"/>
      </g>
     </g>
    </g>
    <g id="ytick_28">
     <g id="line2d_42">
      <g>
       <use style="stroke:#000000;stroke-width:0.8;" x="90" xlink:href="#m47a7cb5b1f" y="79.073112"/>
      </g>
     </g>
     <g id="text_34">
      <!-- 52.0 -->
      <g transform="translate(38.46875 86.671549)scale(0.2 -0.2)">
       <use xlink:href="#DejaVuSans-53"/>
       <use x="63.623047" xlink:href="#DejaVuSans-50"/>
       <use x="127.246094" xlink:href="#DejaVuSans-46"/>
       <use x="159.033203" xlink:href="#DejaVuSans-48"/>
      </g>
     </g>
    </g>
    <g id="ytick_29">
     <g id="line2d_43">
      <defs>
       <path d="M 0 0 
L -2 0 
" id="m602ccab4cb" style="stroke:#000000;stroke-width:0.6;"/>
      </defs>
      <g>
       <use style="stroke:#000000;stroke-width:0.6;" x="90" xlink:href="#m602ccab4cb" y="440.47195"/>
      </g>
     </g>
    </g>
    <g id="ytick_30">
     <g id="line2d_44">
      <g>
       <use style="stroke:#000000;stroke-width:0.6;" x="90" xlink:href="#m602ccab4cb" y="412.335203"/>
      </g>
     </g>
    </g>
    <g id="ytick_31">
     <g id="line2d_45">
      <g>
       <use style="stroke:#000000;stroke-width:0.6;" x="90" xlink:href="#m602ccab4cb" y="367.938709"/>
      </g>
     </g>
    </g>
    <g id="ytick_32">
     <g id="line2d_46">
      <g>
       <use style="stroke:#000000;stroke-width:0.6;" x="90" xlink:href="#m602ccab4cb" y="226.532276"/>
      </g>
     </g>
    </g>
    <g id="ytick_33">
     <g id="line2d_47">
      <g>
       <use style="stroke:#000000;stroke-width:0.6;" x="90" xlink:href="#m602ccab4cb" y="163.958932"/>
      </g>
     </g>
    </g>
    <g id="ytick_34">
     <g id="line2d_48">
      <g>
       <use style="stroke:#000000;stroke-width:0.6;" x="90" xlink:href="#m602ccab4cb" y="119.562438"/>
      </g>
     </g>
    </g>
    <g id="ytick_35">
     <g id="line2d_49">
      <g>
       <use style="stroke:#000000;stroke-width:0.6;" x="90" xlink:href="#m602ccab4cb" y="85.125842"/>
      </g>
     </g>
    </g>
    <g id="text_35">
     <!-- T-number -->
     <g transform="translate(17.584375 334.39125)rotate(-90)scale(0.2 -0.2)">
      <defs>
       <path d="M -0.296875 72.90625 
L 61.375 72.90625 
L 61.375 64.59375 
L 35.5 64.59375 
L 35.5 0 
L 25.59375 0 
L 25.59375 64.59375 
L -0.296875 64.59375 
z
" id="DejaVuSans-84"/>
       <path d="M 4.890625 31.390625 
L 31.203125 31.390625 
L 31.203125 23.390625 
L 4.890625 23.390625 
z
" id="DejaVuSans-45"/>
       <path d="M 8.5 21.578125 
L 8.5 54.6875 
L 17.484375 54.6875 
L 17.484375 21.921875 
Q 17.484375 14.15625 20.5 10.265625 
Q 23.53125 6.390625 29.59375 6.390625 
Q 36.859375 6.390625 41.078125 11.03125 
Q 45.3125 15.671875 45.3125 23.6875 
L 45.3125 54.6875 
L 54.296875 54.6875 
L 54.296875 0 
L 45.3125 0 
L 45.3125 8.40625 
Q 42.046875 3.421875 37.71875 1 
Q 33.40625 -1.421875 27.6875 -1.421875 
Q 18.265625 -1.421875 13.375 4.4375 
Q 8.5 10.296875 8.5 21.578125 
z
M 31.109375 56 
z
" id="DejaVuSans-117"/>
       <path d="M 41.109375 46.296875 
Q 39.59375 47.171875 37.8125 47.578125 
Q 36.03125 48 33.890625 48 
Q 26.265625 48 22.1875 43.046875 
Q 18.109375 38.09375 18.109375 28.8125 
L 18.109375 0 
L 9.078125 0 
L 9.078125 54.6875 
L 18.109375 54.6875 
L 18.109375 46.1875 
Q 20.953125 51.171875 25.484375 53.578125 
Q 30.03125 56 36.53125 56 
Q 37.453125 56 38.578125 55.875 
Q 39.703125 55.765625 41.0625 55.515625 
z
" id="DejaVuSans-114"/>
      </defs>
      <use xlink:href="#DejaVuSans-84"/>
      <use x="51.958984" xlink:href="#DejaVuSans-45"/>
      <use x="88.042969" xlink:href="#DejaVuSans-110"/>
      <use x="151.421875" xlink:href="#DejaVuSans-117"/>
      <use x="214.800781" xlink:href="#DejaVuSans-109"/>
      <use x="312.212891" xlink:href="#DejaVuSans-98"/>
      <use x="375.689453" xlink:href="#DejaVuSans-101"/>
      <use x="437.212891" xlink:href="#DejaVuSans-114"/>
     </g>
    </g>
   </g>
   <g id="line2d_50">
    <path clip-path="url(#pe1a664610b)" d="M 106.818312 490.060368 
L 210.492238 417.802572 
L 217.215099 413.116928 
L 235.292058 400.517799 
L 240.957849 396.568903 
L 243.4718 394.81675 
L 243.714255 394.647766 
L 244.526343 394.081764 
L 245.589584 393.340714 
L 247.710304 391.862633 
L 248.432768 391.359095 
L 255.977974 386.1003 
L 258.011591 384.682927 
L 259.308551 383.778982 
L 262.305739 381.690027 
L 263.256028 381.027703 
L 266.279712 378.92028 
L 267.561951 378.026596 
L 275.148167 372.739218 
L 278.050173 370.716602 
L 278.401231 370.471925 
L 354.153853 317.674489 
L 359.963106 313.625603 
L 362.22822 312.046883 
L 357.645712 315.240762 
L 377.280113 301.556139 
L 420.420971 271.48818 
L 433.844344 262.132469 
L 494.507432 219.852012 
L 504.173286 213.115185 
L 513.065792 206.917359 
L 527.515116 196.84659 
L 535.214214 191.480535 
L 551.840127 179.892744 
L 586.388978 155.813172 
L 623.16348 130.182384 
L 642.703148 116.563788 
" style="fill:none;stroke:#000000;stroke-dasharray:1.5,2.475;stroke-dashoffset:0;stroke-width:1.5;"/>
   </g>
   <g id="line2d_51">
    <path clip-path="url(#pe1a664610b)" d="M 106.818312 476.120736 
L 210.492238 408.11578 
L 217.215099 403.670204 
L 235.292058 391.683162 
L 240.957849 387.914883 
L 243.4718 386.240984 
L 243.714255 386.079483 
L 244.526343 385.538466 
L 245.589584 384.829935 
L 247.710304 383.416054 
L 248.432768 382.934184 
L 255.977974 377.895244 
L 258.011591 376.535046 
L 259.308551 375.667085 
L 262.305739 373.659829 
L 263.256028 373.022976 
L 266.279712 370.995179 
L 267.561951 370.134597 
L 275.148167 365.034665 
L 278.050173 363.079807 
L 278.401231 362.843174 
L 354.153853 310.845613 
L 359.963106 306.771849 
L 362.22822 305.180002 
L 357.645712 308.398453 
L 377.280113 294.554283 
L 420.420971 263.684738 
L 433.844344 253.974465 
L 494.507432 209.665274 
L 504.173286 202.557707 
L 513.065792 196.010335 
L 527.515116 185.356243 
L 535.214214 179.672438 
L 551.840127 167.384132 
L 586.388978 141.79739 
L 623.16348 114.504761 
L 642.703148 99.984971 
" style="fill:none;stroke:#808080;stroke-linecap:square;stroke-width:1.5;"/>
   </g>
   <g id="line2d_52">
    <path clip-path="url(#pe1a664610b)" d="M 106.818312 504 
L 210.492238 427.489365 
L 217.215099 422.563652 
L 235.292058 409.352436 
L 240.957849 405.222923 
L 243.4718 403.392517 
L 243.714255 403.216049 
L 244.526343 402.625062 
L 245.589584 401.851493 
L 247.710304 400.309211 
L 248.432768 399.784007 
L 255.977974 394.305356 
L 258.011591 392.830808 
L 259.308551 391.890879 
L 262.305739 389.720224 
L 263.256028 389.032429 
L 266.279712 386.845382 
L 267.561951 385.918595 
L 275.148167 380.443772 
L 278.050173 378.353396 
L 278.401231 378.100676 
L 354.153853 324.503364 
L 359.963106 320.479358 
L 362.22822 318.913764 
L 357.645712 322.083071 
L 377.280113 308.557995 
L 420.420971 279.291623 
L 433.844344 270.290474 
L 494.507432 230.03875 
L 504.173286 223.672663 
L 513.065792 217.824384 
L 527.515116 208.336936 
L 535.214214 203.288633 
L 551.840127 192.401356 
L 586.388978 169.828954 
L 623.16348 145.860007 
L 642.703148 133.142605 
" style="fill:none;stroke:#808080;stroke-linecap:square;stroke-width:1.5;"/>
   </g>
   <g id="line2d_53">
    <path clip-path="url(#pe1a664610b)" style="fill:none;stroke:#0000ff;stroke-linecap:square;stroke-opacity:0.1;stroke-width:1.5;"/>
   </g>
   <g id="line2d_54">
    <path clip-path="url(#pe1a664610b)" d="M 26.017516 504 
L 26.017516 69.12 
" style="fill:none;stroke:#0000ff;stroke-linecap:square;stroke-opacity:0.1;stroke-width:1.5;"/>
   </g>
   <g id="line2d_55">
    <path clip-path="url(#pe1a664610b)" d="M 135.396295 504 
L 135.396295 69.12 
" style="fill:none;stroke:#0000ff;stroke-linecap:square;stroke-opacity:0.1;stroke-width:1.5;"/>
   </g>
   <g id="line2d_56">
    <path clip-path="url(#pe1a664610b)" d="M 199.378779 504 
L 199.378779 69.12 
" style="fill:none;stroke:#0000ff;stroke-linecap:square;stroke-opacity:0.1;stroke-width:1.5;"/>
   </g>
   <g id="line2d_57">
    <path clip-path="url(#pe1a664610b)" d="M 244.775074 504 
L 244.775074 69.12 
" style="fill:none;stroke:#0000ff;stroke-linecap:square;stroke-opacity:0.1;stroke-width:1.5;"/>
   </g>
   <g id="line2d_58">
    <path clip-path="url(#pe1a664610b)" d="M 279.987176 504 
L 279.987176 69.12 
" style="fill:none;stroke:#0000ff;stroke-linecap:square;stroke-opacity:0.1;stroke-width:1.5;"/>
   </g>
   <g id="line2d_59">
    <path clip-path="url(#pe1a664610b)" d="M 308.757558 504 
L 308.757558 69.12 
" style="fill:none;stroke:#0000ff;stroke-linecap:square;stroke-opacity:0.1;stroke-width:1.5;"/>
   </g>
   <g id="line2d_60">
    <path clip-path="url(#pe1a664610b)" d="M 333.082569 504 
L 333.082569 69.12 
" style="fill:none;stroke:#0000ff;stroke-linecap:square;stroke-opacity:0.1;stroke-width:1.5;"/>
   </g>
   <g id="line2d_61">
    <path clip-path="url(#pe1a664610b)" d="M 354.153853 504 
L 354.153853 69.12 
" style="fill:none;stroke:#0000ff;stroke-linecap:square;stroke-opacity:0.1;stroke-width:1.5;"/>
   </g>
   <g id="line2d_62">
    <path clip-path="url(#pe1a664610b)" d="M 372.740042 504 
L 372.740042 69.12 
" style="fill:none;stroke:#0000ff;stroke-linecap:square;stroke-opacity:0.1;stroke-width:1.5;"/>
   </g>
   <g id="line2d_63">
    <path clip-path="url(#pe1a664610b)" d="M 389.365955 504 
L 389.365955 69.12 
" style="fill:none;stroke:#0000ff;stroke-linecap:square;stroke-opacity:0.1;stroke-width:1.5;"/>
   </g>
   <g id="line2d_64">
    <path clip-path="url(#pe1a664610b)" d="M 404.405922 504 
L 404.405922 69.12 
" style="fill:none;stroke:#0000ff;stroke-linecap:square;stroke-opacity:0.1;stroke-width:1.5;"/>
   </g>
   <g id="line2d_65">
    <path clip-path="url(#pe1a664610b)" d="M 418.136337 504 
L 418.136337 69.12 
" style="fill:none;stroke:#0000ff;stroke-linecap:square;stroke-opacity:0.1;stroke-width:1.5;"/>
   </g>
   <g id="line2d_66">
    <path clip-path="url(#pe1a664610b)" d="M 430.767094 504 
L 430.767094 69.12 
" style="fill:none;stroke:#0000ff;stroke-linecap:square;stroke-opacity:0.1;stroke-width:1.5;"/>
   </g>
   <g id="line2d_67">
    <path clip-path="url(#pe1a664610b)" d="M 442.461348 504 
L 442.461348 69.12 
" style="fill:none;stroke:#0000ff;stroke-linecap:square;stroke-opacity:0.1;stroke-width:1.5;"/>
   </g>
   <g id="line2d_68">
    <path clip-path="url(#pe1a664610b)" d="M 453.348439 504 
L 453.348439 69.12 
" style="fill:none;stroke:#0000ff;stroke-linecap:square;stroke-opacity:0.1;stroke-width:1.5;"/>
   </g>
   <g id="line2d_69">
    <path clip-path="url(#pe1a664610b)" d="M 463.532632 504 
L 463.532632 69.12 
" style="fill:none;stroke:#0000ff;stroke-linecap:square;stroke-opacity:0.1;stroke-width:1.5;"/>
   </g>
   <g id="line2d_70">
    <path clip-path="url(#pe1a664610b)" d="M 473.09921 504 
L 473.09921 69.12 
" style="fill:none;stroke:#0000ff;stroke-linecap:square;stroke-opacity:0.1;stroke-width:1.5;"/>
   </g>
   <g id="line2d_71">
    <path clip-path="url(#pe1a664610b)" d="M 482.118821 504 
L 482.118821 69.12 
" style="fill:none;stroke:#0000ff;stroke-linecap:square;stroke-opacity:0.1;stroke-width:1.5;"/>
   </g>
   <g id="line2d_72">
    <path clip-path="url(#pe1a664610b)" d="M 490.65064 504 
L 490.65064 69.12 
" style="fill:none;stroke:#0000ff;stroke-linecap:square;stroke-opacity:0.1;stroke-width:1.5;"/>
   </g>
   <g id="line2d_73">
    <path clip-path="url(#pe1a664610b)" d="M 498.744734 504 
L 498.744734 69.12 
" style="fill:none;stroke:#0000ff;stroke-linecap:square;stroke-opacity:0.1;stroke-width:1.5;"/>
   </g>
   <g id="line2d_74">
    <path clip-path="url(#pe1a664610b)" d="M 506.443832 504 
L 506.443832 69.12 
" style="fill:none;stroke:#0000ff;stroke-linecap:square;stroke-opacity:0.1;stroke-width:1.5;"/>
   </g>
   <g id="line2d_75">
    <path clip-path="url(#pe1a664610b)" d="M 513.784701 504 
L 513.784701 69.12 
" style="fill:none;stroke:#0000ff;stroke-linecap:square;stroke-opacity:0.1;stroke-width:1.5;"/>
   </g>
   <g id="line2d_76">
    <path clip-path="url(#pe1a664610b)" d="M 520.799199 504 
L 520.799199 69.12 
" style="fill:none;stroke:#0000ff;stroke-linecap:square;stroke-opacity:0.1;stroke-width:1.5;"/>
   </g>
   <g id="line2d_77">
    <path clip-path="url(#pe1a664610b)" d="M 527.515116 504 
L 527.515116 69.12 
" style="fill:none;stroke:#0000ff;stroke-linecap:square;stroke-opacity:0.1;stroke-width:1.5;"/>
   </g>
   <g id="line2d_78">
    <path clip-path="url(#pe1a664610b)" d="M 533.956836 504 
L 533.956836 69.12 
" style="fill:none;stroke:#0000ff;stroke-linecap:square;stroke-opacity:0.1;stroke-width:1.5;"/>
   </g>
   <g id="line2d_79">
    <path clip-path="url(#pe1a664610b)" d="M 540.145873 504 
L 540.145873 69.12 
" style="fill:none;stroke:#0000ff;stroke-linecap:square;stroke-opacity:0.1;stroke-width:1.5;"/>
   </g>
   <g id="line2d_80">
    <path clip-path="url(#pe1a664610b)" d="M 546.101305 504 
L 546.101305 69.12 
" style="fill:none;stroke:#0000ff;stroke-linecap:square;stroke-opacity:0.1;stroke-width:1.5;"/>
   </g>
   <g id="line2d_81">
    <path clip-path="url(#pe1a664610b)" d="M 551.840127 504 
L 551.840127 69.12 
" style="fill:none;stroke:#0000ff;stroke-linecap:square;stroke-opacity:0.1;stroke-width:1.5;"/>
   </g>
   <g id="line2d_82">
    <path clip-path="url(#pe1a664610b)" d="M 557.377545 504 
L 557.377545 69.12 
" style="fill:none;stroke:#0000ff;stroke-linecap:square;stroke-opacity:0.1;stroke-width:1.5;"/>
   </g>
   <g id="line2d_83">
    <path clip-path="url(#pe1a664610b)" d="M 562.727218 504 
L 562.727218 69.12 
" style="fill:none;stroke:#0000ff;stroke-linecap:square;stroke-opacity:0.1;stroke-width:1.5;"/>
   </g>
   <g id="line2d_84">
    <path clip-path="url(#pe1a664610b)" d="M 567.901459 504 
L 567.901459 69.12 
" style="fill:none;stroke:#0000ff;stroke-linecap:square;stroke-opacity:0.1;stroke-width:1.5;"/>
   </g>
   <g id="line2d_85">
    <path clip-path="url(#pe1a664610b)" d="M 572.911411 504 
L 572.911411 69.12 
" style="fill:none;stroke:#0000ff;stroke-linecap:square;stroke-opacity:0.1;stroke-width:1.5;"/>
   </g>
   <g id="line2d_86">
    <path clip-path="url(#pe1a664610b)" d="M 577.767185 504 
L 577.767185 69.12 
" style="fill:none;stroke:#0000ff;stroke-linecap:square;stroke-opacity:0.1;stroke-width:1.5;"/>
   </g>
   <g id="line2d_87">
    <path clip-path="url(#pe1a664610b)" d="M 582.477989 504 
L 582.477989 69.12 
" style="fill:none;stroke:#0000ff;stroke-linecap:square;stroke-opacity:0.1;stroke-width:1.5;"/>
   </g>
   <g id="line2d_88">
    <path clip-path="url(#pe1a664610b)" d="M 587.052229 504 
L 587.052229 69.12 
" style="fill:none;stroke:#0000ff;stroke-linecap:square;stroke-opacity:0.1;stroke-width:1.5;"/>
   </g>
   <g id="line2d_89">
    <path clip-path="url(#pe1a664610b)" d="M 591.4976 504 
L 591.4976 69.12 
" style="fill:none;stroke:#0000ff;stroke-linecap:square;stroke-opacity:0.1;stroke-width:1.5;"/>
   </g>
   <g id="line2d_90">
    <path clip-path="url(#pe1a664610b)" d="M 595.821164 504 
L 595.821164 69.12 
" style="fill:none;stroke:#0000ff;stroke-linecap:square;stroke-opacity:0.1;stroke-width:1.5;"/>
   </g>
   <g id="line2d_91">
    <path clip-path="url(#pe1a664610b)" d="M 600.029419 504 
L 600.029419 69.12 
" style="fill:none;stroke:#0000ff;stroke-linecap:square;stroke-opacity:0.1;stroke-width:1.5;"/>
   </g>
   <g id="line2d_92">
    <path clip-path="url(#pe1a664610b)" d="M 604.128357 504 
L 604.128357 69.12 
" style="fill:none;stroke:#0000ff;stroke-linecap:square;stroke-opacity:0.1;stroke-width:1.5;"/>
   </g>
   <g id="line2d_93">
    <path clip-path="url(#pe1a664610b)" d="M 608.123513 504 
L 608.123513 69.12 
" style="fill:none;stroke:#0000ff;stroke-linecap:square;stroke-opacity:0.1;stroke-width:1.5;"/>
   </g>
   <g id="line2d_94">
    <path clip-path="url(#pe1a664610b)" d="M 612.020012 504 
L 612.020012 69.12 
" style="fill:none;stroke:#0000ff;stroke-linecap:square;stroke-opacity:0.1;stroke-width:1.5;"/>
   </g>
   <g id="line2d_95">
    <path clip-path="url(#pe1a664610b)" d="M 615.822611 504 
L 615.822611 69.12 
" style="fill:none;stroke:#0000ff;stroke-linecap:square;stroke-opacity:0.1;stroke-width:1.5;"/>
   </g>
   <g id="line2d_96">
    <path clip-path="url(#pe1a664610b)" d="M 619.535729 504 
L 619.535729 69.12 
" style="fill:none;stroke:#0000ff;stroke-linecap:square;stroke-opacity:0.1;stroke-width:1.5;"/>
   </g>
   <g id="line2d_97">
    <path clip-path="url(#pe1a664610b)" d="M 623.16348 504 
L 623.16348 69.12 
" style="fill:none;stroke:#0000ff;stroke-linecap:square;stroke-opacity:0.1;stroke-width:1.5;"/>
   </g>
   <g id="line2d_98">
    <path clip-path="url(#pe1a664610b)" d="M 626.709702 504 
L 626.709702 69.12 
" style="fill:none;stroke:#0000ff;stroke-linecap:square;stroke-opacity:0.1;stroke-width:1.5;"/>
   </g>
   <g id="line2d_99">
    <path clip-path="url(#pe1a664610b)" d="M 630.177978 504 
L 630.177978 69.12 
" style="fill:none;stroke:#0000ff;stroke-linecap:square;stroke-opacity:0.1;stroke-width:1.5;"/>
   </g>
   <g id="line2d_100">
    <path clip-path="url(#pe1a664610b)" d="M 633.571662 504 
L 633.571662 69.12 
" style="fill:none;stroke:#0000ff;stroke-linecap:square;stroke-opacity:0.1;stroke-width:1.5;"/>
   </g>
   <g id="line2d_101">
    <path clip-path="url(#pe1a664610b)" d="M 636.893895 504 
L 636.893895 69.12 
" style="fill:none;stroke:#0000ff;stroke-linecap:square;stroke-opacity:0.1;stroke-width:1.5;"/>
   </g>
   <g id="line2d_102">
    <path clip-path="url(#pe1a664610b)" d="M 640.147623 504 
L 640.147623 69.12 
" style="fill:none;stroke:#0000ff;stroke-linecap:square;stroke-opacity:0.1;stroke-width:1.5;"/>
   </g>
   <g id="line2d_103">
    <path clip-path="url(#pe1a664610b)" d="M 643.335614 504 
L 643.335614 69.12 
" style="fill:none;stroke:#0000ff;stroke-linecap:square;stroke-opacity:0.1;stroke-width:1.5;"/>
   </g>
   <g id="line2d_104">
    <path clip-path="url(#pe1a664610b)" d="M 646.460473 504 
L 646.460473 69.12 
" style="fill:none;stroke:#0000ff;stroke-linecap:square;stroke-opacity:0.1;stroke-width:1.5;"/>
   </g>
   <g id="line2d_105">
    <path clip-path="url(#pe1a664610b)" d="M 649.524652 504 
L 649.524652 69.12 
" style="fill:none;stroke:#0000ff;stroke-linecap:square;stroke-opacity:0.1;stroke-width:1.5;"/>
   </g>
   <g id="line2d_106">
    <path clip-path="url(#pe1a664610b)" d="M 652.530461 504 
L 652.530461 69.12 
" style="fill:none;stroke:#0000ff;stroke-linecap:square;stroke-opacity:0.1;stroke-width:1.5;"/>
   </g>
   <g id="line2d_107">
    <path clip-path="url(#pe1a664610b)" d="M 655.480084 504 
L 655.480084 69.12 
" style="fill:none;stroke:#0000ff;stroke-linecap:square;stroke-opacity:0.1;stroke-width:1.5;"/>
   </g>
   <g id="line2d_108">
    <path clip-path="url(#pe1a664610b)" d="M 658.375582 504 
L 658.375582 69.12 
" style="fill:none;stroke:#0000ff;stroke-linecap:square;stroke-opacity:0.1;stroke-width:1.5;"/>
   </g>
   <g id="line2d_109">
    <path clip-path="url(#pe1a664610b)" d="M 661.218906 504 
L 661.218906 69.12 
" style="fill:none;stroke:#0000ff;stroke-linecap:square;stroke-opacity:0.1;stroke-width:1.5;"/>
   </g>
   <g id="line2d_110">
    <path clip-path="url(#pe1a664610b)" d="M 664.011903 504 
L 664.011903 69.12 
" style="fill:none;stroke:#0000ff;stroke-linecap:square;stroke-opacity:0.1;stroke-width:1.5;"/>
   </g>
   <g id="line2d_111">
    <path clip-path="url(#pe1a664610b)" d="M 666.756324 504 
L 666.756324 69.12 
" style="fill:none;stroke:#0000ff;stroke-linecap:square;stroke-opacity:0.1;stroke-width:1.5;"/>
   </g>
   <g id="line2d_112">
    <path clip-path="url(#pe1a664610b)" d="M 669.45383 504 
L 669.45383 69.12 
" style="fill:none;stroke:#0000ff;stroke-linecap:square;stroke-opacity:0.1;stroke-width:1.5;"/>
   </g>
   <g id="patch_3">
    <path d="M 90 504 
L 90 69.12 
" style="fill:none;stroke:#000000;stroke-linecap:square;stroke-linejoin:miter;stroke-width:0.8;"/>
   </g>
   <g id="patch_4">
    <path d="M 648 504 
L 648 69.12 
" style="fill:none;stroke:#000000;stroke-linecap:square;stroke-linejoin:miter;stroke-width:0.8;"/>
   </g>
   <g id="patch_5">
    <path d="M 90 504 
L 648 504 
" style="fill:none;stroke:#000000;stroke-linecap:square;stroke-linejoin:miter;stroke-width:0.8;"/>
   </g>
   <g id="patch_6">
    <path d="M 90 69.12 
L 648 69.12 
" style="fill:none;stroke:#000000;stroke-linecap:square;stroke-linejoin:miter;stroke-width:0.8;"/>
   </g>
   <g id="text_36">
    <!-- Linear Regression for T-Number based on -->
    <g transform="translate(161.96875 26.724375)scale(0.2 -0.2)">
     <defs>
      <path d="M 9.8125 72.90625 
L 19.671875 72.90625 
L 19.671875 8.296875 
L 55.171875 8.296875 
L 55.171875 0 
L 9.8125 0 
z
" id="DejaVuSans-76"/>
      <path d="M 34.28125 27.484375 
Q 23.390625 27.484375 19.1875 25 
Q 14.984375 22.515625 14.984375 16.5 
Q 14.984375 11.71875 18.140625 8.90625 
Q 21.296875 6.109375 26.703125 6.109375 
Q 34.1875 6.109375 38.703125 11.40625 
Q 43.21875 16.703125 43.21875 25.484375 
L 43.21875 27.484375 
z
M 52.203125 31.203125 
L 52.203125 0 
L 43.21875 0 
L 43.21875 8.296875 
Q 40.140625 3.328125 35.546875 0.953125 
Q 30.953125 -1.421875 24.3125 -1.421875 
Q 15.921875 -1.421875 10.953125 3.296875 
Q 6 8.015625 6 15.921875 
Q 6 25.140625 12.171875 29.828125 
Q 18.359375 34.515625 30.609375 34.515625 
L 43.21875 34.515625 
L 43.21875 35.40625 
Q 43.21875 41.609375 39.140625 45 
Q 35.0625 48.390625 27.6875 48.390625 
Q 23 48.390625 18.546875 47.265625 
Q 14.109375 46.140625 10.015625 43.890625 
L 10.015625 52.203125 
Q 14.9375 54.109375 19.578125 55.046875 
Q 24.21875 56 28.609375 56 
Q 40.484375 56 46.34375 49.84375 
Q 52.203125 43.703125 52.203125 31.203125 
z
" id="DejaVuSans-97"/>
      <path d="M 44.390625 34.1875 
Q 47.5625 33.109375 50.5625 29.59375 
Q 53.5625 26.078125 56.59375 19.921875 
L 66.609375 0 
L 56 0 
L 46.6875 18.703125 
Q 43.0625 26.03125 39.671875 28.421875 
Q 36.28125 30.8125 30.421875 30.8125 
L 19.671875 30.8125 
L 19.671875 0 
L 9.8125 0 
L 9.8125 72.90625 
L 32.078125 72.90625 
Q 44.578125 72.90625 50.734375 67.671875 
Q 56.890625 62.453125 56.890625 51.90625 
Q 56.890625 45.015625 53.6875 40.46875 
Q 50.484375 35.9375 44.390625 34.1875 
z
M 19.671875 64.796875 
L 19.671875 38.921875 
L 32.078125 38.921875 
Q 39.203125 38.921875 42.84375 42.21875 
Q 46.484375 45.515625 46.484375 51.90625 
Q 46.484375 58.296875 42.84375 61.546875 
Q 39.203125 64.796875 32.078125 64.796875 
z
" id="DejaVuSans-82"/>
      <path d="M 45.40625 27.984375 
Q 45.40625 37.75 41.375 43.109375 
Q 37.359375 48.484375 30.078125 48.484375 
Q 22.859375 48.484375 18.828125 43.109375 
Q 14.796875 37.75 14.796875 27.984375 
Q 14.796875 18.265625 18.828125 12.890625 
Q 22.859375 7.515625 30.078125 7.515625 
Q 37.359375 7.515625 41.375 12.890625 
Q 45.40625 18.265625 45.40625 27.984375 
z
M 54.390625 6.78125 
Q 54.390625 -7.171875 48.1875 -13.984375 
Q 42 -20.796875 29.203125 -20.796875 
Q 24.46875 -20.796875 20.265625 -20.09375 
Q 16.0625 -19.390625 12.109375 -17.921875 
L 12.109375 -9.1875 
Q 16.0625 -11.328125 19.921875 -12.34375 
Q 23.78125 -13.375 27.78125 -13.375 
Q 36.625 -13.375 41.015625 -8.765625 
Q 45.40625 -4.15625 45.40625 5.171875 
L 45.40625 9.625 
Q 42.625 4.78125 38.28125 2.390625 
Q 33.9375 0 27.875 0 
Q 17.828125 0 11.671875 7.65625 
Q 5.515625 15.328125 5.515625 27.984375 
Q 5.515625 40.671875 11.671875 48.328125 
Q 17.828125 56 27.875 56 
Q 33.9375 56 38.28125 53.609375 
Q 42.625 51.21875 45.40625 46.390625 
L 45.40625 54.6875 
L 54.390625 54.6875 
z
" id="DejaVuSans-103"/>
      <path d="M 37.109375 75.984375 
L 37.109375 68.5 
L 28.515625 68.5 
Q 23.6875 68.5 21.796875 66.546875 
Q 19.921875 64.59375 19.921875 59.515625 
L 19.921875 54.6875 
L 34.71875 54.6875 
L 34.71875 47.703125 
L 19.921875 47.703125 
L 19.921875 0 
L 10.890625 0 
L 10.890625 47.703125 
L 2.296875 47.703125 
L 2.296875 54.6875 
L 10.890625 54.6875 
L 10.890625 58.5 
Q 10.890625 67.625 15.140625 71.796875 
Q 19.390625 75.984375 28.609375 75.984375 
z
" id="DejaVuSans-102"/>
      <path d="M 9.8125 72.90625 
L 23.09375 72.90625 
L 55.421875 11.921875 
L 55.421875 72.90625 
L 64.984375 72.90625 
L 64.984375 0 
L 51.703125 0 
L 19.390625 60.984375 
L 19.390625 0 
L 9.8125 0 
z
" id="DejaVuSans-78"/>
      <path d="M 45.40625 46.390625 
L 45.40625 75.984375 
L 54.390625 75.984375 
L 54.390625 0 
L 45.40625 0 
L 45.40625 8.203125 
Q 42.578125 3.328125 38.25 0.953125 
Q 33.9375 -1.421875 27.875 -1.421875 
Q 17.96875 -1.421875 11.734375 6.484375 
Q 5.515625 14.40625 5.515625 27.296875 
Q 5.515625 40.1875 11.734375 48.09375 
Q 17.96875 56 27.875 56 
Q 33.9375 56 38.25 53.625 
Q 42.578125 51.265625 45.40625 46.390625 
z
M 14.796875 27.296875 
Q 14.796875 17.390625 18.875 11.75 
Q 22.953125 6.109375 30.078125 6.109375 
Q 37.203125 6.109375 41.296875 11.75 
Q 45.40625 17.390625 45.40625 27.296875 
Q 45.40625 37.203125 41.296875 42.84375 
Q 37.203125 48.484375 30.078125 48.484375 
Q 22.953125 48.484375 18.875 42.84375 
Q 14.796875 37.203125 14.796875 27.296875 
z
" id="DejaVuSans-100"/>
     </defs>
     <use xlink:href="#DejaVuSans-76"/>
     <use x="55.712891" xlink:href="#DejaVuSans-105"/>
     <use x="83.496094" xlink:href="#DejaVuSans-110"/>
     <use x="146.875" xlink:href="#DejaVuSans-101"/>
     <use x="208.398438" xlink:href="#DejaVuSans-97"/>
     <use x="269.677734" xlink:href="#DejaVuSans-114"/>
     <use x="310.791016" xlink:href="#DejaVuSans-32"/>
     <use x="342.578125" xlink:href="#DejaVuSans-82"/>
     <use x="407.560547" xlink:href="#DejaVuSans-101"/>
     <use x="469.083984" xlink:href="#DejaVuSans-103"/>
     <use x="532.560547" xlink:href="#DejaVuSans-114"/>
     <use x="571.423828" xlink:href="#DejaVuSans-101"/>
     <use x="632.947266" xlink:href="#DejaVuSans-115"/>
     <use x="685.046875" xlink:href="#DejaVuSans-115"/>
     <use x="737.146484" xlink:href="#DejaVuSans-105"/>
     <use x="764.929688" xlink:href="#DejaVuSans-111"/>
     <use x="826.111328" xlink:href="#DejaVuSans-110"/>
     <use x="889.490234" xlink:href="#DejaVuSans-32"/>
     <use x="921.277344" xlink:href="#DejaVuSans-102"/>
     <use x="956.482422" xlink:href="#DejaVuSans-111"/>
     <use x="1017.664062" xlink:href="#DejaVuSans-114"/>
     <use x="1058.777344" xlink:href="#DejaVuSans-32"/>
     <use x="1090.564453" xlink:href="#DejaVuSans-84"/>
     <use x="1142.523438" xlink:href="#DejaVuSans-45"/>
     <use x="1178.607422" xlink:href="#DejaVuSans-78"/>
     <use x="1253.412109" xlink:href="#DejaVuSans-117"/>
     <use x="1316.791016" xlink:href="#DejaVuSans-109"/>
     <use x="1414.203125" xlink:href="#DejaVuSans-98"/>
     <use x="1477.679688" xlink:href="#DejaVuSans-101"/>
     <use x="1539.203125" xlink:href="#DejaVuSans-114"/>
     <use x="1580.316406" xlink:href="#DejaVuSans-32"/>
     <use x="1612.103516" xlink:href="#DejaVuSans-98"/>
     <use x="1675.580078" xlink:href="#DejaVuSans-97"/>
     <use x="1736.859375" xlink:href="#DejaVuSans-115"/>
     <use x="1788.958984" xlink:href="#DejaVuSans-101"/>
     <use x="1850.482422" xlink:href="#DejaVuSans-100"/>
     <use x="1913.958984" xlink:href="#DejaVuSans-32"/>
     <use x="1945.746094" xlink:href="#DejaVuSans-111"/>
     <use x="2006.927734" xlink:href="#DejaVuSans-110"/>
    </g>
    <!-- Genome Size (log-log) -->
    <g transform="translate(257.9625 49.12)scale(0.2 -0.2)">
     <defs>
      <path d="M 53.515625 70.515625 
L 53.515625 60.890625 
Q 47.90625 63.578125 42.921875 64.890625 
Q 37.9375 66.21875 33.296875 66.21875 
Q 25.25 66.21875 20.875 63.09375 
Q 16.5 59.96875 16.5 54.203125 
Q 16.5 49.359375 19.40625 46.890625 
Q 22.3125 44.4375 30.421875 42.921875 
L 36.375 41.703125 
Q 47.40625 39.59375 52.65625 34.296875 
Q 57.90625 29 57.90625 20.125 
Q 57.90625 9.515625 50.796875 4.046875 
Q 43.703125 -1.421875 29.984375 -1.421875 
Q 24.8125 -1.421875 18.96875 -0.25 
Q 13.140625 0.921875 6.890625 3.21875 
L 6.890625 13.375 
Q 12.890625 10.015625 18.65625 8.296875 
Q 24.421875 6.59375 29.984375 6.59375 
Q 38.421875 6.59375 43.015625 9.90625 
Q 47.609375 13.234375 47.609375 19.390625 
Q 47.609375 24.75 44.3125 27.78125 
Q 41.015625 30.8125 33.5 32.328125 
L 27.484375 33.5 
Q 16.453125 35.6875 11.515625 40.375 
Q 6.59375 45.0625 6.59375 53.421875 
Q 6.59375 63.09375 13.40625 68.65625 
Q 20.21875 74.21875 32.171875 74.21875 
Q 37.3125 74.21875 42.625 73.28125 
Q 47.953125 72.359375 53.515625 70.515625 
z
" id="DejaVuSans-83"/>
      <path d="M 9.421875 75.984375 
L 18.40625 75.984375 
L 18.40625 0 
L 9.421875 0 
z
" id="DejaVuSans-108"/>
     </defs>
     <use xlink:href="#DejaVuSans-71"/>
     <use x="77.490234" xlink:href="#DejaVuSans-101"/>
     <use x="139.013672" xlink:href="#DejaVuSans-110"/>
     <use x="202.392578" xlink:href="#DejaVuSans-111"/>
     <use x="263.574219" xlink:href="#DejaVuSans-109"/>
     <use x="360.986328" xlink:href="#DejaVuSans-101"/>
     <use x="422.509766" xlink:href="#DejaVuSans-32"/>
     <use x="454.296875" xlink:href="#DejaVuSans-83"/>
     <use x="517.773438" xlink:href="#DejaVuSans-105"/>
     <use x="545.556641" xlink:href="#DejaVuSans-122"/>
     <use x="598.046875" xlink:href="#DejaVuSans-101"/>
     <use x="659.570312" xlink:href="#DejaVuSans-32"/>
     <use x="691.357422" xlink:href="#DejaVuSans-40"/>
     <use x="730.371094" xlink:href="#DejaVuSans-108"/>
     <use x="758.154297" xlink:href="#DejaVuSans-111"/>
     <use x="819.335938" xlink:href="#DejaVuSans-103"/>
     <use x="882.8125" xlink:href="#DejaVuSans-45"/>
     <use x="918.896484" xlink:href="#DejaVuSans-108"/>
     <use x="946.679688" xlink:href="#DejaVuSans-111"/>
     <use x="1007.861328" xlink:href="#DejaVuSans-103"/>
     <use x="1071.337891" xlink:href="#DejaVuSans-41"/>
    </g>
   </g>
  </g>
 </g>
 <defs>
  <clipPath id="pe1a664610b">
   <rect height="434.88" width="558" x="90" y="69.12"/>
  </clipPath>
 </defs>
</svg>
