<?xml version="1.0" encoding="utf-8" standalone="no"?>
<!DOCTYPE svg PUBLIC "-//W3C//DTD SVG 1.1//EN"
  "http://www.w3.org/Graphics/SVG/1.1/DTD/svg11.dtd">
<!-- Created with matplotlib (https://matplotlib.org/) -->
<svg height="648pt" version="1.1" viewBox="0 0 1800 648" width="1800pt" xmlns="http://www.w3.org/2000/svg" xmlns:xlink="http://www.w3.org/1999/xlink">
 <metadata>
  <rdf:RDF xmlns:cc="http://creativecommons.org/ns#" xmlns:dc="http://purl.org/dc/elements/1.1/" xmlns:rdf="http://www.w3.org/1999/02/22-rdf-syntax-ns#">
   <cc:Work>
    <dc:type rdf:resource="http://purl.org/dc/dcmitype/StillImage"/>
    <dc:date>2021-12-02T10:35:12.613338</dc:date>
    <dc:format>image/svg+xml</dc:format>
    <dc:creator>
     <cc:Agent>
      <dc:title>Matplotlib v3.3.2, https://matplotlib.org/</dc:title>
     </cc:Agent>
    </dc:creator>
   </cc:Work>
  </rdf:RDF>
 </metadata>
 <defs>
  <style type="text/css">*{stroke-linecap:butt;stroke-linejoin:round;}</style>
 </defs>
 <g id="figure_1">
  <g id="patch_1">
   <path d="M 0 648 
L 1800 648 
L 1800 0 
L 0 0 
z
" style="fill:none;"/>
  </g>
  <g id="axes_1">
   <g id="patch_2">
    <path d="M 225 567 
L 1620 567 
L 1620 77.76 
L 225 77.76 
z
" style="fill:#ffffff;"/>
   </g>
   <g id="patch_3">
    <path clip-path="url(#p3b4fd1205d)" d="M 288.409091 567 
L 312.33705 567 
L 312.33705 567 
L 288.409091 567 
z
" style="fill:#481567;"/>
   </g>
   <g id="patch_4">
    <path clip-path="url(#p3b4fd1205d)" d="M 336.265009 567 
L 360.192967 567 
L 360.192967 567 
L 336.265009 567 
z
" style="fill:#481567;"/>
   </g>
   <g id="patch_5">
    <path clip-path="url(#p3b4fd1205d)" d="M 384.120926 567 
L 408.048885 567 
L 408.048885 567 
L 384.120926 567 
z
" style="fill:#481567;"/>
   </g>
   <g id="patch_6">
    <path clip-path="url(#p3b4fd1205d)" d="M 431.976844 567 
L 455.904803 567 
L 455.904803 567 
L 431.976844 567 
z
" style="fill:#481567;"/>
   </g>
   <g id="patch_7">
    <path clip-path="url(#p3b4fd1205d)" d="M 479.832762 567 
L 503.76072 567 
L 503.76072 101.057143 
L 479.832762 101.057143 
z
" style="fill:#481567;"/>
   </g>
   <g id="patch_8">
    <path clip-path="url(#p3b4fd1205d)" d="M 527.688679 567 
L 551.616638 567 
L 551.616638 101.057143 
L 527.688679 101.057143 
z
" style="fill:#481567;"/>
   </g>
   <g id="patch_9">
    <path clip-path="url(#p3b4fd1205d)" d="M 575.544597 567 
L 599.472556 567 
L 599.472556 349.56 
L 575.544597 349.56 
z
" style="fill:#481567;"/>
   </g>
   <g id="patch_10">
    <path clip-path="url(#p3b4fd1205d)" d="M 623.400515 567 
L 647.328473 567 
L 647.328473 411.685714 
L 623.400515 411.685714 
z
" style="fill:#481567;"/>
   </g>
   <g id="patch_11">
    <path clip-path="url(#p3b4fd1205d)" d="M 671.256432 567 
L 695.184391 567 
L 695.184391 567 
L 671.256432 567 
z
" style="fill:#481567;"/>
   </g>
   <g id="patch_12">
    <path clip-path="url(#p3b4fd1205d)" d="M 719.11235 567 
L 743.040309 567 
L 743.040309 194.245714 
L 719.11235 194.245714 
z
" style="fill:#481567;"/>
   </g>
   <g id="patch_13">
    <path clip-path="url(#p3b4fd1205d)" d="M 766.968268 567 
L 790.896226 567 
L 790.896226 567 
L 766.968268 567 
z
" style="fill:#481567;"/>
   </g>
   <g id="patch_14">
    <path clip-path="url(#p3b4fd1205d)" d="M 814.824185 567 
L 838.752144 567 
L 838.752144 567 
L 814.824185 567 
z
" style="fill:#481567;"/>
   </g>
   <g id="patch_15">
    <path clip-path="url(#p3b4fd1205d)" d="M 862.680103 567 
L 886.608062 567 
L 886.608062 507.093061 
L 862.680103 507.093061 
z
" style="fill:#481567;"/>
   </g>
   <g id="patch_16">
    <path clip-path="url(#p3b4fd1205d)" d="M 910.536021 567 
L 934.463979 567 
L 934.463979 567 
L 910.536021 567 
z
" style="fill:#481567;"/>
   </g>
   <g id="patch_17">
    <path clip-path="url(#p3b4fd1205d)" d="M 958.391938 567 
L 982.319897 567 
L 982.319897 567 
L 958.391938 567 
z
" style="fill:#481567;"/>
   </g>
   <g id="patch_18">
    <path clip-path="url(#p3b4fd1205d)" d="M 1006.247856 567 
L 1030.175815 567 
L 1030.175815 567 
L 1006.247856 567 
z
" style="fill:#481567;"/>
   </g>
   <g id="patch_19">
    <path clip-path="url(#p3b4fd1205d)" d="M 1054.103774 567 
L 1078.031732 567 
L 1078.031732 567 
L 1054.103774 567 
z
" style="fill:#481567;"/>
   </g>
   <g id="patch_20">
    <path clip-path="url(#p3b4fd1205d)" d="M 1101.959691 567 
L 1125.88765 567 
L 1125.88765 567 
L 1101.959691 567 
z
" style="fill:#481567;"/>
   </g>
   <g id="patch_21">
    <path clip-path="url(#p3b4fd1205d)" d="M 1149.815609 567 
L 1173.743568 567 
L 1173.743568 567 
L 1149.815609 567 
z
" style="fill:#481567;"/>
   </g>
   <g id="patch_22">
    <path clip-path="url(#p3b4fd1205d)" d="M 1197.671527 567 
L 1221.599485 567 
L 1221.599485 567 
L 1197.671527 567 
z
" style="fill:#481567;"/>
   </g>
   <g id="patch_23">
    <path clip-path="url(#p3b4fd1205d)" d="M 1245.527444 567 
L 1269.455403 567 
L 1269.455403 567 
L 1245.527444 567 
z
" style="fill:#481567;"/>
   </g>
   <g id="patch_24">
    <path clip-path="url(#p3b4fd1205d)" d="M 1293.383362 567 
L 1317.311321 567 
L 1317.311321 567 
L 1293.383362 567 
z
" style="fill:#481567;"/>
   </g>
   <g id="patch_25">
    <path clip-path="url(#p3b4fd1205d)" d="M 1341.23928 567 
L 1365.167238 567 
L 1365.167238 567 
L 1341.23928 567 
z
" style="fill:#481567;"/>
   </g>
   <g id="patch_26">
    <path clip-path="url(#p3b4fd1205d)" d="M 1389.095197 567 
L 1413.023156 567 
L 1413.023156 567 
L 1389.095197 567 
z
" style="fill:#481567;"/>
   </g>
   <g id="patch_27">
    <path clip-path="url(#p3b4fd1205d)" d="M 1436.951115 567 
L 1460.879074 567 
L 1460.879074 567 
L 1436.951115 567 
z
" style="fill:#481567;"/>
   </g>
   <g id="patch_28">
    <path clip-path="url(#p3b4fd1205d)" d="M 1484.807033 567 
L 1508.734991 567 
L 1508.734991 567 
L 1484.807033 567 
z
" style="fill:#481567;"/>
   </g>
   <g id="patch_29">
    <path clip-path="url(#p3b4fd1205d)" d="M 1532.66295 567 
L 1556.590909 567 
L 1556.590909 101.057143 
L 1532.66295 101.057143 
z
" style="fill:#481567;"/>
   </g>
   <g id="patch_30">
    <path clip-path="url(#p3b4fd1205d)" d="M 288.409091 567 
L 312.33705 567 
L 312.33705 567 
L 288.409091 567 
z
" style="fill:#2d708e;"/>
   </g>
   <g id="patch_31">
    <path clip-path="url(#p3b4fd1205d)" d="M 336.265009 567 
L 360.192967 567 
L 360.192967 567 
L 336.265009 567 
z
" style="fill:#2d708e;"/>
   </g>
   <g id="patch_32">
    <path clip-path="url(#p3b4fd1205d)" d="M 384.120926 567 
L 408.048885 567 
L 408.048885 567 
L 384.120926 567 
z
" style="fill:#2d708e;"/>
   </g>
   <g id="patch_33">
    <path clip-path="url(#p3b4fd1205d)" d="M 431.976844 567 
L 455.904803 567 
L 455.904803 101.057143 
L 431.976844 101.057143 
z
" style="fill:#2d708e;"/>
   </g>
   <g id="patch_34">
    <path clip-path="url(#p3b4fd1205d)" d="M 479.832762 101.057143 
L 503.76072 101.057143 
L 503.76072 101.057143 
L 479.832762 101.057143 
z
" style="fill:#2d708e;"/>
   </g>
   <g id="patch_35">
    <path clip-path="url(#p3b4fd1205d)" d="M 527.688679 101.057143 
L 551.616638 101.057143 
L 551.616638 101.057143 
L 527.688679 101.057143 
z
" style="fill:#2d708e;"/>
   </g>
   <g id="patch_36">
    <path clip-path="url(#p3b4fd1205d)" d="M 575.544597 349.56 
L 599.472556 349.56 
L 599.472556 101.057143 
L 575.544597 101.057143 
z
" style="fill:#2d708e;"/>
   </g>
   <g id="patch_37">
    <path clip-path="url(#p3b4fd1205d)" d="M 623.400515 411.685714 
L 647.328473 411.685714 
L 647.328473 101.057143 
L 623.400515 101.057143 
z
" style="fill:#2d708e;"/>
   </g>
   <g id="patch_38">
    <path clip-path="url(#p3b4fd1205d)" d="M 671.256432 567 
L 695.184391 567 
L 695.184391 349.56 
L 671.256432 349.56 
z
" style="fill:#2d708e;"/>
   </g>
   <g id="patch_39">
    <path clip-path="url(#p3b4fd1205d)" d="M 719.11235 194.245714 
L 743.040309 194.245714 
L 743.040309 194.245714 
L 719.11235 194.245714 
z
" style="fill:#2d708e;"/>
   </g>
   <g id="patch_40">
    <path clip-path="url(#p3b4fd1205d)" d="M 766.968268 567 
L 790.896226 567 
L 790.896226 465.075 
L 766.968268 465.075 
z
" style="fill:#2d708e;"/>
   </g>
   <g id="patch_41">
    <path clip-path="url(#p3b4fd1205d)" d="M 814.824185 567 
L 838.752144 567 
L 838.752144 222.607453 
L 814.824185 222.607453 
z
" style="fill:#2d708e;"/>
   </g>
   <g id="patch_42">
    <path clip-path="url(#p3b4fd1205d)" d="M 862.680103 507.093061 
L 886.608062 507.093061 
L 886.608062 200.902041 
L 862.680103 200.902041 
z
" style="fill:#2d708e;"/>
   </g>
   <g id="patch_43">
    <path clip-path="url(#p3b4fd1205d)" d="M 910.536021 567 
L 934.463979 567 
L 934.463979 380.622857 
L 910.536021 380.622857 
z
" style="fill:#2d708e;"/>
   </g>
   <g id="patch_44">
    <path clip-path="url(#p3b4fd1205d)" d="M 958.391938 567 
L 982.319897 567 
L 982.319897 159.3 
L 958.391938 159.3 
z
" style="fill:#2d708e;"/>
   </g>
   <g id="patch_45">
    <path clip-path="url(#p3b4fd1205d)" d="M 1006.247856 567 
L 1030.175815 567 
L 1030.175815 397.566234 
L 1006.247856 397.566234 
z
" style="fill:#2d708e;"/>
   </g>
   <g id="patch_46">
    <path clip-path="url(#p3b4fd1205d)" d="M 1054.103774 567 
L 1078.031732 567 
L 1078.031732 567 
L 1054.103774 567 
z
" style="fill:#2d708e;"/>
   </g>
   <g id="patch_47">
    <path clip-path="url(#p3b4fd1205d)" d="M 1101.959691 567 
L 1125.88765 567 
L 1125.88765 567 
L 1101.959691 567 
z
" style="fill:#2d708e;"/>
   </g>
   <g id="patch_48">
    <path clip-path="url(#p3b4fd1205d)" d="M 1149.815609 567 
L 1173.743568 567 
L 1173.743568 567 
L 1149.815609 567 
z
" style="fill:#2d708e;"/>
   </g>
   <g id="patch_49">
    <path clip-path="url(#p3b4fd1205d)" d="M 1197.671527 567 
L 1221.599485 567 
L 1221.599485 101.057143 
L 1197.671527 101.057143 
z
" style="fill:#2d708e;"/>
   </g>
   <g id="patch_50">
    <path clip-path="url(#p3b4fd1205d)" d="M 1245.527444 567 
L 1269.455403 567 
L 1269.455403 567 
L 1245.527444 567 
z
" style="fill:#2d708e;"/>
   </g>
   <g id="patch_51">
    <path clip-path="url(#p3b4fd1205d)" d="M 1293.383362 567 
L 1317.311321 567 
L 1317.311321 567 
L 1293.383362 567 
z
" style="fill:#2d708e;"/>
   </g>
   <g id="patch_52">
    <path clip-path="url(#p3b4fd1205d)" d="M 1341.23928 567 
L 1365.167238 567 
L 1365.167238 567 
L 1341.23928 567 
z
" style="fill:#2d708e;"/>
   </g>
   <g id="patch_53">
    <path clip-path="url(#p3b4fd1205d)" d="M 1389.095197 567 
L 1413.023156 567 
L 1413.023156 567 
L 1389.095197 567 
z
" style="fill:#2d708e;"/>
   </g>
   <g id="patch_54">
    <path clip-path="url(#p3b4fd1205d)" d="M 1436.951115 567 
L 1460.879074 567 
L 1460.879074 567 
L 1436.951115 567 
z
" style="fill:#2d708e;"/>
   </g>
   <g id="patch_55">
    <path clip-path="url(#p3b4fd1205d)" d="M 1484.807033 567 
L 1508.734991 567 
L 1508.734991 101.057143 
L 1484.807033 101.057143 
z
" style="fill:#2d708e;"/>
   </g>
   <g id="patch_56">
    <path clip-path="url(#p3b4fd1205d)" d="M 1532.66295 101.057143 
L 1556.590909 101.057143 
L 1556.590909 101.057143 
L 1532.66295 101.057143 
z
" style="fill:#2d708e;"/>
   </g>
   <g id="patch_57">
    <path clip-path="url(#p3b4fd1205d)" d="M 288.409091 567 
L 312.33705 567 
L 312.33705 567 
L 288.409091 567 
z
" style="fill:#3cbb75;"/>
   </g>
   <g id="patch_58">
    <path clip-path="url(#p3b4fd1205d)" d="M 336.265009 567 
L 360.192967 567 
L 360.192967 567 
L 336.265009 567 
z
" style="fill:#3cbb75;"/>
   </g>
   <g id="patch_59">
    <path clip-path="url(#p3b4fd1205d)" d="M 384.120926 567 
L 408.048885 567 
L 408.048885 567 
L 384.120926 567 
z
" style="fill:#3cbb75;"/>
   </g>
   <g id="patch_60">
    <path clip-path="url(#p3b4fd1205d)" d="M 431.976844 101.057143 
L 455.904803 101.057143 
L 455.904803 101.057143 
L 431.976844 101.057143 
z
" style="fill:#3cbb75;"/>
   </g>
   <g id="patch_61">
    <path clip-path="url(#p3b4fd1205d)" d="M 479.832762 101.057143 
L 503.76072 101.057143 
L 503.76072 101.057143 
L 479.832762 101.057143 
z
" style="fill:#3cbb75;"/>
   </g>
   <g id="patch_62">
    <path clip-path="url(#p3b4fd1205d)" d="M 527.688679 101.057143 
L 551.616638 101.057143 
L 551.616638 101.057143 
L 527.688679 101.057143 
z
" style="fill:#3cbb75;"/>
   </g>
   <g id="patch_63">
    <path clip-path="url(#p3b4fd1205d)" d="M 575.544597 101.057143 
L 599.472556 101.057143 
L 599.472556 101.057143 
L 575.544597 101.057143 
z
" style="fill:#3cbb75;"/>
   </g>
   <g id="patch_64">
    <path clip-path="url(#p3b4fd1205d)" d="M 623.400515 101.057143 
L 647.328473 101.057143 
L 647.328473 101.057143 
L 623.400515 101.057143 
z
" style="fill:#3cbb75;"/>
   </g>
   <g id="patch_65">
    <path clip-path="url(#p3b4fd1205d)" d="M 671.256432 349.56 
L 695.184391 349.56 
L 695.184391 101.057143 
L 671.256432 101.057143 
z
" style="fill:#3cbb75;"/>
   </g>
   <g id="patch_66">
    <path clip-path="url(#p3b4fd1205d)" d="M 719.11235 194.245714 
L 743.040309 194.245714 
L 743.040309 101.057143 
L 719.11235 101.057143 
z
" style="fill:#3cbb75;"/>
   </g>
   <g id="patch_67">
    <path clip-path="url(#p3b4fd1205d)" d="M 766.968268 465.075 
L 790.896226 465.075 
L 790.896226 101.057143 
L 766.968268 101.057143 
z
" style="fill:#3cbb75;"/>
   </g>
   <g id="patch_68">
    <path clip-path="url(#p3b4fd1205d)" d="M 814.824185 222.607453 
L 838.752144 222.607453 
L 838.752144 111.186335 
L 814.824185 111.186335 
z
" style="fill:#3cbb75;"/>
   </g>
   <g id="patch_69">
    <path clip-path="url(#p3b4fd1205d)" d="M 862.680103 200.902041 
L 886.608062 200.902041 
L 886.608062 101.057143 
L 862.680103 101.057143 
z
" style="fill:#3cbb75;"/>
   </g>
   <g id="patch_70">
    <path clip-path="url(#p3b4fd1205d)" d="M 910.536021 380.622857 
L 934.463979 380.622857 
L 934.463979 101.057143 
L 910.536021 101.057143 
z
" style="fill:#3cbb75;"/>
   </g>
   <g id="patch_71">
    <path clip-path="url(#p3b4fd1205d)" d="M 958.391938 159.3 
L 982.319897 159.3 
L 982.319897 101.057143 
L 958.391938 101.057143 
z
" style="fill:#3cbb75;"/>
   </g>
   <g id="patch_72">
    <path clip-path="url(#p3b4fd1205d)" d="M 1006.247856 397.566234 
L 1030.175815 397.566234 
L 1030.175815 101.057143 
L 1006.247856 101.057143 
z
" style="fill:#3cbb75;"/>
   </g>
   <g id="patch_73">
    <path clip-path="url(#p3b4fd1205d)" d="M 1054.103774 567 
L 1078.031732 567 
L 1078.031732 567 
L 1054.103774 567 
z
" style="fill:#3cbb75;"/>
   </g>
   <g id="patch_74">
    <path clip-path="url(#p3b4fd1205d)" d="M 1101.959691 567 
L 1125.88765 567 
L 1125.88765 567 
L 1101.959691 567 
z
" style="fill:#3cbb75;"/>
   </g>
   <g id="patch_75">
    <path clip-path="url(#p3b4fd1205d)" d="M 1149.815609 567 
L 1173.743568 567 
L 1173.743568 567 
L 1149.815609 567 
z
" style="fill:#3cbb75;"/>
   </g>
   <g id="patch_76">
    <path clip-path="url(#p3b4fd1205d)" d="M 1197.671527 101.057143 
L 1221.599485 101.057143 
L 1221.599485 101.057143 
L 1197.671527 101.057143 
z
" style="fill:#3cbb75;"/>
   </g>
   <g id="patch_77">
    <path clip-path="url(#p3b4fd1205d)" d="M 1245.527444 567 
L 1269.455403 567 
L 1269.455403 567 
L 1245.527444 567 
z
" style="fill:#3cbb75;"/>
   </g>
   <g id="patch_78">
    <path clip-path="url(#p3b4fd1205d)" d="M 1293.383362 567 
L 1317.311321 567 
L 1317.311321 567 
L 1293.383362 567 
z
" style="fill:#3cbb75;"/>
   </g>
   <g id="patch_79">
    <path clip-path="url(#p3b4fd1205d)" d="M 1341.23928 567 
L 1365.167238 567 
L 1365.167238 567 
L 1341.23928 567 
z
" style="fill:#3cbb75;"/>
   </g>
   <g id="patch_80">
    <path clip-path="url(#p3b4fd1205d)" d="M 1389.095197 567 
L 1413.023156 567 
L 1413.023156 567 
L 1389.095197 567 
z
" style="fill:#3cbb75;"/>
   </g>
   <g id="patch_81">
    <path clip-path="url(#p3b4fd1205d)" d="M 1436.951115 567 
L 1460.879074 567 
L 1460.879074 567 
L 1436.951115 567 
z
" style="fill:#3cbb75;"/>
   </g>
   <g id="patch_82">
    <path clip-path="url(#p3b4fd1205d)" d="M 1484.807033 101.057143 
L 1508.734991 101.057143 
L 1508.734991 101.057143 
L 1484.807033 101.057143 
z
" style="fill:#3cbb75;"/>
   </g>
   <g id="patch_83">
    <path clip-path="url(#p3b4fd1205d)" d="M 1532.66295 101.057143 
L 1556.590909 101.057143 
L 1556.590909 101.057143 
L 1532.66295 101.057143 
z
" style="fill:#3cbb75;"/>
   </g>
   <g id="patch_84">
    <path clip-path="url(#p3b4fd1205d)" d="M 288.409091 567 
L 312.33705 567 
L 312.33705 567 
L 288.409091 567 
z
" style="fill:#fde725;"/>
   </g>
   <g id="patch_85">
    <path clip-path="url(#p3b4fd1205d)" d="M 336.265009 567 
L 360.192967 567 
L 360.192967 567 
L 336.265009 567 
z
" style="fill:#fde725;"/>
   </g>
   <g id="patch_86">
    <path clip-path="url(#p3b4fd1205d)" d="M 384.120926 567 
L 408.048885 567 
L 408.048885 567 
L 384.120926 567 
z
" style="fill:#fde725;"/>
   </g>
   <g id="patch_87">
    <path clip-path="url(#p3b4fd1205d)" d="M 431.976844 101.057143 
L 455.904803 101.057143 
L 455.904803 101.057143 
L 431.976844 101.057143 
z
" style="fill:#fde725;"/>
   </g>
   <g id="patch_88">
    <path clip-path="url(#p3b4fd1205d)" d="M 479.832762 101.057143 
L 503.76072 101.057143 
L 503.76072 101.057143 
L 479.832762 101.057143 
z
" style="fill:#fde725;"/>
   </g>
   <g id="patch_89">
    <path clip-path="url(#p3b4fd1205d)" d="M 527.688679 101.057143 
L 551.616638 101.057143 
L 551.616638 101.057143 
L 527.688679 101.057143 
z
" style="fill:#fde725;"/>
   </g>
   <g id="patch_90">
    <path clip-path="url(#p3b4fd1205d)" d="M 575.544597 101.057143 
L 599.472556 101.057143 
L 599.472556 101.057143 
L 575.544597 101.057143 
z
" style="fill:#fde725;"/>
   </g>
   <g id="patch_91">
    <path clip-path="url(#p3b4fd1205d)" d="M 623.400515 101.057143 
L 647.328473 101.057143 
L 647.328473 101.057143 
L 623.400515 101.057143 
z
" style="fill:#fde725;"/>
   </g>
   <g id="patch_92">
    <path clip-path="url(#p3b4fd1205d)" d="M 671.256432 101.057143 
L 695.184391 101.057143 
L 695.184391 101.057143 
L 671.256432 101.057143 
z
" style="fill:#fde725;"/>
   </g>
   <g id="patch_93">
    <path clip-path="url(#p3b4fd1205d)" d="M 719.11235 101.057143 
L 743.040309 101.057143 
L 743.040309 101.057143 
L 719.11235 101.057143 
z
" style="fill:#fde725;"/>
   </g>
   <g id="patch_94">
    <path clip-path="url(#p3b4fd1205d)" d="M 766.968268 101.057143 
L 790.896226 101.057143 
L 790.896226 101.057143 
L 766.968268 101.057143 
z
" style="fill:#fde725;"/>
   </g>
   <g id="patch_95">
    <path clip-path="url(#p3b4fd1205d)" d="M 814.824185 111.186335 
L 838.752144 111.186335 
L 838.752144 101.057143 
L 814.824185 101.057143 
z
" style="fill:#fde725;"/>
   </g>
   <g id="patch_96">
    <path clip-path="url(#p3b4fd1205d)" d="M 862.680103 101.057143 
L 886.608062 101.057143 
L 886.608062 101.057143 
L 862.680103 101.057143 
z
" style="fill:#fde725;"/>
   </g>
   <g id="patch_97">
    <path clip-path="url(#p3b4fd1205d)" d="M 910.536021 101.057143 
L 934.463979 101.057143 
L 934.463979 101.057143 
L 910.536021 101.057143 
z
" style="fill:#fde725;"/>
   </g>
   <g id="patch_98">
    <path clip-path="url(#p3b4fd1205d)" d="M 958.391938 101.057143 
L 982.319897 101.057143 
L 982.319897 101.057143 
L 958.391938 101.057143 
z
" style="fill:#fde725;"/>
   </g>
   <g id="patch_99">
    <path clip-path="url(#p3b4fd1205d)" d="M 1006.247856 101.057143 
L 1030.175815 101.057143 
L 1030.175815 101.057143 
L 1006.247856 101.057143 
z
" style="fill:#fde725;"/>
   </g>
   <g id="patch_100">
    <path clip-path="url(#p3b4fd1205d)" d="M 1054.103774 567 
L 1078.031732 567 
L 1078.031732 567 
L 1054.103774 567 
z
" style="fill:#fde725;"/>
   </g>
   <g id="patch_101">
    <path clip-path="url(#p3b4fd1205d)" d="M 1101.959691 567 
L 1125.88765 567 
L 1125.88765 567 
L 1101.959691 567 
z
" style="fill:#fde725;"/>
   </g>
   <g id="patch_102">
    <path clip-path="url(#p3b4fd1205d)" d="M 1149.815609 567 
L 1173.743568 567 
L 1173.743568 567 
L 1149.815609 567 
z
" style="fill:#fde725;"/>
   </g>
   <g id="patch_103">
    <path clip-path="url(#p3b4fd1205d)" d="M 1197.671527 101.057143 
L 1221.599485 101.057143 
L 1221.599485 101.057143 
L 1197.671527 101.057143 
z
" style="fill:#fde725;"/>
   </g>
   <g id="patch_104">
    <path clip-path="url(#p3b4fd1205d)" d="M 1245.527444 567 
L 1269.455403 567 
L 1269.455403 567 
L 1245.527444 567 
z
" style="fill:#fde725;"/>
   </g>
   <g id="patch_105">
    <path clip-path="url(#p3b4fd1205d)" d="M 1293.383362 567 
L 1317.311321 567 
L 1317.311321 567 
L 1293.383362 567 
z
" style="fill:#fde725;"/>
   </g>
   <g id="patch_106">
    <path clip-path="url(#p3b4fd1205d)" d="M 1341.23928 567 
L 1365.167238 567 
L 1365.167238 567 
L 1341.23928 567 
z
" style="fill:#fde725;"/>
   </g>
   <g id="patch_107">
    <path clip-path="url(#p3b4fd1205d)" d="M 1389.095197 567 
L 1413.023156 567 
L 1413.023156 567 
L 1389.095197 567 
z
" style="fill:#fde725;"/>
   </g>
   <g id="patch_108">
    <path clip-path="url(#p3b4fd1205d)" d="M 1436.951115 567 
L 1460.879074 567 
L 1460.879074 567 
L 1436.951115 567 
z
" style="fill:#fde725;"/>
   </g>
   <g id="patch_109">
    <path clip-path="url(#p3b4fd1205d)" d="M 1484.807033 101.057143 
L 1508.734991 101.057143 
L 1508.734991 101.057143 
L 1484.807033 101.057143 
z
" style="fill:#fde725;"/>
   </g>
   <g id="patch_110">
    <path clip-path="url(#p3b4fd1205d)" d="M 1532.66295 101.057143 
L 1556.590909 101.057143 
L 1556.590909 101.057143 
L 1532.66295 101.057143 
z
" style="fill:#fde725;"/>
   </g>
   <g id="patch_111">
    <path clip-path="url(#p3b4fd1205d)" d="M 288.409091 567 
L 312.33705 567 
L 312.33705 567 
L 288.409091 567 
z
" style="fill:#e35992;"/>
   </g>
   <g id="patch_112">
    <path clip-path="url(#p3b4fd1205d)" d="M 336.265009 567 
L 360.192967 567 
L 360.192967 567 
L 336.265009 567 
z
" style="fill:#e35992;"/>
   </g>
   <g id="patch_113">
    <path clip-path="url(#p3b4fd1205d)" d="M 384.120926 567 
L 408.048885 567 
L 408.048885 567 
L 384.120926 567 
z
" style="fill:#e35992;"/>
   </g>
   <g id="patch_114">
    <path clip-path="url(#p3b4fd1205d)" d="M 431.976844 101.057143 
L 455.904803 101.057143 
L 455.904803 101.057143 
L 431.976844 101.057143 
z
" style="fill:#e35992;"/>
   </g>
   <g id="patch_115">
    <path clip-path="url(#p3b4fd1205d)" d="M 479.832762 101.057143 
L 503.76072 101.057143 
L 503.76072 101.057143 
L 479.832762 101.057143 
z
" style="fill:#e35992;"/>
   </g>
   <g id="patch_116">
    <path clip-path="url(#p3b4fd1205d)" d="M 527.688679 101.057143 
L 551.616638 101.057143 
L 551.616638 101.057143 
L 527.688679 101.057143 
z
" style="fill:#e35992;"/>
   </g>
   <g id="patch_117">
    <path clip-path="url(#p3b4fd1205d)" d="M 575.544597 101.057143 
L 599.472556 101.057143 
L 599.472556 101.057143 
L 575.544597 101.057143 
z
" style="fill:#e35992;"/>
   </g>
   <g id="patch_118">
    <path clip-path="url(#p3b4fd1205d)" d="M 623.400515 101.057143 
L 647.328473 101.057143 
L 647.328473 101.057143 
L 623.400515 101.057143 
z
" style="fill:#e35992;"/>
   </g>
   <g id="patch_119">
    <path clip-path="url(#p3b4fd1205d)" d="M 671.256432 101.057143 
L 695.184391 101.057143 
L 695.184391 101.057143 
L 671.256432 101.057143 
z
" style="fill:#e35992;"/>
   </g>
   <g id="patch_120">
    <path clip-path="url(#p3b4fd1205d)" d="M 719.11235 101.057143 
L 743.040309 101.057143 
L 743.040309 101.057143 
L 719.11235 101.057143 
z
" style="fill:#e35992;"/>
   </g>
   <g id="patch_121">
    <path clip-path="url(#p3b4fd1205d)" d="M 766.968268 101.057143 
L 790.896226 101.057143 
L 790.896226 101.057143 
L 766.968268 101.057143 
z
" style="fill:#e35992;"/>
   </g>
   <g id="patch_122">
    <path clip-path="url(#p3b4fd1205d)" d="M 814.824185 101.057143 
L 838.752144 101.057143 
L 838.752144 101.057143 
L 814.824185 101.057143 
z
" style="fill:#e35992;"/>
   </g>
   <g id="patch_123">
    <path clip-path="url(#p3b4fd1205d)" d="M 862.680103 101.057143 
L 886.608062 101.057143 
L 886.608062 101.057143 
L 862.680103 101.057143 
z
" style="fill:#e35992;"/>
   </g>
   <g id="patch_124">
    <path clip-path="url(#p3b4fd1205d)" d="M 910.536021 101.057143 
L 934.463979 101.057143 
L 934.463979 101.057143 
L 910.536021 101.057143 
z
" style="fill:#e35992;"/>
   </g>
   <g id="patch_125">
    <path clip-path="url(#p3b4fd1205d)" d="M 958.391938 101.057143 
L 982.319897 101.057143 
L 982.319897 101.057143 
L 958.391938 101.057143 
z
" style="fill:#e35992;"/>
   </g>
   <g id="patch_126">
    <path clip-path="url(#p3b4fd1205d)" d="M 1006.247856 101.057143 
L 1030.175815 101.057143 
L 1030.175815 101.057143 
L 1006.247856 101.057143 
z
" style="fill:#e35992;"/>
   </g>
   <g id="patch_127">
    <path clip-path="url(#p3b4fd1205d)" d="M 1054.103774 567 
L 1078.031732 567 
L 1078.031732 567 
L 1054.103774 567 
z
" style="fill:#e35992;"/>
   </g>
   <g id="patch_128">
    <path clip-path="url(#p3b4fd1205d)" d="M 1101.959691 567 
L 1125.88765 567 
L 1125.88765 101.057143 
L 1101.959691 101.057143 
z
" style="fill:#e35992;"/>
   </g>
   <g id="patch_129">
    <path clip-path="url(#p3b4fd1205d)" d="M 1149.815609 567 
L 1173.743568 567 
L 1173.743568 567 
L 1149.815609 567 
z
" style="fill:#e35992;"/>
   </g>
   <g id="patch_130">
    <path clip-path="url(#p3b4fd1205d)" d="M 1197.671527 101.057143 
L 1221.599485 101.057143 
L 1221.599485 101.057143 
L 1197.671527 101.057143 
z
" style="fill:#e35992;"/>
   </g>
   <g id="patch_131">
    <path clip-path="url(#p3b4fd1205d)" d="M 1245.527444 567 
L 1269.455403 567 
L 1269.455403 567 
L 1245.527444 567 
z
" style="fill:#e35992;"/>
   </g>
   <g id="patch_132">
    <path clip-path="url(#p3b4fd1205d)" d="M 1293.383362 567 
L 1317.311321 567 
L 1317.311321 567 
L 1293.383362 567 
z
" style="fill:#e35992;"/>
   </g>
   <g id="patch_133">
    <path clip-path="url(#p3b4fd1205d)" d="M 1341.23928 567 
L 1365.167238 567 
L 1365.167238 567 
L 1341.23928 567 
z
" style="fill:#e35992;"/>
   </g>
   <g id="patch_134">
    <path clip-path="url(#p3b4fd1205d)" d="M 1389.095197 567 
L 1413.023156 567 
L 1413.023156 567 
L 1389.095197 567 
z
" style="fill:#e35992;"/>
   </g>
   <g id="patch_135">
    <path clip-path="url(#p3b4fd1205d)" d="M 1436.951115 567 
L 1460.879074 567 
L 1460.879074 567 
L 1436.951115 567 
z
" style="fill:#e35992;"/>
   </g>
   <g id="patch_136">
    <path clip-path="url(#p3b4fd1205d)" d="M 1484.807033 101.057143 
L 1508.734991 101.057143 
L 1508.734991 101.057143 
L 1484.807033 101.057143 
z
" style="fill:#e35992;"/>
   </g>
   <g id="patch_137">
    <path clip-path="url(#p3b4fd1205d)" d="M 1532.66295 101.057143 
L 1556.590909 101.057143 
L 1556.590909 101.057143 
L 1532.66295 101.057143 
z
" style="fill:#e35992;"/>
   </g>
   <g id="matplotlib.axis_1">
    <g id="xtick_1">
     <g id="line2d_1">
      <defs>
       <path d="M 0 0 
L 0 10 
" id="ma8dd19d78e" style="stroke:#000000;stroke-width:2;"/>
      </defs>
      <g>
       <use style="stroke:#000000;stroke-width:2;" x="300.37307" xlink:href="#ma8dd19d78e" y="567"/>
      </g>
     </g>
     <g id="text_1">
      <!-- 1.0 -->
      <g transform="translate(284.469945 595.696875)scale(0.2 -0.2)">
       <defs>
        <path d="M 12.40625 8.296875 
L 28.515625 8.296875 
L 28.515625 63.921875 
L 10.984375 60.40625 
L 10.984375 69.390625 
L 28.421875 72.90625 
L 38.28125 72.90625 
L 38.28125 8.296875 
L 54.390625 8.296875 
L 54.390625 0 
L 12.40625 0 
z
" id="DejaVuSans-49"/>
        <path d="M 10.6875 12.40625 
L 21 12.40625 
L 21 0 
L 10.6875 0 
z
" id="DejaVuSans-46"/>
        <path d="M 31.78125 66.40625 
Q 24.171875 66.40625 20.328125 58.90625 
Q 16.5 51.421875 16.5 36.375 
Q 16.5 21.390625 20.328125 13.890625 
Q 24.171875 6.390625 31.78125 6.390625 
Q 39.453125 6.390625 43.28125 13.890625 
Q 47.125 21.390625 47.125 36.375 
Q 47.125 51.421875 43.28125 58.90625 
Q 39.453125 66.40625 31.78125 66.40625 
z
M 31.78125 74.21875 
Q 44.046875 74.21875 50.515625 64.515625 
Q 56.984375 54.828125 56.984375 36.375 
Q 56.984375 17.96875 50.515625 8.265625 
Q 44.046875 -1.421875 31.78125 -1.421875 
Q 19.53125 -1.421875 13.0625 8.265625 
Q 6.59375 17.96875 6.59375 36.375 
Q 6.59375 54.828125 13.0625 64.515625 
Q 19.53125 74.21875 31.78125 74.21875 
z
" id="DejaVuSans-48"/>
       </defs>
       <use xlink:href="#DejaVuSans-49"/>
       <use x="63.623047" xlink:href="#DejaVuSans-46"/>
       <use x="95.410156" xlink:href="#DejaVuSans-48"/>
      </g>
     </g>
    </g>
    <g id="xtick_2">
     <g id="line2d_2">
      <g>
       <use style="stroke:#000000;stroke-width:2;" x="348.228988" xlink:href="#ma8dd19d78e" y="567"/>
      </g>
     </g>
     <g id="text_2">
      <!-- 1.33 -->
      <g transform="translate(325.963363 595.696875)scale(0.2 -0.2)">
       <defs>
        <path d="M 40.578125 39.3125 
Q 47.65625 37.796875 51.625 33 
Q 55.609375 28.21875 55.609375 21.1875 
Q 55.609375 10.40625 48.1875 4.484375 
Q 40.765625 -1.421875 27.09375 -1.421875 
Q 22.515625 -1.421875 17.65625 -0.515625 
Q 12.796875 0.390625 7.625 2.203125 
L 7.625 11.71875 
Q 11.71875 9.328125 16.59375 8.109375 
Q 21.484375 6.890625 26.8125 6.890625 
Q 36.078125 6.890625 40.9375 10.546875 
Q 45.796875 14.203125 45.796875 21.1875 
Q 45.796875 27.640625 41.28125 31.265625 
Q 36.765625 34.90625 28.71875 34.90625 
L 20.21875 34.90625 
L 20.21875 43.015625 
L 29.109375 43.015625 
Q 36.375 43.015625 40.234375 45.921875 
Q 44.09375 48.828125 44.09375 54.296875 
Q 44.09375 59.90625 40.109375 62.90625 
Q 36.140625 65.921875 28.71875 65.921875 
Q 24.65625 65.921875 20.015625 65.03125 
Q 15.375 64.15625 9.8125 62.3125 
L 9.8125 71.09375 
Q 15.4375 72.65625 20.34375 73.4375 
Q 25.25 74.21875 29.59375 74.21875 
Q 40.828125 74.21875 47.359375 69.109375 
Q 53.90625 64.015625 53.90625 55.328125 
Q 53.90625 49.265625 50.4375 45.09375 
Q 46.96875 40.921875 40.578125 39.3125 
z
" id="DejaVuSans-51"/>
       </defs>
       <use xlink:href="#DejaVuSans-49"/>
       <use x="63.623047" xlink:href="#DejaVuSans-46"/>
       <use x="95.410156" xlink:href="#DejaVuSans-51"/>
       <use x="159.033203" xlink:href="#DejaVuSans-51"/>
      </g>
     </g>
    </g>
    <g id="xtick_3">
     <g id="line2d_3">
      <g>
       <use style="stroke:#000000;stroke-width:2;" x="396.084906" xlink:href="#ma8dd19d78e" y="567"/>
      </g>
     </g>
     <g id="text_3">
      <!-- 3.0 -->
      <g transform="translate(380.181781 595.696875)scale(0.2 -0.2)">
       <use xlink:href="#DejaVuSans-51"/>
       <use x="63.623047" xlink:href="#DejaVuSans-46"/>
       <use x="95.410156" xlink:href="#DejaVuSans-48"/>
      </g>
     </g>
    </g>
    <g id="xtick_4">
     <g id="line2d_4">
      <g>
       <use style="stroke:#000000;stroke-width:2;" x="443.940823" xlink:href="#ma8dd19d78e" y="567"/>
      </g>
     </g>
     <g id="text_4">
      <!-- 4.0 -->
      <g transform="translate(428.037698 595.696875)scale(0.2 -0.2)">
       <defs>
        <path d="M 37.796875 64.3125 
L 12.890625 25.390625 
L 37.796875 25.390625 
z
M 35.203125 72.90625 
L 47.609375 72.90625 
L 47.609375 25.390625 
L 58.015625 25.390625 
L 58.015625 17.1875 
L 47.609375 17.1875 
L 47.609375 0 
L 37.796875 0 
L 37.796875 17.1875 
L 4.890625 17.1875 
L 4.890625 26.703125 
z
" id="DejaVuSans-52"/>
       </defs>
       <use xlink:href="#DejaVuSans-52"/>
       <use x="63.623047" xlink:href="#DejaVuSans-46"/>
       <use x="95.410156" xlink:href="#DejaVuSans-48"/>
      </g>
     </g>
    </g>
    <g id="xtick_5">
     <g id="line2d_5">
      <g>
       <use style="stroke:#000000;stroke-width:2;" x="491.796741" xlink:href="#ma8dd19d78e" y="567"/>
      </g>
     </g>
     <g id="text_5">
      <!-- 5.33 -->
      <g transform="translate(469.531116 595.696875)scale(0.2 -0.2)">
       <defs>
        <path d="M 10.796875 72.90625 
L 49.515625 72.90625 
L 49.515625 64.59375 
L 19.828125 64.59375 
L 19.828125 46.734375 
Q 21.96875 47.46875 24.109375 47.828125 
Q 26.265625 48.1875 28.421875 48.1875 
Q 40.625 48.1875 47.75 41.5 
Q 54.890625 34.8125 54.890625 23.390625 
Q 54.890625 11.625 47.5625 5.09375 
Q 40.234375 -1.421875 26.90625 -1.421875 
Q 22.3125 -1.421875 17.546875 -0.640625 
Q 12.796875 0.140625 7.71875 1.703125 
L 7.71875 11.625 
Q 12.109375 9.234375 16.796875 8.0625 
Q 21.484375 6.890625 26.703125 6.890625 
Q 35.15625 6.890625 40.078125 11.328125 
Q 45.015625 15.765625 45.015625 23.390625 
Q 45.015625 31 40.078125 35.4375 
Q 35.15625 39.890625 26.703125 39.890625 
Q 22.75 39.890625 18.8125 39.015625 
Q 14.890625 38.140625 10.796875 36.28125 
z
" id="DejaVuSans-53"/>
       </defs>
       <use xlink:href="#DejaVuSans-53"/>
       <use x="63.623047" xlink:href="#DejaVuSans-46"/>
       <use x="95.410156" xlink:href="#DejaVuSans-51"/>
       <use x="159.033203" xlink:href="#DejaVuSans-51"/>
      </g>
     </g>
    </g>
    <g id="xtick_6">
     <g id="line2d_6">
      <g>
       <use style="stroke:#000000;stroke-width:2;" x="539.652659" xlink:href="#ma8dd19d78e" y="567"/>
      </g>
     </g>
     <g id="text_6">
      <!-- 7.0 -->
      <g transform="translate(523.749534 595.696875)scale(0.2 -0.2)">
       <defs>
        <path d="M 8.203125 72.90625 
L 55.078125 72.90625 
L 55.078125 68.703125 
L 28.609375 0 
L 18.3125 0 
L 43.21875 64.59375 
L 8.203125 64.59375 
z
" id="DejaVuSans-55"/>
       </defs>
       <use xlink:href="#DejaVuSans-55"/>
       <use x="63.623047" xlink:href="#DejaVuSans-46"/>
       <use x="95.410156" xlink:href="#DejaVuSans-48"/>
      </g>
     </g>
    </g>
    <g id="xtick_7">
     <g id="line2d_7">
      <g>
       <use style="stroke:#000000;stroke-width:2;" x="587.508576" xlink:href="#ma8dd19d78e" y="567"/>
      </g>
     </g>
     <g id="text_7">
      <!-- 9.0 -->
      <g transform="translate(571.605451 595.696875)scale(0.2 -0.2)">
       <defs>
        <path d="M 10.984375 1.515625 
L 10.984375 10.5 
Q 14.703125 8.734375 18.5 7.8125 
Q 22.3125 6.890625 25.984375 6.890625 
Q 35.75 6.890625 40.890625 13.453125 
Q 46.046875 20.015625 46.78125 33.40625 
Q 43.953125 29.203125 39.59375 26.953125 
Q 35.25 24.703125 29.984375 24.703125 
Q 19.046875 24.703125 12.671875 31.3125 
Q 6.296875 37.9375 6.296875 49.421875 
Q 6.296875 60.640625 12.9375 67.421875 
Q 19.578125 74.21875 30.609375 74.21875 
Q 43.265625 74.21875 49.921875 64.515625 
Q 56.59375 54.828125 56.59375 36.375 
Q 56.59375 19.140625 48.40625 8.859375 
Q 40.234375 -1.421875 26.421875 -1.421875 
Q 22.703125 -1.421875 18.890625 -0.6875 
Q 15.09375 0.046875 10.984375 1.515625 
z
M 30.609375 32.421875 
Q 37.25 32.421875 41.125 36.953125 
Q 45.015625 41.5 45.015625 49.421875 
Q 45.015625 57.28125 41.125 61.84375 
Q 37.25 66.40625 30.609375 66.40625 
Q 23.96875 66.40625 20.09375 61.84375 
Q 16.21875 57.28125 16.21875 49.421875 
Q 16.21875 41.5 20.09375 36.953125 
Q 23.96875 32.421875 30.609375 32.421875 
z
" id="DejaVuSans-57"/>
       </defs>
       <use xlink:href="#DejaVuSans-57"/>
       <use x="63.623047" xlink:href="#DejaVuSans-46"/>
       <use x="95.410156" xlink:href="#DejaVuSans-48"/>
      </g>
     </g>
    </g>
    <g id="xtick_8">
     <g id="line2d_8">
      <g>
       <use style="stroke:#000000;stroke-width:2;" x="635.364494" xlink:href="#ma8dd19d78e" y="567"/>
      </g>
     </g>
     <g id="text_8">
      <!-- 9.33 -->
      <g transform="translate(613.098869 595.696875)scale(0.2 -0.2)">
       <use xlink:href="#DejaVuSans-57"/>
       <use x="63.623047" xlink:href="#DejaVuSans-46"/>
       <use x="95.410156" xlink:href="#DejaVuSans-51"/>
       <use x="159.033203" xlink:href="#DejaVuSans-51"/>
      </g>
     </g>
    </g>
    <g id="xtick_9">
     <g id="line2d_9">
      <g>
       <use style="stroke:#000000;stroke-width:2;" x="683.220412" xlink:href="#ma8dd19d78e" y="567"/>
      </g>
     </g>
     <g id="text_9">
      <!-- 12.0 -->
      <g transform="translate(660.954787 595.696875)scale(0.2 -0.2)">
       <defs>
        <path d="M 19.1875 8.296875 
L 53.609375 8.296875 
L 53.609375 0 
L 7.328125 0 
L 7.328125 8.296875 
Q 12.9375 14.109375 22.625 23.890625 
Q 32.328125 33.6875 34.8125 36.53125 
Q 39.546875 41.84375 41.421875 45.53125 
Q 43.3125 49.21875 43.3125 52.78125 
Q 43.3125 58.59375 39.234375 62.25 
Q 35.15625 65.921875 28.609375 65.921875 
Q 23.96875 65.921875 18.8125 64.3125 
Q 13.671875 62.703125 7.8125 59.421875 
L 7.8125 69.390625 
Q 13.765625 71.78125 18.9375 73 
Q 24.125 74.21875 28.421875 74.21875 
Q 39.75 74.21875 46.484375 68.546875 
Q 53.21875 62.890625 53.21875 53.421875 
Q 53.21875 48.921875 51.53125 44.890625 
Q 49.859375 40.875 45.40625 35.40625 
Q 44.1875 33.984375 37.640625 27.21875 
Q 31.109375 20.453125 19.1875 8.296875 
z
" id="DejaVuSans-50"/>
       </defs>
       <use xlink:href="#DejaVuSans-49"/>
       <use x="63.623047" xlink:href="#DejaVuSans-50"/>
       <use x="127.246094" xlink:href="#DejaVuSans-46"/>
       <use x="159.033203" xlink:href="#DejaVuSans-48"/>
      </g>
     </g>
    </g>
    <g id="xtick_10">
     <g id="line2d_10">
      <g>
       <use style="stroke:#000000;stroke-width:2;" x="731.076329" xlink:href="#ma8dd19d78e" y="567"/>
      </g>
     </g>
     <g id="text_10">
      <!-- 13.0 -->
      <g transform="translate(708.810704 595.696875)scale(0.2 -0.2)">
       <use xlink:href="#DejaVuSans-49"/>
       <use x="63.623047" xlink:href="#DejaVuSans-51"/>
       <use x="127.246094" xlink:href="#DejaVuSans-46"/>
       <use x="159.033203" xlink:href="#DejaVuSans-48"/>
      </g>
     </g>
    </g>
    <g id="xtick_11">
     <g id="line2d_11">
      <g>
       <use style="stroke:#000000;stroke-width:2;" x="778.932247" xlink:href="#ma8dd19d78e" y="567"/>
      </g>
     </g>
     <g id="text_11">
      <!-- 16.0 -->
      <g transform="translate(756.666622 595.696875)scale(0.2 -0.2)">
       <defs>
        <path d="M 33.015625 40.375 
Q 26.375 40.375 22.484375 35.828125 
Q 18.609375 31.296875 18.609375 23.390625 
Q 18.609375 15.53125 22.484375 10.953125 
Q 26.375 6.390625 33.015625 6.390625 
Q 39.65625 6.390625 43.53125 10.953125 
Q 47.40625 15.53125 47.40625 23.390625 
Q 47.40625 31.296875 43.53125 35.828125 
Q 39.65625 40.375 33.015625 40.375 
z
M 52.59375 71.296875 
L 52.59375 62.3125 
Q 48.875 64.0625 45.09375 64.984375 
Q 41.3125 65.921875 37.59375 65.921875 
Q 27.828125 65.921875 22.671875 59.328125 
Q 17.53125 52.734375 16.796875 39.40625 
Q 19.671875 43.65625 24.015625 45.921875 
Q 28.375 48.1875 33.59375 48.1875 
Q 44.578125 48.1875 50.953125 41.515625 
Q 57.328125 34.859375 57.328125 23.390625 
Q 57.328125 12.15625 50.6875 5.359375 
Q 44.046875 -1.421875 33.015625 -1.421875 
Q 20.359375 -1.421875 13.671875 8.265625 
Q 6.984375 17.96875 6.984375 36.375 
Q 6.984375 53.65625 15.1875 63.9375 
Q 23.390625 74.21875 37.203125 74.21875 
Q 40.921875 74.21875 44.703125 73.484375 
Q 48.484375 72.75 52.59375 71.296875 
z
" id="DejaVuSans-54"/>
       </defs>
       <use xlink:href="#DejaVuSans-49"/>
       <use x="63.623047" xlink:href="#DejaVuSans-54"/>
       <use x="127.246094" xlink:href="#DejaVuSans-46"/>
       <use x="159.033203" xlink:href="#DejaVuSans-48"/>
      </g>
     </g>
    </g>
    <g id="xtick_12">
     <g id="line2d_12">
      <g>
       <use style="stroke:#000000;stroke-width:2;" x="826.788165" xlink:href="#ma8dd19d78e" y="567"/>
      </g>
     </g>
     <g id="text_12">
      <!-- 17.33 -->
      <g transform="translate(798.16004 595.696875)scale(0.2 -0.2)">
       <use xlink:href="#DejaVuSans-49"/>
       <use x="63.623047" xlink:href="#DejaVuSans-55"/>
       <use x="127.246094" xlink:href="#DejaVuSans-46"/>
       <use x="159.033203" xlink:href="#DejaVuSans-51"/>
       <use x="222.65625" xlink:href="#DejaVuSans-51"/>
      </g>
     </g>
    </g>
    <g id="xtick_13">
     <g id="line2d_13">
      <g>
       <use style="stroke:#000000;stroke-width:2;" x="874.644082" xlink:href="#ma8dd19d78e" y="567"/>
      </g>
     </g>
     <g id="text_13">
      <!-- 19.0 -->
      <g transform="translate(852.378457 595.696875)scale(0.2 -0.2)">
       <use xlink:href="#DejaVuSans-49"/>
       <use x="63.623047" xlink:href="#DejaVuSans-57"/>
       <use x="127.246094" xlink:href="#DejaVuSans-46"/>
       <use x="159.033203" xlink:href="#DejaVuSans-48"/>
      </g>
     </g>
    </g>
    <g id="xtick_14">
     <g id="line2d_14">
      <g>
       <use style="stroke:#000000;stroke-width:2;" x="922.5" xlink:href="#ma8dd19d78e" y="567"/>
      </g>
     </g>
     <g id="text_14">
      <!-- 21.0 -->
      <g transform="translate(900.234375 595.696875)scale(0.2 -0.2)">
       <use xlink:href="#DejaVuSans-50"/>
       <use x="63.623047" xlink:href="#DejaVuSans-49"/>
       <use x="127.246094" xlink:href="#DejaVuSans-46"/>
       <use x="159.033203" xlink:href="#DejaVuSans-48"/>
      </g>
     </g>
    </g>
    <g id="xtick_15">
     <g id="line2d_15">
      <g>
       <use style="stroke:#000000;stroke-width:2;" x="970.355918" xlink:href="#ma8dd19d78e" y="567"/>
      </g>
     </g>
     <g id="text_15">
      <!-- 21.33 -->
      <g transform="translate(941.727793 595.696875)scale(0.2 -0.2)">
       <use xlink:href="#DejaVuSans-50"/>
       <use x="63.623047" xlink:href="#DejaVuSans-49"/>
       <use x="127.246094" xlink:href="#DejaVuSans-46"/>
       <use x="159.033203" xlink:href="#DejaVuSans-51"/>
       <use x="222.65625" xlink:href="#DejaVuSans-51"/>
      </g>
     </g>
    </g>
    <g id="xtick_16">
     <g id="line2d_16">
      <g>
       <use style="stroke:#000000;stroke-width:2;" x="1018.211835" xlink:href="#ma8dd19d78e" y="567"/>
      </g>
     </g>
     <g id="text_16">
      <!-- 25.0 -->
      <g transform="translate(995.94621 595.696875)scale(0.2 -0.2)">
       <use xlink:href="#DejaVuSans-50"/>
       <use x="63.623047" xlink:href="#DejaVuSans-53"/>
       <use x="127.246094" xlink:href="#DejaVuSans-46"/>
       <use x="159.033203" xlink:href="#DejaVuSans-48"/>
      </g>
     </g>
    </g>
    <g id="xtick_17">
     <g id="line2d_17">
      <g>
       <use style="stroke:#000000;stroke-width:2;" x="1066.067753" xlink:href="#ma8dd19d78e" y="567"/>
      </g>
     </g>
     <g id="text_17">
      <!-- 25.33 -->
      <g transform="translate(1037.439628 595.696875)scale(0.2 -0.2)">
       <use xlink:href="#DejaVuSans-50"/>
       <use x="63.623047" xlink:href="#DejaVuSans-53"/>
       <use x="127.246094" xlink:href="#DejaVuSans-46"/>
       <use x="159.033203" xlink:href="#DejaVuSans-51"/>
       <use x="222.65625" xlink:href="#DejaVuSans-51"/>
      </g>
     </g>
    </g>
    <g id="xtick_18">
     <g id="line2d_18">
      <g>
       <use style="stroke:#000000;stroke-width:2;" x="1113.923671" xlink:href="#ma8dd19d78e" y="567"/>
      </g>
     </g>
     <g id="text_18">
      <!-- 27.0 -->
      <g transform="translate(1091.658046 595.696875)scale(0.2 -0.2)">
       <use xlink:href="#DejaVuSans-50"/>
       <use x="63.623047" xlink:href="#DejaVuSans-55"/>
       <use x="127.246094" xlink:href="#DejaVuSans-46"/>
       <use x="159.033203" xlink:href="#DejaVuSans-48"/>
      </g>
     </g>
    </g>
    <g id="xtick_19">
     <g id="line2d_19">
      <g>
       <use style="stroke:#000000;stroke-width:2;" x="1161.779588" xlink:href="#ma8dd19d78e" y="567"/>
      </g>
     </g>
     <g id="text_19">
      <!-- 28.0 -->
      <g transform="translate(1139.513963 595.696875)scale(0.2 -0.2)">
       <defs>
        <path d="M 31.78125 34.625 
Q 24.75 34.625 20.71875 30.859375 
Q 16.703125 27.09375 16.703125 20.515625 
Q 16.703125 13.921875 20.71875 10.15625 
Q 24.75 6.390625 31.78125 6.390625 
Q 38.8125 6.390625 42.859375 10.171875 
Q 46.921875 13.96875 46.921875 20.515625 
Q 46.921875 27.09375 42.890625 30.859375 
Q 38.875 34.625 31.78125 34.625 
z
M 21.921875 38.8125 
Q 15.578125 40.375 12.03125 44.71875 
Q 8.5 49.078125 8.5 55.328125 
Q 8.5 64.0625 14.71875 69.140625 
Q 20.953125 74.21875 31.78125 74.21875 
Q 42.671875 74.21875 48.875 69.140625 
Q 55.078125 64.0625 55.078125 55.328125 
Q 55.078125 49.078125 51.53125 44.71875 
Q 48 40.375 41.703125 38.8125 
Q 48.828125 37.15625 52.796875 32.3125 
Q 56.78125 27.484375 56.78125 20.515625 
Q 56.78125 9.90625 50.3125 4.234375 
Q 43.84375 -1.421875 31.78125 -1.421875 
Q 19.734375 -1.421875 13.25 4.234375 
Q 6.78125 9.90625 6.78125 20.515625 
Q 6.78125 27.484375 10.78125 32.3125 
Q 14.796875 37.15625 21.921875 38.8125 
z
M 18.3125 54.390625 
Q 18.3125 48.734375 21.84375 45.5625 
Q 25.390625 42.390625 31.78125 42.390625 
Q 38.140625 42.390625 41.71875 45.5625 
Q 45.3125 48.734375 45.3125 54.390625 
Q 45.3125 60.0625 41.71875 63.234375 
Q 38.140625 66.40625 31.78125 66.40625 
Q 25.390625 66.40625 21.84375 63.234375 
Q 18.3125 60.0625 18.3125 54.390625 
z
" id="DejaVuSans-56"/>
       </defs>
       <use xlink:href="#DejaVuSans-50"/>
       <use x="63.623047" xlink:href="#DejaVuSans-56"/>
       <use x="127.246094" xlink:href="#DejaVuSans-46"/>
       <use x="159.033203" xlink:href="#DejaVuSans-48"/>
      </g>
     </g>
    </g>
    <g id="xtick_20">
     <g id="line2d_20">
      <g>
       <use style="stroke:#000000;stroke-width:2;" x="1209.635506" xlink:href="#ma8dd19d78e" y="567"/>
      </g>
     </g>
     <g id="text_20">
      <!-- 31.0 -->
      <g transform="translate(1187.369881 595.696875)scale(0.2 -0.2)">
       <use xlink:href="#DejaVuSans-51"/>
       <use x="63.623047" xlink:href="#DejaVuSans-49"/>
       <use x="127.246094" xlink:href="#DejaVuSans-46"/>
       <use x="159.033203" xlink:href="#DejaVuSans-48"/>
      </g>
     </g>
    </g>
    <g id="xtick_21">
     <g id="line2d_21">
      <g>
       <use style="stroke:#000000;stroke-width:2;" x="1257.491424" xlink:href="#ma8dd19d78e" y="567"/>
      </g>
     </g>
     <g id="text_21">
      <!-- 33.33 -->
      <g transform="translate(1228.863299 595.696875)scale(0.2 -0.2)">
       <use xlink:href="#DejaVuSans-51"/>
       <use x="63.623047" xlink:href="#DejaVuSans-51"/>
       <use x="127.246094" xlink:href="#DejaVuSans-46"/>
       <use x="159.033203" xlink:href="#DejaVuSans-51"/>
       <use x="222.65625" xlink:href="#DejaVuSans-51"/>
      </g>
     </g>
    </g>
    <g id="xtick_22">
     <g id="line2d_22">
      <g>
       <use style="stroke:#000000;stroke-width:2;" x="1305.347341" xlink:href="#ma8dd19d78e" y="567"/>
      </g>
     </g>
     <g id="text_22">
      <!-- 36.0 -->
      <g transform="translate(1283.081716 595.696875)scale(0.2 -0.2)">
       <use xlink:href="#DejaVuSans-51"/>
       <use x="63.623047" xlink:href="#DejaVuSans-54"/>
       <use x="127.246094" xlink:href="#DejaVuSans-46"/>
       <use x="159.033203" xlink:href="#DejaVuSans-48"/>
      </g>
     </g>
    </g>
    <g id="xtick_23">
     <g id="line2d_23">
      <g>
       <use style="stroke:#000000;stroke-width:2;" x="1353.203259" xlink:href="#ma8dd19d78e" y="567"/>
      </g>
     </g>
     <g id="text_23">
      <!-- 37.0 -->
      <g transform="translate(1330.937634 595.696875)scale(0.2 -0.2)">
       <use xlink:href="#DejaVuSans-51"/>
       <use x="63.623047" xlink:href="#DejaVuSans-55"/>
       <use x="127.246094" xlink:href="#DejaVuSans-46"/>
       <use x="159.033203" xlink:href="#DejaVuSans-48"/>
      </g>
     </g>
    </g>
    <g id="xtick_24">
     <g id="line2d_24">
      <g>
       <use style="stroke:#000000;stroke-width:2;" x="1401.059177" xlink:href="#ma8dd19d78e" y="567"/>
      </g>
     </g>
     <g id="text_24">
      <!-- 37.33 -->
      <g transform="translate(1372.431052 595.696875)scale(0.2 -0.2)">
       <use xlink:href="#DejaVuSans-51"/>
       <use x="63.623047" xlink:href="#DejaVuSans-55"/>
       <use x="127.246094" xlink:href="#DejaVuSans-46"/>
       <use x="159.033203" xlink:href="#DejaVuSans-51"/>
       <use x="222.65625" xlink:href="#DejaVuSans-51"/>
      </g>
     </g>
    </g>
    <g id="xtick_25">
     <g id="line2d_25">
      <g>
       <use style="stroke:#000000;stroke-width:2;" x="1448.915094" xlink:href="#ma8dd19d78e" y="567"/>
      </g>
     </g>
     <g id="text_25">
      <!-- 39.0 -->
      <g transform="translate(1426.649469 595.696875)scale(0.2 -0.2)">
       <use xlink:href="#DejaVuSans-51"/>
       <use x="63.623047" xlink:href="#DejaVuSans-57"/>
       <use x="127.246094" xlink:href="#DejaVuSans-46"/>
       <use x="159.033203" xlink:href="#DejaVuSans-48"/>
      </g>
     </g>
    </g>
    <g id="xtick_26">
     <g id="line2d_26">
      <g>
       <use style="stroke:#000000;stroke-width:2;" x="1496.771012" xlink:href="#ma8dd19d78e" y="567"/>
      </g>
     </g>
     <g id="text_26">
      <!-- 41.33 -->
      <g transform="translate(1468.142887 595.696875)scale(0.2 -0.2)">
       <use xlink:href="#DejaVuSans-52"/>
       <use x="63.623047" xlink:href="#DejaVuSans-49"/>
       <use x="127.246094" xlink:href="#DejaVuSans-46"/>
       <use x="159.033203" xlink:href="#DejaVuSans-51"/>
       <use x="222.65625" xlink:href="#DejaVuSans-51"/>
      </g>
     </g>
    </g>
    <g id="xtick_27">
     <g id="line2d_27">
      <g>
       <use style="stroke:#000000;stroke-width:2;" x="1544.62693" xlink:href="#ma8dd19d78e" y="567"/>
      </g>
     </g>
     <g id="text_27">
      <!-- No T -->
      <g transform="translate(1521.740992 595.696875)scale(0.2 -0.2)">
       <defs>
        <path d="M 9.8125 72.90625 
L 23.09375 72.90625 
L 55.421875 11.921875 
L 55.421875 72.90625 
L 64.984375 72.90625 
L 64.984375 0 
L 51.703125 0 
L 19.390625 60.984375 
L 19.390625 0 
L 9.8125 0 
z
" id="DejaVuSans-78"/>
        <path d="M 30.609375 48.390625 
Q 23.390625 48.390625 19.1875 42.75 
Q 14.984375 37.109375 14.984375 27.296875 
Q 14.984375 17.484375 19.15625 11.84375 
Q 23.34375 6.203125 30.609375 6.203125 
Q 37.796875 6.203125 41.984375 11.859375 
Q 46.1875 17.53125 46.1875 27.296875 
Q 46.1875 37.015625 41.984375 42.703125 
Q 37.796875 48.390625 30.609375 48.390625 
z
M 30.609375 56 
Q 42.328125 56 49.015625 48.375 
Q 55.71875 40.765625 55.71875 27.296875 
Q 55.71875 13.875 49.015625 6.21875 
Q 42.328125 -1.421875 30.609375 -1.421875 
Q 18.84375 -1.421875 12.171875 6.21875 
Q 5.515625 13.875 5.515625 27.296875 
Q 5.515625 40.765625 12.171875 48.375 
Q 18.84375 56 30.609375 56 
z
" id="DejaVuSans-111"/>
        <path id="DejaVuSans-32"/>
        <path d="M -0.296875 72.90625 
L 61.375 72.90625 
L 61.375 64.59375 
L 35.5 64.59375 
L 35.5 0 
L 25.59375 0 
L 25.59375 64.59375 
L -0.296875 64.59375 
z
" id="DejaVuSans-84"/>
       </defs>
       <use xlink:href="#DejaVuSans-78"/>
       <use x="74.804688" xlink:href="#DejaVuSans-111"/>
       <use x="135.986328" xlink:href="#DejaVuSans-32"/>
       <use x="167.773438" xlink:href="#DejaVuSans-84"/>
      </g>
     </g>
    </g>
    <g id="text_28">
     <!-- T-number -->
     <g transform="translate(874.66875 619.053125)scale(0.2 -0.2)">
      <defs>
       <path d="M 4.890625 31.390625 
L 31.203125 31.390625 
L 31.203125 23.390625 
L 4.890625 23.390625 
z
" id="DejaVuSans-45"/>
       <path d="M 54.890625 33.015625 
L 54.890625 0 
L 45.90625 0 
L 45.90625 32.71875 
Q 45.90625 40.484375 42.875 44.328125 
Q 39.84375 48.1875 33.796875 48.1875 
Q 26.515625 48.1875 22.3125 43.546875 
Q 18.109375 38.921875 18.109375 30.90625 
L 18.109375 0 
L 9.078125 0 
L 9.078125 54.6875 
L 18.109375 54.6875 
L 18.109375 46.1875 
Q 21.34375 51.125 25.703125 53.5625 
Q 30.078125 56 35.796875 56 
Q 45.21875 56 50.046875 50.171875 
Q 54.890625 44.34375 54.890625 33.015625 
z
" id="DejaVuSans-110"/>
       <path d="M 8.5 21.578125 
L 8.5 54.6875 
L 17.484375 54.6875 
L 17.484375 21.921875 
Q 17.484375 14.15625 20.5 10.265625 
Q 23.53125 6.390625 29.59375 6.390625 
Q 36.859375 6.390625 41.078125 11.03125 
Q 45.3125 15.671875 45.3125 23.6875 
L 45.3125 54.6875 
L 54.296875 54.6875 
L 54.296875 0 
L 45.3125 0 
L 45.3125 8.40625 
Q 42.046875 3.421875 37.71875 1 
Q 33.40625 -1.421875 27.6875 -1.421875 
Q 18.265625 -1.421875 13.375 4.4375 
Q 8.5 10.296875 8.5 21.578125 
z
M 31.109375 56 
z
" id="DejaVuSans-117"/>
       <path d="M 52 44.1875 
Q 55.375 50.25 60.0625 53.125 
Q 64.75 56 71.09375 56 
Q 79.640625 56 84.28125 50.015625 
Q 88.921875 44.046875 88.921875 33.015625 
L 88.921875 0 
L 79.890625 0 
L 79.890625 32.71875 
Q 79.890625 40.578125 77.09375 44.375 
Q 74.3125 48.1875 68.609375 48.1875 
Q 61.625 48.1875 57.5625 43.546875 
Q 53.515625 38.921875 53.515625 30.90625 
L 53.515625 0 
L 44.484375 0 
L 44.484375 32.71875 
Q 44.484375 40.625 41.703125 44.40625 
Q 38.921875 48.1875 33.109375 48.1875 
Q 26.21875 48.1875 22.15625 43.53125 
Q 18.109375 38.875 18.109375 30.90625 
L 18.109375 0 
L 9.078125 0 
L 9.078125 54.6875 
L 18.109375 54.6875 
L 18.109375 46.1875 
Q 21.1875 51.21875 25.484375 53.609375 
Q 29.78125 56 35.6875 56 
Q 41.65625 56 45.828125 52.96875 
Q 50 49.953125 52 44.1875 
z
" id="DejaVuSans-109"/>
       <path d="M 48.6875 27.296875 
Q 48.6875 37.203125 44.609375 42.84375 
Q 40.53125 48.484375 33.40625 48.484375 
Q 26.265625 48.484375 22.1875 42.84375 
Q 18.109375 37.203125 18.109375 27.296875 
Q 18.109375 17.390625 22.1875 11.75 
Q 26.265625 6.109375 33.40625 6.109375 
Q 40.53125 6.109375 44.609375 11.75 
Q 48.6875 17.390625 48.6875 27.296875 
z
M 18.109375 46.390625 
Q 20.953125 51.265625 25.265625 53.625 
Q 29.59375 56 35.59375 56 
Q 45.5625 56 51.78125 48.09375 
Q 58.015625 40.1875 58.015625 27.296875 
Q 58.015625 14.40625 51.78125 6.484375 
Q 45.5625 -1.421875 35.59375 -1.421875 
Q 29.59375 -1.421875 25.265625 0.953125 
Q 20.953125 3.328125 18.109375 8.203125 
L 18.109375 0 
L 9.078125 0 
L 9.078125 75.984375 
L 18.109375 75.984375 
z
" id="DejaVuSans-98"/>
       <path d="M 56.203125 29.59375 
L 56.203125 25.203125 
L 14.890625 25.203125 
Q 15.484375 15.921875 20.484375 11.0625 
Q 25.484375 6.203125 34.421875 6.203125 
Q 39.59375 6.203125 44.453125 7.46875 
Q 49.3125 8.734375 54.109375 11.28125 
L 54.109375 2.78125 
Q 49.265625 0.734375 44.1875 -0.34375 
Q 39.109375 -1.421875 33.890625 -1.421875 
Q 20.796875 -1.421875 13.15625 6.1875 
Q 5.515625 13.8125 5.515625 26.8125 
Q 5.515625 40.234375 12.765625 48.109375 
Q 20.015625 56 32.328125 56 
Q 43.359375 56 49.78125 48.890625 
Q 56.203125 41.796875 56.203125 29.59375 
z
M 47.21875 32.234375 
Q 47.125 39.59375 43.09375 43.984375 
Q 39.0625 48.390625 32.421875 48.390625 
Q 24.90625 48.390625 20.390625 44.140625 
Q 15.875 39.890625 15.1875 32.171875 
z
" id="DejaVuSans-101"/>
       <path d="M 41.109375 46.296875 
Q 39.59375 47.171875 37.8125 47.578125 
Q 36.03125 48 33.890625 48 
Q 26.265625 48 22.1875 43.046875 
Q 18.109375 38.09375 18.109375 28.8125 
L 18.109375 0 
L 9.078125 0 
L 9.078125 54.6875 
L 18.109375 54.6875 
L 18.109375 46.1875 
Q 20.953125 51.171875 25.484375 53.578125 
Q 30.03125 56 36.53125 56 
Q 37.453125 56 38.578125 55.875 
Q 39.703125 55.765625 41.0625 55.515625 
z
" id="DejaVuSans-114"/>
      </defs>
      <use xlink:href="#DejaVuSans-84"/>
      <use x="51.958984" xlink:href="#DejaVuSans-45"/>
      <use x="88.042969" xlink:href="#DejaVuSans-110"/>
      <use x="151.421875" xlink:href="#DejaVuSans-117"/>
      <use x="214.800781" xlink:href="#DejaVuSans-109"/>
      <use x="312.212891" xlink:href="#DejaVuSans-98"/>
      <use x="375.689453" xlink:href="#DejaVuSans-101"/>
      <use x="437.212891" xlink:href="#DejaVuSans-114"/>
     </g>
    </g>
   </g>
   <g id="matplotlib.axis_2">
    <g id="ytick_1">
     <g id="line2d_28">
      <defs>
       <path d="M 0 0 
L -10 0 
" id="mae6ed95854" style="stroke:#000000;stroke-width:2;"/>
      </defs>
      <g>
       <use style="stroke:#000000;stroke-width:2;" x="225" xlink:href="#mae6ed95854" y="567"/>
      </g>
     </g>
     <g id="text_29">
      <!-- 0 -->
      <g transform="translate(198.775 574.598438)scale(0.2 -0.2)">
       <use xlink:href="#DejaVuSans-48"/>
      </g>
     </g>
    </g>
    <g id="ytick_2">
     <g id="line2d_29">
      <g>
       <use style="stroke:#000000;stroke-width:2;" x="225" xlink:href="#mae6ed95854" y="520.405714"/>
      </g>
     </g>
     <g id="text_30">
      <!-- 10 -->
      <g transform="translate(186.05 528.004152)scale(0.2 -0.2)">
       <use xlink:href="#DejaVuSans-49"/>
       <use x="63.623047" xlink:href="#DejaVuSans-48"/>
      </g>
     </g>
    </g>
    <g id="ytick_3">
     <g id="line2d_30">
      <g>
       <use style="stroke:#000000;stroke-width:2;" x="225" xlink:href="#mae6ed95854" y="473.811429"/>
      </g>
     </g>
     <g id="text_31">
      <!-- 20 -->
      <g transform="translate(186.05 481.409866)scale(0.2 -0.2)">
       <use xlink:href="#DejaVuSans-50"/>
       <use x="63.623047" xlink:href="#DejaVuSans-48"/>
      </g>
     </g>
    </g>
    <g id="ytick_4">
     <g id="line2d_31">
      <g>
       <use style="stroke:#000000;stroke-width:2;" x="225" xlink:href="#mae6ed95854" y="427.217143"/>
      </g>
     </g>
     <g id="text_32">
      <!-- 30 -->
      <g transform="translate(186.05 434.81558)scale(0.2 -0.2)">
       <use xlink:href="#DejaVuSans-51"/>
       <use x="63.623047" xlink:href="#DejaVuSans-48"/>
      </g>
     </g>
    </g>
    <g id="ytick_5">
     <g id="line2d_32">
      <g>
       <use style="stroke:#000000;stroke-width:2;" x="225" xlink:href="#mae6ed95854" y="380.622857"/>
      </g>
     </g>
     <g id="text_33">
      <!-- 40 -->
      <g transform="translate(186.05 388.221295)scale(0.2 -0.2)">
       <use xlink:href="#DejaVuSans-52"/>
       <use x="63.623047" xlink:href="#DejaVuSans-48"/>
      </g>
     </g>
    </g>
    <g id="ytick_6">
     <g id="line2d_33">
      <g>
       <use style="stroke:#000000;stroke-width:2;" x="225" xlink:href="#mae6ed95854" y="334.028571"/>
      </g>
     </g>
     <g id="text_34">
      <!-- 50 -->
      <g transform="translate(186.05 341.627009)scale(0.2 -0.2)">
       <use xlink:href="#DejaVuSans-53"/>
       <use x="63.623047" xlink:href="#DejaVuSans-48"/>
      </g>
     </g>
    </g>
    <g id="ytick_7">
     <g id="line2d_34">
      <g>
       <use style="stroke:#000000;stroke-width:2;" x="225" xlink:href="#mae6ed95854" y="287.434286"/>
      </g>
     </g>
     <g id="text_35">
      <!-- 60 -->
      <g transform="translate(186.05 295.032723)scale(0.2 -0.2)">
       <use xlink:href="#DejaVuSans-54"/>
       <use x="63.623047" xlink:href="#DejaVuSans-48"/>
      </g>
     </g>
    </g>
    <g id="ytick_8">
     <g id="line2d_35">
      <g>
       <use style="stroke:#000000;stroke-width:2;" x="225" xlink:href="#mae6ed95854" y="240.84"/>
      </g>
     </g>
     <g id="text_36">
      <!-- 70 -->
      <g transform="translate(186.05 248.438437)scale(0.2 -0.2)">
       <use xlink:href="#DejaVuSans-55"/>
       <use x="63.623047" xlink:href="#DejaVuSans-48"/>
      </g>
     </g>
    </g>
    <g id="ytick_9">
     <g id="line2d_36">
      <g>
       <use style="stroke:#000000;stroke-width:2;" x="225" xlink:href="#mae6ed95854" y="194.245714"/>
      </g>
     </g>
     <g id="text_37">
      <!-- 80 -->
      <g transform="translate(186.05 201.844152)scale(0.2 -0.2)">
       <use xlink:href="#DejaVuSans-56"/>
       <use x="63.623047" xlink:href="#DejaVuSans-48"/>
      </g>
     </g>
    </g>
    <g id="ytick_10">
     <g id="line2d_37">
      <g>
       <use style="stroke:#000000;stroke-width:2;" x="225" xlink:href="#mae6ed95854" y="147.651429"/>
      </g>
     </g>
     <g id="text_38">
      <!-- 90 -->
      <g transform="translate(186.05 155.249866)scale(0.2 -0.2)">
       <use xlink:href="#DejaVuSans-57"/>
       <use x="63.623047" xlink:href="#DejaVuSans-48"/>
      </g>
     </g>
    </g>
    <g id="ytick_11">
     <g id="line2d_38">
      <g>
       <use style="stroke:#000000;stroke-width:2;" x="225" xlink:href="#mae6ed95854" y="101.057143"/>
      </g>
     </g>
     <g id="text_39">
      <!-- 100 -->
      <g transform="translate(173.325 108.65558)scale(0.2 -0.2)">
       <use xlink:href="#DejaVuSans-49"/>
       <use x="63.623047" xlink:href="#DejaVuSans-48"/>
       <use x="127.246094" xlink:href="#DejaVuSans-48"/>
      </g>
     </g>
    </g>
    <g id="text_40">
     <!-- Predicted (%) -->
     <g transform="translate(165.165625 389.803437)rotate(-90)scale(0.2 -0.2)">
      <defs>
       <path d="M 19.671875 64.796875 
L 19.671875 37.40625 
L 32.078125 37.40625 
Q 38.96875 37.40625 42.71875 40.96875 
Q 46.484375 44.53125 46.484375 51.125 
Q 46.484375 57.671875 42.71875 61.234375 
Q 38.96875 64.796875 32.078125 64.796875 
z
M 9.8125 72.90625 
L 32.078125 72.90625 
Q 44.34375 72.90625 50.609375 67.359375 
Q 56.890625 61.8125 56.890625 51.125 
Q 56.890625 40.328125 50.609375 34.8125 
Q 44.34375 29.296875 32.078125 29.296875 
L 19.671875 29.296875 
L 19.671875 0 
L 9.8125 0 
z
" id="DejaVuSans-80"/>
       <path d="M 45.40625 46.390625 
L 45.40625 75.984375 
L 54.390625 75.984375 
L 54.390625 0 
L 45.40625 0 
L 45.40625 8.203125 
Q 42.578125 3.328125 38.25 0.953125 
Q 33.9375 -1.421875 27.875 -1.421875 
Q 17.96875 -1.421875 11.734375 6.484375 
Q 5.515625 14.40625 5.515625 27.296875 
Q 5.515625 40.1875 11.734375 48.09375 
Q 17.96875 56 27.875 56 
Q 33.9375 56 38.25 53.625 
Q 42.578125 51.265625 45.40625 46.390625 
z
M 14.796875 27.296875 
Q 14.796875 17.390625 18.875 11.75 
Q 22.953125 6.109375 30.078125 6.109375 
Q 37.203125 6.109375 41.296875 11.75 
Q 45.40625 17.390625 45.40625 27.296875 
Q 45.40625 37.203125 41.296875 42.84375 
Q 37.203125 48.484375 30.078125 48.484375 
Q 22.953125 48.484375 18.875 42.84375 
Q 14.796875 37.203125 14.796875 27.296875 
z
" id="DejaVuSans-100"/>
       <path d="M 9.421875 54.6875 
L 18.40625 54.6875 
L 18.40625 0 
L 9.421875 0 
z
M 9.421875 75.984375 
L 18.40625 75.984375 
L 18.40625 64.59375 
L 9.421875 64.59375 
z
" id="DejaVuSans-105"/>
       <path d="M 48.78125 52.59375 
L 48.78125 44.1875 
Q 44.96875 46.296875 41.140625 47.34375 
Q 37.3125 48.390625 33.40625 48.390625 
Q 24.65625 48.390625 19.8125 42.84375 
Q 14.984375 37.3125 14.984375 27.296875 
Q 14.984375 17.28125 19.8125 11.734375 
Q 24.65625 6.203125 33.40625 6.203125 
Q 37.3125 6.203125 41.140625 7.25 
Q 44.96875 8.296875 48.78125 10.40625 
L 48.78125 2.09375 
Q 45.015625 0.34375 40.984375 -0.53125 
Q 36.96875 -1.421875 32.421875 -1.421875 
Q 20.0625 -1.421875 12.78125 6.34375 
Q 5.515625 14.109375 5.515625 27.296875 
Q 5.515625 40.671875 12.859375 48.328125 
Q 20.21875 56 33.015625 56 
Q 37.15625 56 41.109375 55.140625 
Q 45.0625 54.296875 48.78125 52.59375 
z
" id="DejaVuSans-99"/>
       <path d="M 18.3125 70.21875 
L 18.3125 54.6875 
L 36.8125 54.6875 
L 36.8125 47.703125 
L 18.3125 47.703125 
L 18.3125 18.015625 
Q 18.3125 11.328125 20.140625 9.421875 
Q 21.96875 7.515625 27.59375 7.515625 
L 36.8125 7.515625 
L 36.8125 0 
L 27.59375 0 
Q 17.1875 0 13.234375 3.875 
Q 9.28125 7.765625 9.28125 18.015625 
L 9.28125 47.703125 
L 2.6875 47.703125 
L 2.6875 54.6875 
L 9.28125 54.6875 
L 9.28125 70.21875 
z
" id="DejaVuSans-116"/>
       <path d="M 31 75.875 
Q 24.46875 64.65625 21.28125 53.65625 
Q 18.109375 42.671875 18.109375 31.390625 
Q 18.109375 20.125 21.3125 9.0625 
Q 24.515625 -2 31 -13.1875 
L 23.1875 -13.1875 
Q 15.875 -1.703125 12.234375 9.375 
Q 8.59375 20.453125 8.59375 31.390625 
Q 8.59375 42.28125 12.203125 53.3125 
Q 15.828125 64.359375 23.1875 75.875 
z
" id="DejaVuSans-40"/>
       <path d="M 72.703125 32.078125 
Q 68.453125 32.078125 66.03125 28.46875 
Q 63.625 24.859375 63.625 18.40625 
Q 63.625 12.0625 66.03125 8.421875 
Q 68.453125 4.78125 72.703125 4.78125 
Q 76.859375 4.78125 79.265625 8.421875 
Q 81.6875 12.0625 81.6875 18.40625 
Q 81.6875 24.8125 79.265625 28.4375 
Q 76.859375 32.078125 72.703125 32.078125 
z
M 72.703125 38.28125 
Q 80.421875 38.28125 84.953125 32.90625 
Q 89.5 27.546875 89.5 18.40625 
Q 89.5 9.28125 84.9375 3.921875 
Q 80.375 -1.421875 72.703125 -1.421875 
Q 64.890625 -1.421875 60.34375 3.921875 
Q 55.8125 9.28125 55.8125 18.40625 
Q 55.8125 27.59375 60.375 32.9375 
Q 64.9375 38.28125 72.703125 38.28125 
z
M 22.3125 68.015625 
Q 18.109375 68.015625 15.6875 64.375 
Q 13.28125 60.75 13.28125 54.390625 
Q 13.28125 47.953125 15.671875 44.328125 
Q 18.0625 40.71875 22.3125 40.71875 
Q 26.5625 40.71875 28.96875 44.328125 
Q 31.390625 47.953125 31.390625 54.390625 
Q 31.390625 60.6875 28.953125 64.34375 
Q 26.515625 68.015625 22.3125 68.015625 
z
M 66.40625 74.21875 
L 74.21875 74.21875 
L 28.609375 -1.421875 
L 20.796875 -1.421875 
z
M 22.3125 74.21875 
Q 30.03125 74.21875 34.609375 68.875 
Q 39.203125 63.53125 39.203125 54.390625 
Q 39.203125 45.171875 34.640625 39.84375 
Q 30.078125 34.515625 22.3125 34.515625 
Q 14.546875 34.515625 10.03125 39.859375 
Q 5.515625 45.21875 5.515625 54.390625 
Q 5.515625 63.484375 10.046875 68.84375 
Q 14.59375 74.21875 22.3125 74.21875 
z
" id="DejaVuSans-37"/>
       <path d="M 8.015625 75.875 
L 15.828125 75.875 
Q 23.140625 64.359375 26.78125 53.3125 
Q 30.421875 42.28125 30.421875 31.390625 
Q 30.421875 20.453125 26.78125 9.375 
Q 23.140625 -1.703125 15.828125 -13.1875 
L 8.015625 -13.1875 
Q 14.5 -2 17.703125 9.0625 
Q 20.90625 20.125 20.90625 31.390625 
Q 20.90625 42.671875 17.703125 53.65625 
Q 14.5 64.65625 8.015625 75.875 
z
" id="DejaVuSans-41"/>
      </defs>
      <use xlink:href="#DejaVuSans-80"/>
      <use x="58.552734" xlink:href="#DejaVuSans-114"/>
      <use x="97.416016" xlink:href="#DejaVuSans-101"/>
      <use x="158.939453" xlink:href="#DejaVuSans-100"/>
      <use x="222.416016" xlink:href="#DejaVuSans-105"/>
      <use x="250.199219" xlink:href="#DejaVuSans-99"/>
      <use x="305.179688" xlink:href="#DejaVuSans-116"/>
      <use x="344.388672" xlink:href="#DejaVuSans-101"/>
      <use x="405.912109" xlink:href="#DejaVuSans-100"/>
      <use x="469.388672" xlink:href="#DejaVuSans-32"/>
      <use x="501.175781" xlink:href="#DejaVuSans-40"/>
      <use x="540.189453" xlink:href="#DejaVuSans-37"/>
      <use x="635.208984" xlink:href="#DejaVuSans-41"/>
     </g>
    </g>
   </g>
   <g id="patch_138">
    <path d="M 225 567 
L 225 77.76 
" style="fill:none;stroke:#000000;stroke-linecap:square;stroke-linejoin:miter;stroke-width:0.8;"/>
   </g>
   <g id="patch_139">
    <path d="M 1620 567 
L 1620 77.76 
" style="fill:none;stroke:#000000;stroke-linecap:square;stroke-linejoin:miter;stroke-width:0.8;"/>
   </g>
   <g id="patch_140">
    <path d="M 225 567 
L 1620 567 
" style="fill:none;stroke:#000000;stroke-linecap:square;stroke-linejoin:miter;stroke-width:0.8;"/>
   </g>
   <g id="patch_141">
    <path d="M 225 77.76 
L 1620 77.76 
" style="fill:none;stroke:#000000;stroke-linecap:square;stroke-linejoin:miter;stroke-width:0.8;"/>
   </g>
   <g id="text_41">
    <!-- Percent architectures predicted by T-number -->
    <g transform="translate(654.219375 71.76)scale(0.24 -0.24)">
     <defs>
      <path d="M 34.28125 27.484375 
Q 23.390625 27.484375 19.1875 25 
Q 14.984375 22.515625 14.984375 16.5 
Q 14.984375 11.71875 18.140625 8.90625 
Q 21.296875 6.109375 26.703125 6.109375 
Q 34.1875 6.109375 38.703125 11.40625 
Q 43.21875 16.703125 43.21875 25.484375 
L 43.21875 27.484375 
z
M 52.203125 31.203125 
L 52.203125 0 
L 43.21875 0 
L 43.21875 8.296875 
Q 40.140625 3.328125 35.546875 0.953125 
Q 30.953125 -1.421875 24.3125 -1.421875 
Q 15.921875 -1.421875 10.953125 3.296875 
Q 6 8.015625 6 15.921875 
Q 6 25.140625 12.171875 29.828125 
Q 18.359375 34.515625 30.609375 34.515625 
L 43.21875 34.515625 
L 43.21875 35.40625 
Q 43.21875 41.609375 39.140625 45 
Q 35.0625 48.390625 27.6875 48.390625 
Q 23 48.390625 18.546875 47.265625 
Q 14.109375 46.140625 10.015625 43.890625 
L 10.015625 52.203125 
Q 14.9375 54.109375 19.578125 55.046875 
Q 24.21875 56 28.609375 56 
Q 40.484375 56 46.34375 49.84375 
Q 52.203125 43.703125 52.203125 31.203125 
z
" id="DejaVuSans-97"/>
      <path d="M 54.890625 33.015625 
L 54.890625 0 
L 45.90625 0 
L 45.90625 32.71875 
Q 45.90625 40.484375 42.875 44.328125 
Q 39.84375 48.1875 33.796875 48.1875 
Q 26.515625 48.1875 22.3125 43.546875 
Q 18.109375 38.921875 18.109375 30.90625 
L 18.109375 0 
L 9.078125 0 
L 9.078125 75.984375 
L 18.109375 75.984375 
L 18.109375 46.1875 
Q 21.34375 51.125 25.703125 53.5625 
Q 30.078125 56 35.796875 56 
Q 45.21875 56 50.046875 50.171875 
Q 54.890625 44.34375 54.890625 33.015625 
z
" id="DejaVuSans-104"/>
      <path d="M 44.28125 53.078125 
L 44.28125 44.578125 
Q 40.484375 46.53125 36.375 47.5 
Q 32.28125 48.484375 27.875 48.484375 
Q 21.1875 48.484375 17.84375 46.4375 
Q 14.5 44.390625 14.5 40.28125 
Q 14.5 37.15625 16.890625 35.375 
Q 19.28125 33.59375 26.515625 31.984375 
L 29.59375 31.296875 
Q 39.15625 29.25 43.1875 25.515625 
Q 47.21875 21.78125 47.21875 15.09375 
Q 47.21875 7.46875 41.1875 3.015625 
Q 35.15625 -1.421875 24.609375 -1.421875 
Q 20.21875 -1.421875 15.453125 -0.5625 
Q 10.6875 0.296875 5.421875 2 
L 5.421875 11.28125 
Q 10.40625 8.6875 15.234375 7.390625 
Q 20.0625 6.109375 24.8125 6.109375 
Q 31.15625 6.109375 34.5625 8.28125 
Q 37.984375 10.453125 37.984375 14.40625 
Q 37.984375 18.0625 35.515625 20.015625 
Q 33.0625 21.96875 24.703125 23.78125 
L 21.578125 24.515625 
Q 13.234375 26.265625 9.515625 29.90625 
Q 5.8125 33.546875 5.8125 39.890625 
Q 5.8125 47.609375 11.28125 51.796875 
Q 16.75 56 26.8125 56 
Q 31.78125 56 36.171875 55.265625 
Q 40.578125 54.546875 44.28125 53.078125 
z
" id="DejaVuSans-115"/>
      <path d="M 18.109375 8.203125 
L 18.109375 -20.796875 
L 9.078125 -20.796875 
L 9.078125 54.6875 
L 18.109375 54.6875 
L 18.109375 46.390625 
Q 20.953125 51.265625 25.265625 53.625 
Q 29.59375 56 35.59375 56 
Q 45.5625 56 51.78125 48.09375 
Q 58.015625 40.1875 58.015625 27.296875 
Q 58.015625 14.40625 51.78125 6.484375 
Q 45.5625 -1.421875 35.59375 -1.421875 
Q 29.59375 -1.421875 25.265625 0.953125 
Q 20.953125 3.328125 18.109375 8.203125 
z
M 48.6875 27.296875 
Q 48.6875 37.203125 44.609375 42.84375 
Q 40.53125 48.484375 33.40625 48.484375 
Q 26.265625 48.484375 22.1875 42.84375 
Q 18.109375 37.203125 18.109375 27.296875 
Q 18.109375 17.390625 22.1875 11.75 
Q 26.265625 6.109375 33.40625 6.109375 
Q 40.53125 6.109375 44.609375 11.75 
Q 48.6875 17.390625 48.6875 27.296875 
z
" id="DejaVuSans-112"/>
      <path d="M 32.171875 -5.078125 
Q 28.375 -14.84375 24.75 -17.8125 
Q 21.140625 -20.796875 15.09375 -20.796875 
L 7.90625 -20.796875 
L 7.90625 -13.28125 
L 13.1875 -13.28125 
Q 16.890625 -13.28125 18.9375 -11.515625 
Q 21 -9.765625 23.484375 -3.21875 
L 25.09375 0.875 
L 2.984375 54.6875 
L 12.5 54.6875 
L 29.59375 11.921875 
L 46.6875 54.6875 
L 56.203125 54.6875 
z
" id="DejaVuSans-121"/>
     </defs>
     <use xlink:href="#DejaVuSans-80"/>
     <use x="56.677734" xlink:href="#DejaVuSans-101"/>
     <use x="118.201172" xlink:href="#DejaVuSans-114"/>
     <use x="157.064453" xlink:href="#DejaVuSans-99"/>
     <use x="212.044922" xlink:href="#DejaVuSans-101"/>
     <use x="273.568359" xlink:href="#DejaVuSans-110"/>
     <use x="336.947266" xlink:href="#DejaVuSans-116"/>
     <use x="376.15625" xlink:href="#DejaVuSans-32"/>
     <use x="407.943359" xlink:href="#DejaVuSans-97"/>
     <use x="469.222656" xlink:href="#DejaVuSans-114"/>
     <use x="508.085938" xlink:href="#DejaVuSans-99"/>
     <use x="563.066406" xlink:href="#DejaVuSans-104"/>
     <use x="626.445312" xlink:href="#DejaVuSans-105"/>
     <use x="654.228516" xlink:href="#DejaVuSans-116"/>
     <use x="693.4375" xlink:href="#DejaVuSans-101"/>
     <use x="754.960938" xlink:href="#DejaVuSans-99"/>
     <use x="809.941406" xlink:href="#DejaVuSans-116"/>
     <use x="849.150391" xlink:href="#DejaVuSans-117"/>
     <use x="912.529297" xlink:href="#DejaVuSans-114"/>
     <use x="951.392578" xlink:href="#DejaVuSans-101"/>
     <use x="1012.916016" xlink:href="#DejaVuSans-115"/>
     <use x="1065.015625" xlink:href="#DejaVuSans-32"/>
     <use x="1096.802734" xlink:href="#DejaVuSans-112"/>
     <use x="1160.279297" xlink:href="#DejaVuSans-114"/>
     <use x="1199.142578" xlink:href="#DejaVuSans-101"/>
     <use x="1260.666016" xlink:href="#DejaVuSans-100"/>
     <use x="1324.142578" xlink:href="#DejaVuSans-105"/>
     <use x="1351.925781" xlink:href="#DejaVuSans-99"/>
     <use x="1406.90625" xlink:href="#DejaVuSans-116"/>
     <use x="1446.115234" xlink:href="#DejaVuSans-101"/>
     <use x="1507.638672" xlink:href="#DejaVuSans-100"/>
     <use x="1571.115234" xlink:href="#DejaVuSans-32"/>
     <use x="1602.902344" xlink:href="#DejaVuSans-98"/>
     <use x="1666.378906" xlink:href="#DejaVuSans-121"/>
     <use x="1725.558594" xlink:href="#DejaVuSans-32"/>
     <use x="1757.345703" xlink:href="#DejaVuSans-84"/>
     <use x="1809.304688" xlink:href="#DejaVuSans-45"/>
     <use x="1845.388672" xlink:href="#DejaVuSans-110"/>
     <use x="1908.767578" xlink:href="#DejaVuSans-117"/>
     <use x="1972.146484" xlink:href="#DejaVuSans-109"/>
     <use x="2069.558594" xlink:href="#DejaVuSans-98"/>
     <use x="2133.035156" xlink:href="#DejaVuSans-101"/>
     <use x="2194.558594" xlink:href="#DejaVuSans-114"/>
    </g>
   </g>
   <g id="legend_1">
    <g id="patch_142">
     <path d="M 239 240.54125 
L 377.971875 240.54125 
Q 381.971875 240.54125 381.971875 236.54125 
L 381.971875 91.76 
Q 381.971875 87.76 377.971875 87.76 
L 239 87.76 
Q 235 87.76 235 91.76 
L 235 236.54125 
Q 235 240.54125 239 240.54125 
z
" style="fill:#ffffff;opacity:0.8;stroke:#cccccc;stroke-linejoin:miter;"/>
    </g>
    <g id="patch_143">
     <path d="M 243 110.956875 
L 283 110.956875 
L 283 96.956875 
L 243 96.956875 
z
" style="fill:#481567;"/>
    </g>
    <g id="text_42">
     <!-- 1 pred -->
     <g transform="translate(299 110.956875)scale(0.2 -0.2)">
      <use xlink:href="#DejaVuSans-49"/>
      <use x="63.623047" xlink:href="#DejaVuSans-32"/>
      <use x="95.410156" xlink:href="#DejaVuSans-112"/>
      <use x="158.886719" xlink:href="#DejaVuSans-114"/>
      <use x="197.75" xlink:href="#DejaVuSans-101"/>
      <use x="259.273438" xlink:href="#DejaVuSans-100"/>
     </g>
    </g>
    <g id="patch_144">
     <path d="M 243 140.313125 
L 283 140.313125 
L 283 126.313125 
L 243 126.313125 
z
" style="fill:#2d708e;"/>
    </g>
    <g id="text_43">
     <!-- 2 preds -->
     <g transform="translate(299 140.313125)scale(0.2 -0.2)">
      <use xlink:href="#DejaVuSans-50"/>
      <use x="63.623047" xlink:href="#DejaVuSans-32"/>
      <use x="95.410156" xlink:href="#DejaVuSans-112"/>
      <use x="158.886719" xlink:href="#DejaVuSans-114"/>
      <use x="197.75" xlink:href="#DejaVuSans-101"/>
      <use x="259.273438" xlink:href="#DejaVuSans-100"/>
      <use x="322.75" xlink:href="#DejaVuSans-115"/>
     </g>
    </g>
    <g id="patch_145">
     <path d="M 243 169.669375 
L 283 169.669375 
L 283 155.669375 
L 243 155.669375 
z
" style="fill:#3cbb75;"/>
    </g>
    <g id="text_44">
     <!-- 3 preds -->
     <g transform="translate(299 169.669375)scale(0.2 -0.2)">
      <use xlink:href="#DejaVuSans-51"/>
      <use x="63.623047" xlink:href="#DejaVuSans-32"/>
      <use x="95.410156" xlink:href="#DejaVuSans-112"/>
      <use x="158.886719" xlink:href="#DejaVuSans-114"/>
      <use x="197.75" xlink:href="#DejaVuSans-101"/>
      <use x="259.273438" xlink:href="#DejaVuSans-100"/>
      <use x="322.75" xlink:href="#DejaVuSans-115"/>
     </g>
    </g>
    <g id="patch_146">
     <path d="M 243 199.025625 
L 283 199.025625 
L 283 185.025625 
L 243 185.025625 
z
" style="fill:#fde725;"/>
    </g>
    <g id="text_45">
     <!-- 4 preds -->
     <g transform="translate(299 199.025625)scale(0.2 -0.2)">
      <use xlink:href="#DejaVuSans-52"/>
      <use x="63.623047" xlink:href="#DejaVuSans-32"/>
      <use x="95.410156" xlink:href="#DejaVuSans-112"/>
      <use x="158.886719" xlink:href="#DejaVuSans-114"/>
      <use x="197.75" xlink:href="#DejaVuSans-101"/>
      <use x="259.273438" xlink:href="#DejaVuSans-100"/>
      <use x="322.75" xlink:href="#DejaVuSans-115"/>
     </g>
    </g>
    <g id="patch_147">
     <path d="M 243 228.381875 
L 283 228.381875 
L 283 214.381875 
L 243 214.381875 
z
" style="fill:#e35992;"/>
    </g>
    <g id="text_46">
     <!-- 5 preds -->
     <g transform="translate(299 228.381875)scale(0.2 -0.2)">
      <use xlink:href="#DejaVuSans-53"/>
      <use x="63.623047" xlink:href="#DejaVuSans-32"/>
      <use x="95.410156" xlink:href="#DejaVuSans-112"/>
      <use x="158.886719" xlink:href="#DejaVuSans-114"/>
      <use x="197.75" xlink:href="#DejaVuSans-101"/>
      <use x="259.273438" xlink:href="#DejaVuSans-100"/>
      <use x="322.75" xlink:href="#DejaVuSans-115"/>
     </g>
    </g>
   </g>
  </g>
 </g>
 <defs>
  <clipPath id="p3b4fd1205d">
   <rect height="489.24" width="1395" x="225" y="77.76"/>
  </clipPath>
 </defs>
</svg>
