<?xml version="1.0" encoding="utf-8" standalone="no"?>
<!DOCTYPE svg PUBLIC "-//W3C//DTD SVG 1.1//EN"
  "http://www.w3.org/Graphics/SVG/1.1/DTD/svg11.dtd">
<!-- Created with matplotlib (https://matplotlib.org/) -->
<svg height="432pt" version="1.1" viewBox="0 0 720 432" width="720pt" xmlns="http://www.w3.org/2000/svg" xmlns:xlink="http://www.w3.org/1999/xlink">
 <metadata>
  <rdf:RDF xmlns:cc="http://creativecommons.org/ns#" xmlns:dc="http://purl.org/dc/elements/1.1/" xmlns:rdf="http://www.w3.org/1999/02/22-rdf-syntax-ns#">
   <cc:Work>
    <dc:type rdf:resource="http://purl.org/dc/dcmitype/StillImage"/>
    <dc:date>2021-11-23T20:35:38.814191</dc:date>
    <dc:format>image/svg+xml</dc:format>
    <dc:creator>
     <cc:Agent>
      <dc:title>Matplotlib v3.3.2, https://matplotlib.org/</dc:title>
     </cc:Agent>
    </dc:creator>
   </cc:Work>
  </rdf:RDF>
 </metadata>
 <defs>
  <style type="text/css">*{stroke-linecap:butt;stroke-linejoin:round;}</style>
 </defs>
 <g id="figure_1">
  <g id="patch_1">
   <path d="M 0 432 
L 720 432 
L 720 0 
L 0 0 
z
" style="fill:none;"/>
  </g>
  <g id="axes_1">
   <g id="patch_2">
    <path d="M 90 378 
L 648 378 
L 648 51.84 
L 90 51.84 
z
" style="fill:#ffffff;"/>
   </g>
   <g id="PolyCollection_1">
    <path clip-path="url(#pcbf4d644ab)" d="M 90 309.795068 
L 90 327.059727 
L 112.514229 333.320548 
L 135.028458 332.875945 
L 157.542687 330.184577 
L 180.056916 327.38255 
L 202.571145 325.066396 
L 225.085375 323.995336 
L 247.599604 323.255075 
L 270.113833 323.082935 
L 292.628062 322.729281 
L 315.142291 322.50647 
L 337.65652 322.800843 
L 360.170749 323.408109 
L 382.684978 324.135361 
L 405.199207 323.876758 
L 427.713436 324.081105 
L 450.227666 324.62644 
L 472.741895 324.037263 
L 495.256124 322.643259 
L 517.770353 321.443053 
L 540.284582 320.560092 
L 562.798811 320.112971 
L 585.31304 319.815417 
L 607.827269 319.613731 
L 630.341498 319.323066 
L 652.855727 319.12803 
L 675.369956 318.983834 
L 697.884186 318.843771 
L 720.398415 318.781899 
L 742.912644 318.758666 
L 765.426873 318.80736 
L 787.941102 318.81364 
L 810.455331 318.793349 
L 832.96956 318.737676 
L 855.483789 318.625893 
L 877.998018 318.532689 
L 900.512247 318.491078 
L 923.026477 318.463269 
L 945.540706 318.454526 
L 968.054935 318.465855 
L 990.569164 318.477248 
L 1013.083393 318.471336 
L 1035.597622 318.46549 
L 1058.111851 318.473951 
L 1080.62608 318.470365 
L 1103.140309 318.453889 
L 1125.654538 318.441711 
L 1148.168768 318.441897 
L 1170.682997 318.444032 
L 1193.197226 318.443514 
L 1215.711455 318.449699 
L 1238.225684 318.460702 
L 1260.739913 318.45654 
L 1283.254142 318.444668 
L 1305.768371 318.441378 
L 1328.2826 318.445801 
L 1350.796829 318.447629 
L 1373.311058 318.443683 
L 1395.825288 318.435655 
L 1418.339517 318.433977 
L 1440.853746 318.434005 
L 1463.367975 318.43324 
L 1485.882204 318.430399 
L 1508.396433 318.429553 
L 1530.910662 318.429924 
L 1553.424891 318.430073 
L 1575.93912 318.428671 
L 1598.453349 318.42862 
L 1620.967579 318.429665 
L 1643.481808 318.430076 
L 1665.996037 318.428597 
L 1688.510266 318.427936 
L 1711.024495 318.428495 
L 1733.538724 318.428559 
L 1756.052953 318.428388 
L 1778.567182 318.427589 
L 1801.081411 318.427403 
L 1823.59564 318.427397 
L 1846.109869 318.427397 
L 1868.624099 318.427397 
L 1891.138328 318.427397 
L 1913.652557 318.427397 
L 1936.166786 318.427397 
L 1958.681015 318.427401 
L 1981.195244 318.427563 
L 2003.709473 318.428241 
L 2026.223702 318.427911 
L 2048.737931 318.427435 
L 2071.25216 318.427398 
L 2093.76639 318.427414 
L 2116.280619 318.427787 
L 2138.794848 318.428862 
L 2161.309077 318.429703 
L 2183.823306 318.429723 
L 2206.337535 318.428629 
L 2228.851764 318.428215 
L 2251.365993 318.427986 
L 2273.880222 318.427639 
L 2296.394451 318.427569 
L 2318.908681 318.427852 
L 2318.908681 318.426942 
L 2318.908681 318.426942 
L 2296.394451 318.427225 
L 2273.880222 318.427155 
L 2251.365993 318.426808 
L 2228.851764 318.426579 
L 2206.337535 318.426166 
L 2183.823306 318.425072 
L 2161.309077 318.425092 
L 2138.794848 318.425932 
L 2116.280619 318.427007 
L 2093.76639 318.42738 
L 2071.25216 318.427397 
L 2048.737931 318.42736 
L 2026.223702 318.426884 
L 2003.709473 318.426554 
L 1981.195244 318.427231 
L 1958.681015 318.427393 
L 1936.166786 318.427397 
L 1913.652557 318.427397 
L 1891.138328 318.427397 
L 1868.624099 318.427397 
L 1846.109869 318.427397 
L 1823.59564 318.427397 
L 1801.081411 318.427392 
L 1778.567182 318.427205 
L 1756.052953 318.426406 
L 1733.538724 318.426235 
L 1711.024495 318.426299 
L 1688.510266 318.426859 
L 1665.996037 318.426198 
L 1643.481808 318.424719 
L 1620.967579 318.42513 
L 1598.453349 318.426175 
L 1575.93912 318.426124 
L 1553.424891 318.424722 
L 1530.910662 318.42487 
L 1508.396433 318.425241 
L 1485.882204 318.424395 
L 1463.367975 318.421555 
L 1440.853746 318.420789 
L 1418.339517 318.420817 
L 1395.825288 318.41914 
L 1373.311058 318.411112 
L 1350.796829 318.407166 
L 1328.2826 318.408993 
L 1305.768371 318.413416 
L 1283.254142 318.410126 
L 1260.739913 318.398254 
L 1238.225684 318.394093 
L 1215.711455 318.405095 
L 1193.197226 318.411281 
L 1170.682997 318.410762 
L 1148.168768 318.412897 
L 1125.654538 318.413084 
L 1103.140309 318.400905 
L 1080.62608 318.38443 
L 1058.111851 318.380844 
L 1035.597622 318.389304 
L 1013.083393 318.383459 
L 990.569164 318.377547 
L 968.054935 318.388939 
L 945.540706 318.400269 
L 923.026477 318.391526 
L 900.512247 318.363716 
L 877.998018 318.322106 
L 855.483789 318.228901 
L 832.96956 318.117118 
L 810.455331 318.061446 
L 787.941102 318.041154 
L 765.426873 318.047435 
L 742.912644 318.096128 
L 720.398415 318.072895 
L 697.884186 318.011024 
L 675.369956 317.870961 
L 652.855727 317.726765 
L 630.341498 317.531729 
L 607.827269 317.241063 
L 585.31304 317.039378 
L 562.798811 316.741824 
L 540.284582 316.294702 
L 517.770353 315.411742 
L 495.256124 314.211535 
L 472.741895 312.817532 
L 450.227666 312.228354 
L 427.713436 312.77369 
L 405.199207 312.978036 
L 382.684978 312.719434 
L 360.170749 313.446686 
L 337.65652 314.053951 
L 315.142291 314.348324 
L 292.628062 314.125514 
L 270.113833 313.77186 
L 247.599604 313.59972 
L 225.085375 312.859459 
L 202.571145 311.788399 
L 180.056916 309.472244 
L 157.542687 306.670217 
L 135.028458 303.978849 
L 112.514229 303.534247 
L 90 309.795068 
z
" style="fill:#1f77b4;fill-opacity:0.3;"/>
   </g>
   <g id="PolyCollection_2">
    <path clip-path="url(#pcbf4d644ab)" d="M 90 249.882853 
L 90 267.826736 
L 96.348103 272.161537 
L 102.696207 273.747945 
L 109.04431 272.585748 
L 115.392413 270.250355 
L 121.740517 268.060696 
L 128.08862 266.480759 
L 134.436723 265.395703 
L 140.784827 264.465929 
L 147.13293 263.477038 
L 153.481033 262.555 
L 159.829137 261.923687 
L 166.17724 261.576783 
L 172.525343 261.342128 
L 178.873447 261.107463 
L 185.22155 260.853202 
L 191.569653 260.578837 
L 197.917757 260.309631 
L 204.26586 260.161517 
L 210.613963 260.259128 
L 216.962067 260.50074 
L 223.31017 260.581091 
L 229.658273 260.356915 
L 236.006377 260.009922 
L 242.35448 259.77577 
L 248.702583 259.702022 
L 255.050687 259.695558 
L 261.39879 259.644984 
L 267.746893 259.504824 
L 274.094997 259.338537 
L 280.4431 259.212292 
L 286.791203 259.119046 
L 293.139307 259.047029 
L 299.48741 258.999442 
L 305.835513 258.978713 
L 312.183617 258.988163 
L 318.53172 259.015323 
L 324.879823 259.030248 
L 331.227927 259.014424 
L 337.57603 258.987805 
L 343.924133 258.980882 
L 350.272237 258.986508 
L 356.62034 258.976116 
L 362.968443 258.945279 
L 369.316547 258.913168 
L 375.66465 258.893428 
L 382.012753 258.883135 
L 388.360857 258.875156 
L 394.70896 258.871463 
L 401.057063 258.875743 
L 407.405167 258.881405 
L 413.75327 258.87992 
L 420.101373 258.873423 
L 426.449477 258.870466 
L 432.79758 258.873313 
L 439.145683 258.874544 
L 445.493787 258.869036 
L 451.84189 258.861289 
L 458.189994 258.856636 
L 464.538097 258.855123 
L 470.8862 258.854924 
L 477.234304 258.855508 
L 483.582407 258.857968 
L 489.93051 258.863339 
L 496.278614 258.868799 
L 502.626717 258.869051 
L 508.97482 258.864733 
L 515.322924 258.861854 
L 521.671027 258.862365 
L 528.01913 258.86328 
L 534.367234 258.862243 
L 540.715337 258.859438 
L 547.06344 258.856692 
L 553.411544 258.855273 
L 559.759647 258.854867 
L 566.10775 258.854802 
L 572.455854 258.854808 
L 578.803957 258.854944 
L 585.15206 258.855823 
L 591.500164 258.85907 
L 597.848267 258.865708 
L 604.19637 258.872287 
L 610.544474 258.872778 
L 616.892577 258.866794 
L 623.24068 258.859969 
L 629.588784 258.856212 
L 635.936887 258.855036 
L 642.28499 258.85482 
L 648.633094 258.854796 
L 654.981197 258.854795 
L 661.3293 258.854795 
L 667.677404 258.854795 
L 674.025507 258.854795 
L 680.37361 258.854795 
L 686.721714 258.854801 
L 693.069817 258.854865 
L 699.41792 258.855257 
L 705.766024 258.856562 
L 712.114127 258.858744 
L 718.46223 258.859959 
L 718.46223 258.84963 
L 718.46223 258.84963 
L 712.114127 258.850845 
L 705.766024 258.853027 
L 699.41792 258.854332 
L 693.069817 258.854724 
L 686.721714 258.854788 
L 680.37361 258.854794 
L 674.025507 258.854795 
L 667.677404 258.854795 
L 661.3293 258.854795 
L 654.981197 258.854794 
L 648.633094 258.854793 
L 642.28499 258.854769 
L 635.936887 258.854553 
L 629.588784 258.853377 
L 623.24068 258.84962 
L 616.892577 258.842795 
L 610.544474 258.836811 
L 604.19637 258.837302 
L 597.848267 258.843881 
L 591.500164 258.850519 
L 585.15206 258.853766 
L 578.803957 258.854645 
L 572.455854 258.854781 
L 566.10775 258.854787 
L 559.759647 258.854722 
L 553.411544 258.854316 
L 547.06344 258.852897 
L 540.715337 258.850151 
L 534.367234 258.847346 
L 528.01913 258.846309 
L 521.671027 258.847224 
L 515.322924 258.847735 
L 508.97482 258.844856 
L 502.626717 258.840538 
L 496.278614 258.84079 
L 489.93051 258.84625 
L 483.582407 258.851621 
L 477.234304 258.854081 
L 470.8862 258.854665 
L 464.538097 258.854466 
L 458.189994 258.852953 
L 451.84189 258.8483 
L 445.493787 258.840553 
L 439.145683 258.835045 
L 432.79758 258.836276 
L 426.449477 258.839123 
L 420.101373 258.836166 
L 413.75327 258.829669 
L 407.405167 258.828184 
L 401.057063 258.833846 
L 394.70896 258.838127 
L 388.360857 258.834433 
L 382.012753 258.826454 
L 375.66465 258.816161 
L 369.316547 258.796421 
L 362.968443 258.76431 
L 356.62034 258.733473 
L 350.272237 258.723081 
L 343.924133 258.728707 
L 337.57603 258.721784 
L 331.227927 258.695165 
L 324.879823 258.679341 
L 318.53172 258.694267 
L 312.183617 258.721426 
L 305.835513 258.730876 
L 299.48741 258.710147 
L 293.139307 258.66256 
L 286.791203 258.590543 
L 280.4431 258.497297 
L 274.094997 258.371052 
L 267.746893 258.204765 
L 261.39879 258.064605 
L 255.050687 258.014031 
L 248.702583 258.007567 
L 242.35448 257.933819 
L 236.006377 257.699668 
L 229.658273 257.352674 
L 223.31017 257.128498 
L 216.962067 257.208849 
L 210.613963 257.450461 
L 204.26586 257.548072 
L 197.917757 257.399958 
L 191.569653 257.130752 
L 185.22155 256.856387 
L 178.873447 256.602126 
L 172.525343 256.367462 
L 166.17724 256.132806 
L 159.829137 255.785902 
L 153.481033 255.154589 
L 147.13293 254.232551 
L 140.784827 253.24366 
L 134.436723 252.313886 
L 128.08862 251.22883 
L 121.740517 249.648893 
L 115.392413 247.459234 
L 109.04431 245.123841 
L 102.696207 243.961644 
L 96.348103 245.548052 
L 90 249.882853 
z
" style="fill:#1f77b4;fill-opacity:0.3;"/>
   </g>
   <g id="PolyCollection_3">
    <path clip-path="url(#pcbf4d644ab)" d="M 90 189.849929 
L 90 208.714455 
L 91.825635 210.435054 
L 93.65127 211.915513 
L 95.476906 213.051825 
L 97.302541 213.794375 
L 99.128176 214.150781 
L 100.953811 214.175342 
L 102.779446 213.950305 
L 104.605081 213.565279 
L 106.430717 213.099856 
L 108.256352 212.612236 
L 110.081987 212.134691 
L 111.907622 211.675291 
L 113.733257 211.224406 
L 115.558892 210.763742 
L 117.384528 210.275281 
L 119.210163 209.7478 
L 121.035798 209.179698 
L 122.861433 208.5783 
L 124.687068 207.956992 
L 126.512704 207.331827 
L 128.338339 206.718853 
L 130.163974 206.132616 
L 131.989609 205.58569 
L 133.815244 205.088912 
L 135.640879 204.652035 
L 137.466515 204.284556 
L 139.29215 203.996397 
L 141.117785 203.797938 
L 142.94342 203.698907 
L 144.769055 203.706009 
L 146.59469 203.819794 
L 148.420326 204.031887 
L 150.245961 204.323803 
L 152.071596 204.668005 
L 153.897231 205.030889 
L 155.722866 205.376629 
L 157.548502 205.670766 
L 159.374137 205.883076 
L 161.199772 205.990006 
L 163.025407 205.977191 
L 164.851042 205.841921 
L 166.676677 205.594508 
L 168.502313 205.257082 
L 170.327948 204.859051 
L 172.153583 204.430111 
L 173.979218 203.99327 
L 175.804853 203.560758 
L 177.630488 203.134504 
L 179.456124 202.710669 
L 181.281759 202.285816 
L 183.107394 201.86172 
L 184.933029 201.446828 
L 186.758664 201.054286 
L 188.5843 200.698006 
L 190.409935 200.388828 
L 192.23557 200.132237 
L 194.061205 199.928038 
L 195.88684 199.771467 
L 197.712475 199.654932 
L 199.538111 199.569721 
L 201.363746 199.507362 
L 203.189381 199.460582 
L 205.015016 199.423872 
L 206.840651 199.393643 
L 208.666286 199.368042 
L 210.491922 199.346505 
L 212.317557 199.329234 
L 214.143192 199.31679 
L 215.968827 199.309867 
L 217.794462 199.309261 
L 219.620098 199.315886 
L 221.445733 199.330713 
L 223.271368 199.354514 
L 225.097003 199.387446 
L 226.922638 199.428614 
L 228.748273 199.475809 
L 230.573909 199.525597 
L 232.399544 199.573793 
L 234.225179 199.616163 
L 236.050814 199.649098 
L 237.876449 199.670054 
L 239.702084 199.677659 
L 241.52772 199.671623 
L 243.353355 199.652614 
L 245.17899 199.62224 
L 247.004625 199.583084 
L 248.83026 199.538633 
L 250.655896 199.492932 
L 252.481531 199.449966 
L 254.307166 199.412926 
L 256.132801 199.383662 
L 257.958436 199.362504 
L 259.784071 199.34851 
L 261.609707 199.339978 
L 263.435342 199.334995 
L 265.260977 199.331842 
L 267.086612 199.329196 
L 268.912247 199.326173 
L 270.737882 199.3223 
L 270.737882 199.242084 
L 270.737882 199.242084 
L 268.912247 199.23821 
L 267.086612 199.235187 
L 265.260977 199.232541 
L 263.435342 199.229388 
L 261.609707 199.224405 
L 259.784071 199.215873 
L 257.958436 199.201879 
L 256.132801 199.180721 
L 254.307166 199.151457 
L 252.481531 199.114418 
L 250.655896 199.071451 
L 248.83026 199.025751 
L 247.004625 198.9813 
L 245.17899 198.942144 
L 243.353355 198.91177 
L 241.52772 198.892761 
L 239.702084 198.886724 
L 237.876449 198.89433 
L 236.050814 198.915285 
L 234.225179 198.948221 
L 232.399544 198.99059 
L 230.573909 199.038787 
L 228.748273 199.088575 
L 226.922638 199.135769 
L 225.097003 199.176938 
L 223.271368 199.20987 
L 221.445733 199.23367 
L 219.620098 199.248497 
L 217.794462 199.255123 
L 215.968827 199.254517 
L 214.143192 199.247594 
L 212.317557 199.235149 
L 210.491922 199.217879 
L 208.666286 199.196341 
L 206.840651 199.170741 
L 205.015016 199.140512 
L 203.189381 199.103801 
L 201.363746 199.057022 
L 199.538111 198.994662 
L 197.712475 198.909451 
L 195.88684 198.792917 
L 194.061205 198.636345 
L 192.23557 198.432146 
L 190.409935 198.175556 
L 188.5843 197.866378 
L 186.758664 197.510098 
L 184.933029 197.117556 
L 183.107394 196.702664 
L 181.281759 196.278567 
L 179.456124 195.853715 
L 177.630488 195.429879 
L 175.804853 195.003625 
L 173.979218 194.571114 
L 172.153583 194.134272 
L 170.327948 193.705332 
L 168.502313 193.307301 
L 166.676677 192.969876 
L 164.851042 192.722463 
L 163.025407 192.587192 
L 161.199772 192.574378 
L 159.374137 192.681308 
L 157.548502 192.893617 
L 155.722866 193.187754 
L 153.897231 193.533494 
L 152.071596 193.896378 
L 150.245961 194.240581 
L 148.420326 194.532497 
L 146.59469 194.74459 
L 144.769055 194.858375 
L 142.94342 194.865477 
L 141.117785 194.766446 
L 139.29215 194.567986 
L 137.466515 194.279828 
L 135.640879 193.912349 
L 133.815244 193.475471 
L 131.989609 192.978694 
L 130.163974 192.431767 
L 128.338339 191.845531 
L 126.512704 191.232557 
L 124.687068 190.607391 
L 122.861433 189.986083 
L 121.035798 189.384686 
L 119.210163 188.816583 
L 117.384528 188.289103 
L 115.558892 187.800642 
L 113.733257 187.339978 
L 111.907622 186.889093 
L 110.081987 186.429692 
L 108.256352 185.952147 
L 106.430717 185.464528 
L 104.605081 184.999104 
L 102.779446 184.614078 
L 100.953811 184.389041 
L 99.128176 184.413602 
L 97.302541 184.770008 
L 95.476906 185.512558 
L 93.65127 186.648871 
L 91.825635 188.12933 
L 90 189.849929 
z
" style="fill:#1f77b4;fill-opacity:0.3;"/>
   </g>
   <g id="PolyCollection_4">
    <path clip-path="url(#pcbf4d644ab)" d="M 90.023773 130.54807 
L 90.023773 148.871108 
L 91.064626 150.262295 
L 92.105479 151.548696 
L 93.146332 152.664421 
L 94.187184 153.555521 
L 95.228037 154.184714 
L 96.26889 154.533656 
L 97.309743 154.60274 
L 98.350595 154.408855 
L 99.391448 153.981781 
L 100.432301 153.35998 
L 101.473153 152.586427 
L 102.514006 151.704977 
L 103.554859 150.757512 
L 104.595712 149.781961 
L 105.636564 148.811119 
L 106.677417 147.872099 
L 107.71827 146.986215 
L 108.759123 146.169105 
L 109.799975 145.430977 
L 110.840828 144.776952 
L 111.881681 144.207517 
L 112.922533 143.719171 
L 113.963386 143.305262 
L 115.004239 142.957017 
L 116.045092 142.664625 
L 117.085944 142.418256 
L 118.126797 142.208878 
L 119.16765 142.028787 
L 120.208503 141.871845 
L 121.249355 141.733477 
L 122.290208 141.610481 
L 123.331061 141.500737 
L 124.371913 141.402854 
L 125.412766 141.315775 
L 126.453619 141.238399 
L 127.494472 141.169261 
L 128.535324 141.106346 
L 129.576177 141.047104 
L 130.61703 140.98869 
L 131.657883 140.928386 
L 132.698735 140.864094 
L 133.739588 140.794756 
L 134.780441 140.720559 
L 135.821293 140.642862 
L 136.862146 140.563853 
L 137.902999 140.486045 
L 138.943852 140.411762 
L 139.984704 140.342755 
L 141.025557 140.280036 
L 142.06641 140.223937 
L 143.107263 140.174326 
L 144.148115 140.130873 
L 145.188968 140.093273 
L 146.229821 140.061353 
L 147.270673 140.035066 
L 148.311526 140.014391 
L 149.352379 139.999229 
L 150.393232 139.989317 
L 151.434084 139.984233 
L 152.474937 139.983476 
L 153.51579 139.98659 
L 154.556643 139.993298 
L 155.597495 140.003597 
L 156.638348 140.01777 
L 157.679201 140.036327 
L 158.720053 140.059893 
L 159.760906 140.089061 
L 160.801759 140.124291 
L 161.842612 140.165838 
L 162.883464 140.21376 
L 163.924317 140.267966 
L 164.96517 140.328284 
L 166.006023 140.394522 
L 167.046875 140.466464 
L 168.087728 140.543797 
L 169.128581 140.625958 
L 170.169433 140.711902 
L 171.210286 140.799846 
L 172.251139 140.88705 
L 173.291992 140.969709 
L 174.332844 141.043049 
L 175.373697 141.101668 
L 176.41455 141.140139 
L 177.455402 141.153776 
L 178.496255 141.139448 
L 179.537108 141.096243 
L 180.577961 141.025801 
L 181.618813 140.932228 
L 182.659666 140.821561 
L 183.700519 140.700907 
L 184.741372 140.57743 
L 185.782224 140.457421 
L 186.823077 140.345635 
L 187.86393 140.244995 
L 188.904782 140.156675 
L 189.945635 140.08046 
L 190.986488 140.015256 
L 192.027341 139.959598 
L 193.068193 139.912041 
L 193.068193 139.507137 
L 193.068193 139.507137 
L 192.027341 139.45958 
L 190.986488 139.403922 
L 189.945635 139.338718 
L 188.904782 139.262503 
L 187.86393 139.174183 
L 186.823077 139.073544 
L 185.782224 138.961757 
L 184.741372 138.841748 
L 183.700519 138.718271 
L 182.659666 138.597617 
L 181.618813 138.48695 
L 180.577961 138.393377 
L 179.537108 138.322935 
L 178.496255 138.27973 
L 177.455402 138.265403 
L 176.41455 138.279039 
L 175.373697 138.31751 
L 174.332844 138.376129 
L 173.291992 138.449469 
L 172.251139 138.532128 
L 171.210286 138.619332 
L 170.169433 138.707276 
L 169.128581 138.79322 
L 168.087728 138.875381 
L 167.046875 138.952714 
L 166.006023 139.024656 
L 164.96517 139.090894 
L 163.924317 139.151212 
L 162.883464 139.205418 
L 161.842612 139.25334 
L 160.801759 139.294887 
L 159.760906 139.330117 
L 158.720053 139.359286 
L 157.679201 139.382851 
L 156.638348 139.401408 
L 155.597495 139.415581 
L 154.556643 139.42588 
L 153.51579 139.432588 
L 152.474937 139.435702 
L 151.434084 139.434945 
L 150.393232 139.429861 
L 149.352379 139.419949 
L 148.311526 139.404787 
L 147.270673 139.384113 
L 146.229821 139.357825 
L 145.188968 139.325905 
L 144.148115 139.288305 
L 143.107263 139.244852 
L 142.06641 139.195241 
L 141.025557 139.139142 
L 139.984704 139.076423 
L 138.943852 139.007416 
L 137.902999 138.933133 
L 136.862146 138.855325 
L 135.821293 138.776316 
L 134.780441 138.698619 
L 133.739588 138.624422 
L 132.698735 138.555084 
L 131.657883 138.490792 
L 130.61703 138.430488 
L 129.576177 138.372074 
L 128.535324 138.312832 
L 127.494472 138.249917 
L 126.453619 138.180779 
L 125.412766 138.103403 
L 124.371913 138.016324 
L 123.331061 137.918441 
L 122.290208 137.808697 
L 121.249355 137.685701 
L 120.208503 137.547333 
L 119.16765 137.390392 
L 118.126797 137.2103 
L 117.085944 137.000922 
L 116.045092 136.754553 
L 115.004239 136.462161 
L 113.963386 136.113916 
L 112.922533 135.700007 
L 111.881681 135.211661 
L 110.840828 134.642226 
L 109.799975 133.988201 
L 108.759123 133.250073 
L 107.71827 132.432963 
L 106.677417 131.547079 
L 105.636564 130.608059 
L 104.595712 129.637217 
L 103.554859 128.661666 
L 102.514006 127.714201 
L 101.473153 126.832751 
L 100.432301 126.059199 
L 99.391448 125.437397 
L 98.350595 125.010323 
L 97.309743 124.816438 
L 96.26889 124.885522 
L 95.228037 125.234464 
L 94.187184 125.863657 
L 93.146332 126.754757 
L 92.105479 127.870482 
L 91.064626 129.156883 
L 90.023773 130.54807 
z
" style="fill:#1f77b4;fill-opacity:0.3;"/>
   </g>
   <g id="PolyCollection_5">
    <path clip-path="url(#pcbf4d644ab)" d="M 90 68.687214 
L 90 91.586758 
L 92.242561 95.030137 
L 94.485121 94.693134 
L 96.727682 91.674755 
L 98.970243 88.216611 
L 101.212803 85.524545 
L 103.455364 83.73056 
L 105.697924 82.645909 
L 107.940485 82.037595 
L 110.183046 81.638099 
L 112.425606 81.271761 
L 114.668167 80.919021 
L 116.910728 80.630528 
L 119.153288 80.439737 
L 121.395849 80.337179 
L 123.63841 80.289616 
L 125.88097 80.263391 
L 128.123531 80.236143 
L 130.366091 80.209354 
L 132.608652 80.196011 
L 134.851213 80.195953 
L 137.093773 80.199842 
L 139.336334 80.199362 
L 141.578895 80.188686 
L 143.821455 80.172685 
L 146.064016 80.16119 
L 148.306577 80.153818 
L 150.549137 80.146545 
L 152.791698 80.141016 
L 155.034258 80.139855 
L 157.276819 80.143399 
L 159.51938 80.149355 
L 161.76194 80.152103 
L 164.004501 80.148479 
L 166.247062 80.142417 
L 168.489622 80.138581 
L 170.732183 80.137277 
L 172.974744 80.137019 
L 175.217304 80.136989 
L 177.459865 80.136986 
L 179.702425 80.136986 
L 181.944986 80.136986 
L 184.187547 80.136986 
L 186.430107 80.136986 
L 188.672668 80.136986 
L 190.915229 80.136986 
L 193.157789 80.136986 
L 195.40035 80.136986 
L 197.642911 80.136986 
L 199.885471 80.136986 
L 202.128032 80.136986 
L 204.370592 80.136986 
L 206.613153 80.136986 
L 208.855714 80.136986 
L 211.098274 80.136986 
L 213.340835 80.136986 
L 215.583396 80.136986 
L 217.825956 80.136986 
L 220.068517 80.136986 
L 222.311078 80.136986 
L 224.553638 80.136986 
L 226.796199 80.136986 
L 229.038759 80.136986 
L 231.28132 80.13699 
L 233.523881 80.137033 
L 235.766441 80.137372 
L 238.009002 80.138957 
L 240.251563 80.143239 
L 242.494123 80.149319 
L 244.736684 80.152105 
L 246.979245 80.148505 
L 249.221805 80.142441 
L 251.464366 80.138592 
L 253.706926 80.13728 
L 255.949487 80.13702 
L 258.192048 80.136989 
L 260.434608 80.136986 
L 262.677169 80.136986 
L 264.91973 80.136986 
L 267.16229 80.136986 
L 269.404851 80.136986 
L 271.647412 80.136986 
L 273.889972 80.136986 
L 276.132533 80.136986 
L 278.375093 80.136986 
L 280.617654 80.136986 
L 282.860215 80.136986 
L 285.102775 80.136986 
L 287.345336 80.136986 
L 289.587897 80.136986 
L 291.830457 80.136987 
L 294.073018 80.136995 
L 296.315579 80.137085 
L 298.558139 80.137707 
L 300.8007 80.140391 
L 303.04326 80.147909 
L 305.285821 80.162503 
L 307.528382 80.18291 
L 309.770942 80.199968 
L 312.013503 80.198714 
L 312.013503 80.075259 
L 312.013503 80.075259 
L 309.770942 80.074005 
L 307.528382 80.091062 
L 305.285821 80.11147 
L 303.04326 80.126063 
L 300.8007 80.133582 
L 298.558139 80.136266 
L 296.315579 80.136888 
L 294.073018 80.136978 
L 291.830457 80.136986 
L 289.587897 80.136986 
L 287.345336 80.136986 
L 285.102775 80.136986 
L 282.860215 80.136986 
L 280.617654 80.136986 
L 278.375093 80.136986 
L 276.132533 80.136986 
L 273.889972 80.136986 
L 271.647412 80.136986 
L 269.404851 80.136986 
L 267.16229 80.136986 
L 264.91973 80.136986 
L 262.677169 80.136986 
L 260.434608 80.136986 
L 258.192048 80.136984 
L 255.949487 80.136953 
L 253.706926 80.136693 
L 251.464366 80.135381 
L 249.221805 80.131532 
L 246.979245 80.125468 
L 244.736684 80.121868 
L 242.494123 80.124654 
L 240.251563 80.130734 
L 238.009002 80.135016 
L 235.766441 80.1366 
L 233.523881 80.136939 
L 231.28132 80.136983 
L 229.038759 80.136986 
L 226.796199 80.136986 
L 224.553638 80.136986 
L 222.311078 80.136986 
L 220.068517 80.136986 
L 217.825956 80.136986 
L 215.583396 80.136986 
L 213.340835 80.136986 
L 211.098274 80.136986 
L 208.855714 80.136986 
L 206.613153 80.136986 
L 204.370592 80.136986 
L 202.128032 80.136986 
L 199.885471 80.136986 
L 197.642911 80.136986 
L 195.40035 80.136986 
L 193.157789 80.136986 
L 190.915229 80.136986 
L 188.672668 80.136986 
L 186.430107 80.136986 
L 184.187547 80.136986 
L 181.944986 80.136986 
L 179.702425 80.136986 
L 177.459865 80.136986 
L 175.217304 80.136984 
L 172.974744 80.136953 
L 170.732183 80.136695 
L 168.489622 80.135391 
L 166.247062 80.131555 
L 164.004501 80.125493 
L 161.76194 80.12187 
L 159.51938 80.124617 
L 157.276819 80.130574 
L 155.034258 80.134118 
L 152.791698 80.132956 
L 150.549137 80.127428 
L 148.306577 80.120155 
L 146.064016 80.112783 
L 143.821455 80.101287 
L 141.578895 80.085286 
L 139.336334 80.07461 
L 137.093773 80.07413 
L 134.851213 80.07802 
L 132.608652 80.077961 
L 130.366091 80.064618 
L 128.123531 80.03783 
L 125.88097 80.010581 
L 123.63841 79.984357 
L 121.395849 79.936793 
L 119.153288 79.834235 
L 116.910728 79.643444 
L 114.668167 79.354952 
L 112.425606 79.002212 
L 110.183046 78.635873 
L 107.940485 78.236378 
L 105.697924 77.628064 
L 103.455364 76.543413 
L 101.212803 74.749428 
L 98.970243 72.057362 
L 96.727682 68.599218 
L 94.485121 65.580838 
L 92.242561 65.243836 
L 90 68.687214 
z
" style="fill:#1f77b4;fill-opacity:0.3;"/>
   </g>
   <g id="matplotlib.axis_1">
    <g id="xtick_1">
     <g id="line2d_1">
      <defs>
       <path d="M 0 0 
L 0 6 
" id="m5d0388806b" style="stroke:#000000;stroke-width:2;"/>
      </defs>
      <g>
       <use style="stroke:#000000;stroke-width:2;" x="90" xlink:href="#m5d0388806b" y="378"/>
      </g>
     </g>
     <g id="text_1">
      <!-- 0.0 -->
      <g transform="translate(82.048438 395.098437)scale(0.1 -0.1)">
       <defs>
        <path d="M 31.78125 66.40625 
Q 24.171875 66.40625 20.328125 58.90625 
Q 16.5 51.421875 16.5 36.375 
Q 16.5 21.390625 20.328125 13.890625 
Q 24.171875 6.390625 31.78125 6.390625 
Q 39.453125 6.390625 43.28125 13.890625 
Q 47.125 21.390625 47.125 36.375 
Q 47.125 51.421875 43.28125 58.90625 
Q 39.453125 66.40625 31.78125 66.40625 
z
M 31.78125 74.21875 
Q 44.046875 74.21875 50.515625 64.515625 
Q 56.984375 54.828125 56.984375 36.375 
Q 56.984375 17.96875 50.515625 8.265625 
Q 44.046875 -1.421875 31.78125 -1.421875 
Q 19.53125 -1.421875 13.0625 8.265625 
Q 6.59375 17.96875 6.59375 36.375 
Q 6.59375 54.828125 13.0625 64.515625 
Q 19.53125 74.21875 31.78125 74.21875 
z
" id="DejaVuSans-48"/>
        <path d="M 10.6875 12.40625 
L 21 12.40625 
L 21 0 
L 10.6875 0 
z
" id="DejaVuSans-46"/>
       </defs>
       <use xlink:href="#DejaVuSans-48"/>
       <use x="63.623047" xlink:href="#DejaVuSans-46"/>
       <use x="95.410156" xlink:href="#DejaVuSans-48"/>
      </g>
     </g>
    </g>
    <g id="xtick_2">
     <g id="line2d_2">
      <g>
       <use style="stroke:#000000;stroke-width:2;" x="153.771429" xlink:href="#m5d0388806b" y="378"/>
      </g>
     </g>
     <g id="text_2">
      <!-- 0.2 -->
      <g transform="translate(145.819866 395.098437)scale(0.1 -0.1)">
       <defs>
        <path d="M 19.1875 8.296875 
L 53.609375 8.296875 
L 53.609375 0 
L 7.328125 0 
L 7.328125 8.296875 
Q 12.9375 14.109375 22.625 23.890625 
Q 32.328125 33.6875 34.8125 36.53125 
Q 39.546875 41.84375 41.421875 45.53125 
Q 43.3125 49.21875 43.3125 52.78125 
Q 43.3125 58.59375 39.234375 62.25 
Q 35.15625 65.921875 28.609375 65.921875 
Q 23.96875 65.921875 18.8125 64.3125 
Q 13.671875 62.703125 7.8125 59.421875 
L 7.8125 69.390625 
Q 13.765625 71.78125 18.9375 73 
Q 24.125 74.21875 28.421875 74.21875 
Q 39.75 74.21875 46.484375 68.546875 
Q 53.21875 62.890625 53.21875 53.421875 
Q 53.21875 48.921875 51.53125 44.890625 
Q 49.859375 40.875 45.40625 35.40625 
Q 44.1875 33.984375 37.640625 27.21875 
Q 31.109375 20.453125 19.1875 8.296875 
z
" id="DejaVuSans-50"/>
       </defs>
       <use xlink:href="#DejaVuSans-48"/>
       <use x="63.623047" xlink:href="#DejaVuSans-46"/>
       <use x="95.410156" xlink:href="#DejaVuSans-50"/>
      </g>
     </g>
    </g>
    <g id="xtick_3">
     <g id="line2d_3">
      <g>
       <use style="stroke:#000000;stroke-width:2;" x="217.542857" xlink:href="#m5d0388806b" y="378"/>
      </g>
     </g>
     <g id="text_3">
      <!-- 0.4 -->
      <g transform="translate(209.591295 395.098437)scale(0.1 -0.1)">
       <defs>
        <path d="M 37.796875 64.3125 
L 12.890625 25.390625 
L 37.796875 25.390625 
z
M 35.203125 72.90625 
L 47.609375 72.90625 
L 47.609375 25.390625 
L 58.015625 25.390625 
L 58.015625 17.1875 
L 47.609375 17.1875 
L 47.609375 0 
L 37.796875 0 
L 37.796875 17.1875 
L 4.890625 17.1875 
L 4.890625 26.703125 
z
" id="DejaVuSans-52"/>
       </defs>
       <use xlink:href="#DejaVuSans-48"/>
       <use x="63.623047" xlink:href="#DejaVuSans-46"/>
       <use x="95.410156" xlink:href="#DejaVuSans-52"/>
      </g>
     </g>
    </g>
    <g id="xtick_4">
     <g id="line2d_4">
      <g>
       <use style="stroke:#000000;stroke-width:2;" x="281.314286" xlink:href="#m5d0388806b" y="378"/>
      </g>
     </g>
     <g id="text_4">
      <!-- 0.6 -->
      <g transform="translate(273.362723 395.098437)scale(0.1 -0.1)">
       <defs>
        <path d="M 33.015625 40.375 
Q 26.375 40.375 22.484375 35.828125 
Q 18.609375 31.296875 18.609375 23.390625 
Q 18.609375 15.53125 22.484375 10.953125 
Q 26.375 6.390625 33.015625 6.390625 
Q 39.65625 6.390625 43.53125 10.953125 
Q 47.40625 15.53125 47.40625 23.390625 
Q 47.40625 31.296875 43.53125 35.828125 
Q 39.65625 40.375 33.015625 40.375 
z
M 52.59375 71.296875 
L 52.59375 62.3125 
Q 48.875 64.0625 45.09375 64.984375 
Q 41.3125 65.921875 37.59375 65.921875 
Q 27.828125 65.921875 22.671875 59.328125 
Q 17.53125 52.734375 16.796875 39.40625 
Q 19.671875 43.65625 24.015625 45.921875 
Q 28.375 48.1875 33.59375 48.1875 
Q 44.578125 48.1875 50.953125 41.515625 
Q 57.328125 34.859375 57.328125 23.390625 
Q 57.328125 12.15625 50.6875 5.359375 
Q 44.046875 -1.421875 33.015625 -1.421875 
Q 20.359375 -1.421875 13.671875 8.265625 
Q 6.984375 17.96875 6.984375 36.375 
Q 6.984375 53.65625 15.1875 63.9375 
Q 23.390625 74.21875 37.203125 74.21875 
Q 40.921875 74.21875 44.703125 73.484375 
Q 48.484375 72.75 52.59375 71.296875 
z
" id="DejaVuSans-54"/>
       </defs>
       <use xlink:href="#DejaVuSans-48"/>
       <use x="63.623047" xlink:href="#DejaVuSans-46"/>
       <use x="95.410156" xlink:href="#DejaVuSans-54"/>
      </g>
     </g>
    </g>
    <g id="xtick_5">
     <g id="line2d_5">
      <g>
       <use style="stroke:#000000;stroke-width:2;" x="345.085714" xlink:href="#m5d0388806b" y="378"/>
      </g>
     </g>
     <g id="text_5">
      <!-- 0.8 -->
      <g transform="translate(337.134152 395.098437)scale(0.1 -0.1)">
       <defs>
        <path d="M 31.78125 34.625 
Q 24.75 34.625 20.71875 30.859375 
Q 16.703125 27.09375 16.703125 20.515625 
Q 16.703125 13.921875 20.71875 10.15625 
Q 24.75 6.390625 31.78125 6.390625 
Q 38.8125 6.390625 42.859375 10.171875 
Q 46.921875 13.96875 46.921875 20.515625 
Q 46.921875 27.09375 42.890625 30.859375 
Q 38.875 34.625 31.78125 34.625 
z
M 21.921875 38.8125 
Q 15.578125 40.375 12.03125 44.71875 
Q 8.5 49.078125 8.5 55.328125 
Q 8.5 64.0625 14.71875 69.140625 
Q 20.953125 74.21875 31.78125 74.21875 
Q 42.671875 74.21875 48.875 69.140625 
Q 55.078125 64.0625 55.078125 55.328125 
Q 55.078125 49.078125 51.53125 44.71875 
Q 48 40.375 41.703125 38.8125 
Q 48.828125 37.15625 52.796875 32.3125 
Q 56.78125 27.484375 56.78125 20.515625 
Q 56.78125 9.90625 50.3125 4.234375 
Q 43.84375 -1.421875 31.78125 -1.421875 
Q 19.734375 -1.421875 13.25 4.234375 
Q 6.78125 9.90625 6.78125 20.515625 
Q 6.78125 27.484375 10.78125 32.3125 
Q 14.796875 37.15625 21.921875 38.8125 
z
M 18.3125 54.390625 
Q 18.3125 48.734375 21.84375 45.5625 
Q 25.390625 42.390625 31.78125 42.390625 
Q 38.140625 42.390625 41.71875 45.5625 
Q 45.3125 48.734375 45.3125 54.390625 
Q 45.3125 60.0625 41.71875 63.234375 
Q 38.140625 66.40625 31.78125 66.40625 
Q 25.390625 66.40625 21.84375 63.234375 
Q 18.3125 60.0625 18.3125 54.390625 
z
" id="DejaVuSans-56"/>
       </defs>
       <use xlink:href="#DejaVuSans-48"/>
       <use x="63.623047" xlink:href="#DejaVuSans-46"/>
       <use x="95.410156" xlink:href="#DejaVuSans-56"/>
      </g>
     </g>
    </g>
    <g id="xtick_6">
     <g id="line2d_6">
      <g>
       <use style="stroke:#000000;stroke-width:2;" x="408.857143" xlink:href="#m5d0388806b" y="378"/>
      </g>
     </g>
     <g id="text_6">
      <!-- 1.0 -->
      <g transform="translate(400.90558 395.098437)scale(0.1 -0.1)">
       <defs>
        <path d="M 12.40625 8.296875 
L 28.515625 8.296875 
L 28.515625 63.921875 
L 10.984375 60.40625 
L 10.984375 69.390625 
L 28.421875 72.90625 
L 38.28125 72.90625 
L 38.28125 8.296875 
L 54.390625 8.296875 
L 54.390625 0 
L 12.40625 0 
z
" id="DejaVuSans-49"/>
       </defs>
       <use xlink:href="#DejaVuSans-49"/>
       <use x="63.623047" xlink:href="#DejaVuSans-46"/>
       <use x="95.410156" xlink:href="#DejaVuSans-48"/>
      </g>
     </g>
    </g>
    <g id="xtick_7">
     <g id="line2d_7">
      <g>
       <use style="stroke:#000000;stroke-width:2;" x="472.628571" xlink:href="#m5d0388806b" y="378"/>
      </g>
     </g>
     <g id="text_7">
      <!-- 1.2 -->
      <g transform="translate(464.677009 395.098437)scale(0.1 -0.1)">
       <use xlink:href="#DejaVuSans-49"/>
       <use x="63.623047" xlink:href="#DejaVuSans-46"/>
       <use x="95.410156" xlink:href="#DejaVuSans-50"/>
      </g>
     </g>
    </g>
    <g id="xtick_8">
     <g id="line2d_8">
      <g>
       <use style="stroke:#000000;stroke-width:2;" x="536.4" xlink:href="#m5d0388806b" y="378"/>
      </g>
     </g>
     <g id="text_8">
      <!-- 1.4 -->
      <g transform="translate(528.448438 395.098437)scale(0.1 -0.1)">
       <use xlink:href="#DejaVuSans-49"/>
       <use x="63.623047" xlink:href="#DejaVuSans-46"/>
       <use x="95.410156" xlink:href="#DejaVuSans-52"/>
      </g>
     </g>
    </g>
    <g id="xtick_9">
     <g id="line2d_9">
      <g>
       <use style="stroke:#000000;stroke-width:2;" x="600.171429" xlink:href="#m5d0388806b" y="378"/>
      </g>
     </g>
     <g id="text_9">
      <!-- 1.6 -->
      <g transform="translate(592.219866 395.098437)scale(0.1 -0.1)">
       <use xlink:href="#DejaVuSans-49"/>
       <use x="63.623047" xlink:href="#DejaVuSans-46"/>
       <use x="95.410156" xlink:href="#DejaVuSans-54"/>
      </g>
     </g>
    </g>
    <g id="text_10">
     <!-- Relative Difference in T-number -->
     <g transform="translate(207.952031 414.855313)scale(0.18 -0.18)">
      <defs>
       <path d="M 35.890625 40.578125 
Q 41.796875 40.578125 44.359375 42.765625 
Q 46.921875 44.96875 46.921875 50 
Q 46.921875 54.984375 44.359375 57.125 
Q 41.796875 59.28125 35.890625 59.28125 
L 27.984375 59.28125 
L 27.984375 40.578125 
z
M 27.984375 27.59375 
L 27.984375 0 
L 9.1875 0 
L 9.1875 72.90625 
L 37.890625 72.90625 
Q 52.296875 72.90625 59 68.0625 
Q 65.71875 63.234375 65.71875 52.78125 
Q 65.71875 45.5625 62.21875 40.921875 
Q 58.734375 36.28125 51.703125 34.078125 
Q 55.5625 33.203125 58.609375 30.09375 
Q 61.671875 27 64.796875 20.703125 
L 75 0 
L 54.984375 0 
L 46.09375 18.109375 
Q 43.40625 23.578125 40.640625 25.578125 
Q 37.890625 27.59375 33.296875 27.59375 
z
" id="DejaVuSans-Bold-82"/>
       <path d="M 62.984375 27.484375 
L 62.984375 22.515625 
L 22.125 22.515625 
Q 22.75 16.359375 26.5625 13.28125 
Q 30.375 10.203125 37.203125 10.203125 
Q 42.71875 10.203125 48.5 11.84375 
Q 54.296875 13.484375 60.40625 16.796875 
L 60.40625 3.328125 
Q 54.203125 0.984375 48 -0.21875 
Q 41.796875 -1.421875 35.59375 -1.421875 
Q 20.75 -1.421875 12.515625 6.125 
Q 4.296875 13.671875 4.296875 27.296875 
Q 4.296875 40.671875 12.375 48.328125 
Q 20.453125 56 34.625 56 
Q 47.515625 56 55.25 48.234375 
Q 62.984375 40.484375 62.984375 27.484375 
z
M 45.015625 33.296875 
Q 45.015625 38.28125 42.109375 41.328125 
Q 39.203125 44.390625 34.515625 44.390625 
Q 29.4375 44.390625 26.265625 41.53125 
Q 23.09375 38.671875 22.3125 33.296875 
z
" id="DejaVuSans-Bold-101"/>
       <path d="M 8.40625 75.984375 
L 25.875 75.984375 
L 25.875 0 
L 8.40625 0 
z
" id="DejaVuSans-Bold-108"/>
       <path d="M 32.90625 24.609375 
Q 27.4375 24.609375 24.671875 22.75 
Q 21.921875 20.90625 21.921875 17.28125 
Q 21.921875 13.96875 24.140625 12.078125 
Q 26.375 10.203125 30.328125 10.203125 
Q 35.25 10.203125 38.625 13.734375 
Q 42 17.28125 42 22.609375 
L 42 24.609375 
z
M 59.625 31.203125 
L 59.625 0 
L 42 0 
L 42 8.109375 
Q 38.484375 3.125 34.078125 0.84375 
Q 29.6875 -1.421875 23.390625 -1.421875 
Q 14.890625 -1.421875 9.59375 3.53125 
Q 4.296875 8.5 4.296875 16.40625 
Q 4.296875 26.03125 10.90625 30.515625 
Q 17.53125 35.015625 31.6875 35.015625 
L 42 35.015625 
L 42 36.375 
Q 42 40.53125 38.71875 42.453125 
Q 35.453125 44.390625 28.515625 44.390625 
Q 22.90625 44.390625 18.0625 43.265625 
Q 13.234375 42.140625 9.078125 39.890625 
L 9.078125 53.21875 
Q 14.703125 54.59375 20.359375 55.296875 
Q 26.03125 56 31.6875 56 
Q 46.484375 56 53.046875 50.171875 
Q 59.625 44.34375 59.625 31.203125 
z
" id="DejaVuSans-Bold-97"/>
       <path d="M 27.484375 70.21875 
L 27.484375 54.6875 
L 45.515625 54.6875 
L 45.515625 42.1875 
L 27.484375 42.1875 
L 27.484375 19 
Q 27.484375 15.1875 29 13.84375 
Q 30.515625 12.5 35.015625 12.5 
L 44 12.5 
L 44 0 
L 29 0 
Q 18.65625 0 14.328125 4.3125 
Q 10.015625 8.640625 10.015625 19 
L 10.015625 42.1875 
L 1.3125 42.1875 
L 1.3125 54.6875 
L 10.015625 54.6875 
L 10.015625 70.21875 
z
" id="DejaVuSans-Bold-116"/>
       <path d="M 8.40625 54.6875 
L 25.875 54.6875 
L 25.875 0 
L 8.40625 0 
z
M 8.40625 75.984375 
L 25.875 75.984375 
L 25.875 61.71875 
L 8.40625 61.71875 
z
" id="DejaVuSans-Bold-105"/>
       <path d="M 1.515625 54.6875 
L 19 54.6875 
L 32.625 16.890625 
L 46.1875 54.6875 
L 63.71875 54.6875 
L 42.1875 0 
L 23 0 
z
" id="DejaVuSans-Bold-118"/>
       <path id="DejaVuSans-Bold-32"/>
       <path d="M 27.984375 58.6875 
L 27.984375 14.203125 
L 34.71875 14.203125 
Q 46.234375 14.203125 52.3125 19.921875 
Q 58.40625 25.640625 58.40625 36.53125 
Q 58.40625 47.359375 52.34375 53.015625 
Q 46.296875 58.6875 34.71875 58.6875 
z
M 9.1875 72.90625 
L 29 72.90625 
Q 45.609375 72.90625 53.734375 70.53125 
Q 61.859375 68.171875 67.671875 62.5 
Q 72.796875 57.5625 75.28125 51.109375 
Q 77.78125 44.671875 77.78125 36.53125 
Q 77.78125 28.265625 75.28125 21.796875 
Q 72.796875 15.328125 67.671875 10.40625 
Q 61.8125 4.734375 53.609375 2.359375 
Q 45.40625 0 29 0 
L 9.1875 0 
z
" id="DejaVuSans-Bold-68"/>
       <path d="M 44.390625 75.984375 
L 44.390625 64.5 
L 34.71875 64.5 
Q 31 64.5 29.53125 63.15625 
Q 28.078125 61.8125 28.078125 58.5 
L 28.078125 54.6875 
L 43.015625 54.6875 
L 43.015625 42.1875 
L 28.078125 42.1875 
L 28.078125 0 
L 10.59375 0 
L 10.59375 42.1875 
L 1.90625 42.1875 
L 1.90625 54.6875 
L 10.59375 54.6875 
L 10.59375 58.5 
Q 10.59375 67.4375 15.578125 71.703125 
Q 20.5625 75.984375 31 75.984375 
z
" id="DejaVuSans-Bold-102"/>
       <path d="M 49.03125 39.796875 
Q 46.734375 40.875 44.453125 41.375 
Q 42.1875 41.890625 39.890625 41.890625 
Q 33.15625 41.890625 29.515625 37.5625 
Q 25.875 33.25 25.875 25.203125 
L 25.875 0 
L 8.40625 0 
L 8.40625 54.6875 
L 25.875 54.6875 
L 25.875 45.703125 
Q 29.25 51.078125 33.609375 53.53125 
Q 37.984375 56 44.09375 56 
Q 44.96875 56 45.984375 55.921875 
Q 47.015625 55.859375 48.96875 55.609375 
z
" id="DejaVuSans-Bold-114"/>
       <path d="M 63.375 33.296875 
L 63.375 0 
L 45.796875 0 
L 45.796875 5.421875 
L 45.796875 25.484375 
Q 45.796875 32.5625 45.484375 35.25 
Q 45.171875 37.9375 44.390625 39.203125 
Q 43.359375 40.921875 41.59375 41.875 
Q 39.84375 42.828125 37.59375 42.828125 
Q 32.125 42.828125 29 38.59375 
Q 25.875 34.375 25.875 26.90625 
L 25.875 0 
L 8.40625 0 
L 8.40625 54.6875 
L 25.875 54.6875 
L 25.875 46.6875 
Q 29.828125 51.46875 34.265625 53.734375 
Q 38.71875 56 44.09375 56 
Q 53.5625 56 58.46875 50.1875 
Q 63.375 44.390625 63.375 33.296875 
z
" id="DejaVuSans-Bold-110"/>
       <path d="M 52.59375 52.984375 
L 52.59375 38.71875 
Q 49.03125 41.15625 45.4375 42.328125 
Q 41.84375 43.5 37.984375 43.5 
Q 30.671875 43.5 26.59375 39.234375 
Q 22.515625 34.96875 22.515625 27.296875 
Q 22.515625 19.625 26.59375 15.34375 
Q 30.671875 11.078125 37.984375 11.078125 
Q 42.09375 11.078125 45.78125 12.296875 
Q 49.46875 13.53125 52.59375 15.921875 
L 52.59375 1.609375 
Q 48.484375 0.09375 44.265625 -0.65625 
Q 40.046875 -1.421875 35.796875 -1.421875 
Q 21 -1.421875 12.640625 6.171875 
Q 4.296875 13.765625 4.296875 27.296875 
Q 4.296875 40.828125 12.640625 48.40625 
Q 21 56 35.796875 56 
Q 40.09375 56 44.265625 55.25 
Q 48.4375 54.5 52.59375 52.984375 
z
" id="DejaVuSans-Bold-99"/>
       <path d="M 0.484375 72.90625 
L 67.671875 72.90625 
L 67.671875 58.6875 
L 43.5 58.6875 
L 43.5 0 
L 24.703125 0 
L 24.703125 58.6875 
L 0.484375 58.6875 
z
" id="DejaVuSans-Bold-84"/>
       <path d="M 5.421875 35.890625 
L 36.078125 35.890625 
L 36.078125 21.6875 
L 5.421875 21.6875 
z
" id="DejaVuSans-Bold-45"/>
       <path d="M 7.8125 21.296875 
L 7.8125 54.6875 
L 25.390625 54.6875 
L 25.390625 49.21875 
Q 25.390625 44.78125 25.34375 38.0625 
Q 25.296875 31.34375 25.296875 29.109375 
Q 25.296875 22.515625 25.640625 19.609375 
Q 25.984375 16.703125 26.8125 15.375 
Q 27.875 13.671875 29.609375 12.734375 
Q 31.34375 11.8125 33.59375 11.8125 
Q 39.0625 11.8125 42.1875 16.015625 
Q 45.3125 20.21875 45.3125 27.6875 
L 45.3125 54.6875 
L 62.796875 54.6875 
L 62.796875 0 
L 45.3125 0 
L 45.3125 7.90625 
Q 41.359375 3.125 36.9375 0.84375 
Q 32.515625 -1.421875 27.203125 -1.421875 
Q 17.71875 -1.421875 12.765625 4.390625 
Q 7.8125 10.203125 7.8125 21.296875 
z
" id="DejaVuSans-Bold-117"/>
       <path d="M 59.078125 45.609375 
Q 62.40625 50.6875 66.96875 53.34375 
Q 71.53125 56 77 56 
Q 86.421875 56 91.359375 50.1875 
Q 96.296875 44.390625 96.296875 33.296875 
L 96.296875 0 
L 78.71875 0 
L 78.71875 28.515625 
Q 78.765625 29.15625 78.78125 29.828125 
Q 78.8125 30.515625 78.8125 31.78125 
Q 78.8125 37.59375 77.09375 40.203125 
Q 75.390625 42.828125 71.578125 42.828125 
Q 66.609375 42.828125 63.890625 38.71875 
Q 61.1875 34.625 61.078125 26.859375 
L 61.078125 0 
L 43.5 0 
L 43.5 28.515625 
Q 43.5 37.59375 41.9375 40.203125 
Q 40.375 42.828125 36.375 42.828125 
Q 31.34375 42.828125 28.609375 38.703125 
Q 25.875 34.578125 25.875 26.90625 
L 25.875 0 
L 8.296875 0 
L 8.296875 54.6875 
L 25.875 54.6875 
L 25.875 46.6875 
Q 29.109375 51.3125 33.28125 53.65625 
Q 37.453125 56 42.484375 56 
Q 48.140625 56 52.484375 53.265625 
Q 56.84375 50.53125 59.078125 45.609375 
z
" id="DejaVuSans-Bold-109"/>
       <path d="M 37.5 11.28125 
Q 43.109375 11.28125 46.0625 15.375 
Q 49.03125 19.484375 49.03125 27.296875 
Q 49.03125 35.109375 46.0625 39.203125 
Q 43.109375 43.3125 37.5 43.3125 
Q 31.890625 43.3125 28.875 39.1875 
Q 25.875 35.0625 25.875 27.296875 
Q 25.875 19.53125 28.875 15.40625 
Q 31.890625 11.28125 37.5 11.28125 
z
M 25.875 46.6875 
Q 29.5 51.46875 33.890625 53.734375 
Q 38.28125 56 44 56 
Q 54.109375 56 60.59375 47.96875 
Q 67.09375 39.9375 67.09375 27.296875 
Q 67.09375 14.65625 60.59375 6.609375 
Q 54.109375 -1.421875 44 -1.421875 
Q 38.28125 -1.421875 33.890625 0.84375 
Q 29.5 3.125 25.875 7.90625 
L 25.875 0 
L 8.40625 0 
L 8.40625 75.984375 
L 25.875 75.984375 
z
" id="DejaVuSans-Bold-98"/>
      </defs>
      <use xlink:href="#DejaVuSans-Bold-82"/>
      <use x="77.001953" xlink:href="#DejaVuSans-Bold-101"/>
      <use x="144.824219" xlink:href="#DejaVuSans-Bold-108"/>
      <use x="179.101562" xlink:href="#DejaVuSans-Bold-97"/>
      <use x="246.582031" xlink:href="#DejaVuSans-Bold-116"/>
      <use x="294.384766" xlink:href="#DejaVuSans-Bold-105"/>
      <use x="328.662109" xlink:href="#DejaVuSans-Bold-118"/>
      <use x="393.847656" xlink:href="#DejaVuSans-Bold-101"/>
      <use x="461.669922" xlink:href="#DejaVuSans-Bold-32"/>
      <use x="496.484375" xlink:href="#DejaVuSans-Bold-68"/>
      <use x="579.492188" xlink:href="#DejaVuSans-Bold-105"/>
      <use x="613.769531" xlink:href="#DejaVuSans-Bold-102"/>
      <use x="657.275391" xlink:href="#DejaVuSans-Bold-102"/>
      <use x="700.78125" xlink:href="#DejaVuSans-Bold-101"/>
      <use x="768.603516" xlink:href="#DejaVuSans-Bold-114"/>
      <use x="817.919922" xlink:href="#DejaVuSans-Bold-101"/>
      <use x="885.742188" xlink:href="#DejaVuSans-Bold-110"/>
      <use x="956.933594" xlink:href="#DejaVuSans-Bold-99"/>
      <use x="1016.210938" xlink:href="#DejaVuSans-Bold-101"/>
      <use x="1084.033203" xlink:href="#DejaVuSans-Bold-32"/>
      <use x="1118.847656" xlink:href="#DejaVuSans-Bold-105"/>
      <use x="1153.125" xlink:href="#DejaVuSans-Bold-110"/>
      <use x="1224.316406" xlink:href="#DejaVuSans-Bold-32"/>
      <use x="1259.130859" xlink:href="#DejaVuSans-Bold-84"/>
      <use x="1312.59375" xlink:href="#DejaVuSans-Bold-45"/>
      <use x="1354.097656" xlink:href="#DejaVuSans-Bold-110"/>
      <use x="1425.289062" xlink:href="#DejaVuSans-Bold-117"/>
      <use x="1496.480469" xlink:href="#DejaVuSans-Bold-109"/>
      <use x="1600.679688" xlink:href="#DejaVuSans-Bold-98"/>
      <use x="1672.261719" xlink:href="#DejaVuSans-Bold-101"/>
      <use x="1740.083984" xlink:href="#DejaVuSans-Bold-114"/>
     </g>
    </g>
   </g>
   <g id="matplotlib.axis_2">
    <g id="ytick_1">
     <g id="line2d_10">
      <defs>
       <path d="M 0 0 
L -6 0 
" id="m595c85164e" style="stroke:#000000;stroke-width:2;"/>
      </defs>
      <g>
       <use style="stroke:#000000;stroke-width:2;" x="90" xlink:href="#m595c85164e" y="378"/>
      </g>
     </g>
     <g id="text_11">
      <!-- 0 -->
      <g transform="translate(71.5925 383.318906)scale(0.14 -0.14)">
       <use xlink:href="#DejaVuSans-48"/>
      </g>
     </g>
    </g>
    <g id="ytick_2">
     <g id="line2d_11">
      <g>
       <use style="stroke:#000000;stroke-width:2;" x="90" xlink:href="#m595c85164e" y="318.427397"/>
      </g>
     </g>
     <g id="text_12">
      <!-- 0-20 -->
      <g transform="translate(48.726562 323.746304)scale(0.14 -0.14)">
       <defs>
        <path d="M 4.890625 31.390625 
L 31.203125 31.390625 
L 31.203125 23.390625 
L 4.890625 23.390625 
z
" id="DejaVuSans-45"/>
       </defs>
       <use xlink:href="#DejaVuSans-48"/>
       <use x="63.623047" xlink:href="#DejaVuSans-45"/>
       <use x="99.707031" xlink:href="#DejaVuSans-50"/>
       <use x="163.330078" xlink:href="#DejaVuSans-48"/>
      </g>
     </g>
    </g>
    <g id="ytick_3">
     <g id="line2d_12">
      <g>
       <use style="stroke:#000000;stroke-width:2;" x="90" xlink:href="#m595c85164e" y="258.854795"/>
      </g>
     </g>
     <g id="text_13">
      <!-- 20-40 -->
      <g transform="translate(39.819062 264.173701)scale(0.14 -0.14)">
       <use xlink:href="#DejaVuSans-50"/>
       <use x="63.623047" xlink:href="#DejaVuSans-48"/>
       <use x="127.246094" xlink:href="#DejaVuSans-45"/>
       <use x="163.330078" xlink:href="#DejaVuSans-52"/>
       <use x="226.953125" xlink:href="#DejaVuSans-48"/>
      </g>
     </g>
    </g>
    <g id="ytick_4">
     <g id="line2d_13">
      <g>
       <use style="stroke:#000000;stroke-width:2;" x="90" xlink:href="#m595c85164e" y="199.282192"/>
      </g>
     </g>
     <g id="text_14">
      <!-- 40-60 -->
      <g transform="translate(39.819062 204.601098)scale(0.14 -0.14)">
       <use xlink:href="#DejaVuSans-52"/>
       <use x="63.623047" xlink:href="#DejaVuSans-48"/>
       <use x="127.246094" xlink:href="#DejaVuSans-45"/>
       <use x="163.330078" xlink:href="#DejaVuSans-54"/>
       <use x="226.953125" xlink:href="#DejaVuSans-48"/>
      </g>
     </g>
    </g>
    <g id="ytick_5">
     <g id="line2d_14">
      <g>
       <use style="stroke:#000000;stroke-width:2;" x="90" xlink:href="#m595c85164e" y="139.709589"/>
      </g>
     </g>
     <g id="text_15">
      <!-- 60-80 -->
      <g transform="translate(39.819062 145.028495)scale(0.14 -0.14)">
       <use xlink:href="#DejaVuSans-54"/>
       <use x="63.623047" xlink:href="#DejaVuSans-48"/>
       <use x="127.246094" xlink:href="#DejaVuSans-45"/>
       <use x="163.330078" xlink:href="#DejaVuSans-56"/>
       <use x="226.953125" xlink:href="#DejaVuSans-48"/>
      </g>
     </g>
    </g>
    <g id="ytick_6">
     <g id="line2d_15">
      <g>
       <use style="stroke:#000000;stroke-width:2;" x="90" xlink:href="#m595c85164e" y="80.136986"/>
      </g>
     </g>
     <g id="text_16">
      <!-- 80-100 -->
      <g transform="translate(30.911562 85.455893)scale(0.14 -0.14)">
       <use xlink:href="#DejaVuSans-56"/>
       <use x="63.623047" xlink:href="#DejaVuSans-48"/>
       <use x="127.246094" xlink:href="#DejaVuSans-45"/>
       <use x="163.330078" xlink:href="#DejaVuSans-49"/>
       <use x="226.953125" xlink:href="#DejaVuSans-48"/>
       <use x="290.576172" xlink:href="#DejaVuSans-48"/>
      </g>
     </g>
    </g>
    <g id="text_17">
     <!-- MCP-MCP similarity (%) -->
     <g transform="translate(23.0275 334.081406)rotate(-90)scale(0.18 -0.18)">
      <defs>
       <path d="M 9.1875 72.90625 
L 33.109375 72.90625 
L 49.703125 33.890625 
L 66.40625 72.90625 
L 90.28125 72.90625 
L 90.28125 0 
L 72.515625 0 
L 72.515625 53.328125 
L 55.71875 14.015625 
L 43.796875 14.015625 
L 27 53.328125 
L 27 0 
L 9.1875 0 
z
" id="DejaVuSans-Bold-77"/>
       <path d="M 67 4 
Q 61.8125 1.3125 56.203125 -0.046875 
Q 50.59375 -1.421875 44.484375 -1.421875 
Q 26.265625 -1.421875 15.625 8.765625 
Q 4.984375 18.953125 4.984375 36.375 
Q 4.984375 53.859375 15.625 64.03125 
Q 26.265625 74.21875 44.484375 74.21875 
Q 50.59375 74.21875 56.203125 72.84375 
Q 61.8125 71.484375 67 68.796875 
L 67 53.71875 
Q 61.765625 57.28125 56.6875 58.9375 
Q 51.609375 60.59375 46 60.59375 
Q 35.9375 60.59375 30.171875 54.140625 
Q 24.421875 47.703125 24.421875 36.375 
Q 24.421875 25.09375 30.171875 18.640625 
Q 35.9375 12.203125 46 12.203125 
Q 51.609375 12.203125 56.6875 13.859375 
Q 61.765625 15.53125 67 19.09375 
z
" id="DejaVuSans-Bold-67"/>
       <path d="M 9.1875 72.90625 
L 40.375 72.90625 
Q 54.296875 72.90625 61.734375 66.71875 
Q 69.1875 60.546875 69.1875 49.125 
Q 69.1875 37.640625 61.734375 31.46875 
Q 54.296875 25.296875 40.375 25.296875 
L 27.984375 25.296875 
L 27.984375 0 
L 9.1875 0 
z
M 27.984375 59.28125 
L 27.984375 38.921875 
L 38.375 38.921875 
Q 43.84375 38.921875 46.828125 41.578125 
Q 49.8125 44.234375 49.8125 49.125 
Q 49.8125 54 46.828125 56.640625 
Q 43.84375 59.28125 38.375 59.28125 
z
" id="DejaVuSans-Bold-80"/>
       <path d="M 51.125 52.984375 
L 51.125 39.703125 
Q 45.515625 42.046875 40.28125 43.21875 
Q 35.0625 44.390625 30.421875 44.390625 
Q 25.4375 44.390625 23.015625 43.140625 
Q 20.609375 41.890625 20.609375 39.3125 
Q 20.609375 37.203125 22.4375 36.078125 
Q 24.265625 34.96875 29 34.421875 
L 32.078125 33.984375 
Q 45.515625 32.28125 50.140625 28.375 
Q 54.78125 24.46875 54.78125 16.109375 
Q 54.78125 7.375 48.328125 2.96875 
Q 41.890625 -1.421875 29.109375 -1.421875 
Q 23.6875 -1.421875 17.890625 -0.5625 
Q 12.109375 0.296875 6 2 
L 6 15.28125 
Q 11.234375 12.75 16.71875 11.46875 
Q 22.21875 10.203125 27.875 10.203125 
Q 33.015625 10.203125 35.59375 11.609375 
Q 38.1875 13.03125 38.1875 15.828125 
Q 38.1875 18.171875 36.40625 19.3125 
Q 34.625 20.453125 29.296875 21.09375 
L 26.21875 21.484375 
Q 14.546875 22.953125 9.859375 26.90625 
Q 5.171875 30.859375 5.171875 38.921875 
Q 5.171875 47.609375 11.125 51.796875 
Q 17.09375 56 29.390625 56 
Q 34.234375 56 39.546875 55.265625 
Q 44.875 54.546875 51.125 52.984375 
z
" id="DejaVuSans-Bold-115"/>
       <path d="M 1.21875 54.6875 
L 18.703125 54.6875 
L 33.40625 17.578125 
L 45.90625 54.6875 
L 63.375 54.6875 
L 40.375 -5.171875 
Q 36.921875 -14.3125 32.296875 -17.9375 
Q 27.6875 -21.578125 20.125 -21.578125 
L 10.015625 -21.578125 
L 10.015625 -10.109375 
L 15.484375 -10.109375 
Q 19.921875 -10.109375 21.9375 -8.6875 
Q 23.96875 -7.28125 25.09375 -3.609375 
L 25.59375 -2.09375 
z
" id="DejaVuSans-Bold-121"/>
       <path d="M 37.703125 -13.1875 
L 23.1875 -13.1875 
Q 15.71875 -1.125 12.15625 9.734375 
Q 8.59375 20.609375 8.59375 31.296875 
Q 8.59375 42 12.171875 52.953125 
Q 15.765625 63.921875 23.1875 75.875 
L 37.703125 75.875 
Q 31.453125 64.3125 28.328125 53.25 
Q 25.203125 42.1875 25.203125 31.390625 
Q 25.203125 20.609375 28.296875 9.515625 
Q 31.390625 -1.5625 37.703125 -13.1875 
z
" id="DejaVuSans-Bold-40"/>
       <path d="M 77.484375 30.078125 
Q 74.03125 30.078125 72.125 27.078125 
Q 70.21875 24.078125 70.21875 18.5 
Q 70.21875 12.890625 72.09375 9.890625 
Q 73.96875 6.890625 77.484375 6.890625 
Q 81 6.890625 82.859375 9.890625 
Q 84.71875 12.890625 84.71875 18.5 
Q 84.71875 24.078125 82.828125 27.078125 
Q 80.953125 30.078125 77.484375 30.078125 
z
M 77.484375 38.28125 
Q 86.578125 38.28125 91.796875 33 
Q 97.015625 27.734375 97.015625 18.5 
Q 97.015625 9.28125 91.796875 3.921875 
Q 86.578125 -1.421875 77.484375 -1.421875 
Q 68.40625 -1.421875 63.15625 3.921875 
Q 57.90625 9.28125 57.90625 18.5 
Q 57.90625 27.6875 63.15625 32.984375 
Q 68.40625 38.28125 77.484375 38.28125 
z
M 32.71875 -1.421875 
L 21.921875 -1.421875 
L 67.484375 74.21875 
L 78.328125 74.21875 
z
M 22.703125 74.21875 
Q 31.78125 74.21875 36.984375 68.921875 
Q 42.1875 63.625 42.1875 54.390625 
Q 42.1875 45.171875 36.984375 39.84375 
Q 31.78125 34.515625 22.703125 34.515625 
Q 13.625 34.515625 8.421875 39.84375 
Q 3.21875 45.171875 3.21875 54.390625 
Q 3.21875 63.625 8.421875 68.921875 
Q 13.625 74.21875 22.703125 74.21875 
z
M 22.703125 66.015625 
Q 19.1875 66.015625 17.28125 62.984375 
Q 15.375 59.96875 15.375 54.390625 
Q 15.375 48.78125 17.28125 45.71875 
Q 19.1875 42.671875 22.703125 42.671875 
Q 26.21875 42.671875 28.09375 45.71875 
Q 29.984375 48.78125 29.984375 54.390625 
Q 29.984375 59.96875 28.078125 62.984375 
Q 26.171875 66.015625 22.703125 66.015625 
z
" id="DejaVuSans-Bold-37"/>
       <path d="M 8.015625 -13.1875 
Q 14.265625 -1.5625 17.390625 9.515625 
Q 20.515625 20.609375 20.515625 31.390625 
Q 20.515625 42.1875 17.390625 53.25 
Q 14.265625 64.3125 8.015625 75.875 
L 22.515625 75.875 
Q 29.9375 63.921875 33.515625 52.953125 
Q 37.109375 42 37.109375 31.296875 
Q 37.109375 20.609375 33.546875 9.734375 
Q 29.984375 -1.125 22.515625 -13.1875 
z
" id="DejaVuSans-Bold-41"/>
      </defs>
      <use xlink:href="#DejaVuSans-Bold-77"/>
      <use x="99.511719" xlink:href="#DejaVuSans-Bold-67"/>
      <use x="172.900391" xlink:href="#DejaVuSans-Bold-80"/>
      <use x="244.441406" xlink:href="#DejaVuSans-Bold-45"/>
      <use x="285.945312" xlink:href="#DejaVuSans-Bold-77"/>
      <use x="385.457031" xlink:href="#DejaVuSans-Bold-67"/>
      <use x="458.845703" xlink:href="#DejaVuSans-Bold-80"/>
      <use x="532.136719" xlink:href="#DejaVuSans-Bold-32"/>
      <use x="566.951172" xlink:href="#DejaVuSans-Bold-115"/>
      <use x="626.472656" xlink:href="#DejaVuSans-Bold-105"/>
      <use x="660.75" xlink:href="#DejaVuSans-Bold-109"/>
      <use x="764.949219" xlink:href="#DejaVuSans-Bold-105"/>
      <use x="799.226562" xlink:href="#DejaVuSans-Bold-108"/>
      <use x="833.503906" xlink:href="#DejaVuSans-Bold-97"/>
      <use x="900.984375" xlink:href="#DejaVuSans-Bold-114"/>
      <use x="950.300781" xlink:href="#DejaVuSans-Bold-105"/>
      <use x="984.578125" xlink:href="#DejaVuSans-Bold-116"/>
      <use x="1032.380859" xlink:href="#DejaVuSans-Bold-121"/>
      <use x="1097.566406" xlink:href="#DejaVuSans-Bold-32"/>
      <use x="1132.380859" xlink:href="#DejaVuSans-Bold-40"/>
      <use x="1178.083984" xlink:href="#DejaVuSans-Bold-37"/>
      <use x="1278.279297" xlink:href="#DejaVuSans-Bold-41"/>
     </g>
    </g>
   </g>
   <g id="LineCollection_1">
    <path clip-path="url(#pcbf4d644ab)" style="fill:none;stroke:#1f77b4;stroke-width:1.5;"/>
    <path clip-path="url(#pcbf4d644ab)" d="M 718.46223 266.30137 
L 718.46223 251.408219 
" style="fill:none;stroke:#1f77b4;stroke-width:1.5;"/>
    <path clip-path="url(#pcbf4d644ab)" d="M 270.737882 206.728767 
L 270.737882 191.835616 
" style="fill:none;stroke:#1f77b4;stroke-width:1.5;"/>
    <path clip-path="url(#pcbf4d644ab)" d="M 193.068193 147.156164 
L 193.068193 132.263014 
" style="fill:none;stroke:#1f77b4;stroke-width:1.5;"/>
    <path clip-path="url(#pcbf4d644ab)" d="M 312.013503 87.583562 
L 312.013503 72.690411 
" style="fill:none;stroke:#1f77b4;stroke-width:1.5;"/>
   </g>
   <g id="LineCollection_2">
    <path clip-path="url(#pcbf4d644ab)" d="M 90 325.873973 
L 90 310.980822 
" style="fill:none;stroke:#1f77b4;stroke-width:1.5;"/>
    <path clip-path="url(#pcbf4d644ab)" d="M 90 266.30137 
L 90 251.408219 
" style="fill:none;stroke:#1f77b4;stroke-width:1.5;"/>
    <path clip-path="url(#pcbf4d644ab)" d="M 90 206.728767 
L 90 191.835616 
" style="fill:none;stroke:#1f77b4;stroke-width:1.5;"/>
    <path clip-path="url(#pcbf4d644ab)" d="M 90.023773 147.156164 
L 90.023773 132.263014 
" style="fill:none;stroke:#1f77b4;stroke-width:1.5;"/>
    <path clip-path="url(#pcbf4d644ab)" d="M 90 87.583562 
L 90 72.690411 
" style="fill:none;stroke:#1f77b4;stroke-width:1.5;"/>
   </g>
   <g id="LineCollection_3">
    <path clip-path="url(#pcbf4d644ab)" d="M 90 318.427397 
L 721 318.427397 
" style="fill:none;stroke:#1f77b4;stroke-width:1.5;"/>
    <path clip-path="url(#pcbf4d644ab)" d="M 90 258.854795 
L 718.46223 258.854795 
" style="fill:none;stroke:#1f77b4;stroke-width:1.5;"/>
    <path clip-path="url(#pcbf4d644ab)" d="M 90 199.282192 
L 270.737882 199.282192 
" style="fill:none;stroke:#1f77b4;stroke-width:1.5;"/>
    <path clip-path="url(#pcbf4d644ab)" d="M 90.023773 139.709589 
L 193.068193 139.709589 
" style="fill:none;stroke:#1f77b4;stroke-width:1.5;"/>
    <path clip-path="url(#pcbf4d644ab)" d="M 90 80.136986 
L 312.013503 80.136986 
" style="fill:none;stroke:#1f77b4;stroke-width:1.5;"/>
   </g>
   <g id="LineCollection_4">
    <path clip-path="url(#pcbf4d644ab)" d="M 141.117604 325.873973 
L 141.117604 310.980822 
" style="fill:none;stroke:#1f77b4;stroke-width:1.5;"/>
    <path clip-path="url(#pcbf4d644ab)" d="M 241.96647 325.873973 
L 241.96647 310.980822 
" style="fill:none;stroke:#1f77b4;stroke-width:1.5;"/>
    <path clip-path="url(#pcbf4d644ab)" d="M 416.741676 325.873973 
L 416.741676 310.980822 
" style="fill:none;stroke:#1f77b4;stroke-width:1.5;"/>
    <path clip-path="url(#pcbf4d644ab)" d="M 101.934227 266.30137 
L 101.934227 251.408219 
" style="fill:none;stroke:#1f77b4;stroke-width:1.5;"/>
    <path clip-path="url(#pcbf4d644ab)" d="M 117.57478 266.30137 
L 117.57478 251.408219 
" style="fill:none;stroke:#1f77b4;stroke-width:1.5;"/>
    <path clip-path="url(#pcbf4d644ab)" d="M 150.77939 266.30137 
L 150.77939 251.408219 
" style="fill:none;stroke:#1f77b4;stroke-width:1.5;"/>
    <path clip-path="url(#pcbf4d644ab)" d="M 101.174662 206.728767 
L 101.174662 191.835616 
" style="fill:none;stroke:#1f77b4;stroke-width:1.5;"/>
    <path clip-path="url(#pcbf4d644ab)" d="M 117.040198 206.728767 
L 117.040198 191.835616 
" style="fill:none;stroke:#1f77b4;stroke-width:1.5;"/>
    <path clip-path="url(#pcbf4d644ab)" d="M 151.099587 206.728767 
L 151.099587 191.835616 
" style="fill:none;stroke:#1f77b4;stroke-width:1.5;"/>
    <path clip-path="url(#pcbf4d644ab)" d="M 94.998486 147.156164 
L 94.998486 132.263014 
" style="fill:none;stroke:#1f77b4;stroke-width:1.5;"/>
    <path clip-path="url(#pcbf4d644ab)" d="M 99.902845 147.156164 
L 99.902845 132.263014 
" style="fill:none;stroke:#1f77b4;stroke-width:1.5;"/>
    <path clip-path="url(#pcbf4d644ab)" d="M 109.152407 147.156164 
L 109.152407 132.263014 
" style="fill:none;stroke:#1f77b4;stroke-width:1.5;"/>
    <path clip-path="url(#pcbf4d644ab)" d="M 91.71025 87.583562 
L 91.71025 72.690411 
" style="fill:none;stroke:#1f77b4;stroke-width:1.5;"/>
    <path clip-path="url(#pcbf4d644ab)" d="M 94.108963 87.583562 
L 94.108963 72.690411 
" style="fill:none;stroke:#1f77b4;stroke-width:1.5;"/>
    <path clip-path="url(#pcbf4d644ab)" d="M 98.075451 87.583562 
L 98.075451 72.690411 
" style="fill:none;stroke:#1f77b4;stroke-width:1.5;"/>
   </g>
   <g id="patch_3">
    <path d="M 90 378 
L 90 51.84 
" style="fill:none;stroke:#000000;stroke-linecap:square;stroke-linejoin:miter;stroke-width:0.8;"/>
   </g>
   <g id="patch_4">
    <path d="M 648 378 
L 648 51.84 
" style="fill:none;stroke:#000000;stroke-linecap:square;stroke-linejoin:miter;stroke-width:0.8;"/>
   </g>
   <g id="patch_5">
    <path d="M 90 378 
L 648 378 
" style="fill:none;stroke:#000000;stroke-linecap:square;stroke-linejoin:miter;stroke-width:0.8;"/>
   </g>
   <g id="patch_6">
    <path d="M 90 51.84 
L 648 51.84 
" style="fill:none;stroke:#000000;stroke-linecap:square;stroke-linejoin:miter;stroke-width:0.8;"/>
   </g>
   <g id="text_18">
    <!-- Pairwise relative difference in T-number versus similarity -->
    <g transform="translate(13.296094 45.84)scale(0.22 -0.22)">
     <defs>
      <path d="M 3.515625 54.6875 
L 20.515625 54.6875 
L 29.6875 17 
L 38.921875 54.6875 
L 53.515625 54.6875 
L 62.703125 17.390625 
L 71.921875 54.6875 
L 88.921875 54.6875 
L 74.515625 0 
L 55.421875 0 
L 46.1875 37.59375 
L 37.015625 0 
L 17.921875 0 
z
" id="DejaVuSans-Bold-119"/>
      <path d="M 45.609375 46.6875 
L 45.609375 75.984375 
L 63.1875 75.984375 
L 63.1875 0 
L 45.609375 0 
L 45.609375 7.90625 
Q 42 3.078125 37.640625 0.828125 
Q 33.296875 -1.421875 27.59375 -1.421875 
Q 17.484375 -1.421875 10.984375 6.609375 
Q 4.5 14.65625 4.5 27.296875 
Q 4.5 39.9375 10.984375 47.96875 
Q 17.484375 56 27.59375 56 
Q 33.25 56 37.625 53.734375 
Q 42 51.46875 45.609375 46.6875 
z
M 34.078125 11.28125 
Q 39.703125 11.28125 42.65625 15.375 
Q 45.609375 19.484375 45.609375 27.296875 
Q 45.609375 35.109375 42.65625 39.203125 
Q 39.703125 43.3125 34.078125 43.3125 
Q 28.515625 43.3125 25.5625 39.203125 
Q 22.609375 35.109375 22.609375 27.296875 
Q 22.609375 19.484375 25.5625 15.375 
Q 28.515625 11.28125 34.078125 11.28125 
z
" id="DejaVuSans-Bold-100"/>
     </defs>
     <use xlink:href="#DejaVuSans-Bold-80"/>
     <use x="70.666016" xlink:href="#DejaVuSans-Bold-97"/>
     <use x="138.146484" xlink:href="#DejaVuSans-Bold-105"/>
     <use x="172.423828" xlink:href="#DejaVuSans-Bold-114"/>
     <use x="221.740234" xlink:href="#DejaVuSans-Bold-119"/>
     <use x="314.123047" xlink:href="#DejaVuSans-Bold-105"/>
     <use x="348.400391" xlink:href="#DejaVuSans-Bold-115"/>
     <use x="407.921875" xlink:href="#DejaVuSans-Bold-101"/>
     <use x="475.744141" xlink:href="#DejaVuSans-Bold-32"/>
     <use x="510.558594" xlink:href="#DejaVuSans-Bold-114"/>
     <use x="559.875" xlink:href="#DejaVuSans-Bold-101"/>
     <use x="627.697266" xlink:href="#DejaVuSans-Bold-108"/>
     <use x="661.974609" xlink:href="#DejaVuSans-Bold-97"/>
     <use x="729.455078" xlink:href="#DejaVuSans-Bold-116"/>
     <use x="777.257812" xlink:href="#DejaVuSans-Bold-105"/>
     <use x="811.535156" xlink:href="#DejaVuSans-Bold-118"/>
     <use x="876.720703" xlink:href="#DejaVuSans-Bold-101"/>
     <use x="944.542969" xlink:href="#DejaVuSans-Bold-32"/>
     <use x="979.357422" xlink:href="#DejaVuSans-Bold-100"/>
     <use x="1050.939453" xlink:href="#DejaVuSans-Bold-105"/>
     <use x="1085.216797" xlink:href="#DejaVuSans-Bold-102"/>
     <use x="1128.722656" xlink:href="#DejaVuSans-Bold-102"/>
     <use x="1172.228516" xlink:href="#DejaVuSans-Bold-101"/>
     <use x="1240.050781" xlink:href="#DejaVuSans-Bold-114"/>
     <use x="1289.367188" xlink:href="#DejaVuSans-Bold-101"/>
     <use x="1357.189453" xlink:href="#DejaVuSans-Bold-110"/>
     <use x="1428.380859" xlink:href="#DejaVuSans-Bold-99"/>
     <use x="1487.658203" xlink:href="#DejaVuSans-Bold-101"/>
     <use x="1555.480469" xlink:href="#DejaVuSans-Bold-32"/>
     <use x="1590.294922" xlink:href="#DejaVuSans-Bold-105"/>
     <use x="1624.572266" xlink:href="#DejaVuSans-Bold-110"/>
     <use x="1695.763672" xlink:href="#DejaVuSans-Bold-32"/>
     <use x="1730.578125" xlink:href="#DejaVuSans-Bold-84"/>
     <use x="1784.041016" xlink:href="#DejaVuSans-Bold-45"/>
     <use x="1825.544922" xlink:href="#DejaVuSans-Bold-110"/>
     <use x="1896.736328" xlink:href="#DejaVuSans-Bold-117"/>
     <use x="1967.927734" xlink:href="#DejaVuSans-Bold-109"/>
     <use x="2072.126953" xlink:href="#DejaVuSans-Bold-98"/>
     <use x="2143.708984" xlink:href="#DejaVuSans-Bold-101"/>
     <use x="2211.53125" xlink:href="#DejaVuSans-Bold-114"/>
     <use x="2260.847656" xlink:href="#DejaVuSans-Bold-32"/>
     <use x="2295.662109" xlink:href="#DejaVuSans-Bold-118"/>
     <use x="2360.847656" xlink:href="#DejaVuSans-Bold-101"/>
     <use x="2428.669922" xlink:href="#DejaVuSans-Bold-114"/>
     <use x="2477.986328" xlink:href="#DejaVuSans-Bold-115"/>
     <use x="2537.507812" xlink:href="#DejaVuSans-Bold-117"/>
     <use x="2608.699219" xlink:href="#DejaVuSans-Bold-115"/>
     <use x="2668.220703" xlink:href="#DejaVuSans-Bold-32"/>
     <use x="2703.035156" xlink:href="#DejaVuSans-Bold-115"/>
     <use x="2762.556641" xlink:href="#DejaVuSans-Bold-105"/>
     <use x="2796.833984" xlink:href="#DejaVuSans-Bold-109"/>
     <use x="2901.033203" xlink:href="#DejaVuSans-Bold-105"/>
     <use x="2935.310547" xlink:href="#DejaVuSans-Bold-108"/>
     <use x="2969.587891" xlink:href="#DejaVuSans-Bold-97"/>
     <use x="3037.068359" xlink:href="#DejaVuSans-Bold-114"/>
     <use x="3086.384766" xlink:href="#DejaVuSans-Bold-105"/>
     <use x="3120.662109" xlink:href="#DejaVuSans-Bold-116"/>
     <use x="3168.464844" xlink:href="#DejaVuSans-Bold-121"/>
    </g>
   </g>
  </g>
 </g>
 <defs>
  <clipPath id="pcbf4d644ab">
   <rect height="326.16" width="558" x="90" y="51.84"/>
  </clipPath>
 </defs>
</svg>
