<?xml version="1.0" encoding="utf-8" standalone="no"?>
<!DOCTYPE svg PUBLIC "-//W3C//DTD SVG 1.1//EN"
  "http://www.w3.org/Graphics/SVG/1.1/DTD/svg11.dtd">
<!-- Created with matplotlib (https://matplotlib.org/) -->
<svg height="432pt" version="1.1" viewBox="0 0 900 432" width="900pt" xmlns="http://www.w3.org/2000/svg" xmlns:xlink="http://www.w3.org/1999/xlink">
 <metadata>
  <rdf:RDF xmlns:cc="http://creativecommons.org/ns#" xmlns:dc="http://purl.org/dc/elements/1.1/" xmlns:rdf="http://www.w3.org/1999/02/22-rdf-syntax-ns#">
   <cc:Work>
    <dc:type rdf:resource="http://purl.org/dc/dcmitype/StillImage"/>
    <dc:date>2021-12-14T00:39:10.506749</dc:date>
    <dc:format>image/svg+xml</dc:format>
    <dc:creator>
     <cc:Agent>
      <dc:title>Matplotlib v3.3.2, https://matplotlib.org/</dc:title>
     </cc:Agent>
    </dc:creator>
   </cc:Work>
  </rdf:RDF>
 </metadata>
 <defs>
  <style type="text/css">*{stroke-linecap:butt;stroke-linejoin:round;}</style>
 </defs>
 <g id="figure_1">
  <g id="patch_1">
   <path d="M 0 432 
L 900 432 
L 900 0 
L 0 0 
z
" style="fill:#ffffff;"/>
  </g>
  <g id="axes_1">
   <g id="patch_2">
    <path d="M 112.5 378 
L 810 378 
L 810 51.84 
L 112.5 51.84 
z
" style="fill:#ffffff;"/>
   </g>
   <g id="matplotlib.axis_1">
    <g id="xtick_1">
     <g id="line2d_1">
      <path clip-path="url(#p3b1309881a)" d="M 112.5 378 
L 112.5 51.84 
" style="fill:none;stroke:#ffffff;stroke-linecap:round;"/>
     </g>
     <g id="text_1">
      <!-- 0 -->
      <g style="fill:#262626;" transform="translate(108.218078 398.523031)scale(0.154 -0.154)">
       <defs>
        <path d="M 4.15625 35.296875 
Q 4.15625 48 6.765625 55.734375 
Q 9.375 63.484375 14.515625 67.671875 
Q 19.671875 71.875 27.484375 71.875 
Q 33.25 71.875 37.59375 69.546875 
Q 41.9375 67.234375 44.765625 62.859375 
Q 47.609375 58.5 49.21875 52.21875 
Q 50.828125 45.953125 50.828125 35.296875 
Q 50.828125 22.703125 48.234375 14.96875 
Q 45.65625 7.234375 40.5 3 
Q 35.359375 -1.21875 27.484375 -1.21875 
Q 17.140625 -1.21875 11.234375 6.203125 
Q 4.15625 15.140625 4.15625 35.296875 
z
M 13.1875 35.296875 
Q 13.1875 17.671875 17.3125 11.828125 
Q 21.4375 6 27.484375 6 
Q 33.546875 6 37.671875 11.859375 
Q 41.796875 17.71875 41.796875 35.296875 
Q 41.796875 52.984375 37.671875 58.78125 
Q 33.546875 64.59375 27.390625 64.59375 
Q 21.34375 64.59375 17.71875 59.46875 
Q 13.1875 52.9375 13.1875 35.296875 
z
" id="ArialMT-48"/>
       </defs>
       <use xlink:href="#ArialMT-48"/>
      </g>
     </g>
    </g>
    <g id="xtick_2">
     <g id="line2d_2">
      <path clip-path="url(#p3b1309881a)" d="M 219.807692 378 
L 219.807692 51.84 
" style="fill:none;stroke:#ffffff;stroke-linecap:round;"/>
     </g>
     <g id="text_2">
      <!-- 100 -->
      <g style="fill:#262626;" transform="translate(206.961927 398.523031)scale(0.154 -0.154)">
       <defs>
        <path d="M 37.25 0 
L 28.46875 0 
L 28.46875 56 
Q 25.296875 52.984375 20.140625 49.953125 
Q 14.984375 46.921875 10.890625 45.40625 
L 10.890625 53.90625 
Q 18.265625 57.375 23.78125 62.296875 
Q 29.296875 67.234375 31.59375 71.875 
L 37.25 71.875 
z
" id="ArialMT-49"/>
       </defs>
       <use xlink:href="#ArialMT-49"/>
       <use x="55.615234" xlink:href="#ArialMT-48"/>
       <use x="111.230469" xlink:href="#ArialMT-48"/>
      </g>
     </g>
    </g>
    <g id="xtick_3">
     <g id="line2d_3">
      <path clip-path="url(#p3b1309881a)" d="M 327.115385 378 
L 327.115385 51.84 
" style="fill:none;stroke:#ffffff;stroke-linecap:round;"/>
     </g>
     <g id="text_3">
      <!-- 200 -->
      <g style="fill:#262626;" transform="translate(314.269619 398.523031)scale(0.154 -0.154)">
       <defs>
        <path d="M 50.34375 8.453125 
L 50.34375 0 
L 3.03125 0 
Q 2.9375 3.171875 4.046875 6.109375 
Q 5.859375 10.9375 9.828125 15.625 
Q 13.8125 20.3125 21.34375 26.46875 
Q 33.015625 36.03125 37.109375 41.625 
Q 41.21875 47.21875 41.21875 52.203125 
Q 41.21875 57.421875 37.46875 61 
Q 33.734375 64.59375 27.734375 64.59375 
Q 21.390625 64.59375 17.578125 60.78125 
Q 13.765625 56.984375 13.71875 50.25 
L 4.6875 51.171875 
Q 5.609375 61.28125 11.65625 66.578125 
Q 17.71875 71.875 27.9375 71.875 
Q 38.234375 71.875 44.234375 66.15625 
Q 50.25 60.453125 50.25 52 
Q 50.25 47.703125 48.484375 43.546875 
Q 46.734375 39.40625 42.65625 34.8125 
Q 38.578125 30.21875 29.109375 22.21875 
Q 21.1875 15.578125 18.9375 13.203125 
Q 16.703125 10.84375 15.234375 8.453125 
z
" id="ArialMT-50"/>
       </defs>
       <use xlink:href="#ArialMT-50"/>
       <use x="55.615234" xlink:href="#ArialMT-48"/>
       <use x="111.230469" xlink:href="#ArialMT-48"/>
      </g>
     </g>
    </g>
    <g id="xtick_4">
     <g id="line2d_4">
      <path clip-path="url(#p3b1309881a)" d="M 434.423077 378 
L 434.423077 51.84 
" style="fill:none;stroke:#ffffff;stroke-linecap:round;"/>
     </g>
     <g id="text_4">
      <!-- 300 -->
      <g style="fill:#262626;" transform="translate(421.577311 398.523031)scale(0.154 -0.154)">
       <defs>
        <path d="M 4.203125 18.890625 
L 12.984375 20.0625 
Q 14.5 12.59375 18.140625 9.296875 
Q 21.78125 6 27 6 
Q 33.203125 6 37.46875 10.296875 
Q 41.75 14.59375 41.75 20.953125 
Q 41.75 27 37.796875 30.921875 
Q 33.84375 34.859375 27.734375 34.859375 
Q 25.25 34.859375 21.53125 33.890625 
L 22.515625 41.609375 
Q 23.390625 41.5 23.921875 41.5 
Q 29.546875 41.5 34.03125 44.421875 
Q 38.53125 47.359375 38.53125 53.46875 
Q 38.53125 58.296875 35.25 61.46875 
Q 31.984375 64.65625 26.8125 64.65625 
Q 21.6875 64.65625 18.265625 61.421875 
Q 14.84375 58.203125 13.875 51.765625 
L 5.078125 53.328125 
Q 6.6875 62.15625 12.390625 67.015625 
Q 18.109375 71.875 26.609375 71.875 
Q 32.46875 71.875 37.390625 69.359375 
Q 42.328125 66.84375 44.9375 62.5 
Q 47.5625 58.15625 47.5625 53.265625 
Q 47.5625 48.640625 45.0625 44.828125 
Q 42.578125 41.015625 37.703125 38.765625 
Q 44.046875 37.3125 47.5625 32.6875 
Q 51.078125 28.078125 51.078125 21.140625 
Q 51.078125 11.765625 44.234375 5.25 
Q 37.40625 -1.265625 26.953125 -1.265625 
Q 17.53125 -1.265625 11.296875 4.34375 
Q 5.078125 9.96875 4.203125 18.890625 
z
" id="ArialMT-51"/>
       </defs>
       <use xlink:href="#ArialMT-51"/>
       <use x="55.615234" xlink:href="#ArialMT-48"/>
       <use x="111.230469" xlink:href="#ArialMT-48"/>
      </g>
     </g>
    </g>
    <g id="xtick_5">
     <g id="line2d_5">
      <path clip-path="url(#p3b1309881a)" d="M 541.730769 378 
L 541.730769 51.84 
" style="fill:none;stroke:#ffffff;stroke-linecap:round;"/>
     </g>
     <g id="text_5">
      <!-- 400 -->
      <g style="fill:#262626;" transform="translate(528.885004 398.523031)scale(0.154 -0.154)">
       <defs>
        <path d="M 32.328125 0 
L 32.328125 17.140625 
L 1.265625 17.140625 
L 1.265625 25.203125 
L 33.9375 71.578125 
L 41.109375 71.578125 
L 41.109375 25.203125 
L 50.78125 25.203125 
L 50.78125 17.140625 
L 41.109375 17.140625 
L 41.109375 0 
z
M 32.328125 25.203125 
L 32.328125 57.46875 
L 9.90625 25.203125 
z
" id="ArialMT-52"/>
       </defs>
       <use xlink:href="#ArialMT-52"/>
       <use x="55.615234" xlink:href="#ArialMT-48"/>
       <use x="111.230469" xlink:href="#ArialMT-48"/>
      </g>
     </g>
    </g>
    <g id="xtick_6">
     <g id="line2d_6">
      <path clip-path="url(#p3b1309881a)" d="M 649.038462 378 
L 649.038462 51.84 
" style="fill:none;stroke:#ffffff;stroke-linecap:round;"/>
     </g>
     <g id="text_6">
      <!-- 500 -->
      <g style="fill:#262626;" transform="translate(636.192696 398.523031)scale(0.154 -0.154)">
       <defs>
        <path d="M 4.15625 18.75 
L 13.375 19.53125 
Q 14.40625 12.796875 18.140625 9.390625 
Q 21.875 6 27.15625 6 
Q 33.5 6 37.890625 10.78125 
Q 42.28125 15.578125 42.28125 23.484375 
Q 42.28125 31 38.0625 35.34375 
Q 33.84375 39.703125 27 39.703125 
Q 22.75 39.703125 19.328125 37.765625 
Q 15.921875 35.84375 13.96875 32.765625 
L 5.71875 33.84375 
L 12.640625 70.609375 
L 48.25 70.609375 
L 48.25 62.203125 
L 19.671875 62.203125 
L 15.828125 42.96875 
Q 22.265625 47.46875 29.34375 47.46875 
Q 38.71875 47.46875 45.15625 40.96875 
Q 51.609375 34.46875 51.609375 24.265625 
Q 51.609375 14.546875 45.953125 7.46875 
Q 39.0625 -1.21875 27.15625 -1.21875 
Q 17.390625 -1.21875 11.203125 4.25 
Q 5.03125 9.71875 4.15625 18.75 
z
" id="ArialMT-53"/>
       </defs>
       <use xlink:href="#ArialMT-53"/>
       <use x="55.615234" xlink:href="#ArialMT-48"/>
       <use x="111.230469" xlink:href="#ArialMT-48"/>
      </g>
     </g>
    </g>
    <g id="xtick_7">
     <g id="line2d_7">
      <path clip-path="url(#p3b1309881a)" d="M 756.346154 378 
L 756.346154 51.84 
" style="fill:none;stroke:#ffffff;stroke-linecap:round;"/>
     </g>
     <g id="text_7">
      <!-- 600 -->
      <g style="fill:#262626;" transform="translate(743.500388 398.523031)scale(0.154 -0.154)">
       <defs>
        <path d="M 49.75 54.046875 
L 41.015625 53.375 
Q 39.84375 58.546875 37.703125 60.890625 
Q 34.125 64.65625 28.90625 64.65625 
Q 24.703125 64.65625 21.53125 62.3125 
Q 17.390625 59.28125 14.984375 53.46875 
Q 12.59375 47.65625 12.5 36.921875 
Q 15.671875 41.75 20.265625 44.09375 
Q 24.859375 46.4375 29.890625 46.4375 
Q 38.671875 46.4375 44.84375 39.96875 
Q 51.03125 33.5 51.03125 23.25 
Q 51.03125 16.5 48.125 10.71875 
Q 45.21875 4.9375 40.140625 1.859375 
Q 35.0625 -1.21875 28.609375 -1.21875 
Q 17.625 -1.21875 10.6875 6.859375 
Q 3.765625 14.9375 3.765625 33.5 
Q 3.765625 54.25 11.421875 63.671875 
Q 18.109375 71.875 29.4375 71.875 
Q 37.890625 71.875 43.28125 67.140625 
Q 48.6875 62.40625 49.75 54.046875 
z
M 13.875 23.1875 
Q 13.875 18.65625 15.796875 14.5 
Q 17.71875 10.359375 21.1875 8.171875 
Q 24.65625 6 28.46875 6 
Q 34.03125 6 38.03125 10.484375 
Q 42.046875 14.984375 42.046875 22.703125 
Q 42.046875 30.125 38.078125 34.390625 
Q 34.125 38.671875 28.125 38.671875 
Q 22.171875 38.671875 18.015625 34.390625 
Q 13.875 30.125 13.875 23.1875 
z
" id="ArialMT-54"/>
       </defs>
       <use xlink:href="#ArialMT-54"/>
       <use x="55.615234" xlink:href="#ArialMT-48"/>
       <use x="111.230469" xlink:href="#ArialMT-48"/>
      </g>
     </g>
    </g>
    <g id="text_8">
     <!-- Number of Data Points in training set (n) -->
     <g style="fill:#262626;" transform="translate(300.688594 418.687219)scale(0.18 -0.18)">
      <defs>
       <path d="M 7.625 0 
L 7.625 71.578125 
L 17.328125 71.578125 
L 54.9375 15.375 
L 54.9375 71.578125 
L 64.015625 71.578125 
L 64.015625 0 
L 54.296875 0 
L 16.703125 56.25 
L 16.703125 0 
z
" id="ArialMT-78"/>
       <path d="M 40.578125 0 
L 40.578125 7.625 
Q 34.515625 -1.171875 24.125 -1.171875 
Q 19.53125 -1.171875 15.546875 0.578125 
Q 11.578125 2.34375 9.640625 5 
Q 7.71875 7.671875 6.9375 11.53125 
Q 6.390625 14.109375 6.390625 19.734375 
L 6.390625 51.859375 
L 15.1875 51.859375 
L 15.1875 23.09375 
Q 15.1875 16.21875 15.71875 13.8125 
Q 16.546875 10.359375 19.234375 8.375 
Q 21.921875 6.390625 25.875 6.390625 
Q 29.828125 6.390625 33.296875 8.421875 
Q 36.765625 10.453125 38.203125 13.9375 
Q 39.65625 17.4375 39.65625 24.078125 
L 39.65625 51.859375 
L 48.4375 51.859375 
L 48.4375 0 
z
" id="ArialMT-117"/>
       <path d="M 6.59375 0 
L 6.59375 51.859375 
L 14.453125 51.859375 
L 14.453125 44.578125 
Q 16.890625 48.390625 20.9375 50.703125 
Q 25 53.03125 30.171875 53.03125 
Q 35.9375 53.03125 39.625 50.640625 
Q 43.3125 48.25 44.828125 43.953125 
Q 50.984375 53.03125 60.84375 53.03125 
Q 68.5625 53.03125 72.703125 48.75 
Q 76.859375 44.484375 76.859375 35.59375 
L 76.859375 0 
L 68.109375 0 
L 68.109375 32.671875 
Q 68.109375 37.9375 67.25 40.25 
Q 66.40625 42.578125 64.15625 43.984375 
Q 61.921875 45.40625 58.890625 45.40625 
Q 53.421875 45.40625 49.796875 41.765625 
Q 46.1875 38.140625 46.1875 30.125 
L 46.1875 0 
L 37.40625 0 
L 37.40625 33.6875 
Q 37.40625 39.546875 35.25 42.46875 
Q 33.109375 45.40625 28.21875 45.40625 
Q 24.515625 45.40625 21.359375 43.453125 
Q 18.21875 41.5 16.796875 37.734375 
Q 15.375 33.984375 15.375 26.90625 
L 15.375 0 
z
" id="ArialMT-109"/>
       <path d="M 14.703125 0 
L 6.546875 0 
L 6.546875 71.578125 
L 15.328125 71.578125 
L 15.328125 46.046875 
Q 20.90625 53.03125 29.546875 53.03125 
Q 34.328125 53.03125 38.59375 51.09375 
Q 42.875 49.171875 45.625 45.671875 
Q 48.390625 42.1875 49.953125 37.25 
Q 51.515625 32.328125 51.515625 26.703125 
Q 51.515625 13.375 44.921875 6.09375 
Q 38.328125 -1.171875 29.109375 -1.171875 
Q 19.921875 -1.171875 14.703125 6.5 
z
M 14.59375 26.3125 
Q 14.59375 17 17.140625 12.84375 
Q 21.296875 6.0625 28.375 6.0625 
Q 34.125 6.0625 38.328125 11.0625 
Q 42.53125 16.0625 42.53125 25.984375 
Q 42.53125 36.140625 38.5 40.96875 
Q 34.46875 45.796875 28.765625 45.796875 
Q 23 45.796875 18.796875 40.796875 
Q 14.59375 35.796875 14.59375 26.3125 
z
" id="ArialMT-98"/>
       <path d="M 42.09375 16.703125 
L 51.171875 15.578125 
Q 49.03125 7.625 43.21875 3.21875 
Q 37.40625 -1.171875 28.375 -1.171875 
Q 17 -1.171875 10.328125 5.828125 
Q 3.65625 12.84375 3.65625 25.484375 
Q 3.65625 38.578125 10.390625 45.796875 
Q 17.140625 53.03125 27.875 53.03125 
Q 38.28125 53.03125 44.875 45.953125 
Q 51.46875 38.875 51.46875 26.03125 
Q 51.46875 25.25 51.421875 23.6875 
L 12.75 23.6875 
Q 13.234375 15.140625 17.578125 10.59375 
Q 21.921875 6.0625 28.421875 6.0625 
Q 33.25 6.0625 36.671875 8.59375 
Q 40.09375 11.140625 42.09375 16.703125 
z
M 13.234375 30.90625 
L 42.1875 30.90625 
Q 41.609375 37.453125 38.875 40.71875 
Q 34.671875 45.796875 27.984375 45.796875 
Q 21.921875 45.796875 17.796875 41.75 
Q 13.671875 37.703125 13.234375 30.90625 
z
" id="ArialMT-101"/>
       <path d="M 6.5 0 
L 6.5 51.859375 
L 14.40625 51.859375 
L 14.40625 44 
Q 17.4375 49.515625 20 51.265625 
Q 22.5625 53.03125 25.640625 53.03125 
Q 30.078125 53.03125 34.671875 50.203125 
L 31.640625 42.046875 
Q 28.421875 43.953125 25.203125 43.953125 
Q 22.3125 43.953125 20.015625 42.21875 
Q 17.71875 40.484375 16.75 37.40625 
Q 15.28125 32.71875 15.28125 27.15625 
L 15.28125 0 
z
" id="ArialMT-114"/>
       <path id="ArialMT-32"/>
       <path d="M 3.328125 25.921875 
Q 3.328125 40.328125 11.328125 47.265625 
Q 18.015625 53.03125 27.640625 53.03125 
Q 38.328125 53.03125 45.109375 46.015625 
Q 51.90625 39.015625 51.90625 26.65625 
Q 51.90625 16.65625 48.90625 10.90625 
Q 45.90625 5.171875 40.15625 2 
Q 34.421875 -1.171875 27.640625 -1.171875 
Q 16.75 -1.171875 10.03125 5.8125 
Q 3.328125 12.796875 3.328125 25.921875 
z
M 12.359375 25.921875 
Q 12.359375 15.96875 16.703125 11.015625 
Q 21.046875 6.0625 27.640625 6.0625 
Q 34.1875 6.0625 38.53125 11.03125 
Q 42.875 16.015625 42.875 26.21875 
Q 42.875 35.84375 38.5 40.796875 
Q 34.125 45.75 27.640625 45.75 
Q 21.046875 45.75 16.703125 40.8125 
Q 12.359375 35.890625 12.359375 25.921875 
z
" id="ArialMT-111"/>
       <path d="M 8.6875 0 
L 8.6875 45.015625 
L 0.921875 45.015625 
L 0.921875 51.859375 
L 8.6875 51.859375 
L 8.6875 57.375 
Q 8.6875 62.59375 9.625 65.140625 
Q 10.890625 68.5625 14.078125 70.671875 
Q 17.28125 72.796875 23.046875 72.796875 
Q 26.765625 72.796875 31.25 71.921875 
L 29.9375 64.265625 
Q 27.203125 64.75 24.75 64.75 
Q 20.75 64.75 19.09375 63.03125 
Q 17.4375 61.328125 17.4375 56.640625 
L 17.4375 51.859375 
L 27.546875 51.859375 
L 27.546875 45.015625 
L 17.4375 45.015625 
L 17.4375 0 
z
" id="ArialMT-102"/>
       <path d="M 7.71875 0 
L 7.71875 71.578125 
L 32.375 71.578125 
Q 40.71875 71.578125 45.125 70.5625 
Q 51.265625 69.140625 55.609375 65.4375 
Q 61.28125 60.640625 64.078125 53.1875 
Q 66.890625 45.75 66.890625 36.1875 
Q 66.890625 28.03125 64.984375 21.734375 
Q 63.09375 15.4375 60.109375 11.296875 
Q 57.125 7.171875 53.578125 4.796875 
Q 50.046875 2.4375 45.046875 1.21875 
Q 40.046875 0 33.546875 0 
z
M 17.1875 8.453125 
L 32.46875 8.453125 
Q 39.546875 8.453125 43.578125 9.765625 
Q 47.609375 11.078125 50 13.484375 
Q 53.375 16.84375 55.25 22.53125 
Q 57.125 28.21875 57.125 36.328125 
Q 57.125 47.5625 53.4375 53.59375 
Q 49.75 59.625 44.484375 61.671875 
Q 40.671875 63.140625 32.234375 63.140625 
L 17.1875 63.140625 
z
" id="ArialMT-68"/>
       <path d="M 40.4375 6.390625 
Q 35.546875 2.25 31.03125 0.53125 
Q 26.515625 -1.171875 21.34375 -1.171875 
Q 12.796875 -1.171875 8.203125 3 
Q 3.609375 7.171875 3.609375 13.671875 
Q 3.609375 17.484375 5.34375 20.625 
Q 7.078125 23.78125 9.890625 25.6875 
Q 12.703125 27.59375 16.21875 28.5625 
Q 18.796875 29.25 24.03125 29.890625 
Q 34.671875 31.15625 39.703125 32.90625 
Q 39.75 34.71875 39.75 35.203125 
Q 39.75 40.578125 37.25 42.78125 
Q 33.890625 45.75 27.25 45.75 
Q 21.046875 45.75 18.09375 43.578125 
Q 15.140625 41.40625 13.71875 35.890625 
L 5.125 37.0625 
Q 6.296875 42.578125 8.984375 45.96875 
Q 11.671875 49.359375 16.75 51.1875 
Q 21.828125 53.03125 28.515625 53.03125 
Q 35.15625 53.03125 39.296875 51.46875 
Q 43.453125 49.90625 45.40625 47.53125 
Q 47.359375 45.171875 48.140625 41.546875 
Q 48.578125 39.3125 48.578125 33.453125 
L 48.578125 21.734375 
Q 48.578125 9.46875 49.140625 6.21875 
Q 49.703125 2.984375 51.375 0 
L 42.1875 0 
Q 40.828125 2.734375 40.4375 6.390625 
z
M 39.703125 26.03125 
Q 34.90625 24.078125 25.34375 22.703125 
Q 19.921875 21.921875 17.671875 20.9375 
Q 15.4375 19.96875 14.203125 18.09375 
Q 12.984375 16.21875 12.984375 13.921875 
Q 12.984375 10.40625 15.640625 8.0625 
Q 18.3125 5.71875 23.4375 5.71875 
Q 28.515625 5.71875 32.46875 7.9375 
Q 36.421875 10.15625 38.28125 14.015625 
Q 39.703125 17 39.703125 22.796875 
z
" id="ArialMT-97"/>
       <path d="M 25.78125 7.859375 
L 27.046875 0.09375 
Q 23.34375 -0.6875 20.40625 -0.6875 
Q 15.625 -0.6875 12.984375 0.828125 
Q 10.359375 2.34375 9.28125 4.8125 
Q 8.203125 7.28125 8.203125 15.1875 
L 8.203125 45.015625 
L 1.765625 45.015625 
L 1.765625 51.859375 
L 8.203125 51.859375 
L 8.203125 64.703125 
L 16.9375 69.96875 
L 16.9375 51.859375 
L 25.78125 51.859375 
L 25.78125 45.015625 
L 16.9375 45.015625 
L 16.9375 14.703125 
Q 16.9375 10.9375 17.40625 9.859375 
Q 17.875 8.796875 18.921875 8.15625 
Q 19.96875 7.515625 21.921875 7.515625 
Q 23.390625 7.515625 25.78125 7.859375 
z
" id="ArialMT-116"/>
       <path d="M 7.71875 0 
L 7.71875 71.578125 
L 34.71875 71.578125 
Q 41.84375 71.578125 45.609375 70.90625 
Q 50.875 70.015625 54.4375 67.546875 
Q 58.015625 65.09375 60.1875 60.640625 
Q 62.359375 56.203125 62.359375 50.875 
Q 62.359375 41.75 56.546875 35.421875 
Q 50.734375 29.109375 35.546875 29.109375 
L 17.1875 29.109375 
L 17.1875 0 
z
M 17.1875 37.546875 
L 35.6875 37.546875 
Q 44.875 37.546875 48.734375 40.96875 
Q 52.59375 44.390625 52.59375 50.59375 
Q 52.59375 55.078125 50.3125 58.265625 
Q 48.046875 61.46875 44.34375 62.5 
Q 41.9375 63.140625 35.5 63.140625 
L 17.1875 63.140625 
z
" id="ArialMT-80"/>
       <path d="M 6.640625 61.46875 
L 6.640625 71.578125 
L 15.4375 71.578125 
L 15.4375 61.46875 
z
M 6.640625 0 
L 6.640625 51.859375 
L 15.4375 51.859375 
L 15.4375 0 
z
" id="ArialMT-105"/>
       <path d="M 6.59375 0 
L 6.59375 51.859375 
L 14.5 51.859375 
L 14.5 44.484375 
Q 20.21875 53.03125 31 53.03125 
Q 35.6875 53.03125 39.625 51.34375 
Q 43.5625 49.65625 45.515625 46.921875 
Q 47.46875 44.1875 48.25 40.4375 
Q 48.734375 37.984375 48.734375 31.890625 
L 48.734375 0 
L 39.9375 0 
L 39.9375 31.546875 
Q 39.9375 36.921875 38.90625 39.578125 
Q 37.890625 42.234375 35.28125 43.8125 
Q 32.671875 45.40625 29.15625 45.40625 
Q 23.53125 45.40625 19.453125 41.84375 
Q 15.375 38.28125 15.375 28.328125 
L 15.375 0 
z
" id="ArialMT-110"/>
       <path d="M 3.078125 15.484375 
L 11.765625 16.84375 
Q 12.5 11.625 15.84375 8.84375 
Q 19.1875 6.0625 25.203125 6.0625 
Q 31.25 6.0625 34.171875 8.515625 
Q 37.109375 10.984375 37.109375 14.3125 
Q 37.109375 17.28125 34.515625 19 
Q 32.71875 20.171875 25.53125 21.96875 
Q 15.875 24.421875 12.140625 26.203125 
Q 8.40625 27.984375 6.46875 31.125 
Q 4.546875 34.28125 4.546875 38.09375 
Q 4.546875 41.546875 6.125 44.5 
Q 7.71875 47.46875 10.453125 49.421875 
Q 12.5 50.921875 16.03125 51.96875 
Q 19.578125 53.03125 23.640625 53.03125 
Q 29.734375 53.03125 34.34375 51.265625 
Q 38.96875 49.515625 41.15625 46.5 
Q 43.359375 43.5 44.1875 38.484375 
L 35.59375 37.3125 
Q 35.015625 41.3125 32.203125 43.546875 
Q 29.390625 45.796875 24.265625 45.796875 
Q 18.21875 45.796875 15.625 43.796875 
Q 13.03125 41.796875 13.03125 39.109375 
Q 13.03125 37.40625 14.109375 36.03125 
Q 15.1875 34.625 17.484375 33.6875 
Q 18.796875 33.203125 25.25 31.453125 
Q 34.578125 28.953125 38.25 27.359375 
Q 41.9375 25.78125 44.03125 22.75 
Q 46.140625 19.734375 46.140625 15.234375 
Q 46.140625 10.84375 43.578125 6.953125 
Q 41.015625 3.078125 36.171875 0.953125 
Q 31.34375 -1.171875 25.25 -1.171875 
Q 15.140625 -1.171875 9.84375 3.03125 
Q 4.546875 7.234375 3.078125 15.484375 
z
" id="ArialMT-115"/>
       <path d="M 4.984375 -4.296875 
L 13.53125 -5.5625 
Q 14.0625 -9.515625 16.5 -11.328125 
Q 19.78125 -13.765625 25.4375 -13.765625 
Q 31.546875 -13.765625 34.859375 -11.328125 
Q 38.1875 -8.890625 39.359375 -4.5 
Q 40.046875 -1.8125 39.984375 6.78125 
Q 34.234375 0 25.640625 0 
Q 14.9375 0 9.078125 7.71875 
Q 3.21875 15.4375 3.21875 26.21875 
Q 3.21875 33.640625 5.90625 39.90625 
Q 8.59375 46.1875 13.6875 49.609375 
Q 18.796875 53.03125 25.6875 53.03125 
Q 34.859375 53.03125 40.828125 45.609375 
L 40.828125 51.859375 
L 48.921875 51.859375 
L 48.921875 7.03125 
Q 48.921875 -5.078125 46.453125 -10.125 
Q 44 -15.1875 38.640625 -18.109375 
Q 33.296875 -21.046875 25.484375 -21.046875 
Q 16.21875 -21.046875 10.5 -16.875 
Q 4.78125 -12.703125 4.984375 -4.296875 
z
M 12.25 26.859375 
Q 12.25 16.65625 16.296875 11.96875 
Q 20.359375 7.28125 26.46875 7.28125 
Q 32.515625 7.28125 36.609375 11.9375 
Q 40.71875 16.609375 40.71875 26.5625 
Q 40.71875 36.078125 36.5 40.90625 
Q 32.28125 45.75 26.3125 45.75 
Q 20.453125 45.75 16.34375 40.984375 
Q 12.25 36.234375 12.25 26.859375 
z
" id="ArialMT-103"/>
       <path d="M 23.390625 -21.046875 
Q 16.109375 -11.859375 11.078125 0.4375 
Q 6.0625 12.75 6.0625 25.921875 
Q 6.0625 37.546875 9.8125 48.1875 
Q 14.203125 60.546875 23.390625 72.796875 
L 29.6875 72.796875 
Q 23.78125 62.640625 21.875 58.296875 
Q 18.890625 51.5625 17.1875 44.234375 
Q 15.09375 35.109375 15.09375 25.875 
Q 15.09375 2.390625 29.6875 -21.046875 
z
" id="ArialMT-40"/>
       <path d="M 12.359375 -21.046875 
L 6.0625 -21.046875 
Q 20.65625 2.390625 20.65625 25.875 
Q 20.65625 35.0625 18.5625 44.09375 
Q 16.890625 51.421875 13.921875 58.15625 
Q 12.015625 62.546875 6.0625 72.796875 
L 12.359375 72.796875 
Q 21.53125 60.546875 25.921875 48.1875 
Q 29.6875 37.546875 29.6875 25.921875 
Q 29.6875 12.75 24.625 0.4375 
Q 19.578125 -11.859375 12.359375 -21.046875 
z
" id="ArialMT-41"/>
      </defs>
      <use xlink:href="#ArialMT-78"/>
      <use x="72.216797" xlink:href="#ArialMT-117"/>
      <use x="127.832031" xlink:href="#ArialMT-109"/>
      <use x="211.132812" xlink:href="#ArialMT-98"/>
      <use x="266.748047" xlink:href="#ArialMT-101"/>
      <use x="322.363281" xlink:href="#ArialMT-114"/>
      <use x="355.664062" xlink:href="#ArialMT-32"/>
      <use x="383.447266" xlink:href="#ArialMT-111"/>
      <use x="439.0625" xlink:href="#ArialMT-102"/>
      <use x="466.845703" xlink:href="#ArialMT-32"/>
      <use x="494.628906" xlink:href="#ArialMT-68"/>
      <use x="566.845703" xlink:href="#ArialMT-97"/>
      <use x="622.460938" xlink:href="#ArialMT-116"/>
      <use x="650.244141" xlink:href="#ArialMT-97"/>
      <use x="705.859375" xlink:href="#ArialMT-32"/>
      <use x="733.642578" xlink:href="#ArialMT-80"/>
      <use x="800.341797" xlink:href="#ArialMT-111"/>
      <use x="855.957031" xlink:href="#ArialMT-105"/>
      <use x="878.173828" xlink:href="#ArialMT-110"/>
      <use x="933.789062" xlink:href="#ArialMT-116"/>
      <use x="961.572266" xlink:href="#ArialMT-115"/>
      <use x="1011.572266" xlink:href="#ArialMT-32"/>
      <use x="1039.355469" xlink:href="#ArialMT-105"/>
      <use x="1061.572266" xlink:href="#ArialMT-110"/>
      <use x="1117.1875" xlink:href="#ArialMT-32"/>
      <use x="1144.970703" xlink:href="#ArialMT-116"/>
      <use x="1172.753906" xlink:href="#ArialMT-114"/>
      <use x="1206.054688" xlink:href="#ArialMT-97"/>
      <use x="1261.669922" xlink:href="#ArialMT-105"/>
      <use x="1283.886719" xlink:href="#ArialMT-110"/>
      <use x="1339.501953" xlink:href="#ArialMT-105"/>
      <use x="1361.71875" xlink:href="#ArialMT-110"/>
      <use x="1417.333984" xlink:href="#ArialMT-103"/>
      <use x="1472.949219" xlink:href="#ArialMT-32"/>
      <use x="1500.732422" xlink:href="#ArialMT-115"/>
      <use x="1550.732422" xlink:href="#ArialMT-101"/>
      <use x="1606.347656" xlink:href="#ArialMT-116"/>
      <use x="1634.130859" xlink:href="#ArialMT-32"/>
      <use x="1661.914062" xlink:href="#ArialMT-40"/>
      <use x="1695.214844" xlink:href="#ArialMT-110"/>
      <use x="1750.830078" xlink:href="#ArialMT-41"/>
     </g>
    </g>
   </g>
   <g id="matplotlib.axis_2">
    <g id="ytick_1">
     <g id="line2d_8">
      <path clip-path="url(#p3b1309881a)" d="M 112.5 378 
L 810 378 
" style="fill:none;stroke:#ffffff;stroke-linecap:round;"/>
     </g>
     <g id="text_9">
      <!-- 30% -->
      <g style="fill:#262626;" transform="translate(72.178344 383.511516)scale(0.154 -0.154)">
       <defs>
        <path d="M 5.8125 54.390625 
Q 5.8125 62.0625 9.671875 67.421875 
Q 13.53125 72.796875 20.84375 72.796875 
Q 27.59375 72.796875 32 67.984375 
Q 36.421875 63.1875 36.421875 53.859375 
Q 36.421875 44.78125 31.953125 39.875 
Q 27.484375 34.96875 20.953125 34.96875 
Q 14.453125 34.96875 10.125 39.796875 
Q 5.8125 44.625 5.8125 54.390625 
z
M 21.09375 66.75 
Q 17.828125 66.75 15.65625 63.90625 
Q 13.484375 61.078125 13.484375 53.515625 
Q 13.484375 46.625 15.671875 43.8125 
Q 17.875 41.015625 21.09375 41.015625 
Q 24.421875 41.015625 26.59375 43.84375 
Q 28.765625 46.6875 28.765625 54.203125 
Q 28.765625 61.140625 26.5625 63.9375 
Q 24.359375 66.75 21.09375 66.75 
z
M 21.140625 -2.640625 
L 60.296875 72.796875 
L 67.4375 72.796875 
L 28.421875 -2.640625 
z
M 52.09375 16.796875 
Q 52.09375 24.515625 55.953125 29.859375 
Q 59.8125 35.203125 67.1875 35.203125 
Q 73.921875 35.203125 78.34375 30.390625 
Q 82.765625 25.59375 82.765625 16.265625 
Q 82.765625 7.171875 78.296875 2.265625 
Q 73.828125 -2.640625 67.234375 -2.640625 
Q 60.75 -2.640625 56.421875 2.21875 
Q 52.09375 7.078125 52.09375 16.796875 
z
M 67.4375 29.15625 
Q 64.109375 29.15625 61.9375 26.3125 
Q 59.765625 23.484375 59.765625 15.921875 
Q 59.765625 9.078125 61.953125 6.25 
Q 64.15625 3.421875 67.390625 3.421875 
Q 70.75 3.421875 72.921875 6.25 
Q 75.09375 9.078125 75.09375 16.609375 
Q 75.09375 23.53125 72.890625 26.34375 
Q 70.703125 29.15625 67.4375 29.15625 
z
" id="ArialMT-37"/>
       </defs>
       <use xlink:href="#ArialMT-51"/>
       <use x="55.615234" xlink:href="#ArialMT-48"/>
       <use x="111.230469" xlink:href="#ArialMT-37"/>
      </g>
     </g>
    </g>
    <g id="ytick_2">
     <g id="line2d_9">
      <path clip-path="url(#p3b1309881a)" d="M 112.5 323.64 
L 810 323.64 
" style="fill:none;stroke:#ffffff;stroke-linecap:round;"/>
     </g>
     <g id="text_10">
      <!-- 40% -->
      <g style="fill:#262626;" transform="translate(72.178344 329.151516)scale(0.154 -0.154)">
       <use xlink:href="#ArialMT-52"/>
       <use x="55.615234" xlink:href="#ArialMT-48"/>
       <use x="111.230469" xlink:href="#ArialMT-37"/>
      </g>
     </g>
    </g>
    <g id="ytick_3">
     <g id="line2d_10">
      <path clip-path="url(#p3b1309881a)" d="M 112.5 269.28 
L 810 269.28 
" style="fill:none;stroke:#ffffff;stroke-linecap:round;"/>
     </g>
     <g id="text_11">
      <!-- 50% -->
      <g style="fill:#262626;" transform="translate(72.178344 274.791516)scale(0.154 -0.154)">
       <use xlink:href="#ArialMT-53"/>
       <use x="55.615234" xlink:href="#ArialMT-48"/>
       <use x="111.230469" xlink:href="#ArialMT-37"/>
      </g>
     </g>
    </g>
    <g id="ytick_4">
     <g id="line2d_11">
      <path clip-path="url(#p3b1309881a)" d="M 112.5 214.92 
L 810 214.92 
" style="fill:none;stroke:#ffffff;stroke-linecap:round;"/>
     </g>
     <g id="text_12">
      <!-- 60% -->
      <g style="fill:#262626;" transform="translate(72.178344 220.431516)scale(0.154 -0.154)">
       <use xlink:href="#ArialMT-54"/>
       <use x="55.615234" xlink:href="#ArialMT-48"/>
       <use x="111.230469" xlink:href="#ArialMT-37"/>
      </g>
     </g>
    </g>
    <g id="ytick_5">
     <g id="line2d_12">
      <path clip-path="url(#p3b1309881a)" d="M 112.5 160.56 
L 810 160.56 
" style="fill:none;stroke:#ffffff;stroke-linecap:round;"/>
     </g>
     <g id="text_13">
      <!-- 70% -->
      <g style="fill:#262626;" transform="translate(72.178344 166.071516)scale(0.154 -0.154)">
       <defs>
        <path d="M 4.734375 62.203125 
L 4.734375 70.65625 
L 51.078125 70.65625 
L 51.078125 63.8125 
Q 44.234375 56.546875 37.515625 44.484375 
Q 30.8125 32.421875 27.15625 19.671875 
Q 24.515625 10.6875 23.78125 0 
L 14.75 0 
Q 14.890625 8.453125 18.0625 20.40625 
Q 21.234375 32.375 27.171875 43.484375 
Q 33.109375 54.59375 39.796875 62.203125 
z
" id="ArialMT-55"/>
       </defs>
       <use xlink:href="#ArialMT-55"/>
       <use x="55.615234" xlink:href="#ArialMT-48"/>
       <use x="111.230469" xlink:href="#ArialMT-37"/>
      </g>
     </g>
    </g>
    <g id="ytick_6">
     <g id="line2d_13">
      <path clip-path="url(#p3b1309881a)" d="M 112.5 106.2 
L 810 106.2 
" style="fill:none;stroke:#ffffff;stroke-linecap:round;"/>
     </g>
     <g id="text_14">
      <!-- 80% -->
      <g style="fill:#262626;" transform="translate(72.178344 111.711516)scale(0.154 -0.154)">
       <defs>
        <path d="M 17.671875 38.8125 
Q 12.203125 40.828125 9.5625 44.53125 
Q 6.9375 48.25 6.9375 53.421875 
Q 6.9375 61.234375 12.546875 66.546875 
Q 18.171875 71.875 27.484375 71.875 
Q 36.859375 71.875 42.578125 66.421875 
Q 48.296875 60.984375 48.296875 53.171875 
Q 48.296875 48.1875 45.671875 44.5 
Q 43.0625 40.828125 37.75 38.8125 
Q 44.34375 36.671875 47.78125 31.875 
Q 51.21875 27.09375 51.21875 20.453125 
Q 51.21875 11.28125 44.71875 5.03125 
Q 38.234375 -1.21875 27.640625 -1.21875 
Q 17.046875 -1.21875 10.546875 5.046875 
Q 4.046875 11.328125 4.046875 20.703125 
Q 4.046875 27.6875 7.59375 32.390625 
Q 11.140625 37.109375 17.671875 38.8125 
z
M 15.921875 53.71875 
Q 15.921875 48.640625 19.1875 45.40625 
Q 22.46875 42.1875 27.6875 42.1875 
Q 32.765625 42.1875 36.015625 45.375 
Q 39.265625 48.578125 39.265625 53.21875 
Q 39.265625 58.0625 35.90625 61.359375 
Q 32.5625 64.65625 27.59375 64.65625 
Q 22.5625 64.65625 19.234375 61.421875 
Q 15.921875 58.203125 15.921875 53.71875 
z
M 13.09375 20.65625 
Q 13.09375 16.890625 14.875 13.375 
Q 16.65625 9.859375 20.171875 7.921875 
Q 23.6875 6 27.734375 6 
Q 34.03125 6 38.125 10.046875 
Q 42.234375 14.109375 42.234375 20.359375 
Q 42.234375 26.703125 38.015625 30.859375 
Q 33.796875 35.015625 27.4375 35.015625 
Q 21.234375 35.015625 17.15625 30.90625 
Q 13.09375 26.8125 13.09375 20.65625 
z
" id="ArialMT-56"/>
       </defs>
       <use xlink:href="#ArialMT-56"/>
       <use x="55.615234" xlink:href="#ArialMT-48"/>
       <use x="111.230469" xlink:href="#ArialMT-37"/>
      </g>
     </g>
    </g>
    <g id="ytick_7">
     <g id="line2d_14">
      <path clip-path="url(#p3b1309881a)" d="M 112.5 51.84 
L 810 51.84 
" style="fill:none;stroke:#ffffff;stroke-linecap:round;"/>
     </g>
     <g id="text_15">
      <!-- 90% -->
      <g style="fill:#262626;" transform="translate(72.178344 57.351516)scale(0.154 -0.154)">
       <defs>
        <path d="M 5.46875 16.546875 
L 13.921875 17.328125 
Q 14.984375 11.375 18.015625 8.6875 
Q 21.046875 6 25.78125 6 
Q 29.828125 6 32.875 7.859375 
Q 35.9375 9.71875 37.890625 12.8125 
Q 39.84375 15.921875 41.15625 21.1875 
Q 42.484375 26.46875 42.484375 31.9375 
Q 42.484375 32.515625 42.4375 33.6875 
Q 39.796875 29.5 35.234375 26.875 
Q 30.671875 24.265625 25.34375 24.265625 
Q 16.453125 24.265625 10.296875 30.703125 
Q 4.15625 37.15625 4.15625 47.703125 
Q 4.15625 58.59375 10.578125 65.234375 
Q 17 71.875 26.65625 71.875 
Q 33.640625 71.875 39.421875 68.109375 
Q 45.21875 64.359375 48.21875 57.390625 
Q 51.21875 50.4375 51.21875 37.25 
Q 51.21875 23.53125 48.234375 15.40625 
Q 45.265625 7.28125 39.375 3.03125 
Q 33.5 -1.21875 25.59375 -1.21875 
Q 17.1875 -1.21875 11.859375 3.4375 
Q 6.546875 8.109375 5.46875 16.546875 
z
M 41.453125 48.140625 
Q 41.453125 55.71875 37.421875 60.15625 
Q 33.40625 64.59375 27.734375 64.59375 
Q 21.875 64.59375 17.53125 59.8125 
Q 13.1875 55.03125 13.1875 47.40625 
Q 13.1875 40.578125 17.3125 36.296875 
Q 21.4375 32.03125 27.484375 32.03125 
Q 33.59375 32.03125 37.515625 36.296875 
Q 41.453125 40.578125 41.453125 48.140625 
z
" id="ArialMT-57"/>
       </defs>
       <use xlink:href="#ArialMT-57"/>
       <use x="55.615234" xlink:href="#ArialMT-48"/>
       <use x="111.230469" xlink:href="#ArialMT-37"/>
      </g>
     </g>
    </g>
    <g id="text_16">
     <!-- Accuracy -->
     <g style="fill:#262626;" transform="translate(64.389906 251.929688)rotate(-90)scale(0.18 -0.18)">
      <defs>
       <path d="M -0.140625 0 
L 27.34375 71.578125 
L 37.546875 71.578125 
L 66.84375 0 
L 56.0625 0 
L 47.703125 21.6875 
L 17.78125 21.6875 
L 9.90625 0 
z
M 20.515625 29.390625 
L 44.78125 29.390625 
L 37.3125 49.21875 
Q 33.890625 58.25 32.234375 64.0625 
Q 30.859375 57.171875 28.375 50.390625 
z
" id="ArialMT-65"/>
       <path d="M 40.4375 19 
L 49.078125 17.875 
Q 47.65625 8.9375 41.8125 3.875 
Q 35.984375 -1.171875 27.484375 -1.171875 
Q 16.84375 -1.171875 10.375 5.78125 
Q 3.90625 12.75 3.90625 25.734375 
Q 3.90625 34.125 6.6875 40.421875 
Q 9.46875 46.734375 15.15625 49.875 
Q 20.84375 53.03125 27.546875 53.03125 
Q 35.984375 53.03125 41.359375 48.75 
Q 46.734375 44.484375 48.25 36.625 
L 39.703125 35.296875 
Q 38.484375 40.53125 35.375 43.15625 
Q 32.28125 45.796875 27.875 45.796875 
Q 21.234375 45.796875 17.078125 41.03125 
Q 12.9375 36.28125 12.9375 25.984375 
Q 12.9375 15.53125 16.9375 10.796875 
Q 20.953125 6.0625 27.390625 6.0625 
Q 32.5625 6.0625 36.03125 9.234375 
Q 39.5 12.40625 40.4375 19 
z
" id="ArialMT-99"/>
       <path d="M 6.203125 -19.96875 
L 5.21875 -11.71875 
Q 8.109375 -12.5 10.25 -12.5 
Q 13.1875 -12.5 14.9375 -11.515625 
Q 16.703125 -10.546875 17.828125 -8.796875 
Q 18.65625 -7.46875 20.515625 -2.25 
Q 20.75 -1.515625 21.296875 -0.09375 
L 1.609375 51.859375 
L 11.078125 51.859375 
L 21.875 21.828125 
Q 23.96875 16.109375 25.640625 9.8125 
Q 27.15625 15.875 29.25 21.625 
L 40.328125 51.859375 
L 49.125 51.859375 
L 29.390625 -0.875 
Q 26.21875 -9.421875 24.46875 -12.640625 
Q 22.125 -17 19.09375 -19.015625 
Q 16.0625 -21.046875 11.859375 -21.046875 
Q 9.328125 -21.046875 6.203125 -19.96875 
z
" id="ArialMT-121"/>
      </defs>
      <use xlink:href="#ArialMT-65"/>
      <use x="66.699219" xlink:href="#ArialMT-99"/>
      <use x="116.699219" xlink:href="#ArialMT-99"/>
      <use x="166.699219" xlink:href="#ArialMT-117"/>
      <use x="222.314453" xlink:href="#ArialMT-114"/>
      <use x="255.615234" xlink:href="#ArialMT-97"/>
      <use x="311.230469" xlink:href="#ArialMT-99"/>
      <use x="361.230469" xlink:href="#ArialMT-121"/>
     </g>
    </g>
   </g>
   <g id="PathCollection_1">
    <defs>
     <path d="M -3 3 
L 3 -3 
M -3 -3 
L 3 3 
" id="m624553578b" style="stroke:#000000;stroke-width:1.5;"/>
    </defs>
    <g clip-path="url(#p3b1309881a)">
     <use style="stroke:#000000;stroke-width:1.5;" x="146.838462" xlink:href="#m624553578b" y="294.675045"/>
     <use style="stroke:#000000;stroke-width:1.5;" x="181.176923" xlink:href="#m624553578b" y="248.859299"/>
     <use style="stroke:#000000;stroke-width:1.5;" x="214.442308" xlink:href="#m624553578b" y="220.255333"/>
     <use style="stroke:#000000;stroke-width:1.5;" x="248.780769" xlink:href="#m624553578b" y="206.348669"/>
     <use style="stroke:#000000;stroke-width:1.5;" x="283.119231" xlink:href="#m624553578b" y="192.045403"/>
     <use style="stroke:#000000;stroke-width:1.5;" x="316.384615" xlink:href="#m624553578b" y="181.96196"/>
     <use style="stroke:#000000;stroke-width:1.5;" x="350.723077" xlink:href="#m624553578b" y="174.959477"/>
     <use style="stroke:#000000;stroke-width:1.5;" x="385.061538" xlink:href="#m624553578b" y="169.277575"/>
     <use style="stroke:#000000;stroke-width:1.5;" x="419.4" xlink:href="#m624553578b" y="163.067725"/>
     <use style="stroke:#000000;stroke-width:1.5;" x="453.738462" xlink:href="#m624553578b" y="159.462511"/>
     <use style="stroke:#000000;stroke-width:1.5;" x="487.003846" xlink:href="#m624553578b" y="153.907552"/>
     <use style="stroke:#000000;stroke-width:1.5;" x="521.342308" xlink:href="#m624553578b" y="150.950693"/>
     <use style="stroke:#000000;stroke-width:1.5;" x="555.680769" xlink:href="#m624553578b" y="148.855459"/>
     <use style="stroke:#000000;stroke-width:1.5;" x="588.946154" xlink:href="#m624553578b" y="144.849675"/>
     <use style="stroke:#000000;stroke-width:1.5;" x="623.284615" xlink:href="#m624553578b" y="139.807472"/>
     <use style="stroke:#000000;stroke-width:1.5;" x="657.623077" xlink:href="#m624553578b" y="136.119402"/>
     <use style="stroke:#000000;stroke-width:1.5;" x="691.961538" xlink:href="#m624553578b" y="134.409979"/>
     <use style="stroke:#000000;stroke-width:1.5;" x="726.3" xlink:href="#m624553578b" y="130.014857"/>
     <use style="stroke:#000000;stroke-width:1.5;" x="759.565385" xlink:href="#m624553578b" y="127.774125"/>
    </g>
   </g>
   <g id="LineCollection_1">
    <path clip-path="url(#p3b1309881a)" d="M 146.838462 317.947544 
L 146.838462 271.402546 
" style="fill:none;stroke:#008000;stroke-width:1.5;"/>
    <path clip-path="url(#p3b1309881a)" d="M 181.176923 270.658705 
L 181.176923 227.059894 
" style="fill:none;stroke:#008000;stroke-width:1.5;"/>
    <path clip-path="url(#p3b1309881a)" d="M 214.442308 234.873506 
L 214.442308 205.637161 
" style="fill:none;stroke:#008000;stroke-width:1.5;"/>
    <path clip-path="url(#p3b1309881a)" d="M 248.780769 219.529064 
L 248.780769 193.168274 
" style="fill:none;stroke:#008000;stroke-width:1.5;"/>
    <path clip-path="url(#p3b1309881a)" d="M 283.119231 205.034965 
L 283.119231 179.055842 
" style="fill:none;stroke:#008000;stroke-width:1.5;"/>
    <path clip-path="url(#p3b1309881a)" d="M 316.384615 194.872524 
L 316.384615 169.051395 
" style="fill:none;stroke:#008000;stroke-width:1.5;"/>
    <path clip-path="url(#p3b1309881a)" d="M 350.723077 187.152446 
L 350.723077 162.766508 
" style="fill:none;stroke:#008000;stroke-width:1.5;"/>
    <path clip-path="url(#p3b1309881a)" d="M 385.061538 182.459733 
L 385.061538 156.095417 
" style="fill:none;stroke:#008000;stroke-width:1.5;"/>
    <path clip-path="url(#p3b1309881a)" d="M 419.4 176.453414 
L 419.4 149.682036 
" style="fill:none;stroke:#008000;stroke-width:1.5;"/>
    <path clip-path="url(#p3b1309881a)" d="M 453.738462 170.949084 
L 453.738462 147.975938 
" style="fill:none;stroke:#008000;stroke-width:1.5;"/>
    <path clip-path="url(#p3b1309881a)" d="M 487.003846 167.311189 
L 487.003846 140.503916 
" style="fill:none;stroke:#008000;stroke-width:1.5;"/>
    <path clip-path="url(#p3b1309881a)" d="M 521.342308 164.635306 
L 521.342308 137.26608 
" style="fill:none;stroke:#008000;stroke-width:1.5;"/>
    <path clip-path="url(#p3b1309881a)" d="M 555.680769 163.87979 
L 555.680769 133.831129 
" style="fill:none;stroke:#008000;stroke-width:1.5;"/>
    <path clip-path="url(#p3b1309881a)" d="M 588.946154 162.032889 
L 588.946154 127.666462 
" style="fill:none;stroke:#008000;stroke-width:1.5;"/>
    <path clip-path="url(#p3b1309881a)" d="M 623.284615 157.635844 
L 623.284615 121.9791 
" style="fill:none;stroke:#008000;stroke-width:1.5;"/>
    <path clip-path="url(#p3b1309881a)" d="M 657.623077 154.528687 
L 657.623077 117.710116 
" style="fill:none;stroke:#008000;stroke-width:1.5;"/>
    <path clip-path="url(#p3b1309881a)" d="M 691.961538 157.072044 
L 691.961538 111.747914 
" style="fill:none;stroke:#008000;stroke-width:1.5;"/>
    <path clip-path="url(#p3b1309881a)" d="M 726.3 160.704443 
L 726.3 99.325271 
" style="fill:none;stroke:#008000;stroke-width:1.5;"/>
    <path clip-path="url(#p3b1309881a)" d="M 759.565385 171.220632 
L 759.565385 84.327618 
" style="fill:none;stroke:#008000;stroke-width:1.5;"/>
   </g>
   <g id="line2d_15">
    <path clip-path="url(#p3b1309881a)" d="M 114.738995 433 
L 114.860447 429.640707 
L 115.611494 414.656695 
L 116.36254 402.928718 
L 117.113587 393.291253 
L 118.61568 378.003576 
L 120.117773 366.090857 
L 121.619866 356.329154 
L 123.121959 348.059208 
L 124.624052 340.884949 
L 126.126145 334.549716 
L 128.379285 326.249576 
L 130.632425 319.052616 
L 132.885564 312.699694 
L 135.138704 307.013456 
L 137.391843 301.86717 
L 139.644983 297.167127 
L 142.649169 291.473775 
L 145.653355 286.321666 
L 148.657542 281.616765 
L 151.661728 277.2876 
L 155.41696 272.32096 
L 159.172193 267.771195 
L 162.927426 263.573712 
L 166.682658 259.677856 
L 171.188938 255.344571 
L 175.695217 251.332009 
L 180.201496 247.595947 
L 185.458822 243.539474 
L 190.716148 239.765377 
L 196.72452 235.751046 
L 202.732892 232.013451 
L 209.492311 228.09525 
L 216.25173 224.441121 
L 223.762195 220.650329 
L 231.272661 217.107252 
L 239.534173 213.459863 
L 248.546731 209.7421 
L 257.55929 206.262897 
L 267.322895 202.729715 
L 277.837546 199.165726 
L 289.103244 195.590386 
L 301.119989 192.019811 
L 313.88778 188.467175 
L 327.406618 184.943105 
L 341.676502 181.456051 
L 356.697433 178.012621 
L 373.220457 174.461407 
L 390.494527 170.981742 
L 408.519644 167.574121 
L 428.046854 164.10917 
L 449.076157 160.609727 
L 471.607553 157.095085 
L 494.889996 153.687752 
L 519.674532 150.281406 
L 546.712207 146.794211 
L 575.251975 143.341383 
L 605.293837 139.929679 
L 637.588838 136.486684 
L 672.136979 133.030439 
L 708.938259 129.576008 
L 747.992679 126.135818 
L 789.300239 122.719997 
L 810.329542 121.06031 
L 810.329542 121.06031 
" style="fill:none;stroke:#808080;stroke-linecap:round;stroke-width:1.5;"/>
   </g>
   <g id="line2d_16">
    <defs>
     <path d="M 3 0 
L -3 -0 
" id="m62ed697dd2" style="stroke:#008000;"/>
    </defs>
    <g clip-path="url(#p3b1309881a)">
     <use style="fill:#008000;stroke:#008000;" x="146.838462" xlink:href="#m62ed697dd2" y="317.947544"/>
     <use style="fill:#008000;stroke:#008000;" x="181.176923" xlink:href="#m62ed697dd2" y="270.658705"/>
     <use style="fill:#008000;stroke:#008000;" x="214.442308" xlink:href="#m62ed697dd2" y="234.873506"/>
     <use style="fill:#008000;stroke:#008000;" x="248.780769" xlink:href="#m62ed697dd2" y="219.529064"/>
     <use style="fill:#008000;stroke:#008000;" x="283.119231" xlink:href="#m62ed697dd2" y="205.034965"/>
     <use style="fill:#008000;stroke:#008000;" x="316.384615" xlink:href="#m62ed697dd2" y="194.872524"/>
     <use style="fill:#008000;stroke:#008000;" x="350.723077" xlink:href="#m62ed697dd2" y="187.152446"/>
     <use style="fill:#008000;stroke:#008000;" x="385.061538" xlink:href="#m62ed697dd2" y="182.459733"/>
     <use style="fill:#008000;stroke:#008000;" x="419.4" xlink:href="#m62ed697dd2" y="176.453414"/>
     <use style="fill:#008000;stroke:#008000;" x="453.738462" xlink:href="#m62ed697dd2" y="170.949084"/>
     <use style="fill:#008000;stroke:#008000;" x="487.003846" xlink:href="#m62ed697dd2" y="167.311189"/>
     <use style="fill:#008000;stroke:#008000;" x="521.342308" xlink:href="#m62ed697dd2" y="164.635306"/>
     <use style="fill:#008000;stroke:#008000;" x="555.680769" xlink:href="#m62ed697dd2" y="163.87979"/>
     <use style="fill:#008000;stroke:#008000;" x="588.946154" xlink:href="#m62ed697dd2" y="162.032889"/>
     <use style="fill:#008000;stroke:#008000;" x="623.284615" xlink:href="#m62ed697dd2" y="157.635844"/>
     <use style="fill:#008000;stroke:#008000;" x="657.623077" xlink:href="#m62ed697dd2" y="154.528687"/>
     <use style="fill:#008000;stroke:#008000;" x="691.961538" xlink:href="#m62ed697dd2" y="157.072044"/>
     <use style="fill:#008000;stroke:#008000;" x="726.3" xlink:href="#m62ed697dd2" y="160.704443"/>
     <use style="fill:#008000;stroke:#008000;" x="759.565385" xlink:href="#m62ed697dd2" y="171.220632"/>
    </g>
   </g>
   <g id="line2d_17">
    <g clip-path="url(#p3b1309881a)">
     <use style="fill:#008000;stroke:#008000;" x="146.838462" xlink:href="#m62ed697dd2" y="271.402546"/>
     <use style="fill:#008000;stroke:#008000;" x="181.176923" xlink:href="#m62ed697dd2" y="227.059894"/>
     <use style="fill:#008000;stroke:#008000;" x="214.442308" xlink:href="#m62ed697dd2" y="205.637161"/>
     <use style="fill:#008000;stroke:#008000;" x="248.780769" xlink:href="#m62ed697dd2" y="193.168274"/>
     <use style="fill:#008000;stroke:#008000;" x="283.119231" xlink:href="#m62ed697dd2" y="179.055842"/>
     <use style="fill:#008000;stroke:#008000;" x="316.384615" xlink:href="#m62ed697dd2" y="169.051395"/>
     <use style="fill:#008000;stroke:#008000;" x="350.723077" xlink:href="#m62ed697dd2" y="162.766508"/>
     <use style="fill:#008000;stroke:#008000;" x="385.061538" xlink:href="#m62ed697dd2" y="156.095417"/>
     <use style="fill:#008000;stroke:#008000;" x="419.4" xlink:href="#m62ed697dd2" y="149.682036"/>
     <use style="fill:#008000;stroke:#008000;" x="453.738462" xlink:href="#m62ed697dd2" y="147.975938"/>
     <use style="fill:#008000;stroke:#008000;" x="487.003846" xlink:href="#m62ed697dd2" y="140.503916"/>
     <use style="fill:#008000;stroke:#008000;" x="521.342308" xlink:href="#m62ed697dd2" y="137.26608"/>
     <use style="fill:#008000;stroke:#008000;" x="555.680769" xlink:href="#m62ed697dd2" y="133.831129"/>
     <use style="fill:#008000;stroke:#008000;" x="588.946154" xlink:href="#m62ed697dd2" y="127.666462"/>
     <use style="fill:#008000;stroke:#008000;" x="623.284615" xlink:href="#m62ed697dd2" y="121.9791"/>
     <use style="fill:#008000;stroke:#008000;" x="657.623077" xlink:href="#m62ed697dd2" y="117.710116"/>
     <use style="fill:#008000;stroke:#008000;" x="691.961538" xlink:href="#m62ed697dd2" y="111.747914"/>
     <use style="fill:#008000;stroke:#008000;" x="726.3" xlink:href="#m62ed697dd2" y="99.325271"/>
     <use style="fill:#008000;stroke:#008000;" x="759.565385" xlink:href="#m62ed697dd2" y="84.327618"/>
    </g>
   </g>
   <g id="line2d_18">
    <defs>
     <path d="M 0 3 
C 0.795609 3 1.55874 2.683901 2.12132 2.12132 
C 2.683901 1.55874 3 0.795609 3 0 
C 3 -0.795609 2.683901 -1.55874 2.12132 -2.12132 
C 1.55874 -2.683901 0.795609 -3 0 -3 
C -0.795609 -3 -1.55874 -2.683901 -2.12132 -2.12132 
C -2.683901 -1.55874 -3 -0.795609 -3 0 
C -3 0.795609 -2.683901 1.55874 -2.12132 2.12132 
C -1.55874 2.683901 -0.795609 3 0 3 
z
" id="ma918564281" style="stroke:#008000;"/>
    </defs>
    <g clip-path="url(#p3b1309881a)">
     <use style="fill:#008000;stroke:#008000;" x="146.838462" xlink:href="#ma918564281" y="294.675045"/>
     <use style="fill:#008000;stroke:#008000;" x="181.176923" xlink:href="#ma918564281" y="248.859299"/>
     <use style="fill:#008000;stroke:#008000;" x="214.442308" xlink:href="#ma918564281" y="220.255333"/>
     <use style="fill:#008000;stroke:#008000;" x="248.780769" xlink:href="#ma918564281" y="206.348669"/>
     <use style="fill:#008000;stroke:#008000;" x="283.119231" xlink:href="#ma918564281" y="192.045403"/>
     <use style="fill:#008000;stroke:#008000;" x="316.384615" xlink:href="#ma918564281" y="181.96196"/>
     <use style="fill:#008000;stroke:#008000;" x="350.723077" xlink:href="#ma918564281" y="174.959477"/>
     <use style="fill:#008000;stroke:#008000;" x="385.061538" xlink:href="#ma918564281" y="169.277575"/>
     <use style="fill:#008000;stroke:#008000;" x="419.4" xlink:href="#ma918564281" y="163.067725"/>
     <use style="fill:#008000;stroke:#008000;" x="453.738462" xlink:href="#ma918564281" y="159.462511"/>
     <use style="fill:#008000;stroke:#008000;" x="487.003846" xlink:href="#ma918564281" y="153.907552"/>
     <use style="fill:#008000;stroke:#008000;" x="521.342308" xlink:href="#ma918564281" y="150.950693"/>
     <use style="fill:#008000;stroke:#008000;" x="555.680769" xlink:href="#ma918564281" y="148.855459"/>
     <use style="fill:#008000;stroke:#008000;" x="588.946154" xlink:href="#ma918564281" y="144.849675"/>
     <use style="fill:#008000;stroke:#008000;" x="623.284615" xlink:href="#ma918564281" y="139.807472"/>
     <use style="fill:#008000;stroke:#008000;" x="657.623077" xlink:href="#ma918564281" y="136.119402"/>
     <use style="fill:#008000;stroke:#008000;" x="691.961538" xlink:href="#ma918564281" y="134.409979"/>
     <use style="fill:#008000;stroke:#008000;" x="726.3" xlink:href="#ma918564281" y="130.014857"/>
     <use style="fill:#008000;stroke:#008000;" x="759.565385" xlink:href="#ma918564281" y="127.774125"/>
    </g>
   </g>
   <g id="patch_3">
    <path d="M 112.5 378 
L 112.5 51.84 
" style="fill:none;stroke:#ffffff;stroke-linecap:square;stroke-linejoin:miter;stroke-width:1.25;"/>
   </g>
   <g id="patch_4">
    <path d="M 810 378 
L 810 51.84 
" style="fill:none;stroke:#ffffff;stroke-linecap:square;stroke-linejoin:miter;stroke-width:1.25;"/>
   </g>
   <g id="patch_5">
    <path d="M 112.5 378 
L 810 378 
" style="fill:none;stroke:#ffffff;stroke-linecap:square;stroke-linejoin:miter;stroke-width:1.25;"/>
   </g>
   <g id="patch_6">
    <path d="M 112.5 51.84 
L 810 51.84 
" style="fill:none;stroke:#ffffff;stroke-linecap:square;stroke-linejoin:miter;stroke-width:1.25;"/>
   </g>
   <g id="text_17">
    <!-- MAcc = g(log10(n)) + h -->
    <g style="fill:#262626;" transform="translate(146.838462 87.004125)scale(0.18 -0.18)">
     <defs>
      <path d="M 7.421875 0 
L 7.421875 71.578125 
L 21.6875 71.578125 
L 38.625 20.90625 
Q 40.96875 13.8125 42.046875 10.296875 
Q 43.265625 14.203125 45.84375 21.78125 
L 62.984375 71.578125 
L 75.734375 71.578125 
L 75.734375 0 
L 66.609375 0 
L 66.609375 59.90625 
L 45.796875 0 
L 37.25 0 
L 16.546875 60.9375 
L 16.546875 0 
z
" id="ArialMT-77"/>
      <path d="M 52.828125 42.09375 
L 5.5625 42.09375 
L 5.5625 50.296875 
L 52.828125 50.296875 
z
M 52.828125 20.359375 
L 5.5625 20.359375 
L 5.5625 28.5625 
L 52.828125 28.5625 
z
" id="ArialMT-61"/>
      <path d="M 6.390625 0 
L 6.390625 71.578125 
L 15.1875 71.578125 
L 15.1875 0 
z
" id="ArialMT-108"/>
      <path d="M 25.046875 11.578125 
L 25.046875 31.203125 
L 5.5625 31.203125 
L 5.5625 39.40625 
L 25.046875 39.40625 
L 25.046875 58.890625 
L 33.34375 58.890625 
L 33.34375 39.40625 
L 52.828125 39.40625 
L 52.828125 31.203125 
L 33.34375 31.203125 
L 33.34375 11.578125 
z
" id="ArialMT-43"/>
      <path d="M 6.59375 0 
L 6.59375 71.578125 
L 15.375 71.578125 
L 15.375 45.90625 
Q 21.53125 53.03125 30.90625 53.03125 
Q 36.671875 53.03125 40.921875 50.75 
Q 45.171875 48.484375 47 44.484375 
Q 48.828125 40.484375 48.828125 32.859375 
L 48.828125 0 
L 40.046875 0 
L 40.046875 32.859375 
Q 40.046875 39.453125 37.1875 42.453125 
Q 34.328125 45.453125 29.109375 45.453125 
Q 25.203125 45.453125 21.75 43.421875 
Q 18.3125 41.40625 16.84375 37.9375 
Q 15.375 34.46875 15.375 28.375 
L 15.375 0 
z
" id="ArialMT-104"/>
     </defs>
     <use xlink:href="#ArialMT-77"/>
     <use x="83.300781" xlink:href="#ArialMT-65"/>
     <use x="150" xlink:href="#ArialMT-99"/>
     <use x="200" xlink:href="#ArialMT-99"/>
     <use x="250" xlink:href="#ArialMT-32"/>
     <use x="277.783203" xlink:href="#ArialMT-61"/>
     <use x="336.181641" xlink:href="#ArialMT-32"/>
     <use x="363.964844" xlink:href="#ArialMT-103"/>
     <use x="419.580078" xlink:href="#ArialMT-40"/>
     <use x="452.880859" xlink:href="#ArialMT-108"/>
     <use x="475.097656" xlink:href="#ArialMT-111"/>
     <use x="530.712891" xlink:href="#ArialMT-103"/>
     <use x="586.328125" xlink:href="#ArialMT-49"/>
     <use x="641.943359" xlink:href="#ArialMT-48"/>
     <use x="697.558594" xlink:href="#ArialMT-40"/>
     <use x="730.859375" xlink:href="#ArialMT-110"/>
     <use x="786.474609" xlink:href="#ArialMT-41"/>
     <use x="819.775391" xlink:href="#ArialMT-41"/>
     <use x="853.076172" xlink:href="#ArialMT-32"/>
     <use x="880.859375" xlink:href="#ArialMT-43"/>
     <use x="939.257812" xlink:href="#ArialMT-32"/>
     <use x="967.041016" xlink:href="#ArialMT-104"/>
    </g>
   </g>
   <g id="text_18">
    <!-- A = 23.0 -->
    <g style="fill:#262626;" transform="translate(146.838462 106.030125)scale(0.18 -0.18)">
     <defs>
      <path d="M 9.078125 0 
L 9.078125 10.015625 
L 19.09375 10.015625 
L 19.09375 0 
z
" id="ArialMT-46"/>
     </defs>
     <use xlink:href="#ArialMT-65"/>
     <use x="61.199219" xlink:href="#ArialMT-32"/>
     <use x="88.982422" xlink:href="#ArialMT-61"/>
     <use x="147.380859" xlink:href="#ArialMT-32"/>
     <use x="175.164062" xlink:href="#ArialMT-50"/>
     <use x="230.779297" xlink:href="#ArialMT-51"/>
     <use x="286.394531" xlink:href="#ArialMT-46"/>
     <use x="314.177734" xlink:href="#ArialMT-48"/>
    </g>
   </g>
   <g id="text_19">
    <!-- $\pm$ -->
    <g style="fill:#262626;" transform="translate(227.319231 106.030125)scale(0.18 -0.18)">
     <defs>
      <path d="M 46 62.703125 
L 46 43.796875 
L 73.1875 43.796875 
L 73.1875 35.5 
L 46 35.5 
L 46 16.609375 
L 37.796875 16.609375 
L 37.796875 35.5 
L 10.59375 35.5 
L 10.59375 43.796875 
L 37.796875 43.796875 
L 37.796875 62.703125 
z
M 10.59375 8.296875 
L 73.1875 8.296875 
L 73.1875 0 
L 10.59375 0 
z
" id="DejaVuSans-177"/>
     </defs>
     <use transform="translate(0 0.296875)" xlink:href="#DejaVuSans-177"/>
    </g>
   </g>
   <g id="text_20">
    <!-- 3.7 -->
    <g style="fill:#262626;" transform="translate(248.780769 106.030125)scale(0.18 -0.18)">
     <use xlink:href="#ArialMT-51"/>
     <use x="55.615234" xlink:href="#ArialMT-46"/>
     <use x="83.398438" xlink:href="#ArialMT-55"/>
    </g>
   </g>
   <g id="text_21">
    <!-- D = 12.6 -->
    <g style="fill:#262626;" transform="translate(147.911538 125.056125)scale(0.18 -0.18)">
     <use xlink:href="#ArialMT-68"/>
     <use x="72.216797" xlink:href="#ArialMT-32"/>
     <use x="100" xlink:href="#ArialMT-61"/>
     <use x="158.398438" xlink:href="#ArialMT-32"/>
     <use x="186.181641" xlink:href="#ArialMT-49"/>
     <use x="241.796875" xlink:href="#ArialMT-50"/>
     <use x="297.412109" xlink:href="#ArialMT-46"/>
     <use x="325.195312" xlink:href="#ArialMT-54"/>
    </g>
   </g>
   <g id="text_22">
    <!-- $\pm$ -->
    <g style="fill:#262626;" transform="translate(218.734615 125.056125)scale(0.18 -0.18)">
     <use transform="translate(0 0.296875)" xlink:href="#DejaVuSans-177"/>
    </g>
   </g>
   <g id="text_23">
    <!-- 9.0 -->
    <g style="fill:#262626;" transform="translate(240.196154 125.056125)scale(0.18 -0.18)">
     <use xlink:href="#ArialMT-57"/>
     <use x="55.615234" xlink:href="#ArialMT-46"/>
     <use x="83.398438" xlink:href="#ArialMT-48"/>
    </g>
   </g>
   <g id="text_24">
    <!-- $R^2$ -->
    <g style="fill:#262626;" transform="translate(147.911538 144.082125)scale(0.18 -0.18)">
     <defs>
      <path d="M 25.203125 64.796875 
L 20.21875 38.921875 
L 32.90625 38.921875 
Q 40.375 38.921875 44.984375 43.046875 
Q 49.609375 47.171875 49.609375 53.8125 
Q 49.609375 59.125 46.5 61.953125 
Q 43.40625 64.796875 37.59375 64.796875 
z
M 43.3125 35.015625 
Q 46.4375 34.28125 48.515625 31.390625 
Q 50.59375 28.515625 53.328125 19.921875 
L 59.515625 0 
L 49.125 0 
L 43.40625 18.703125 
Q 41.21875 25.921875 38.328125 28.359375 
Q 35.453125 30.8125 29.5 30.8125 
L 18.609375 30.8125 
L 12.59375 0 
L 2.6875 0 
L 16.890625 72.90625 
L 39.109375 72.90625 
Q 49.21875 72.90625 54.609375 68.328125 
Q 60.015625 63.765625 60.015625 55.171875 
Q 60.015625 47.5625 55.421875 41.984375 
Q 50.828125 36.421875 43.3125 35.015625 
z
" id="DejaVuSans-Oblique-82"/>
      <path d="M 19.1875 8.296875 
L 53.609375 8.296875 
L 53.609375 0 
L 7.328125 0 
L 7.328125 8.296875 
Q 12.9375 14.109375 22.625 23.890625 
Q 32.328125 33.6875 34.8125 36.53125 
Q 39.546875 41.84375 41.421875 45.53125 
Q 43.3125 49.21875 43.3125 52.78125 
Q 43.3125 58.59375 39.234375 62.25 
Q 35.15625 65.921875 28.609375 65.921875 
Q 23.96875 65.921875 18.8125 64.3125 
Q 13.671875 62.703125 7.8125 59.421875 
L 7.8125 69.390625 
Q 13.765625 71.78125 18.9375 73 
Q 24.125 74.21875 28.421875 74.21875 
Q 39.75 74.21875 46.484375 68.546875 
Q 53.21875 62.890625 53.21875 53.421875 
Q 53.21875 48.921875 51.53125 44.890625 
Q 49.859375 40.875 45.40625 35.40625 
Q 44.1875 33.984375 37.640625 27.21875 
Q 31.109375 20.453125 19.1875 8.296875 
z
" id="DejaVuSans-50"/>
     </defs>
     <use transform="translate(0 0.765625)" xlink:href="#DejaVuSans-Oblique-82"/>
     <use transform="translate(76.499193 39.046875)scale(0.7)" xlink:href="#DejaVuSans-50"/>
    </g>
   </g>
   <g id="text_25">
    <!-- = 0.992 -->
    <g style="fill:#262626;" transform="translate(184.396154 144.082125)scale(0.18 -0.18)">
     <use xlink:href="#ArialMT-61"/>
     <use x="58.398438" xlink:href="#ArialMT-32"/>
     <use x="86.181641" xlink:href="#ArialMT-48"/>
     <use x="141.796875" xlink:href="#ArialMT-46"/>
     <use x="169.580078" xlink:href="#ArialMT-57"/>
     <use x="225.195312" xlink:href="#ArialMT-57"/>
     <use x="280.810547" xlink:href="#ArialMT-50"/>
    </g>
   </g>
   <g id="text_26">
    <!-- Random forest model accuracy as sample size increases -->
    <g style="fill:#262626;" transform="translate(183.092656 26.84)scale(0.22 -0.22)">
     <defs>
      <path d="M 7.859375 0 
L 7.859375 71.578125 
L 39.59375 71.578125 
Q 49.171875 71.578125 54.140625 69.640625 
Q 59.125 67.71875 62.109375 62.828125 
Q 65.09375 57.953125 65.09375 52.046875 
Q 65.09375 44.4375 60.15625 39.203125 
Q 55.21875 33.984375 44.921875 32.5625 
Q 48.6875 30.765625 50.640625 29 
Q 54.78125 25.203125 58.5 19.484375 
L 70.953125 0 
L 59.03125 0 
L 49.5625 14.890625 
Q 45.40625 21.34375 42.71875 24.75 
Q 40.046875 28.171875 37.921875 29.53125 
Q 35.796875 30.90625 33.59375 31.453125 
Q 31.984375 31.78125 28.328125 31.78125 
L 17.328125 31.78125 
L 17.328125 0 
z
M 17.328125 39.984375 
L 37.703125 39.984375 
Q 44.1875 39.984375 47.84375 41.328125 
Q 51.515625 42.671875 53.421875 45.625 
Q 55.328125 48.578125 55.328125 52.046875 
Q 55.328125 57.125 51.640625 60.390625 
Q 47.953125 63.671875 39.984375 63.671875 
L 17.328125 63.671875 
z
" id="ArialMT-82"/>
      <path d="M 40.234375 0 
L 40.234375 6.546875 
Q 35.296875 -1.171875 25.734375 -1.171875 
Q 19.53125 -1.171875 14.328125 2.25 
Q 9.125 5.671875 6.265625 11.796875 
Q 3.421875 17.921875 3.421875 25.875 
Q 3.421875 33.640625 6 39.96875 
Q 8.59375 46.296875 13.765625 49.65625 
Q 18.953125 53.03125 25.34375 53.03125 
Q 30.03125 53.03125 33.6875 51.046875 
Q 37.359375 49.078125 39.65625 45.90625 
L 39.65625 71.578125 
L 48.390625 71.578125 
L 48.390625 0 
z
M 12.453125 25.875 
Q 12.453125 15.921875 16.640625 10.984375 
Q 20.84375 6.0625 26.5625 6.0625 
Q 32.328125 6.0625 36.34375 10.765625 
Q 40.375 15.484375 40.375 25.140625 
Q 40.375 35.796875 36.265625 40.765625 
Q 32.171875 45.75 26.171875 45.75 
Q 20.3125 45.75 16.375 40.96875 
Q 12.453125 36.1875 12.453125 25.875 
z
" id="ArialMT-100"/>
      <path d="M 6.59375 -19.875 
L 6.59375 51.859375 
L 14.59375 51.859375 
L 14.59375 45.125 
Q 17.4375 49.078125 21 51.046875 
Q 24.5625 53.03125 29.640625 53.03125 
Q 36.28125 53.03125 41.359375 49.609375 
Q 46.4375 46.1875 49.015625 39.953125 
Q 51.609375 33.734375 51.609375 26.3125 
Q 51.609375 18.359375 48.75 11.984375 
Q 45.90625 5.609375 40.453125 2.21875 
Q 35.015625 -1.171875 29 -1.171875 
Q 24.609375 -1.171875 21.109375 0.6875 
Q 17.625 2.546875 15.375 5.375 
L 15.375 -19.875 
z
M 14.546875 25.640625 
Q 14.546875 15.625 18.59375 10.84375 
Q 22.65625 6.0625 28.421875 6.0625 
Q 34.28125 6.0625 38.453125 11.015625 
Q 42.625 15.96875 42.625 26.375 
Q 42.625 36.28125 38.546875 41.203125 
Q 34.46875 46.140625 28.8125 46.140625 
Q 23.1875 46.140625 18.859375 40.890625 
Q 14.546875 35.640625 14.546875 25.640625 
z
" id="ArialMT-112"/>
      <path d="M 1.953125 0 
L 1.953125 7.125 
L 34.96875 45.015625 
Q 29.34375 44.734375 25.046875 44.734375 
L 3.90625 44.734375 
L 3.90625 51.859375 
L 46.296875 51.859375 
L 46.296875 46.046875 
L 18.21875 13.140625 
L 12.796875 7.125 
Q 18.703125 7.5625 23.875 7.5625 
L 47.859375 7.5625 
L 47.859375 0 
z
" id="ArialMT-122"/>
     </defs>
     <use xlink:href="#ArialMT-82"/>
     <use x="72.216797" xlink:href="#ArialMT-97"/>
     <use x="127.832031" xlink:href="#ArialMT-110"/>
     <use x="183.447266" xlink:href="#ArialMT-100"/>
     <use x="239.0625" xlink:href="#ArialMT-111"/>
     <use x="294.677734" xlink:href="#ArialMT-109"/>
     <use x="377.978516" xlink:href="#ArialMT-32"/>
     <use x="405.761719" xlink:href="#ArialMT-102"/>
     <use x="433.544922" xlink:href="#ArialMT-111"/>
     <use x="489.160156" xlink:href="#ArialMT-114"/>
     <use x="522.460938" xlink:href="#ArialMT-101"/>
     <use x="578.076172" xlink:href="#ArialMT-115"/>
     <use x="628.076172" xlink:href="#ArialMT-116"/>
     <use x="655.859375" xlink:href="#ArialMT-32"/>
     <use x="683.642578" xlink:href="#ArialMT-109"/>
     <use x="766.943359" xlink:href="#ArialMT-111"/>
     <use x="822.558594" xlink:href="#ArialMT-100"/>
     <use x="878.173828" xlink:href="#ArialMT-101"/>
     <use x="933.789062" xlink:href="#ArialMT-108"/>
     <use x="956.005859" xlink:href="#ArialMT-32"/>
     <use x="983.789062" xlink:href="#ArialMT-97"/>
     <use x="1039.404297" xlink:href="#ArialMT-99"/>
     <use x="1089.404297" xlink:href="#ArialMT-99"/>
     <use x="1139.404297" xlink:href="#ArialMT-117"/>
     <use x="1195.019531" xlink:href="#ArialMT-114"/>
     <use x="1228.320312" xlink:href="#ArialMT-97"/>
     <use x="1283.935547" xlink:href="#ArialMT-99"/>
     <use x="1333.935547" xlink:href="#ArialMT-121"/>
     <use x="1383.935547" xlink:href="#ArialMT-32"/>
     <use x="1411.71875" xlink:href="#ArialMT-97"/>
     <use x="1467.333984" xlink:href="#ArialMT-115"/>
     <use x="1517.333984" xlink:href="#ArialMT-32"/>
     <use x="1545.117188" xlink:href="#ArialMT-115"/>
     <use x="1595.117188" xlink:href="#ArialMT-97"/>
     <use x="1650.732422" xlink:href="#ArialMT-109"/>
     <use x="1734.033203" xlink:href="#ArialMT-112"/>
     <use x="1789.648438" xlink:href="#ArialMT-108"/>
     <use x="1811.865234" xlink:href="#ArialMT-101"/>
     <use x="1867.480469" xlink:href="#ArialMT-32"/>
     <use x="1895.263672" xlink:href="#ArialMT-115"/>
     <use x="1945.263672" xlink:href="#ArialMT-105"/>
     <use x="1967.480469" xlink:href="#ArialMT-122"/>
     <use x="2017.480469" xlink:href="#ArialMT-101"/>
     <use x="2073.095703" xlink:href="#ArialMT-32"/>
     <use x="2100.878906" xlink:href="#ArialMT-105"/>
     <use x="2123.095703" xlink:href="#ArialMT-110"/>
     <use x="2178.710938" xlink:href="#ArialMT-99"/>
     <use x="2228.710938" xlink:href="#ArialMT-114"/>
     <use x="2262.011719" xlink:href="#ArialMT-101"/>
     <use x="2317.626953" xlink:href="#ArialMT-97"/>
     <use x="2373.242188" xlink:href="#ArialMT-115"/>
     <use x="2423.242188" xlink:href="#ArialMT-101"/>
     <use x="2478.857422" xlink:href="#ArialMT-115"/>
    </g>
   </g>
  </g>
 </g>
 <defs>
  <clipPath id="p3b1309881a">
   <rect height="326.16" width="697.5" x="112.5" y="51.84"/>
  </clipPath>
 </defs>
</svg>
