<?xml version="1.0" encoding="utf-8" standalone="no"?>
<!DOCTYPE svg PUBLIC "-//W3C//DTD SVG 1.1//EN"
  "http://www.w3.org/Graphics/SVG/1.1/DTD/svg11.dtd">
<!-- Created with matplotlib (https://matplotlib.org/) -->
<svg height="360pt" version="1.1" viewBox="0 0 900 360" width="900pt" xmlns="http://www.w3.org/2000/svg" xmlns:xlink="http://www.w3.org/1999/xlink">
 <metadata>
  <rdf:RDF xmlns:cc="http://creativecommons.org/ns#" xmlns:dc="http://purl.org/dc/elements/1.1/" xmlns:rdf="http://www.w3.org/1999/02/22-rdf-syntax-ns#">
   <cc:Work>
    <dc:type rdf:resource="http://purl.org/dc/dcmitype/StillImage"/>
    <dc:date>2021-09-27T13:12:41.621997</dc:date>
    <dc:format>image/svg+xml</dc:format>
    <dc:creator>
     <cc:Agent>
      <dc:title>Matplotlib v3.3.2, https://matplotlib.org/</dc:title>
     </cc:Agent>
    </dc:creator>
   </cc:Work>
  </rdf:RDF>
 </metadata>
 <defs>
  <style type="text/css">*{stroke-linecap:butt;stroke-linejoin:round;}</style>
 </defs>
 <g id="figure_1">
  <g id="patch_1">
   <path d="M 0 360 
L 900 360 
L 900 0 
L 0 0 
z
" style="fill:none;"/>
  </g>
  <g id="axes_1">
   <g id="patch_2">
    <path d="M 112.5 315 
L 810 315 
L 810 43.2 
L 112.5 43.2 
z
" style="fill:#ffffff;"/>
   </g>
   <g id="PathCollection_1">
    <defs>
     <path d="M -4.472136 4.472136 
L 4.472136 -4.472136 
M -4.472136 -4.472136 
L 4.472136 4.472136 
" id="mce45c2a8cf" style="stroke:#0000ff;stroke-width:1.5;"/>
    </defs>
    <g clip-path="url(#p07eba97bf7)">
     <use style="fill:#0000ff;stroke:#0000ff;stroke-width:1.5;" x="185.190711" xlink:href="#mce45c2a8cf" y="293.323704"/>
     <use style="fill:#0000ff;stroke:#0000ff;stroke-width:1.5;" x="226.176877" xlink:href="#mce45c2a8cf" y="283.146666"/>
     <use style="fill:#0000ff;stroke:#0000ff;stroke-width:1.5;" x="267.163043" xlink:href="#mce45c2a8cf" y="271.904118"/>
     <use style="fill:#0000ff;stroke:#0000ff;stroke-width:1.5;" x="308.149209" xlink:href="#mce45c2a8cf" y="259.968842"/>
     <use style="fill:#0000ff;stroke:#0000ff;stroke-width:1.5;" x="349.135375" xlink:href="#mce45c2a8cf" y="246.984178"/>
     <use style="fill:#0000ff;stroke:#0000ff;stroke-width:1.5;" x="390.121542" xlink:href="#mce45c2a8cf" y="232.949344"/>
     <use style="fill:#0000ff;stroke:#0000ff;stroke-width:1.5;" x="431.107708" xlink:href="#mce45c2a8cf" y="218.010283"/>
     <use style="fill:#0000ff;stroke:#0000ff;stroke-width:1.5;" x="472.093874" xlink:href="#mce45c2a8cf" y="202.422297"/>
     <use style="fill:#0000ff;stroke:#0000ff;stroke-width:1.5;" x="513.08004" xlink:href="#mce45c2a8cf" y="185.679458"/>
     <use style="fill:#0000ff;stroke:#0000ff;stroke-width:1.5;" x="554.066206" xlink:href="#mce45c2a8cf" y="168.034206"/>
     <use style="fill:#0000ff;stroke:#0000ff;stroke-width:1.5;" x="595.052372" xlink:href="#mce45c2a8cf" y="149.567415"/>
     <use style="fill:#0000ff;stroke:#0000ff;stroke-width:1.5;" x="636.038538" xlink:href="#mce45c2a8cf" y="130.420893"/>
     <use style="fill:#0000ff;stroke:#0000ff;stroke-width:1.5;" x="677.024704" xlink:href="#mce45c2a8cf" y="109.898432"/>
     <use style="fill:#0000ff;stroke:#0000ff;stroke-width:1.5;" x="718.01087" xlink:href="#mce45c2a8cf" y="88.520363"/>
     <use style="fill:#0000ff;stroke:#0000ff;stroke-width:1.5;" x="758.997036" xlink:href="#mce45c2a8cf" y="66.204977"/>
    </g>
   </g>
   <g id="PathCollection_2">
    <defs>
     <path d="M -4.472136 4.472136 
L 4.472136 -4.472136 
M -4.472136 -4.472136 
L 4.472136 4.472136 
" id="m9effb6cccd" style="stroke:#008000;stroke-width:1.5;"/>
    </defs>
    <g clip-path="url(#p07eba97bf7)">
     <use style="fill:#008000;stroke:#008000;stroke-width:1.5;" x="185.190711" xlink:href="#m9effb6cccd" y="70.13344"/>
     <use style="fill:#008000;stroke:#008000;stroke-width:1.5;" x="226.176877" xlink:href="#m9effb6cccd" y="74.152188"/>
     <use style="fill:#008000;stroke:#008000;stroke-width:1.5;" x="267.163043" xlink:href="#m9effb6cccd" y="73.31258"/>
     <use style="fill:#008000;stroke:#008000;stroke-width:1.5;" x="308.149209" xlink:href="#m9effb6cccd" y="71.808283"/>
     <use style="fill:#008000;stroke:#008000;stroke-width:1.5;" x="349.135375" xlink:href="#m9effb6cccd" y="71.541533"/>
     <use style="fill:#008000;stroke:#008000;stroke-width:1.5;" x="390.121542" xlink:href="#m9effb6cccd" y="72.739723"/>
     <use style="fill:#008000;stroke:#008000;stroke-width:1.5;" x="431.107708" xlink:href="#m9effb6cccd" y="71.139221"/>
     <use style="fill:#008000;stroke:#008000;stroke-width:1.5;" x="472.093874" xlink:href="#m9effb6cccd" y="69.63711"/>
     <use style="fill:#008000;stroke:#008000;stroke-width:1.5;" x="513.08004" xlink:href="#m9effb6cccd" y="66.447038"/>
     <use style="fill:#008000;stroke:#008000;stroke-width:1.5;" x="554.066206" xlink:href="#m9effb6cccd" y="67.275713"/>
     <use style="fill:#008000;stroke:#008000;stroke-width:1.5;" x="595.052372" xlink:href="#m9effb6cccd" y="70.52482"/>
     <use style="fill:#008000;stroke:#008000;stroke-width:1.5;" x="636.038538" xlink:href="#m9effb6cccd" y="70.684433"/>
     <use style="fill:#008000;stroke:#008000;stroke-width:1.5;" x="677.024704" xlink:href="#m9effb6cccd" y="71.325071"/>
     <use style="fill:#008000;stroke:#008000;stroke-width:1.5;" x="718.01087" xlink:href="#m9effb6cccd" y="72.053168"/>
     <use style="fill:#008000;stroke:#008000;stroke-width:1.5;" x="758.997036" xlink:href="#m9effb6cccd" y="73.808911"/>
    </g>
   </g>
   <g id="matplotlib.axis_1">
    <g id="xtick_1">
     <g id="line2d_1">
      <defs>
       <path d="M 0 0 
L 0 3.5 
" id="m0b9e1029aa" style="stroke:#000000;stroke-width:0.8;"/>
      </defs>
      <g>
       <use style="stroke:#000000;stroke-width:0.8;" x="144.204545" xlink:href="#m0b9e1029aa" y="315"/>
      </g>
     </g>
     <g id="text_1">
      <!-- 0 -->
      <g transform="translate(141.023295 329.598437)scale(0.1 -0.1)">
       <defs>
        <path d="M 31.78125 66.40625 
Q 24.171875 66.40625 20.328125 58.90625 
Q 16.5 51.421875 16.5 36.375 
Q 16.5 21.390625 20.328125 13.890625 
Q 24.171875 6.390625 31.78125 6.390625 
Q 39.453125 6.390625 43.28125 13.890625 
Q 47.125 21.390625 47.125 36.375 
Q 47.125 51.421875 43.28125 58.90625 
Q 39.453125 66.40625 31.78125 66.40625 
z
M 31.78125 74.21875 
Q 44.046875 74.21875 50.515625 64.515625 
Q 56.984375 54.828125 56.984375 36.375 
Q 56.984375 17.96875 50.515625 8.265625 
Q 44.046875 -1.421875 31.78125 -1.421875 
Q 19.53125 -1.421875 13.0625 8.265625 
Q 6.59375 17.96875 6.59375 36.375 
Q 6.59375 54.828125 13.0625 64.515625 
Q 19.53125 74.21875 31.78125 74.21875 
z
" id="DejaVuSans-48"/>
       </defs>
       <use xlink:href="#DejaVuSans-48"/>
      </g>
     </g>
    </g>
    <g id="xtick_2">
     <g id="line2d_2">
      <g>
       <use style="stroke:#000000;stroke-width:0.8;" x="266.73419" xlink:href="#m0b9e1029aa" y="315"/>
      </g>
     </g>
     <g id="text_2">
      <!-- 2000 -->
      <g transform="translate(254.00919 329.598437)scale(0.1 -0.1)">
       <defs>
        <path d="M 19.1875 8.296875 
L 53.609375 8.296875 
L 53.609375 0 
L 7.328125 0 
L 7.328125 8.296875 
Q 12.9375 14.109375 22.625 23.890625 
Q 32.328125 33.6875 34.8125 36.53125 
Q 39.546875 41.84375 41.421875 45.53125 
Q 43.3125 49.21875 43.3125 52.78125 
Q 43.3125 58.59375 39.234375 62.25 
Q 35.15625 65.921875 28.609375 65.921875 
Q 23.96875 65.921875 18.8125 64.3125 
Q 13.671875 62.703125 7.8125 59.421875 
L 7.8125 69.390625 
Q 13.765625 71.78125 18.9375 73 
Q 24.125 74.21875 28.421875 74.21875 
Q 39.75 74.21875 46.484375 68.546875 
Q 53.21875 62.890625 53.21875 53.421875 
Q 53.21875 48.921875 51.53125 44.890625 
Q 49.859375 40.875 45.40625 35.40625 
Q 44.1875 33.984375 37.640625 27.21875 
Q 31.109375 20.453125 19.1875 8.296875 
z
" id="DejaVuSans-50"/>
       </defs>
       <use xlink:href="#DejaVuSans-50"/>
       <use x="63.623047" xlink:href="#DejaVuSans-48"/>
       <use x="127.246094" xlink:href="#DejaVuSans-48"/>
       <use x="190.869141" xlink:href="#DejaVuSans-48"/>
      </g>
     </g>
    </g>
    <g id="xtick_3">
     <g id="line2d_3">
      <g>
       <use style="stroke:#000000;stroke-width:0.8;" x="389.263834" xlink:href="#m0b9e1029aa" y="315"/>
      </g>
     </g>
     <g id="text_3">
      <!-- 4000 -->
      <g transform="translate(376.538834 329.598437)scale(0.1 -0.1)">
       <defs>
        <path d="M 37.796875 64.3125 
L 12.890625 25.390625 
L 37.796875 25.390625 
z
M 35.203125 72.90625 
L 47.609375 72.90625 
L 47.609375 25.390625 
L 58.015625 25.390625 
L 58.015625 17.1875 
L 47.609375 17.1875 
L 47.609375 0 
L 37.796875 0 
L 37.796875 17.1875 
L 4.890625 17.1875 
L 4.890625 26.703125 
z
" id="DejaVuSans-52"/>
       </defs>
       <use xlink:href="#DejaVuSans-52"/>
       <use x="63.623047" xlink:href="#DejaVuSans-48"/>
       <use x="127.246094" xlink:href="#DejaVuSans-48"/>
       <use x="190.869141" xlink:href="#DejaVuSans-48"/>
      </g>
     </g>
    </g>
    <g id="xtick_4">
     <g id="line2d_4">
      <g>
       <use style="stroke:#000000;stroke-width:0.8;" x="511.793478" xlink:href="#m0b9e1029aa" y="315"/>
      </g>
     </g>
     <g id="text_4">
      <!-- 6000 -->
      <g transform="translate(499.068478 329.598437)scale(0.1 -0.1)">
       <defs>
        <path d="M 33.015625 40.375 
Q 26.375 40.375 22.484375 35.828125 
Q 18.609375 31.296875 18.609375 23.390625 
Q 18.609375 15.53125 22.484375 10.953125 
Q 26.375 6.390625 33.015625 6.390625 
Q 39.65625 6.390625 43.53125 10.953125 
Q 47.40625 15.53125 47.40625 23.390625 
Q 47.40625 31.296875 43.53125 35.828125 
Q 39.65625 40.375 33.015625 40.375 
z
M 52.59375 71.296875 
L 52.59375 62.3125 
Q 48.875 64.0625 45.09375 64.984375 
Q 41.3125 65.921875 37.59375 65.921875 
Q 27.828125 65.921875 22.671875 59.328125 
Q 17.53125 52.734375 16.796875 39.40625 
Q 19.671875 43.65625 24.015625 45.921875 
Q 28.375 48.1875 33.59375 48.1875 
Q 44.578125 48.1875 50.953125 41.515625 
Q 57.328125 34.859375 57.328125 23.390625 
Q 57.328125 12.15625 50.6875 5.359375 
Q 44.046875 -1.421875 33.015625 -1.421875 
Q 20.359375 -1.421875 13.671875 8.265625 
Q 6.984375 17.96875 6.984375 36.375 
Q 6.984375 53.65625 15.1875 63.9375 
Q 23.390625 74.21875 37.203125 74.21875 
Q 40.921875 74.21875 44.703125 73.484375 
Q 48.484375 72.75 52.59375 71.296875 
z
" id="DejaVuSans-54"/>
       </defs>
       <use xlink:href="#DejaVuSans-54"/>
       <use x="63.623047" xlink:href="#DejaVuSans-48"/>
       <use x="127.246094" xlink:href="#DejaVuSans-48"/>
       <use x="190.869141" xlink:href="#DejaVuSans-48"/>
      </g>
     </g>
    </g>
    <g id="xtick_5">
     <g id="line2d_5">
      <g>
       <use style="stroke:#000000;stroke-width:0.8;" x="634.323123" xlink:href="#m0b9e1029aa" y="315"/>
      </g>
     </g>
     <g id="text_5">
      <!-- 8000 -->
      <g transform="translate(621.598123 329.598437)scale(0.1 -0.1)">
       <defs>
        <path d="M 31.78125 34.625 
Q 24.75 34.625 20.71875 30.859375 
Q 16.703125 27.09375 16.703125 20.515625 
Q 16.703125 13.921875 20.71875 10.15625 
Q 24.75 6.390625 31.78125 6.390625 
Q 38.8125 6.390625 42.859375 10.171875 
Q 46.921875 13.96875 46.921875 20.515625 
Q 46.921875 27.09375 42.890625 30.859375 
Q 38.875 34.625 31.78125 34.625 
z
M 21.921875 38.8125 
Q 15.578125 40.375 12.03125 44.71875 
Q 8.5 49.078125 8.5 55.328125 
Q 8.5 64.0625 14.71875 69.140625 
Q 20.953125 74.21875 31.78125 74.21875 
Q 42.671875 74.21875 48.875 69.140625 
Q 55.078125 64.0625 55.078125 55.328125 
Q 55.078125 49.078125 51.53125 44.71875 
Q 48 40.375 41.703125 38.8125 
Q 48.828125 37.15625 52.796875 32.3125 
Q 56.78125 27.484375 56.78125 20.515625 
Q 56.78125 9.90625 50.3125 4.234375 
Q 43.84375 -1.421875 31.78125 -1.421875 
Q 19.734375 -1.421875 13.25 4.234375 
Q 6.78125 9.90625 6.78125 20.515625 
Q 6.78125 27.484375 10.78125 32.3125 
Q 14.796875 37.15625 21.921875 38.8125 
z
M 18.3125 54.390625 
Q 18.3125 48.734375 21.84375 45.5625 
Q 25.390625 42.390625 31.78125 42.390625 
Q 38.140625 42.390625 41.71875 45.5625 
Q 45.3125 48.734375 45.3125 54.390625 
Q 45.3125 60.0625 41.71875 63.234375 
Q 38.140625 66.40625 31.78125 66.40625 
Q 25.390625 66.40625 21.84375 63.234375 
Q 18.3125 60.0625 18.3125 54.390625 
z
" id="DejaVuSans-56"/>
       </defs>
       <use xlink:href="#DejaVuSans-56"/>
       <use x="63.623047" xlink:href="#DejaVuSans-48"/>
       <use x="127.246094" xlink:href="#DejaVuSans-48"/>
       <use x="190.869141" xlink:href="#DejaVuSans-48"/>
      </g>
     </g>
    </g>
    <g id="xtick_6">
     <g id="line2d_6">
      <g>
       <use style="stroke:#000000;stroke-width:0.8;" x="756.852767" xlink:href="#m0b9e1029aa" y="315"/>
      </g>
     </g>
     <g id="text_6">
      <!-- 10000 -->
      <g transform="translate(740.946517 329.598437)scale(0.1 -0.1)">
       <defs>
        <path d="M 12.40625 8.296875 
L 28.515625 8.296875 
L 28.515625 63.921875 
L 10.984375 60.40625 
L 10.984375 69.390625 
L 28.421875 72.90625 
L 38.28125 72.90625 
L 38.28125 8.296875 
L 54.390625 8.296875 
L 54.390625 0 
L 12.40625 0 
z
" id="DejaVuSans-49"/>
       </defs>
       <use xlink:href="#DejaVuSans-49"/>
       <use x="63.623047" xlink:href="#DejaVuSans-48"/>
       <use x="127.246094" xlink:href="#DejaVuSans-48"/>
       <use x="190.869141" xlink:href="#DejaVuSans-48"/>
       <use x="254.492188" xlink:href="#DejaVuSans-48"/>
      </g>
     </g>
    </g>
   </g>
   <g id="matplotlib.axis_2">
    <g id="ytick_1">
     <g id="line2d_7">
      <defs>
       <path d="M 0 0 
L -3.5 0 
" id="m78574e33aa" style="stroke:#000000;stroke-width:0.8;"/>
      </defs>
      <g>
       <use style="stroke:#000000;stroke-width:0.8;" x="112.5" xlink:href="#m78574e33aa" y="302.127537"/>
      </g>
     </g>
     <g id="text_7">
      <!-- 0.0000 -->
      <g transform="translate(70.509375 305.926756)scale(0.1 -0.1)">
       <defs>
        <path d="M 10.6875 12.40625 
L 21 12.40625 
L 21 0 
L 10.6875 0 
z
" id="DejaVuSans-46"/>
       </defs>
       <use xlink:href="#DejaVuSans-48"/>
       <use x="63.623047" xlink:href="#DejaVuSans-46"/>
       <use x="95.410156" xlink:href="#DejaVuSans-48"/>
       <use x="159.033203" xlink:href="#DejaVuSans-48"/>
       <use x="222.65625" xlink:href="#DejaVuSans-48"/>
       <use x="286.279297" xlink:href="#DejaVuSans-48"/>
      </g>
     </g>
    </g>
    <g id="ytick_2">
     <g id="line2d_8">
      <g>
       <use style="stroke:#000000;stroke-width:0.8;" x="112.5" xlink:href="#m78574e33aa" y="258.397971"/>
      </g>
     </g>
     <g id="text_8">
      <!-- 0.0002 -->
      <g transform="translate(70.509375 262.197189)scale(0.1 -0.1)">
       <use xlink:href="#DejaVuSans-48"/>
       <use x="63.623047" xlink:href="#DejaVuSans-46"/>
       <use x="95.410156" xlink:href="#DejaVuSans-48"/>
       <use x="159.033203" xlink:href="#DejaVuSans-48"/>
       <use x="222.65625" xlink:href="#DejaVuSans-48"/>
       <use x="286.279297" xlink:href="#DejaVuSans-50"/>
      </g>
     </g>
    </g>
    <g id="ytick_3">
     <g id="line2d_9">
      <g>
       <use style="stroke:#000000;stroke-width:0.8;" x="112.5" xlink:href="#m78574e33aa" y="214.668404"/>
      </g>
     </g>
     <g id="text_9">
      <!-- 0.0004 -->
      <g transform="translate(70.509375 218.467623)scale(0.1 -0.1)">
       <use xlink:href="#DejaVuSans-48"/>
       <use x="63.623047" xlink:href="#DejaVuSans-46"/>
       <use x="95.410156" xlink:href="#DejaVuSans-48"/>
       <use x="159.033203" xlink:href="#DejaVuSans-48"/>
       <use x="222.65625" xlink:href="#DejaVuSans-48"/>
       <use x="286.279297" xlink:href="#DejaVuSans-52"/>
      </g>
     </g>
    </g>
    <g id="ytick_4">
     <g id="line2d_10">
      <g>
       <use style="stroke:#000000;stroke-width:0.8;" x="112.5" xlink:href="#m78574e33aa" y="170.938837"/>
      </g>
     </g>
     <g id="text_10">
      <!-- 0.0006 -->
      <g transform="translate(70.509375 174.738056)scale(0.1 -0.1)">
       <use xlink:href="#DejaVuSans-48"/>
       <use x="63.623047" xlink:href="#DejaVuSans-46"/>
       <use x="95.410156" xlink:href="#DejaVuSans-48"/>
       <use x="159.033203" xlink:href="#DejaVuSans-48"/>
       <use x="222.65625" xlink:href="#DejaVuSans-48"/>
       <use x="286.279297" xlink:href="#DejaVuSans-54"/>
      </g>
     </g>
    </g>
    <g id="ytick_5">
     <g id="line2d_11">
      <g>
       <use style="stroke:#000000;stroke-width:0.8;" x="112.5" xlink:href="#m78574e33aa" y="127.209271"/>
      </g>
     </g>
     <g id="text_11">
      <!-- 0.0008 -->
      <g transform="translate(70.509375 131.00849)scale(0.1 -0.1)">
       <use xlink:href="#DejaVuSans-48"/>
       <use x="63.623047" xlink:href="#DejaVuSans-46"/>
       <use x="95.410156" xlink:href="#DejaVuSans-48"/>
       <use x="159.033203" xlink:href="#DejaVuSans-48"/>
       <use x="222.65625" xlink:href="#DejaVuSans-48"/>
       <use x="286.279297" xlink:href="#DejaVuSans-56"/>
      </g>
     </g>
    </g>
    <g id="ytick_6">
     <g id="line2d_12">
      <g>
       <use style="stroke:#000000;stroke-width:0.8;" x="112.5" xlink:href="#m78574e33aa" y="83.479704"/>
      </g>
     </g>
     <g id="text_12">
      <!-- 0.0010 -->
      <g transform="translate(70.509375 87.278923)scale(0.1 -0.1)">
       <use xlink:href="#DejaVuSans-48"/>
       <use x="63.623047" xlink:href="#DejaVuSans-46"/>
       <use x="95.410156" xlink:href="#DejaVuSans-48"/>
       <use x="159.033203" xlink:href="#DejaVuSans-48"/>
       <use x="222.65625" xlink:href="#DejaVuSans-49"/>
       <use x="286.279297" xlink:href="#DejaVuSans-48"/>
      </g>
     </g>
    </g>
   </g>
   <g id="line2d_13">
    <path clip-path="url(#p07eba97bf7)" d="M 144.204545 302.645455 
L 150.609504 301.251746 
L 157.014463 299.835545 
L 163.419421 298.396851 
L 169.82438 296.935664 
L 176.229339 295.451983 
L 182.634298 293.94581 
L 189.039256 292.417144 
L 195.444215 290.865984 
L 201.849174 289.292332 
L 208.254132 287.696186 
L 214.659091 286.077547 
L 221.06405 284.436416 
L 227.469008 282.772791 
L 233.873967 281.086673 
L 240.278926 279.378062 
L 246.683884 277.646958 
L 253.088843 275.893361 
L 259.493802 274.117271 
L 265.89876 272.318688 
L 272.303719 270.497612 
L 278.708678 268.654043 
L 285.113636 266.78798 
L 291.518595 264.899425 
L 297.923554 262.988377 
L 304.328512 261.054835 
L 310.733471 259.098801 
L 317.13843 257.120273 
L 323.543388 255.119253 
L 329.948347 253.095739 
L 336.353306 251.049732 
L 342.758264 248.981233 
L 349.163223 246.89024 
L 355.568182 244.776754 
L 361.97314 242.640775 
L 368.378099 240.482303 
L 374.783058 238.301338 
L 381.188017 236.09788 
L 387.592975 233.871929 
L 393.997934 231.623485 
L 400.402893 229.352548 
L 406.807851 227.059117 
L 413.21281 224.743194 
L 419.617769 222.404778 
L 426.022727 220.043868 
L 432.427686 217.660466 
L 438.832645 215.25457 
L 445.237603 212.826181 
L 451.642562 210.3753 
L 458.047521 207.901925 
L 464.452479 205.406057 
L 470.857438 202.887696 
L 477.262397 200.346843 
L 483.667355 197.783496 
L 490.072314 195.197656 
L 496.477273 192.589323 
L 502.882231 189.958497 
L 509.28719 187.305177 
L 515.692149 184.629365 
L 522.097107 181.93106 
L 528.502066 179.210262 
L 534.907025 176.46697 
L 541.311983 173.701186 
L 547.716942 170.912908 
L 554.121901 168.102138 
L 560.52686 165.268874 
L 566.931818 162.413118 
L 573.336777 159.534868 
L 579.741736 156.634125 
L 586.146694 153.710889 
L 592.551653 150.765161 
L 598.956612 147.796939 
L 605.36157 144.806224 
L 611.766529 141.793016 
L 618.171488 138.757315 
L 624.576446 135.699121 
L 630.981405 132.618433 
L 637.386364 129.515253 
L 643.791322 126.38958 
L 650.196281 123.241414 
L 656.60124 120.070754 
L 663.006198 116.877602 
L 669.411157 113.661956 
L 675.816116 110.423818 
L 682.221074 107.163186 
L 688.626033 103.880061 
L 695.030992 100.574444 
L 701.43595 97.246333 
L 707.840909 93.895729 
L 714.245868 90.522632 
L 720.650826 87.127042 
L 727.055785 83.708959 
L 733.460744 80.268383 
L 739.865702 76.805314 
L 746.270661 73.319752 
L 752.67562 69.811697 
L 759.080579 66.281149 
L 765.485537 62.728107 
L 771.890496 59.152573 
L 778.295455 55.554545 
" style="fill:none;stroke:#0000ff;stroke-linecap:square;stroke-width:1.5;"/>
   </g>
   <g id="line2d_14">
    <path clip-path="url(#p07eba97bf7)" d="M 144.204545 71.677094 
L 150.609504 71.677094 
L 157.014463 71.677094 
L 163.419421 71.677094 
L 169.82438 71.677094 
L 176.229339 71.677094 
L 182.634298 71.677094 
L 189.039256 71.677094 
L 195.444215 71.677094 
L 201.849174 71.677094 
L 208.254132 71.677094 
L 214.659091 71.677094 
L 221.06405 71.677094 
L 227.469008 71.677094 
L 233.873967 71.677094 
L 240.278926 71.677094 
L 246.683884 71.677094 
L 253.088843 71.677094 
L 259.493802 71.677094 
L 265.89876 71.677094 
L 272.303719 71.677094 
L 278.708678 71.677094 
L 285.113636 71.677094 
L 291.518595 71.677094 
L 297.923554 71.677094 
L 304.328512 71.677094 
L 310.733471 71.677094 
L 317.13843 71.677094 
L 323.543388 71.677094 
L 329.948347 71.677094 
L 336.353306 71.677094 
L 342.758264 71.677094 
L 349.163223 71.677094 
L 355.568182 71.677094 
L 361.97314 71.677094 
L 368.378099 71.677094 
L 374.783058 71.677094 
L 381.188017 71.677094 
L 387.592975 71.677094 
L 393.997934 71.677094 
L 400.402893 71.677094 
L 406.807851 71.677094 
L 413.21281 71.677094 
L 419.617769 71.677094 
L 426.022727 71.677094 
L 432.427686 71.677094 
L 438.832645 71.677094 
L 445.237603 71.677094 
L 451.642562 71.677094 
L 458.047521 71.677094 
L 464.452479 71.677094 
L 470.857438 71.677094 
L 477.262397 71.677094 
L 483.667355 71.677094 
L 490.072314 71.677094 
L 496.477273 71.677094 
L 502.882231 71.677094 
L 509.28719 71.677094 
L 515.692149 71.677094 
L 522.097107 71.677094 
L 528.502066 71.677094 
L 534.907025 71.677094 
L 541.311983 71.677094 
L 547.716942 71.677094 
L 554.121901 71.677094 
L 560.52686 71.677094 
L 566.931818 71.677094 
L 573.336777 71.677094 
L 579.741736 71.677094 
L 586.146694 71.677094 
L 592.551653 71.677094 
L 598.956612 71.677094 
L 605.36157 71.677094 
L 611.766529 71.677094 
L 618.171488 71.677094 
L 624.576446 71.677094 
L 630.981405 71.677094 
L 637.386364 71.677094 
L 643.791322 71.677094 
L 650.196281 71.677094 
L 656.60124 71.677094 
L 663.006198 71.677094 
L 669.411157 71.677094 
L 675.816116 71.677094 
L 682.221074 71.677094 
L 688.626033 71.677094 
L 695.030992 71.677094 
L 701.43595 71.677094 
L 707.840909 71.677094 
L 714.245868 71.677094 
L 720.650826 71.677094 
L 727.055785 71.677094 
L 733.460744 71.677094 
L 739.865702 71.677094 
L 746.270661 71.677094 
L 752.67562 71.677094 
L 759.080579 71.677094 
L 765.485537 71.677094 
L 771.890496 71.677094 
L 778.295455 71.677094 
" style="fill:none;stroke:#008000;stroke-linecap:square;stroke-width:1.5;"/>
   </g>
   <g id="patch_3">
    <path d="M 112.5 315 
L 112.5 43.2 
" style="fill:none;stroke:#000000;stroke-linecap:square;stroke-linejoin:miter;stroke-width:0.8;"/>
   </g>
   <g id="patch_4">
    <path d="M 810 315 
L 810 43.2 
" style="fill:none;stroke:#000000;stroke-linecap:square;stroke-linejoin:miter;stroke-width:0.8;"/>
   </g>
   <g id="patch_5">
    <path d="M 112.5 315 
L 810 315 
" style="fill:none;stroke:#000000;stroke-linecap:square;stroke-linejoin:miter;stroke-width:0.8;"/>
   </g>
   <g id="patch_6">
    <path d="M 112.5 43.2 
L 810 43.2 
" style="fill:none;stroke:#000000;stroke-linecap:square;stroke-linejoin:miter;stroke-width:0.8;"/>
   </g>
   <g id="legend_1">
    <g id="patch_7">
     <path d="M 713.140625 310 
L 803 310 
Q 805 310 805 308 
L 805 279.0875 
Q 805 277.0875 803 277.0875 
L 713.140625 277.0875 
Q 711.140625 277.0875 711.140625 279.0875 
L 711.140625 308 
Q 711.140625 310 713.140625 310 
z
" style="fill:#ffffff;opacity:0.8;stroke:#cccccc;stroke-linejoin:miter;"/>
    </g>
    <g id="PathCollection_3">
     <g>
      <use style="fill:#0000ff;stroke:#0000ff;stroke-width:1.5;" x="725.140625" xlink:href="#mce45c2a8cf" y="286.060938"/>
     </g>
    </g>
    <g id="text_13">
     <!-- SIM_predict -->
     <g transform="translate(743.140625 288.685938)scale(0.1 -0.1)">
      <defs>
       <path d="M 53.515625 70.515625 
L 53.515625 60.890625 
Q 47.90625 63.578125 42.921875 64.890625 
Q 37.9375 66.21875 33.296875 66.21875 
Q 25.25 66.21875 20.875 63.09375 
Q 16.5 59.96875 16.5 54.203125 
Q 16.5 49.359375 19.40625 46.890625 
Q 22.3125 44.4375 30.421875 42.921875 
L 36.375 41.703125 
Q 47.40625 39.59375 52.65625 34.296875 
Q 57.90625 29 57.90625 20.125 
Q 57.90625 9.515625 50.796875 4.046875 
Q 43.703125 -1.421875 29.984375 -1.421875 
Q 24.8125 -1.421875 18.96875 -0.25 
Q 13.140625 0.921875 6.890625 3.21875 
L 6.890625 13.375 
Q 12.890625 10.015625 18.65625 8.296875 
Q 24.421875 6.59375 29.984375 6.59375 
Q 38.421875 6.59375 43.015625 9.90625 
Q 47.609375 13.234375 47.609375 19.390625 
Q 47.609375 24.75 44.3125 27.78125 
Q 41.015625 30.8125 33.5 32.328125 
L 27.484375 33.5 
Q 16.453125 35.6875 11.515625 40.375 
Q 6.59375 45.0625 6.59375 53.421875 
Q 6.59375 63.09375 13.40625 68.65625 
Q 20.21875 74.21875 32.171875 74.21875 
Q 37.3125 74.21875 42.625 73.28125 
Q 47.953125 72.359375 53.515625 70.515625 
z
" id="DejaVuSans-83"/>
       <path d="M 9.8125 72.90625 
L 19.671875 72.90625 
L 19.671875 0 
L 9.8125 0 
z
" id="DejaVuSans-73"/>
       <path d="M 9.8125 72.90625 
L 24.515625 72.90625 
L 43.109375 23.296875 
L 61.8125 72.90625 
L 76.515625 72.90625 
L 76.515625 0 
L 66.890625 0 
L 66.890625 64.015625 
L 48.09375 14.015625 
L 38.1875 14.015625 
L 19.390625 64.015625 
L 19.390625 0 
L 9.8125 0 
z
" id="DejaVuSans-77"/>
       <path d="M 50.984375 -16.609375 
L 50.984375 -23.578125 
L -0.984375 -23.578125 
L -0.984375 -16.609375 
z
" id="DejaVuSans-95"/>
       <path d="M 18.109375 8.203125 
L 18.109375 -20.796875 
L 9.078125 -20.796875 
L 9.078125 54.6875 
L 18.109375 54.6875 
L 18.109375 46.390625 
Q 20.953125 51.265625 25.265625 53.625 
Q 29.59375 56 35.59375 56 
Q 45.5625 56 51.78125 48.09375 
Q 58.015625 40.1875 58.015625 27.296875 
Q 58.015625 14.40625 51.78125 6.484375 
Q 45.5625 -1.421875 35.59375 -1.421875 
Q 29.59375 -1.421875 25.265625 0.953125 
Q 20.953125 3.328125 18.109375 8.203125 
z
M 48.6875 27.296875 
Q 48.6875 37.203125 44.609375 42.84375 
Q 40.53125 48.484375 33.40625 48.484375 
Q 26.265625 48.484375 22.1875 42.84375 
Q 18.109375 37.203125 18.109375 27.296875 
Q 18.109375 17.390625 22.1875 11.75 
Q 26.265625 6.109375 33.40625 6.109375 
Q 40.53125 6.109375 44.609375 11.75 
Q 48.6875 17.390625 48.6875 27.296875 
z
" id="DejaVuSans-112"/>
       <path d="M 41.109375 46.296875 
Q 39.59375 47.171875 37.8125 47.578125 
Q 36.03125 48 33.890625 48 
Q 26.265625 48 22.1875 43.046875 
Q 18.109375 38.09375 18.109375 28.8125 
L 18.109375 0 
L 9.078125 0 
L 9.078125 54.6875 
L 18.109375 54.6875 
L 18.109375 46.1875 
Q 20.953125 51.171875 25.484375 53.578125 
Q 30.03125 56 36.53125 56 
Q 37.453125 56 38.578125 55.875 
Q 39.703125 55.765625 41.0625 55.515625 
z
" id="DejaVuSans-114"/>
       <path d="M 56.203125 29.59375 
L 56.203125 25.203125 
L 14.890625 25.203125 
Q 15.484375 15.921875 20.484375 11.0625 
Q 25.484375 6.203125 34.421875 6.203125 
Q 39.59375 6.203125 44.453125 7.46875 
Q 49.3125 8.734375 54.109375 11.28125 
L 54.109375 2.78125 
Q 49.265625 0.734375 44.1875 -0.34375 
Q 39.109375 -1.421875 33.890625 -1.421875 
Q 20.796875 -1.421875 13.15625 6.1875 
Q 5.515625 13.8125 5.515625 26.8125 
Q 5.515625 40.234375 12.765625 48.109375 
Q 20.015625 56 32.328125 56 
Q 43.359375 56 49.78125 48.890625 
Q 56.203125 41.796875 56.203125 29.59375 
z
M 47.21875 32.234375 
Q 47.125 39.59375 43.09375 43.984375 
Q 39.0625 48.390625 32.421875 48.390625 
Q 24.90625 48.390625 20.390625 44.140625 
Q 15.875 39.890625 15.1875 32.171875 
z
" id="DejaVuSans-101"/>
       <path d="M 45.40625 46.390625 
L 45.40625 75.984375 
L 54.390625 75.984375 
L 54.390625 0 
L 45.40625 0 
L 45.40625 8.203125 
Q 42.578125 3.328125 38.25 0.953125 
Q 33.9375 -1.421875 27.875 -1.421875 
Q 17.96875 -1.421875 11.734375 6.484375 
Q 5.515625 14.40625 5.515625 27.296875 
Q 5.515625 40.1875 11.734375 48.09375 
Q 17.96875 56 27.875 56 
Q 33.9375 56 38.25 53.625 
Q 42.578125 51.265625 45.40625 46.390625 
z
M 14.796875 27.296875 
Q 14.796875 17.390625 18.875 11.75 
Q 22.953125 6.109375 30.078125 6.109375 
Q 37.203125 6.109375 41.296875 11.75 
Q 45.40625 17.390625 45.40625 27.296875 
Q 45.40625 37.203125 41.296875 42.84375 
Q 37.203125 48.484375 30.078125 48.484375 
Q 22.953125 48.484375 18.875 42.84375 
Q 14.796875 37.203125 14.796875 27.296875 
z
" id="DejaVuSans-100"/>
       <path d="M 9.421875 54.6875 
L 18.40625 54.6875 
L 18.40625 0 
L 9.421875 0 
z
M 9.421875 75.984375 
L 18.40625 75.984375 
L 18.40625 64.59375 
L 9.421875 64.59375 
z
" id="DejaVuSans-105"/>
       <path d="M 48.78125 52.59375 
L 48.78125 44.1875 
Q 44.96875 46.296875 41.140625 47.34375 
Q 37.3125 48.390625 33.40625 48.390625 
Q 24.65625 48.390625 19.8125 42.84375 
Q 14.984375 37.3125 14.984375 27.296875 
Q 14.984375 17.28125 19.8125 11.734375 
Q 24.65625 6.203125 33.40625 6.203125 
Q 37.3125 6.203125 41.140625 7.25 
Q 44.96875 8.296875 48.78125 10.40625 
L 48.78125 2.09375 
Q 45.015625 0.34375 40.984375 -0.53125 
Q 36.96875 -1.421875 32.421875 -1.421875 
Q 20.0625 -1.421875 12.78125 6.34375 
Q 5.515625 14.109375 5.515625 27.296875 
Q 5.515625 40.671875 12.859375 48.328125 
Q 20.21875 56 33.015625 56 
Q 37.15625 56 41.109375 55.140625 
Q 45.0625 54.296875 48.78125 52.59375 
z
" id="DejaVuSans-99"/>
       <path d="M 18.3125 70.21875 
L 18.3125 54.6875 
L 36.8125 54.6875 
L 36.8125 47.703125 
L 18.3125 47.703125 
L 18.3125 18.015625 
Q 18.3125 11.328125 20.140625 9.421875 
Q 21.96875 7.515625 27.59375 7.515625 
L 36.8125 7.515625 
L 36.8125 0 
L 27.59375 0 
Q 17.1875 0 13.234375 3.875 
Q 9.28125 7.765625 9.28125 18.015625 
L 9.28125 47.703125 
L 2.6875 47.703125 
L 2.6875 54.6875 
L 9.28125 54.6875 
L 9.28125 70.21875 
z
" id="DejaVuSans-116"/>
      </defs>
      <use xlink:href="#DejaVuSans-83"/>
      <use x="63.476562" xlink:href="#DejaVuSans-73"/>
      <use x="92.96875" xlink:href="#DejaVuSans-77"/>
      <use x="179.248047" xlink:href="#DejaVuSans-95"/>
      <use x="229.248047" xlink:href="#DejaVuSans-112"/>
      <use x="292.724609" xlink:href="#DejaVuSans-114"/>
      <use x="331.587891" xlink:href="#DejaVuSans-101"/>
      <use x="393.111328" xlink:href="#DejaVuSans-100"/>
      <use x="456.587891" xlink:href="#DejaVuSans-105"/>
      <use x="484.371094" xlink:href="#DejaVuSans-99"/>
      <use x="539.351562" xlink:href="#DejaVuSans-116"/>
     </g>
    </g>
    <g id="PathCollection_4">
     <g>
      <use style="fill:#008000;stroke:#008000;stroke-width:1.5;" x="725.140625" xlink:href="#m9effb6cccd" y="301.017187"/>
     </g>
    </g>
    <g id="text_14">
     <!-- RF_predict -->
     <g transform="translate(743.140625 303.642187)scale(0.1 -0.1)">
      <defs>
       <path d="M 44.390625 34.1875 
Q 47.5625 33.109375 50.5625 29.59375 
Q 53.5625 26.078125 56.59375 19.921875 
L 66.609375 0 
L 56 0 
L 46.6875 18.703125 
Q 43.0625 26.03125 39.671875 28.421875 
Q 36.28125 30.8125 30.421875 30.8125 
L 19.671875 30.8125 
L 19.671875 0 
L 9.8125 0 
L 9.8125 72.90625 
L 32.078125 72.90625 
Q 44.578125 72.90625 50.734375 67.671875 
Q 56.890625 62.453125 56.890625 51.90625 
Q 56.890625 45.015625 53.6875 40.46875 
Q 50.484375 35.9375 44.390625 34.1875 
z
M 19.671875 64.796875 
L 19.671875 38.921875 
L 32.078125 38.921875 
Q 39.203125 38.921875 42.84375 42.21875 
Q 46.484375 45.515625 46.484375 51.90625 
Q 46.484375 58.296875 42.84375 61.546875 
Q 39.203125 64.796875 32.078125 64.796875 
z
" id="DejaVuSans-82"/>
       <path d="M 9.8125 72.90625 
L 51.703125 72.90625 
L 51.703125 64.59375 
L 19.671875 64.59375 
L 19.671875 43.109375 
L 48.578125 43.109375 
L 48.578125 34.8125 
L 19.671875 34.8125 
L 19.671875 0 
L 9.8125 0 
z
" id="DejaVuSans-70"/>
      </defs>
      <use xlink:href="#DejaVuSans-82"/>
      <use x="69.482422" xlink:href="#DejaVuSans-70"/>
      <use x="127.001953" xlink:href="#DejaVuSans-95"/>
      <use x="177.001953" xlink:href="#DejaVuSans-112"/>
      <use x="240.478516" xlink:href="#DejaVuSans-114"/>
      <use x="279.341797" xlink:href="#DejaVuSans-101"/>
      <use x="340.865234" xlink:href="#DejaVuSans-100"/>
      <use x="404.341797" xlink:href="#DejaVuSans-105"/>
      <use x="432.125" xlink:href="#DejaVuSans-99"/>
      <use x="487.105469" xlink:href="#DejaVuSans-116"/>
     </g>
    </g>
   </g>
  </g>
 </g>
 <defs>
  <clipPath id="p07eba97bf7">
   <rect height="271.8" width="697.5" x="112.5" y="43.2"/>
  </clipPath>
 </defs>
</svg>
