<?xml version="1.0" encoding="utf-8" standalone="no"?>
<!DOCTYPE svg PUBLIC "-//W3C//DTD SVG 1.1//EN"
  "http://www.w3.org/Graphics/SVG/1.1/DTD/svg11.dtd">
<!-- Created with matplotlib (https://matplotlib.org/) -->
<svg height="360pt" version="1.1" viewBox="0 0 900 360" width="900pt" xmlns="http://www.w3.org/2000/svg" xmlns:xlink="http://www.w3.org/1999/xlink">
 <metadata>
  <rdf:RDF xmlns:cc="http://creativecommons.org/ns#" xmlns:dc="http://purl.org/dc/elements/1.1/" xmlns:rdf="http://www.w3.org/1999/02/22-rdf-syntax-ns#">
   <cc:Work>
    <dc:type rdf:resource="http://purl.org/dc/dcmitype/StillImage"/>
    <dc:date>2021-09-27T13:13:34.388333</dc:date>
    <dc:format>image/svg+xml</dc:format>
    <dc:creator>
     <cc:Agent>
      <dc:title>Matplotlib v3.3.2, https://matplotlib.org/</dc:title>
     </cc:Agent>
    </dc:creator>
   </cc:Work>
  </rdf:RDF>
 </metadata>
 <defs>
  <style type="text/css">*{stroke-linecap:butt;stroke-linejoin:round;}</style>
 </defs>
 <g id="figure_1">
  <g id="patch_1">
   <path d="M 0 360 
L 900 360 
L 900 0 
L 0 0 
z
" style="fill:none;"/>
  </g>
  <g id="axes_1">
   <g id="patch_2">
    <path d="M 112.5 315 
L 810 315 
L 810 43.2 
L 112.5 43.2 
z
" style="fill:#ffffff;"/>
   </g>
   <g id="matplotlib.axis_1">
    <g id="xtick_1">
     <g id="line2d_1">
      <defs>
       <path d="M 0 0 
L 0 3.5 
" id="m8fa0137312" style="stroke:#000000;stroke-width:0.8;"/>
      </defs>
      <g>
       <use style="stroke:#000000;stroke-width:0.8;" x="144.204545" xlink:href="#m8fa0137312" y="315"/>
      </g>
     </g>
     <g id="text_1">
      <!-- 0 -->
      <g transform="translate(141.023295 329.598437)scale(0.1 -0.1)">
       <defs>
        <path d="M 31.78125 66.40625 
Q 24.171875 66.40625 20.328125 58.90625 
Q 16.5 51.421875 16.5 36.375 
Q 16.5 21.390625 20.328125 13.890625 
Q 24.171875 6.390625 31.78125 6.390625 
Q 39.453125 6.390625 43.28125 13.890625 
Q 47.125 21.390625 47.125 36.375 
Q 47.125 51.421875 43.28125 58.90625 
Q 39.453125 66.40625 31.78125 66.40625 
z
M 31.78125 74.21875 
Q 44.046875 74.21875 50.515625 64.515625 
Q 56.984375 54.828125 56.984375 36.375 
Q 56.984375 17.96875 50.515625 8.265625 
Q 44.046875 -1.421875 31.78125 -1.421875 
Q 19.53125 -1.421875 13.0625 8.265625 
Q 6.59375 17.96875 6.59375 36.375 
Q 6.59375 54.828125 13.0625 64.515625 
Q 19.53125 74.21875 31.78125 74.21875 
z
" id="DejaVuSans-48"/>
       </defs>
       <use xlink:href="#DejaVuSans-48"/>
      </g>
     </g>
    </g>
    <g id="xtick_2">
     <g id="line2d_2">
      <g>
       <use style="stroke:#000000;stroke-width:0.8;" x="266.73419" xlink:href="#m8fa0137312" y="315"/>
      </g>
     </g>
     <g id="text_2">
      <!-- 2000 -->
      <g transform="translate(254.00919 329.598437)scale(0.1 -0.1)">
       <defs>
        <path d="M 19.1875 8.296875 
L 53.609375 8.296875 
L 53.609375 0 
L 7.328125 0 
L 7.328125 8.296875 
Q 12.9375 14.109375 22.625 23.890625 
Q 32.328125 33.6875 34.8125 36.53125 
Q 39.546875 41.84375 41.421875 45.53125 
Q 43.3125 49.21875 43.3125 52.78125 
Q 43.3125 58.59375 39.234375 62.25 
Q 35.15625 65.921875 28.609375 65.921875 
Q 23.96875 65.921875 18.8125 64.3125 
Q 13.671875 62.703125 7.8125 59.421875 
L 7.8125 69.390625 
Q 13.765625 71.78125 18.9375 73 
Q 24.125 74.21875 28.421875 74.21875 
Q 39.75 74.21875 46.484375 68.546875 
Q 53.21875 62.890625 53.21875 53.421875 
Q 53.21875 48.921875 51.53125 44.890625 
Q 49.859375 40.875 45.40625 35.40625 
Q 44.1875 33.984375 37.640625 27.21875 
Q 31.109375 20.453125 19.1875 8.296875 
z
" id="DejaVuSans-50"/>
       </defs>
       <use xlink:href="#DejaVuSans-50"/>
       <use x="63.623047" xlink:href="#DejaVuSans-48"/>
       <use x="127.246094" xlink:href="#DejaVuSans-48"/>
       <use x="190.869141" xlink:href="#DejaVuSans-48"/>
      </g>
     </g>
    </g>
    <g id="xtick_3">
     <g id="line2d_3">
      <g>
       <use style="stroke:#000000;stroke-width:0.8;" x="389.263834" xlink:href="#m8fa0137312" y="315"/>
      </g>
     </g>
     <g id="text_3">
      <!-- 4000 -->
      <g transform="translate(376.538834 329.598437)scale(0.1 -0.1)">
       <defs>
        <path d="M 37.796875 64.3125 
L 12.890625 25.390625 
L 37.796875 25.390625 
z
M 35.203125 72.90625 
L 47.609375 72.90625 
L 47.609375 25.390625 
L 58.015625 25.390625 
L 58.015625 17.1875 
L 47.609375 17.1875 
L 47.609375 0 
L 37.796875 0 
L 37.796875 17.1875 
L 4.890625 17.1875 
L 4.890625 26.703125 
z
" id="DejaVuSans-52"/>
       </defs>
       <use xlink:href="#DejaVuSans-52"/>
       <use x="63.623047" xlink:href="#DejaVuSans-48"/>
       <use x="127.246094" xlink:href="#DejaVuSans-48"/>
       <use x="190.869141" xlink:href="#DejaVuSans-48"/>
      </g>
     </g>
    </g>
    <g id="xtick_4">
     <g id="line2d_4">
      <g>
       <use style="stroke:#000000;stroke-width:0.8;" x="511.793478" xlink:href="#m8fa0137312" y="315"/>
      </g>
     </g>
     <g id="text_4">
      <!-- 6000 -->
      <g transform="translate(499.068478 329.598437)scale(0.1 -0.1)">
       <defs>
        <path d="M 33.015625 40.375 
Q 26.375 40.375 22.484375 35.828125 
Q 18.609375 31.296875 18.609375 23.390625 
Q 18.609375 15.53125 22.484375 10.953125 
Q 26.375 6.390625 33.015625 6.390625 
Q 39.65625 6.390625 43.53125 10.953125 
Q 47.40625 15.53125 47.40625 23.390625 
Q 47.40625 31.296875 43.53125 35.828125 
Q 39.65625 40.375 33.015625 40.375 
z
M 52.59375 71.296875 
L 52.59375 62.3125 
Q 48.875 64.0625 45.09375 64.984375 
Q 41.3125 65.921875 37.59375 65.921875 
Q 27.828125 65.921875 22.671875 59.328125 
Q 17.53125 52.734375 16.796875 39.40625 
Q 19.671875 43.65625 24.015625 45.921875 
Q 28.375 48.1875 33.59375 48.1875 
Q 44.578125 48.1875 50.953125 41.515625 
Q 57.328125 34.859375 57.328125 23.390625 
Q 57.328125 12.15625 50.6875 5.359375 
Q 44.046875 -1.421875 33.015625 -1.421875 
Q 20.359375 -1.421875 13.671875 8.265625 
Q 6.984375 17.96875 6.984375 36.375 
Q 6.984375 53.65625 15.1875 63.9375 
Q 23.390625 74.21875 37.203125 74.21875 
Q 40.921875 74.21875 44.703125 73.484375 
Q 48.484375 72.75 52.59375 71.296875 
z
" id="DejaVuSans-54"/>
       </defs>
       <use xlink:href="#DejaVuSans-54"/>
       <use x="63.623047" xlink:href="#DejaVuSans-48"/>
       <use x="127.246094" xlink:href="#DejaVuSans-48"/>
       <use x="190.869141" xlink:href="#DejaVuSans-48"/>
      </g>
     </g>
    </g>
    <g id="xtick_5">
     <g id="line2d_5">
      <g>
       <use style="stroke:#000000;stroke-width:0.8;" x="634.323123" xlink:href="#m8fa0137312" y="315"/>
      </g>
     </g>
     <g id="text_5">
      <!-- 8000 -->
      <g transform="translate(621.598123 329.598437)scale(0.1 -0.1)">
       <defs>
        <path d="M 31.78125 34.625 
Q 24.75 34.625 20.71875 30.859375 
Q 16.703125 27.09375 16.703125 20.515625 
Q 16.703125 13.921875 20.71875 10.15625 
Q 24.75 6.390625 31.78125 6.390625 
Q 38.8125 6.390625 42.859375 10.171875 
Q 46.921875 13.96875 46.921875 20.515625 
Q 46.921875 27.09375 42.890625 30.859375 
Q 38.875 34.625 31.78125 34.625 
z
M 21.921875 38.8125 
Q 15.578125 40.375 12.03125 44.71875 
Q 8.5 49.078125 8.5 55.328125 
Q 8.5 64.0625 14.71875 69.140625 
Q 20.953125 74.21875 31.78125 74.21875 
Q 42.671875 74.21875 48.875 69.140625 
Q 55.078125 64.0625 55.078125 55.328125 
Q 55.078125 49.078125 51.53125 44.71875 
Q 48 40.375 41.703125 38.8125 
Q 48.828125 37.15625 52.796875 32.3125 
Q 56.78125 27.484375 56.78125 20.515625 
Q 56.78125 9.90625 50.3125 4.234375 
Q 43.84375 -1.421875 31.78125 -1.421875 
Q 19.734375 -1.421875 13.25 4.234375 
Q 6.78125 9.90625 6.78125 20.515625 
Q 6.78125 27.484375 10.78125 32.3125 
Q 14.796875 37.15625 21.921875 38.8125 
z
M 18.3125 54.390625 
Q 18.3125 48.734375 21.84375 45.5625 
Q 25.390625 42.390625 31.78125 42.390625 
Q 38.140625 42.390625 41.71875 45.5625 
Q 45.3125 48.734375 45.3125 54.390625 
Q 45.3125 60.0625 41.71875 63.234375 
Q 38.140625 66.40625 31.78125 66.40625 
Q 25.390625 66.40625 21.84375 63.234375 
Q 18.3125 60.0625 18.3125 54.390625 
z
" id="DejaVuSans-56"/>
       </defs>
       <use xlink:href="#DejaVuSans-56"/>
       <use x="63.623047" xlink:href="#DejaVuSans-48"/>
       <use x="127.246094" xlink:href="#DejaVuSans-48"/>
       <use x="190.869141" xlink:href="#DejaVuSans-48"/>
      </g>
     </g>
    </g>
    <g id="xtick_6">
     <g id="line2d_6">
      <g>
       <use style="stroke:#000000;stroke-width:0.8;" x="756.852767" xlink:href="#m8fa0137312" y="315"/>
      </g>
     </g>
     <g id="text_6">
      <!-- 10000 -->
      <g transform="translate(740.946517 329.598437)scale(0.1 -0.1)">
       <defs>
        <path d="M 12.40625 8.296875 
L 28.515625 8.296875 
L 28.515625 63.921875 
L 10.984375 60.40625 
L 10.984375 69.390625 
L 28.421875 72.90625 
L 38.28125 72.90625 
L 38.28125 8.296875 
L 54.390625 8.296875 
L 54.390625 0 
L 12.40625 0 
z
" id="DejaVuSans-49"/>
       </defs>
       <use xlink:href="#DejaVuSans-49"/>
       <use x="63.623047" xlink:href="#DejaVuSans-48"/>
       <use x="127.246094" xlink:href="#DejaVuSans-48"/>
       <use x="190.869141" xlink:href="#DejaVuSans-48"/>
       <use x="254.492188" xlink:href="#DejaVuSans-48"/>
      </g>
     </g>
    </g>
   </g>
   <g id="matplotlib.axis_2">
    <g id="ytick_1">
     <g id="line2d_7">
      <defs>
       <path d="M 0 0 
L -3.5 0 
" id="mde7d10616d" style="stroke:#000000;stroke-width:0.8;"/>
      </defs>
      <g>
       <use style="stroke:#000000;stroke-width:0.8;" x="112.5" xlink:href="#mde7d10616d" y="286.588376"/>
      </g>
     </g>
     <g id="text_7">
      <!-- 0 -->
      <g transform="translate(99.1375 290.387595)scale(0.1 -0.1)">
       <use xlink:href="#DejaVuSans-48"/>
      </g>
     </g>
    </g>
    <g id="ytick_2">
     <g id="line2d_8">
      <g>
       <use style="stroke:#000000;stroke-width:0.8;" x="112.5" xlink:href="#mde7d10616d" y="228.774756"/>
      </g>
     </g>
     <g id="text_8">
      <!-- 10 -->
      <g transform="translate(92.775 232.573974)scale(0.1 -0.1)">
       <use xlink:href="#DejaVuSans-49"/>
       <use x="63.623047" xlink:href="#DejaVuSans-48"/>
      </g>
     </g>
    </g>
    <g id="ytick_3">
     <g id="line2d_9">
      <g>
       <use style="stroke:#000000;stroke-width:0.8;" x="112.5" xlink:href="#mde7d10616d" y="170.961135"/>
      </g>
     </g>
     <g id="text_9">
      <!-- 20 -->
      <g transform="translate(92.775 174.760354)scale(0.1 -0.1)">
       <use xlink:href="#DejaVuSans-50"/>
       <use x="63.623047" xlink:href="#DejaVuSans-48"/>
      </g>
     </g>
    </g>
    <g id="ytick_4">
     <g id="line2d_10">
      <g>
       <use style="stroke:#000000;stroke-width:0.8;" x="112.5" xlink:href="#mde7d10616d" y="113.147515"/>
      </g>
     </g>
     <g id="text_10">
      <!-- 30 -->
      <g transform="translate(92.775 116.946734)scale(0.1 -0.1)">
       <defs>
        <path d="M 40.578125 39.3125 
Q 47.65625 37.796875 51.625 33 
Q 55.609375 28.21875 55.609375 21.1875 
Q 55.609375 10.40625 48.1875 4.484375 
Q 40.765625 -1.421875 27.09375 -1.421875 
Q 22.515625 -1.421875 17.65625 -0.515625 
Q 12.796875 0.390625 7.625 2.203125 
L 7.625 11.71875 
Q 11.71875 9.328125 16.59375 8.109375 
Q 21.484375 6.890625 26.8125 6.890625 
Q 36.078125 6.890625 40.9375 10.546875 
Q 45.796875 14.203125 45.796875 21.1875 
Q 45.796875 27.640625 41.28125 31.265625 
Q 36.765625 34.90625 28.71875 34.90625 
L 20.21875 34.90625 
L 20.21875 43.015625 
L 29.109375 43.015625 
Q 36.375 43.015625 40.234375 45.921875 
Q 44.09375 48.828125 44.09375 54.296875 
Q 44.09375 59.90625 40.109375 62.90625 
Q 36.140625 65.921875 28.71875 65.921875 
Q 24.65625 65.921875 20.015625 65.03125 
Q 15.375 64.15625 9.8125 62.3125 
L 9.8125 71.09375 
Q 15.4375 72.65625 20.34375 73.4375 
Q 25.25 74.21875 29.59375 74.21875 
Q 40.828125 74.21875 47.359375 69.109375 
Q 53.90625 64.015625 53.90625 55.328125 
Q 53.90625 49.265625 50.4375 45.09375 
Q 46.96875 40.921875 40.578125 39.3125 
z
" id="DejaVuSans-51"/>
       </defs>
       <use xlink:href="#DejaVuSans-51"/>
       <use x="63.623047" xlink:href="#DejaVuSans-48"/>
      </g>
     </g>
    </g>
    <g id="ytick_5">
     <g id="line2d_11">
      <g>
       <use style="stroke:#000000;stroke-width:0.8;" x="112.5" xlink:href="#mde7d10616d" y="55.333895"/>
      </g>
     </g>
     <g id="text_11">
      <!-- 40 -->
      <g transform="translate(92.775 59.133113)scale(0.1 -0.1)">
       <use xlink:href="#DejaVuSans-52"/>
       <use x="63.623047" xlink:href="#DejaVuSans-48"/>
      </g>
     </g>
    </g>
   </g>
   <g id="line2d_12">
    <path clip-path="url(#p6dd32af563)" d="M 185.190711 286.588374 
L 226.176877 270.602317 
L 267.163043 254.78693 
L 308.149209 238.876471 
L 349.135375 222.987725 
L 390.121542 206.932079 
L 431.107708 190.6911 
L 472.093874 174.786735 
L 513.08004 159.331989 
L 554.066206 142.306998 
L 595.052372 127.112293 
L 636.038538 110.976097 
L 677.024704 94.594825 
L 718.01087 79.250395 
L 758.997036 63.291484 
" style="fill:none;stroke:#0000ff;stroke-linecap:square;stroke-width:1.5;"/>
    <defs>
     <path d="M 0 -6 
L -6 6 
L 6 6 
z
" id="mf87956582e" style="stroke:#0000ff;stroke-linejoin:miter;"/>
    </defs>
    <g clip-path="url(#p6dd32af563)">
     <use style="fill:#0000ff;stroke:#0000ff;stroke-linejoin:miter;" x="185.190711" xlink:href="#mf87956582e" y="286.588374"/>
     <use style="fill:#0000ff;stroke:#0000ff;stroke-linejoin:miter;" x="226.176877" xlink:href="#mf87956582e" y="270.602317"/>
     <use style="fill:#0000ff;stroke:#0000ff;stroke-linejoin:miter;" x="267.163043" xlink:href="#mf87956582e" y="254.78693"/>
     <use style="fill:#0000ff;stroke:#0000ff;stroke-linejoin:miter;" x="308.149209" xlink:href="#mf87956582e" y="238.876471"/>
     <use style="fill:#0000ff;stroke:#0000ff;stroke-linejoin:miter;" x="349.135375" xlink:href="#mf87956582e" y="222.987725"/>
     <use style="fill:#0000ff;stroke:#0000ff;stroke-linejoin:miter;" x="390.121542" xlink:href="#mf87956582e" y="206.932079"/>
     <use style="fill:#0000ff;stroke:#0000ff;stroke-linejoin:miter;" x="431.107708" xlink:href="#mf87956582e" y="190.6911"/>
     <use style="fill:#0000ff;stroke:#0000ff;stroke-linejoin:miter;" x="472.093874" xlink:href="#mf87956582e" y="174.786735"/>
     <use style="fill:#0000ff;stroke:#0000ff;stroke-linejoin:miter;" x="513.08004" xlink:href="#mf87956582e" y="159.331989"/>
     <use style="fill:#0000ff;stroke:#0000ff;stroke-linejoin:miter;" x="554.066206" xlink:href="#mf87956582e" y="142.306998"/>
     <use style="fill:#0000ff;stroke:#0000ff;stroke-linejoin:miter;" x="595.052372" xlink:href="#mf87956582e" y="127.112293"/>
     <use style="fill:#0000ff;stroke:#0000ff;stroke-linejoin:miter;" x="636.038538" xlink:href="#mf87956582e" y="110.976097"/>
     <use style="fill:#0000ff;stroke:#0000ff;stroke-linejoin:miter;" x="677.024704" xlink:href="#mf87956582e" y="94.594825"/>
     <use style="fill:#0000ff;stroke:#0000ff;stroke-linejoin:miter;" x="718.01087" xlink:href="#mf87956582e" y="79.250395"/>
     <use style="fill:#0000ff;stroke:#0000ff;stroke-linejoin:miter;" x="758.997036" xlink:href="#mf87956582e" y="63.291484"/>
    </g>
   </g>
   <g id="line2d_13">
    <path clip-path="url(#p6dd32af563)" d="M 144.204545 302.645455 
L 150.609504 300.149587 
L 157.014463 297.653719 
L 163.419421 295.157851 
L 169.82438 292.661983 
L 176.229339 290.166116 
L 182.634298 287.670248 
L 189.039256 285.17438 
L 195.444215 282.678512 
L 201.849174 280.182645 
L 208.254132 277.686777 
L 214.659091 275.190909 
L 221.06405 272.695041 
L 227.469008 270.199174 
L 233.873967 267.703306 
L 240.278926 265.207438 
L 246.683884 262.71157 
L 253.088843 260.215702 
L 259.493802 257.719835 
L 265.89876 255.223967 
L 272.303719 252.728099 
L 278.708678 250.232231 
L 285.113636 247.736364 
L 291.518595 245.240496 
L 297.923554 242.744628 
L 304.328512 240.24876 
L 310.733471 237.752893 
L 317.13843 235.257025 
L 323.543388 232.761157 
L 329.948347 230.265289 
L 336.353306 227.769421 
L 342.758264 225.273554 
L 349.163223 222.777686 
L 355.568182 220.281818 
L 361.97314 217.78595 
L 368.378099 215.290083 
L 374.783058 212.794215 
L 381.188017 210.298347 
L 387.592975 207.802479 
L 393.997934 205.306612 
L 400.402893 202.810744 
L 406.807851 200.314876 
L 413.21281 197.819008 
L 419.617769 195.32314 
L 426.022727 192.827273 
L 432.427686 190.331405 
L 438.832645 187.835537 
L 445.237603 185.339669 
L 451.642562 182.843802 
L 458.047521 180.347934 
L 464.452479 177.852066 
L 470.857438 175.356198 
L 477.262397 172.860331 
L 483.667355 170.364463 
L 490.072314 167.868595 
L 496.477273 165.372727 
L 502.882231 162.87686 
L 509.28719 160.380992 
L 515.692149 157.885124 
L 522.097107 155.389256 
L 528.502066 152.893388 
L 534.907025 150.397521 
L 541.311983 147.901653 
L 547.716942 145.405785 
L 554.121901 142.909917 
L 560.52686 140.41405 
L 566.931818 137.918182 
L 573.336777 135.422314 
L 579.741736 132.926446 
L 586.146694 130.430579 
L 592.551653 127.934711 
L 598.956612 125.438843 
L 605.36157 122.942975 
L 611.766529 120.447107 
L 618.171488 117.95124 
L 624.576446 115.455372 
L 630.981405 112.959504 
L 637.386364 110.463636 
L 643.791322 107.967769 
L 650.196281 105.471901 
L 656.60124 102.976033 
L 663.006198 100.480165 
L 669.411157 97.984298 
L 675.816116 95.48843 
L 682.221074 92.992562 
L 688.626033 90.496694 
L 695.030992 88.000826 
L 701.43595 85.504959 
L 707.840909 83.009091 
L 714.245868 80.513223 
L 720.650826 78.017355 
L 727.055785 75.521488 
L 733.460744 73.02562 
L 739.865702 70.529752 
L 746.270661 68.033884 
L 752.67562 65.538017 
L 759.080579 63.042149 
L 765.485537 60.546281 
L 771.890496 58.050413 
L 778.295455 55.554545 
" style="fill:none;stroke:#0000ff;stroke-linecap:square;stroke-width:1.5;"/>
   </g>
   <g id="line2d_14">
    <path clip-path="url(#p6dd32af563)" d="M 185.190711 261.699231 
L 226.176877 252.818297 
L 267.163043 246.748054 
L 308.149209 218.159775 
L 349.135375 212.932318 
L 390.121542 209.573915 
L 431.107708 198.859209 
L 472.093874 188.487747 
L 513.08004 183.715514 
L 554.066206 177.69385 
L 595.052372 170.166039 
L 636.038538 165.192315 
L 677.024704 161.382111 
L 718.01087 155.926415 
L 758.997036 150.446829 
" style="fill:none;stroke:#008000;stroke-linecap:square;stroke-width:1.5;"/>
    <defs>
     <path d="M 0 -6 
L -6 6 
L 6 6 
z
" id="m609c04d054" style="stroke:#008000;stroke-linejoin:miter;"/>
    </defs>
    <g clip-path="url(#p6dd32af563)">
     <use style="fill:#008000;stroke:#008000;stroke-linejoin:miter;" x="185.190711" xlink:href="#m609c04d054" y="261.699231"/>
     <use style="fill:#008000;stroke:#008000;stroke-linejoin:miter;" x="226.176877" xlink:href="#m609c04d054" y="252.818297"/>
     <use style="fill:#008000;stroke:#008000;stroke-linejoin:miter;" x="267.163043" xlink:href="#m609c04d054" y="246.748054"/>
     <use style="fill:#008000;stroke:#008000;stroke-linejoin:miter;" x="308.149209" xlink:href="#m609c04d054" y="218.159775"/>
     <use style="fill:#008000;stroke:#008000;stroke-linejoin:miter;" x="349.135375" xlink:href="#m609c04d054" y="212.932318"/>
     <use style="fill:#008000;stroke:#008000;stroke-linejoin:miter;" x="390.121542" xlink:href="#m609c04d054" y="209.573915"/>
     <use style="fill:#008000;stroke:#008000;stroke-linejoin:miter;" x="431.107708" xlink:href="#m609c04d054" y="198.859209"/>
     <use style="fill:#008000;stroke:#008000;stroke-linejoin:miter;" x="472.093874" xlink:href="#m609c04d054" y="188.487747"/>
     <use style="fill:#008000;stroke:#008000;stroke-linejoin:miter;" x="513.08004" xlink:href="#m609c04d054" y="183.715514"/>
     <use style="fill:#008000;stroke:#008000;stroke-linejoin:miter;" x="554.066206" xlink:href="#m609c04d054" y="177.69385"/>
     <use style="fill:#008000;stroke:#008000;stroke-linejoin:miter;" x="595.052372" xlink:href="#m609c04d054" y="170.166039"/>
     <use style="fill:#008000;stroke:#008000;stroke-linejoin:miter;" x="636.038538" xlink:href="#m609c04d054" y="165.192315"/>
     <use style="fill:#008000;stroke:#008000;stroke-linejoin:miter;" x="677.024704" xlink:href="#m609c04d054" y="161.382111"/>
     <use style="fill:#008000;stroke:#008000;stroke-linejoin:miter;" x="718.01087" xlink:href="#m609c04d054" y="155.926415"/>
     <use style="fill:#008000;stroke:#008000;stroke-linejoin:miter;" x="758.997036" xlink:href="#m609c04d054" y="150.446829"/>
    </g>
   </g>
   <g id="line2d_15">
    <path clip-path="url(#p6dd32af563)" d="M 144.204545 259.949259 
L 150.609504 258.718065 
L 157.014463 257.486872 
L 163.419421 256.255678 
L 169.82438 255.024484 
L 176.229339 253.793291 
L 182.634298 252.562097 
L 189.039256 251.330904 
L 195.444215 250.09971 
L 201.849174 248.868516 
L 208.254132 247.637323 
L 214.659091 246.406129 
L 221.06405 245.174935 
L 227.469008 243.943742 
L 233.873967 242.712548 
L 240.278926 241.481355 
L 246.683884 240.250161 
L 253.088843 239.018967 
L 259.493802 237.787774 
L 265.89876 236.55658 
L 272.303719 235.325387 
L 278.708678 234.094193 
L 285.113636 232.862999 
L 291.518595 231.631806 
L 297.923554 230.400612 
L 304.328512 229.169419 
L 310.733471 227.938225 
L 317.13843 226.707031 
L 323.543388 225.475838 
L 329.948347 224.244644 
L 336.353306 223.013451 
L 342.758264 221.782257 
L 349.163223 220.551063 
L 355.568182 219.31987 
L 361.97314 218.088676 
L 368.378099 216.857483 
L 374.783058 215.626289 
L 381.188017 214.395095 
L 387.592975 213.163902 
L 393.997934 211.932708 
L 400.402893 210.701515 
L 406.807851 209.470321 
L 413.21281 208.239127 
L 419.617769 207.007934 
L 426.022727 205.77674 
L 432.427686 204.545547 
L 438.832645 203.314353 
L 445.237603 202.083159 
L 451.642562 200.851966 
L 458.047521 199.620772 
L 464.452479 198.389579 
L 470.857438 197.158385 
L 477.262397 195.927191 
L 483.667355 194.695998 
L 490.072314 193.464804 
L 496.477273 192.233611 
L 502.882231 191.002417 
L 509.28719 189.771223 
L 515.692149 188.54003 
L 522.097107 187.308836 
L 528.502066 186.077643 
L 534.907025 184.846449 
L 541.311983 183.615255 
L 547.716942 182.384062 
L 554.121901 181.152868 
L 560.52686 179.921675 
L 566.931818 178.690481 
L 573.336777 177.459287 
L 579.741736 176.228094 
L 586.146694 174.9969 
L 592.551653 173.765707 
L 598.956612 172.534513 
L 605.36157 171.303319 
L 611.766529 170.072126 
L 618.171488 168.840932 
L 624.576446 167.609739 
L 630.981405 166.378545 
L 637.386364 165.147351 
L 643.791322 163.916158 
L 650.196281 162.684964 
L 656.60124 161.453771 
L 663.006198 160.222577 
L 669.411157 158.991383 
L 675.816116 157.76019 
L 682.221074 156.528996 
L 688.626033 155.297803 
L 695.030992 154.066609 
L 701.43595 152.835415 
L 707.840909 151.604222 
L 714.245868 150.373028 
L 720.650826 149.141835 
L 727.055785 147.910641 
L 733.460744 146.679447 
L 739.865702 145.448254 
L 746.270661 144.21706 
L 752.67562 142.985866 
L 759.080579 141.754673 
L 765.485537 140.523479 
L 771.890496 139.292286 
L 778.295455 138.061092 
" style="fill:none;stroke:#008000;stroke-linecap:square;stroke-width:1.5;"/>
   </g>
   <g id="patch_3">
    <path d="M 112.5 315 
L 112.5 43.2 
" style="fill:none;stroke:#000000;stroke-linecap:square;stroke-linejoin:miter;stroke-width:0.8;"/>
   </g>
   <g id="patch_4">
    <path d="M 810 315 
L 810 43.2 
" style="fill:none;stroke:#000000;stroke-linecap:square;stroke-linejoin:miter;stroke-width:0.8;"/>
   </g>
   <g id="patch_5">
    <path d="M 112.5 315 
L 810 315 
" style="fill:none;stroke:#000000;stroke-linecap:square;stroke-linejoin:miter;stroke-width:0.8;"/>
   </g>
   <g id="patch_6">
    <path d="M 112.5 43.2 
L 810 43.2 
" style="fill:none;stroke:#000000;stroke-linecap:square;stroke-linejoin:miter;stroke-width:0.8;"/>
   </g>
   <g id="legend_1">
    <g id="patch_7">
     <path d="M 119.5 111.025 
L 252.639063 111.025 
Q 254.639063 111.025 254.639063 109.025 
L 254.639063 50.2 
Q 254.639063 48.2 252.639063 48.2 
L 119.5 48.2 
Q 117.5 48.2 117.5 50.2 
L 117.5 109.025 
Q 117.5 111.025 119.5 111.025 
z
" style="fill:#ffffff;opacity:0.8;stroke:#cccccc;stroke-linejoin:miter;"/>
    </g>
    <g id="line2d_16">
     <path d="M 121.5 56.298437 
L 141.5 56.298437 
" style="fill:none;stroke:#0000ff;stroke-linecap:square;stroke-width:1.5;"/>
    </g>
    <g id="line2d_17">
     <g>
      <use style="fill:#0000ff;stroke:#0000ff;stroke-linejoin:miter;" x="131.5" xlink:href="#mf87956582e" y="56.298437"/>
     </g>
    </g>
    <g id="text_12">
     <!-- SIM_train -->
     <g transform="translate(149.5 59.798437)scale(0.1 -0.1)">
      <defs>
       <path d="M 53.515625 70.515625 
L 53.515625 60.890625 
Q 47.90625 63.578125 42.921875 64.890625 
Q 37.9375 66.21875 33.296875 66.21875 
Q 25.25 66.21875 20.875 63.09375 
Q 16.5 59.96875 16.5 54.203125 
Q 16.5 49.359375 19.40625 46.890625 
Q 22.3125 44.4375 30.421875 42.921875 
L 36.375 41.703125 
Q 47.40625 39.59375 52.65625 34.296875 
Q 57.90625 29 57.90625 20.125 
Q 57.90625 9.515625 50.796875 4.046875 
Q 43.703125 -1.421875 29.984375 -1.421875 
Q 24.8125 -1.421875 18.96875 -0.25 
Q 13.140625 0.921875 6.890625 3.21875 
L 6.890625 13.375 
Q 12.890625 10.015625 18.65625 8.296875 
Q 24.421875 6.59375 29.984375 6.59375 
Q 38.421875 6.59375 43.015625 9.90625 
Q 47.609375 13.234375 47.609375 19.390625 
Q 47.609375 24.75 44.3125 27.78125 
Q 41.015625 30.8125 33.5 32.328125 
L 27.484375 33.5 
Q 16.453125 35.6875 11.515625 40.375 
Q 6.59375 45.0625 6.59375 53.421875 
Q 6.59375 63.09375 13.40625 68.65625 
Q 20.21875 74.21875 32.171875 74.21875 
Q 37.3125 74.21875 42.625 73.28125 
Q 47.953125 72.359375 53.515625 70.515625 
z
" id="DejaVuSans-83"/>
       <path d="M 9.8125 72.90625 
L 19.671875 72.90625 
L 19.671875 0 
L 9.8125 0 
z
" id="DejaVuSans-73"/>
       <path d="M 9.8125 72.90625 
L 24.515625 72.90625 
L 43.109375 23.296875 
L 61.8125 72.90625 
L 76.515625 72.90625 
L 76.515625 0 
L 66.890625 0 
L 66.890625 64.015625 
L 48.09375 14.015625 
L 38.1875 14.015625 
L 19.390625 64.015625 
L 19.390625 0 
L 9.8125 0 
z
" id="DejaVuSans-77"/>
       <path d="M 50.984375 -16.609375 
L 50.984375 -23.578125 
L -0.984375 -23.578125 
L -0.984375 -16.609375 
z
" id="DejaVuSans-95"/>
       <path d="M 18.3125 70.21875 
L 18.3125 54.6875 
L 36.8125 54.6875 
L 36.8125 47.703125 
L 18.3125 47.703125 
L 18.3125 18.015625 
Q 18.3125 11.328125 20.140625 9.421875 
Q 21.96875 7.515625 27.59375 7.515625 
L 36.8125 7.515625 
L 36.8125 0 
L 27.59375 0 
Q 17.1875 0 13.234375 3.875 
Q 9.28125 7.765625 9.28125 18.015625 
L 9.28125 47.703125 
L 2.6875 47.703125 
L 2.6875 54.6875 
L 9.28125 54.6875 
L 9.28125 70.21875 
z
" id="DejaVuSans-116"/>
       <path d="M 41.109375 46.296875 
Q 39.59375 47.171875 37.8125 47.578125 
Q 36.03125 48 33.890625 48 
Q 26.265625 48 22.1875 43.046875 
Q 18.109375 38.09375 18.109375 28.8125 
L 18.109375 0 
L 9.078125 0 
L 9.078125 54.6875 
L 18.109375 54.6875 
L 18.109375 46.1875 
Q 20.953125 51.171875 25.484375 53.578125 
Q 30.03125 56 36.53125 56 
Q 37.453125 56 38.578125 55.875 
Q 39.703125 55.765625 41.0625 55.515625 
z
" id="DejaVuSans-114"/>
       <path d="M 34.28125 27.484375 
Q 23.390625 27.484375 19.1875 25 
Q 14.984375 22.515625 14.984375 16.5 
Q 14.984375 11.71875 18.140625 8.90625 
Q 21.296875 6.109375 26.703125 6.109375 
Q 34.1875 6.109375 38.703125 11.40625 
Q 43.21875 16.703125 43.21875 25.484375 
L 43.21875 27.484375 
z
M 52.203125 31.203125 
L 52.203125 0 
L 43.21875 0 
L 43.21875 8.296875 
Q 40.140625 3.328125 35.546875 0.953125 
Q 30.953125 -1.421875 24.3125 -1.421875 
Q 15.921875 -1.421875 10.953125 3.296875 
Q 6 8.015625 6 15.921875 
Q 6 25.140625 12.171875 29.828125 
Q 18.359375 34.515625 30.609375 34.515625 
L 43.21875 34.515625 
L 43.21875 35.40625 
Q 43.21875 41.609375 39.140625 45 
Q 35.0625 48.390625 27.6875 48.390625 
Q 23 48.390625 18.546875 47.265625 
Q 14.109375 46.140625 10.015625 43.890625 
L 10.015625 52.203125 
Q 14.9375 54.109375 19.578125 55.046875 
Q 24.21875 56 28.609375 56 
Q 40.484375 56 46.34375 49.84375 
Q 52.203125 43.703125 52.203125 31.203125 
z
" id="DejaVuSans-97"/>
       <path d="M 9.421875 54.6875 
L 18.40625 54.6875 
L 18.40625 0 
L 9.421875 0 
z
M 9.421875 75.984375 
L 18.40625 75.984375 
L 18.40625 64.59375 
L 9.421875 64.59375 
z
" id="DejaVuSans-105"/>
       <path d="M 54.890625 33.015625 
L 54.890625 0 
L 45.90625 0 
L 45.90625 32.71875 
Q 45.90625 40.484375 42.875 44.328125 
Q 39.84375 48.1875 33.796875 48.1875 
Q 26.515625 48.1875 22.3125 43.546875 
Q 18.109375 38.921875 18.109375 30.90625 
L 18.109375 0 
L 9.078125 0 
L 9.078125 54.6875 
L 18.109375 54.6875 
L 18.109375 46.1875 
Q 21.34375 51.125 25.703125 53.5625 
Q 30.078125 56 35.796875 56 
Q 45.21875 56 50.046875 50.171875 
Q 54.890625 44.34375 54.890625 33.015625 
z
" id="DejaVuSans-110"/>
      </defs>
      <use xlink:href="#DejaVuSans-83"/>
      <use x="63.476562" xlink:href="#DejaVuSans-73"/>
      <use x="92.96875" xlink:href="#DejaVuSans-77"/>
      <use x="179.248047" xlink:href="#DejaVuSans-95"/>
      <use x="229.248047" xlink:href="#DejaVuSans-116"/>
      <use x="268.457031" xlink:href="#DejaVuSans-114"/>
      <use x="309.570312" xlink:href="#DejaVuSans-97"/>
      <use x="370.849609" xlink:href="#DejaVuSans-105"/>
      <use x="398.632812" xlink:href="#DejaVuSans-110"/>
     </g>
    </g>
    <g id="line2d_18">
     <path d="M 121.5 71.254687 
L 141.5 71.254687 
" style="fill:none;stroke:#0000ff;stroke-linecap:square;stroke-width:1.5;"/>
    </g>
    <g id="line2d_19"/>
    <g id="text_13">
     <!-- SIM_train_projection -->
     <g transform="translate(149.5 74.754687)scale(0.1 -0.1)">
      <defs>
       <path d="M 18.109375 8.203125 
L 18.109375 -20.796875 
L 9.078125 -20.796875 
L 9.078125 54.6875 
L 18.109375 54.6875 
L 18.109375 46.390625 
Q 20.953125 51.265625 25.265625 53.625 
Q 29.59375 56 35.59375 56 
Q 45.5625 56 51.78125 48.09375 
Q 58.015625 40.1875 58.015625 27.296875 
Q 58.015625 14.40625 51.78125 6.484375 
Q 45.5625 -1.421875 35.59375 -1.421875 
Q 29.59375 -1.421875 25.265625 0.953125 
Q 20.953125 3.328125 18.109375 8.203125 
z
M 48.6875 27.296875 
Q 48.6875 37.203125 44.609375 42.84375 
Q 40.53125 48.484375 33.40625 48.484375 
Q 26.265625 48.484375 22.1875 42.84375 
Q 18.109375 37.203125 18.109375 27.296875 
Q 18.109375 17.390625 22.1875 11.75 
Q 26.265625 6.109375 33.40625 6.109375 
Q 40.53125 6.109375 44.609375 11.75 
Q 48.6875 17.390625 48.6875 27.296875 
z
" id="DejaVuSans-112"/>
       <path d="M 30.609375 48.390625 
Q 23.390625 48.390625 19.1875 42.75 
Q 14.984375 37.109375 14.984375 27.296875 
Q 14.984375 17.484375 19.15625 11.84375 
Q 23.34375 6.203125 30.609375 6.203125 
Q 37.796875 6.203125 41.984375 11.859375 
Q 46.1875 17.53125 46.1875 27.296875 
Q 46.1875 37.015625 41.984375 42.703125 
Q 37.796875 48.390625 30.609375 48.390625 
z
M 30.609375 56 
Q 42.328125 56 49.015625 48.375 
Q 55.71875 40.765625 55.71875 27.296875 
Q 55.71875 13.875 49.015625 6.21875 
Q 42.328125 -1.421875 30.609375 -1.421875 
Q 18.84375 -1.421875 12.171875 6.21875 
Q 5.515625 13.875 5.515625 27.296875 
Q 5.515625 40.765625 12.171875 48.375 
Q 18.84375 56 30.609375 56 
z
" id="DejaVuSans-111"/>
       <path d="M 9.421875 54.6875 
L 18.40625 54.6875 
L 18.40625 -0.984375 
Q 18.40625 -11.421875 14.421875 -16.109375 
Q 10.453125 -20.796875 1.609375 -20.796875 
L -1.8125 -20.796875 
L -1.8125 -13.1875 
L 0.59375 -13.1875 
Q 5.71875 -13.1875 7.5625 -10.8125 
Q 9.421875 -8.453125 9.421875 -0.984375 
z
M 9.421875 75.984375 
L 18.40625 75.984375 
L 18.40625 64.59375 
L 9.421875 64.59375 
z
" id="DejaVuSans-106"/>
       <path d="M 56.203125 29.59375 
L 56.203125 25.203125 
L 14.890625 25.203125 
Q 15.484375 15.921875 20.484375 11.0625 
Q 25.484375 6.203125 34.421875 6.203125 
Q 39.59375 6.203125 44.453125 7.46875 
Q 49.3125 8.734375 54.109375 11.28125 
L 54.109375 2.78125 
Q 49.265625 0.734375 44.1875 -0.34375 
Q 39.109375 -1.421875 33.890625 -1.421875 
Q 20.796875 -1.421875 13.15625 6.1875 
Q 5.515625 13.8125 5.515625 26.8125 
Q 5.515625 40.234375 12.765625 48.109375 
Q 20.015625 56 32.328125 56 
Q 43.359375 56 49.78125 48.890625 
Q 56.203125 41.796875 56.203125 29.59375 
z
M 47.21875 32.234375 
Q 47.125 39.59375 43.09375 43.984375 
Q 39.0625 48.390625 32.421875 48.390625 
Q 24.90625 48.390625 20.390625 44.140625 
Q 15.875 39.890625 15.1875 32.171875 
z
" id="DejaVuSans-101"/>
       <path d="M 48.78125 52.59375 
L 48.78125 44.1875 
Q 44.96875 46.296875 41.140625 47.34375 
Q 37.3125 48.390625 33.40625 48.390625 
Q 24.65625 48.390625 19.8125 42.84375 
Q 14.984375 37.3125 14.984375 27.296875 
Q 14.984375 17.28125 19.8125 11.734375 
Q 24.65625 6.203125 33.40625 6.203125 
Q 37.3125 6.203125 41.140625 7.25 
Q 44.96875 8.296875 48.78125 10.40625 
L 48.78125 2.09375 
Q 45.015625 0.34375 40.984375 -0.53125 
Q 36.96875 -1.421875 32.421875 -1.421875 
Q 20.0625 -1.421875 12.78125 6.34375 
Q 5.515625 14.109375 5.515625 27.296875 
Q 5.515625 40.671875 12.859375 48.328125 
Q 20.21875 56 33.015625 56 
Q 37.15625 56 41.109375 55.140625 
Q 45.0625 54.296875 48.78125 52.59375 
z
" id="DejaVuSans-99"/>
      </defs>
      <use xlink:href="#DejaVuSans-83"/>
      <use x="63.476562" xlink:href="#DejaVuSans-73"/>
      <use x="92.96875" xlink:href="#DejaVuSans-77"/>
      <use x="179.248047" xlink:href="#DejaVuSans-95"/>
      <use x="229.248047" xlink:href="#DejaVuSans-116"/>
      <use x="268.457031" xlink:href="#DejaVuSans-114"/>
      <use x="309.570312" xlink:href="#DejaVuSans-97"/>
      <use x="370.849609" xlink:href="#DejaVuSans-105"/>
      <use x="398.632812" xlink:href="#DejaVuSans-110"/>
      <use x="462.011719" xlink:href="#DejaVuSans-95"/>
      <use x="512.011719" xlink:href="#DejaVuSans-112"/>
      <use x="575.488281" xlink:href="#DejaVuSans-114"/>
      <use x="614.351562" xlink:href="#DejaVuSans-111"/>
      <use x="675.533203" xlink:href="#DejaVuSans-106"/>
      <use x="703.316406" xlink:href="#DejaVuSans-101"/>
      <use x="764.839844" xlink:href="#DejaVuSans-99"/>
      <use x="819.820312" xlink:href="#DejaVuSans-116"/>
      <use x="859.029297" xlink:href="#DejaVuSans-105"/>
      <use x="886.8125" xlink:href="#DejaVuSans-111"/>
      <use x="947.994141" xlink:href="#DejaVuSans-110"/>
     </g>
    </g>
    <g id="line2d_20">
     <path d="M 121.5 86.210938 
L 141.5 86.210938 
" style="fill:none;stroke:#008000;stroke-linecap:square;stroke-width:1.5;"/>
    </g>
    <g id="line2d_21">
     <g>
      <use style="fill:#008000;stroke:#008000;stroke-linejoin:miter;" x="131.5" xlink:href="#m609c04d054" y="86.210938"/>
     </g>
    </g>
    <g id="text_14">
     <!-- RF_train -->
     <g transform="translate(149.5 89.710938)scale(0.1 -0.1)">
      <defs>
       <path d="M 44.390625 34.1875 
Q 47.5625 33.109375 50.5625 29.59375 
Q 53.5625 26.078125 56.59375 19.921875 
L 66.609375 0 
L 56 0 
L 46.6875 18.703125 
Q 43.0625 26.03125 39.671875 28.421875 
Q 36.28125 30.8125 30.421875 30.8125 
L 19.671875 30.8125 
L 19.671875 0 
L 9.8125 0 
L 9.8125 72.90625 
L 32.078125 72.90625 
Q 44.578125 72.90625 50.734375 67.671875 
Q 56.890625 62.453125 56.890625 51.90625 
Q 56.890625 45.015625 53.6875 40.46875 
Q 50.484375 35.9375 44.390625 34.1875 
z
M 19.671875 64.796875 
L 19.671875 38.921875 
L 32.078125 38.921875 
Q 39.203125 38.921875 42.84375 42.21875 
Q 46.484375 45.515625 46.484375 51.90625 
Q 46.484375 58.296875 42.84375 61.546875 
Q 39.203125 64.796875 32.078125 64.796875 
z
" id="DejaVuSans-82"/>
       <path d="M 9.8125 72.90625 
L 51.703125 72.90625 
L 51.703125 64.59375 
L 19.671875 64.59375 
L 19.671875 43.109375 
L 48.578125 43.109375 
L 48.578125 34.8125 
L 19.671875 34.8125 
L 19.671875 0 
L 9.8125 0 
z
" id="DejaVuSans-70"/>
      </defs>
      <use xlink:href="#DejaVuSans-82"/>
      <use x="69.482422" xlink:href="#DejaVuSans-70"/>
      <use x="127.001953" xlink:href="#DejaVuSans-95"/>
      <use x="177.001953" xlink:href="#DejaVuSans-116"/>
      <use x="216.210938" xlink:href="#DejaVuSans-114"/>
      <use x="257.324219" xlink:href="#DejaVuSans-97"/>
      <use x="318.603516" xlink:href="#DejaVuSans-105"/>
      <use x="346.386719" xlink:href="#DejaVuSans-110"/>
     </g>
    </g>
    <g id="line2d_22">
     <path d="M 121.5 101.167187 
L 141.5 101.167187 
" style="fill:none;stroke:#008000;stroke-linecap:square;stroke-width:1.5;"/>
    </g>
    <g id="line2d_23"/>
    <g id="text_15">
     <!-- RF_train_projection -->
     <g transform="translate(149.5 104.667187)scale(0.1 -0.1)">
      <use xlink:href="#DejaVuSans-82"/>
      <use x="69.482422" xlink:href="#DejaVuSans-70"/>
      <use x="127.001953" xlink:href="#DejaVuSans-95"/>
      <use x="177.001953" xlink:href="#DejaVuSans-116"/>
      <use x="216.210938" xlink:href="#DejaVuSans-114"/>
      <use x="257.324219" xlink:href="#DejaVuSans-97"/>
      <use x="318.603516" xlink:href="#DejaVuSans-105"/>
      <use x="346.386719" xlink:href="#DejaVuSans-110"/>
      <use x="409.765625" xlink:href="#DejaVuSans-95"/>
      <use x="459.765625" xlink:href="#DejaVuSans-112"/>
      <use x="523.242188" xlink:href="#DejaVuSans-114"/>
      <use x="562.105469" xlink:href="#DejaVuSans-111"/>
      <use x="623.287109" xlink:href="#DejaVuSans-106"/>
      <use x="651.070312" xlink:href="#DejaVuSans-101"/>
      <use x="712.59375" xlink:href="#DejaVuSans-99"/>
      <use x="767.574219" xlink:href="#DejaVuSans-116"/>
      <use x="806.783203" xlink:href="#DejaVuSans-105"/>
      <use x="834.566406" xlink:href="#DejaVuSans-111"/>
      <use x="895.748047" xlink:href="#DejaVuSans-110"/>
     </g>
    </g>
   </g>
  </g>
 </g>
 <defs>
  <clipPath id="p6dd32af563">
   <rect height="271.8" width="697.5" x="112.5" y="43.2"/>
  </clipPath>
 </defs>
</svg>
